<svg width="149" height="36" viewBox="0 0 149 36" fill="none" xmlns="http://www.w3.org/2000/svg">
<path d="M30.2241 27H28.0082L34.4173 9.54545H36.5991L43.0082 27H40.7923L35.5763 12.3068H35.44L30.2241 27ZM31.0423 20.1818H39.9741V22.0568H31.0423V20.1818ZM54.5181 13.9091L49.6772 27H47.6317L42.7908 13.9091H44.9727L48.5863 24.3409H48.7227L52.3363 13.9091H54.5181ZM60.6268 27.3068C59.7972 27.3068 59.0444 27.1506 58.3683 26.8381C57.6921 26.5199 57.1552 26.0625 56.7575 25.4659C56.3597 24.8636 56.1609 24.1364 56.1609 23.2841C56.1609 22.5341 56.3086 21.9261 56.604 21.4602C56.8995 20.9886 57.2944 20.6193 57.7887 20.3523C58.283 20.0852 58.8285 19.8864 59.4251 19.7557C60.0273 19.6193 60.6325 19.5114 61.2404 19.4318C62.0359 19.3295 62.6808 19.2528 63.1751 19.2017C63.6751 19.1449 64.0387 19.0511 64.266 18.9205C64.4989 18.7898 64.6154 18.5625 64.6154 18.2386V18.1705C64.6154 17.3295 64.3853 16.6761 63.9251 16.2102C63.4705 15.7443 62.7802 15.5114 61.854 15.5114C60.8938 15.5114 60.141 15.7216 59.5955 16.142C59.0501 16.5625 58.6665 17.0114 58.445 17.4886L56.5359 16.8068C56.8768 16.0114 57.3313 15.392 57.8995 14.9489C58.4734 14.5 59.0984 14.1875 59.7745 14.0114C60.4563 13.8295 61.1268 13.7386 61.7859 13.7386C62.2063 13.7386 62.6893 13.7898 63.2347 13.892C63.7859 13.9886 64.3171 14.1903 64.8285 14.4972C65.3455 14.804 65.7745 15.267 66.1154 15.8864C66.4563 16.5057 66.6268 17.3352 66.6268 18.375V27H64.6154V25.2273H64.5131C64.3768 25.5114 64.1495 25.8153 63.8313 26.1392C63.5131 26.4631 63.0898 26.7386 62.5614 26.9659C62.033 27.1932 61.3881 27.3068 60.6268 27.3068ZM60.9336 25.5C61.729 25.5 62.3995 25.3438 62.945 25.0312C63.4961 24.7188 63.9109 24.3153 64.1893 23.821C64.4734 23.3267 64.6154 22.8068 64.6154 22.2614V20.4205C64.5302 20.5227 64.3427 20.6165 64.0529 20.7017C63.7688 20.7812 63.4393 20.8523 63.0643 20.9148C62.695 20.9716 62.3342 21.0227 61.9819 21.0682C61.6353 21.108 61.354 21.142 61.1381 21.1705C60.6154 21.2386 60.1268 21.3494 59.6722 21.5028C59.2234 21.6506 58.8597 21.875 58.5813 22.1761C58.3086 22.4716 58.1722 22.875 58.1722 23.3864C58.1722 24.0852 58.4308 24.6136 58.9478 24.9716C59.4705 25.3239 60.1325 25.5 60.9336 25.5ZM72.3093 9.54545V27H70.2979V9.54545H72.3093ZM75.9933 27V13.9091H78.0046V27H75.9933ZM77.016 11.7273C76.6239 11.7273 76.2859 11.5938 76.0018 11.3267C75.7234 11.0597 75.5842 10.7386 75.5842 10.3636C75.5842 9.98864 75.7234 9.66761 76.0018 9.40057C76.2859 9.13352 76.6239 9 77.016 9C77.408 9 77.7433 9.13352 78.0217 9.40057C78.3058 9.66761 78.4478 9.98864 78.4478 10.3636C78.4478 10.7386 78.3058 11.0597 78.0217 11.3267C77.7433 11.5938 77.408 11.7273 77.016 11.7273ZM85.5408 27.3068C84.7113 27.3068 83.9585 27.1506 83.2823 26.8381C82.6062 26.5199 82.0692 26.0625 81.6715 25.4659C81.2738 24.8636 81.0749 24.1364 81.0749 23.2841C81.0749 22.5341 81.2227 21.9261 81.5181 21.4602C81.8136 20.9886 82.2085 20.6193 82.7028 20.3523C83.1971 20.0852 83.7425 19.8864 84.3391 19.7557C84.9414 19.6193 85.5465 19.5114 86.1545 19.4318C86.9499 19.3295 87.5948 19.2528 88.0891 19.2017C88.5891 19.1449 88.9528 19.0511 89.18 18.9205C89.413 18.7898 89.5295 18.5625 89.5295 18.2386V18.1705C89.5295 17.3295 89.2994 16.6761 88.8391 16.2102C88.3846 15.7443 87.6942 15.5114 86.7681 15.5114C85.8079 15.5114 85.055 15.7216 84.5096 16.142C83.9641 16.5625 83.5806 17.0114 83.359 17.4886L81.4499 16.8068C81.7908 16.0114 82.2454 15.392 82.8136 14.9489C83.3874 14.5 84.0124 14.1875 84.6886 14.0114C85.3704 13.8295 86.0408 13.7386 86.6999 13.7386C87.1204 13.7386 87.6033 13.7898 88.1488 13.892C88.6999 13.9886 89.2312 14.1903 89.7425 14.4972C90.2596 14.804 90.6886 15.267 91.0295 15.8864C91.3704 16.5057 91.5408 17.3352 91.5408 18.375V27H89.5295V25.2273H89.4272C89.2908 25.5114 89.0636 25.8153 88.7454 26.1392C88.4272 26.4631 88.0039 26.7386 87.4755 26.9659C86.9471 27.1932 86.3022 27.3068 85.5408 27.3068ZM85.8477 25.5C86.6431 25.5 87.3136 25.3438 87.859 25.0312C88.4102 24.7188 88.8249 24.3153 89.1033 23.821C89.3874 23.3267 89.5295 22.8068 89.5295 22.2614V20.4205C89.4442 20.5227 89.2567 20.6165 88.967 20.7017C88.6829 20.7812 88.3533 20.8523 87.9783 20.9148C87.609 20.9716 87.2482 21.0227 86.896 21.0682C86.5494 21.108 86.2681 21.142 86.0522 21.1705C85.5295 21.2386 85.0408 21.3494 84.5863 21.5028C84.1374 21.6506 83.7738 21.875 83.4954 22.1761C83.2227 22.4716 83.0863 22.875 83.0863 23.3864C83.0863 24.0852 83.3448 24.6136 83.8619 24.9716C84.3846 25.3239 85.0465 25.5 85.8477 25.5ZM100.53 27.2727C99.3029 27.2727 98.2461 26.983 97.3597 26.4034C96.4734 25.8239 95.7915 25.0256 95.3143 24.0085C94.837 22.9915 94.5984 21.8295 94.5984 20.5227C94.5984 19.1932 94.8427 18.0199 95.3313 17.0028C95.8256 15.9801 96.5131 15.1818 97.3938 14.608C98.2802 14.0284 99.3143 13.7386 100.496 13.7386C101.417 13.7386 102.246 13.9091 102.985 14.25C103.723 14.5909 104.328 15.0682 104.8 15.6818C105.272 16.2955 105.564 17.0114 105.678 17.8295H103.667C103.513 17.233 103.172 16.7045 102.644 16.2443C102.121 15.7784 101.417 15.5455 100.53 15.5455C99.7461 15.5455 99.0586 15.75 98.4677 16.1591C97.8825 16.5625 97.4251 17.1335 97.0955 17.8722C96.7717 18.6051 96.6097 19.4659 96.6097 20.4545C96.6097 21.4659 96.7688 22.3466 97.087 23.0966C97.4109 23.8466 97.8654 24.429 98.4506 24.8438C99.0415 25.2585 99.7347 25.4659 100.53 25.4659C101.053 25.4659 101.527 25.375 101.953 25.1932C102.38 25.0114 102.74 24.75 103.036 24.4091C103.331 24.0682 103.542 23.6591 103.667 23.1818H105.678C105.564 23.9545 105.283 24.6506 104.834 25.2699C104.391 25.8835 103.803 26.3722 103.07 26.7358C102.343 27.0938 101.496 27.2727 100.53 27.2727ZM99.5756 26.9318H101.246L101.11 27.6136C101.553 27.6818 101.959 27.8665 102.328 28.1676C102.698 28.4744 102.882 28.9602 102.882 29.625C102.882 30.358 102.578 30.9545 101.971 31.4148C101.368 31.8807 100.479 32.1136 99.3029 32.1136L99.2347 30.7841C99.7631 30.7841 100.201 30.6989 100.547 30.5284C100.9 30.3636 101.076 30.0852 101.076 29.6932C101.076 29.3011 100.931 29.0341 100.641 28.892C100.351 28.75 99.8825 28.6534 99.2347 28.6023L99.5756 26.9318ZM113.936 27.2727C112.755 27.2727 111.718 26.9915 110.826 26.429C109.939 25.8665 109.246 25.0795 108.746 24.0682C108.252 23.0568 108.005 21.875 108.005 20.5227C108.005 19.1591 108.252 17.9687 108.746 16.9517C109.246 15.9347 109.939 15.1449 110.826 14.5824C111.718 14.0199 112.755 13.7386 113.936 13.7386C115.118 13.7386 116.152 14.0199 117.039 14.5824C117.931 15.1449 118.624 15.9347 119.118 16.9517C119.618 17.9687 119.868 19.1591 119.868 20.5227C119.868 21.875 119.618 23.0568 119.118 24.0682C118.624 25.0795 117.931 25.8665 117.039 26.429C116.152 26.9915 115.118 27.2727 113.936 27.2727ZM113.936 25.4659C114.834 25.4659 115.573 25.2358 116.152 24.7756C116.732 24.3153 117.161 23.7102 117.439 22.9602C117.718 22.2102 117.857 21.3977 117.857 20.5227C117.857 19.6477 117.718 18.8324 117.439 18.0767C117.161 17.321 116.732 16.7102 116.152 16.2443C115.573 15.7784 114.834 15.5455 113.936 15.5455C113.039 15.5455 112.3 15.7784 111.721 16.2443C111.141 16.7102 110.712 17.321 110.434 18.0767C110.155 18.8324 110.016 19.6477 110.016 20.5227C110.016 21.3977 110.155 22.2102 110.434 22.9602C110.712 23.7102 111.141 24.3153 111.721 24.7756C112.3 25.2358 113.039 25.4659 113.936 25.4659ZM111.311 12.3409L109.743 12.2727C109.743 11.4034 109.99 10.6932 110.485 10.142C110.985 9.58523 111.601 9.30682 112.334 9.30682C112.658 9.30682 112.945 9.36364 113.195 9.47727C113.445 9.58523 113.684 9.71023 113.911 9.85227C114.138 9.99432 114.371 10.1222 114.61 10.2358C114.854 10.3437 115.13 10.3977 115.436 10.3977C115.76 10.3977 116.033 10.2727 116.255 10.0227C116.482 9.76705 116.596 9.46023 116.596 9.10227L118.13 9.23864C118.13 10.125 117.88 10.8295 117.38 11.3523C116.885 11.875 116.272 12.1364 115.539 12.1364C115.147 12.1364 114.823 12.0824 114.567 11.9744C114.311 11.8608 114.084 11.733 113.885 11.5909C113.686 11.4489 113.476 11.3239 113.255 11.2159C113.033 11.1023 112.76 11.0455 112.436 11.0455C112.113 11.0455 111.843 11.1733 111.627 11.429C111.417 11.679 111.311 11.983 111.311 12.3409ZM128.427 27.2727C127.166 27.2727 126.078 26.9943 125.163 26.4375C124.254 25.875 123.552 25.0909 123.058 24.0852C122.569 23.0739 122.325 21.8977 122.325 20.5568C122.325 19.2159 122.569 18.0341 123.058 17.0114C123.552 15.983 124.24 15.1818 125.12 14.608C126.007 14.0284 127.041 13.7386 128.223 13.7386C128.904 13.7386 129.578 13.8523 130.243 14.0795C130.907 14.3068 131.512 14.6761 132.058 15.1875C132.603 15.6932 133.038 16.3636 133.362 17.1989C133.686 18.0341 133.848 19.0625 133.848 20.2841V21.1364H123.757V19.3977H131.802C131.802 18.6591 131.654 18 131.359 17.4205C131.069 16.8409 130.654 16.3835 130.115 16.0483C129.581 15.7131 128.95 15.5455 128.223 15.5455C127.422 15.5455 126.728 15.7443 126.143 16.142C125.564 16.5341 125.118 17.0455 124.805 17.6761C124.493 18.3068 124.336 18.983 124.336 19.7045V20.8636C124.336 21.8523 124.507 22.6903 124.848 23.3778C125.194 24.0597 125.674 24.5795 126.288 24.9375C126.902 25.2898 127.615 25.4659 128.427 25.4659C128.956 25.4659 129.433 25.392 129.859 25.2443C130.291 25.0909 130.663 24.8636 130.975 24.5625C131.288 24.2557 131.529 23.875 131.7 23.4205L133.643 23.9659C133.439 24.625 133.095 25.2045 132.612 25.7045C132.129 26.1989 131.532 26.5852 130.822 26.8636C130.112 27.1364 129.314 27.2727 128.427 27.2727ZM146.18 16.8409L144.373 17.3523C144.26 17.0511 144.092 16.7585 143.87 16.4744C143.654 16.1847 143.359 15.946 142.984 15.7585C142.609 15.571 142.129 15.4773 141.544 15.4773C140.743 15.4773 140.075 15.6619 139.541 16.0312C139.012 16.3949 138.748 16.858 138.748 17.4205C138.748 17.9205 138.93 18.3153 139.294 18.6051C139.657 18.8949 140.225 19.1364 140.998 19.3295L142.941 19.8068C144.112 20.0909 144.984 20.5256 145.558 21.1108C146.132 21.6903 146.419 22.4375 146.419 23.3523C146.419 24.1023 146.203 24.7727 145.771 25.3636C145.345 25.9545 144.748 26.4205 143.981 26.7614C143.214 27.1023 142.322 27.2727 141.305 27.2727C139.97 27.2727 138.865 26.983 137.99 26.4034C137.115 25.8239 136.561 24.9773 136.328 23.8636L138.237 23.3864C138.419 24.0909 138.762 24.6193 139.268 24.9716C139.779 25.3239 140.447 25.5 141.271 25.5C142.208 25.5 142.953 25.3011 143.504 24.9034C144.061 24.5 144.339 24.017 144.339 23.4545C144.339 23 144.18 22.6193 143.862 22.3125C143.544 22 143.055 21.767 142.396 21.6136L140.214 21.1023C139.015 20.8182 138.135 20.3778 137.572 19.7812C137.015 19.179 136.737 18.4261 136.737 17.5227C136.737 16.7841 136.944 16.1307 137.359 15.5625C137.779 14.9943 138.35 14.5483 139.072 14.2244C139.799 13.9006 140.623 13.7386 141.544 13.7386C142.839 13.7386 143.856 14.0227 144.595 14.5909C145.339 15.1591 145.868 15.9091 146.18 16.8409Z" fill="#686868"/>
<path d="M9.99 9C4.47 9 0 13.48 0 19C0 24.52 4.47 29 9.99 29C15.52 29 20 24.52 20 19C20 13.48 15.52 9 9.99 9ZM14.23 25L10 22.45L5.77 25L6.89 20.19L3.16 16.96L8.08 16.54L10 12L11.92 16.53L16.84 16.95L13.11 20.18L14.23 25Z" fill="#686868"/>
</svg>
