<?xml version="1.0" encoding="UTF-8"?>
<svg version="1.1" xmlns="http://www.w3.org/2000/svg" width="512" height="512">
<path d="M0 0 C12.62497976 6.54228418 23.70286401 15.22187288 34.53637695 24.36547852 C35.54442383 25.18790039 36.5524707 26.01032227 37.59106445 26.85766602 C38.69928298 27.77519108 39.80599442 28.69453878 40.91137695 29.61547852 C41.49113281 30.09291504 42.07088867 30.57035156 42.66821289 31.06225586 C46.52348928 34.34097556 49.87718286 37.82933659 53.18481445 41.66235352 C65.41420391 55.54565416 73.74173017 59.75614721 92.01196289 61.01049805 C98.33120797 61.64697507 104.43725915 63.17825879 110.59887695 64.67797852 C111.85676025 64.97945801 113.11464355 65.2809375 114.41064453 65.59155273 C143.39691247 72.63816598 143.39691247 72.63816598 156.1809082 77.43188477 C157.07600098 77.76575195 157.97109375 78.09961914 158.89331055 78.44360352 C160.54524081 79.0737438 162.18874942 79.72672231 163.82006836 80.40844727 C169.98648376 82.79181043 174.26629986 82.1630757 180.53637695 80.36547852 C181.55062744 80.08631592 182.56487793 79.80715332 183.60986328 79.51953125 C185.86195263 78.88877283 188.11121287 78.24784748 190.35791016 77.59814453 C212.39983643 71.22710366 234.76242981 66.21724182 257.78637695 66.11547852 C258.93750977 66.09485352 260.08864258 66.07422852 261.2746582 66.05297852 C273.47760684 65.99794831 284.11240289 67.92937197 293.47387695 76.04516602 C299.74299068 82.34040105 301.07815154 89.63048262 301.91137695 98.24047852 C300.59404348 123.90213451 284.50574905 150.02133243 268.35668945 169.20141602 C267.84283691 169.81871582 267.32898438 170.43601563 266.79956055 171.07202148 C265.82071345 172.23217166 264.8219868 173.37595669 263.80053711 174.4987793 C261.98129296 176.64759187 260.58278716 178.47613208 260.43286133 181.34912109 C260.67532551 183.40206533 261.05845717 185.35522199 261.53637695 187.36547852 C261.70137695 188.3180957 261.86637695 189.27071289 262.03637695 190.25219727 C262.20137695 191.17645508 262.36637695 192.10071289 262.53637695 193.05297852 C269.23529367 237.10343089 256.96228086 286.44196582 231.84887695 323.26000977 C214.22360461 346.92908326 190.89134391 363.00649239 161.66137695 368.67797852 C150.74888661 370.1654135 139.52143148 369.52537742 128.53637695 369.36547852 C129.02106445 370.09508789 129.50575195 370.82469727 130.00512695 371.57641602 C144.32665165 393.88494488 155.36713422 422.45948957 149.8527832 449.34985352 C147.97207081 455.99867906 145.29461221 461.34289685 140.53637695 466.36547852 C140.02333008 466.91848633 139.5102832 467.47149414 138.98168945 468.04125977 C130.52699256 476.19255844 120.51954243 476.90589419 109.31738281 476.85131836 C95.96231591 476.50332445 82.72125858 474.39205613 69.53637695 472.36547852 C69.37782227 473.35547852 69.21926758 474.34547852 69.0559082 475.36547852 C67.16055951 486.41025583 64.31004046 493.26587866 55.8918457 500.82250977 C50.05036842 504.64901645 44.33496654 505.81160537 37.45300293 505.74642944 C36.29352953 505.7534494 36.29352953 505.7534494 35.11063242 505.76061118 C32.5420819 505.77249742 29.97407126 505.76312922 27.40551758 505.75366211 C25.55526927 505.75773065 23.7050234 505.76307411 21.8547821 505.76959229 C16.844487 505.78323806 11.83437776 505.77797853 6.82407951 505.76845503 C1.57342921 505.76084426 -3.6772055 505.76790798 -8.92785645 505.77261353 C-17.74433236 505.77806694 -26.56073281 505.77089031 -35.37719727 505.7565918 C-45.56103803 505.74026611 -55.74469859 505.7455549 -65.92853498 505.76207101 C-74.6820554 505.77569765 -83.43552165 505.77759977 -92.18904924 505.76975501 C-97.41282129 505.76508498 -102.63650871 505.76443522 -107.86027527 505.77436447 C-112.77201433 505.78304897 -117.68352171 505.77698506 -122.59523582 505.7596817 C-124.39471744 505.75572479 -126.19421865 505.75683724 -127.9936924 505.7634697 C-130.45613859 505.77170693 -132.91784928 505.76133789 -135.38024902 505.74642944 C-136.44019333 505.75646769 -136.44019333 505.75646769 -137.52155066 505.76670873 C-146.73760237 505.65899424 -152.6981975 502.02768479 -159.2565918 495.84204102 C-165.7194509 488.5899124 -166.61428519 480.24461564 -166.60406494 470.85908508 C-166.60703606 470.00432262 -166.61000719 469.14956016 -166.61306834 468.2688958 C-166.6217376 465.40565367 -166.6232621 462.54245343 -166.62475586 459.67919922 C-166.62938531 457.62574678 -166.63441014 455.57229519 -166.63980103 453.5188446 C-166.65291533 447.94013509 -166.65936817 442.3614376 -166.66381168 436.78271508 C-166.66674415 433.29589378 -166.6708493 429.80907574 -166.67531586 426.32225609 C-166.68898862 415.40860138 -166.6986562 404.49495418 -166.70251775 393.5812915 C-166.70699721 380.99103145 -166.72454091 368.40088005 -166.75351834 355.81065303 C-166.77514923 346.07374389 -166.78522279 336.33686528 -166.78655887 326.59993237 C-166.78760594 320.78694461 -166.79349299 314.974059 -166.81137848 309.16109657 C-166.82788326 303.69047403 -166.8300029 298.22003016 -166.82123947 292.74939156 C-166.82047037 290.745949 -166.82479496 288.74249675 -166.83469772 286.73907852 C-166.95301443 261.30268388 -166.95301443 261.30268388 -157.46362305 251.36547852 C-149.97425269 244.63849916 -143.48908779 243.04664412 -133.58862305 243.24047852 C-132.70948242 243.24950195 -131.8303418 243.25852539 -130.92456055 243.26782227 C-128.77079594 243.29123275 -126.6171729 243.32709842 -124.46362305 243.36547852 C-124.44944336 242.67583008 -124.43526367 241.98618164 -124.4206543 241.27563477 C-123.95943439 232.18835597 -121.47254749 225.93609646 -114.83862305 219.61547852 C-109.2835299 215.08480369 -102.71141018 211.36547852 -95.46362305 211.36547852 C-95.48320068 210.78209717 -95.50277832 210.19871582 -95.52294922 209.59765625 C-95.65056153 202.72212095 -94.90019442 196.20301529 -93.77612305 189.42797852 C-93.59678223 188.33694824 -93.41744141 187.24591797 -93.23266602 186.12182617 C-90.63962741 170.93021951 -86.84599298 156.420663 -80.46362305 142.36547852 C-80.16584961 141.70950684 -79.86807617 141.05353516 -79.5612793 140.37768555 C-73.51868679 127.28644649 -66.21266729 115.7205705 -56.01831055 105.38891602 C-53.59378972 100.6738931 -54.6510216 96.47462328 -55.46362305 91.36547852 C-55.58866211 90.54740723 -55.71370117 89.72933594 -55.8425293 88.88647461 C-56.0976424 87.25647464 -56.35674644 85.62709539 -56.61938477 83.99829102 C-58.35220635 72.78175563 -58.79392361 61.69054106 -58.83862305 50.36547852 C-58.84620636 49.63216309 -58.85378967 48.89884766 -58.86160278 48.14331055 C-59.006702 30.83798797 -57.14983728 12.33304024 -44.46362305 -0.63452148 C-30.78744601 -11.16819461 -14.31900251 -7.14742476 0 0 Z " fill="#B0B8C5" transform="translate(188.463623046875,6.634521484375)"/>
<path d="M0 0 C12.62497976 6.54228418 23.70286401 15.22187288 34.53637695 24.36547852 C35.54442383 25.18790039 36.5524707 26.01032227 37.59106445 26.85766602 C38.69928298 27.77519108 39.80599442 28.69453878 40.91137695 29.61547852 C41.49113281 30.09291504 42.07088867 30.57035156 42.66821289 31.06225586 C46.52348928 34.34097556 49.87718286 37.82933659 53.18481445 41.66235352 C65.41420391 55.54565416 73.74173017 59.75614721 92.01196289 61.01049805 C98.33120797 61.64697507 104.43725915 63.17825879 110.59887695 64.67797852 C111.85676025 64.97945801 113.11464355 65.2809375 114.41064453 65.59155273 C143.39691247 72.63816598 143.39691247 72.63816598 156.1809082 77.43188477 C157.07600098 77.76575195 157.97109375 78.09961914 158.89331055 78.44360352 C160.54524081 79.0737438 162.18874942 79.72672231 163.82006836 80.40844727 C169.98648376 82.79181043 174.26629986 82.1630757 180.53637695 80.36547852 C181.55062744 80.08631592 182.56487793 79.80715332 183.60986328 79.51953125 C185.86195263 78.88877283 188.11121287 78.24784748 190.35791016 77.59814453 C212.39983643 71.22710366 234.76242981 66.21724182 257.78637695 66.11547852 C258.93750977 66.09485352 260.08864258 66.07422852 261.2746582 66.05297852 C273.47760684 65.99794831 284.11240289 67.92937197 293.47387695 76.04516602 C299.74299068 82.34040105 301.07815154 89.63048262 301.91137695 98.24047852 C300.59404348 123.90213451 284.50574905 150.02133243 268.35668945 169.20141602 C267.84283691 169.81871582 267.32898438 170.43601563 266.79956055 171.07202148 C265.82071345 172.23217166 264.8219868 173.37595669 263.80053711 174.4987793 C261.98129296 176.64759187 260.58278716 178.47613208 260.43286133 181.34912109 C260.67532551 183.40206533 261.05845717 185.35522199 261.53637695 187.36547852 C261.70137695 188.3180957 261.86637695 189.27071289 262.03637695 190.25219727 C262.20137695 191.17645508 262.36637695 192.10071289 262.53637695 193.05297852 C269.23529367 237.10343089 256.96228086 286.44196582 231.84887695 323.26000977 C214.22360461 346.92908326 190.89134391 363.00649239 161.66137695 368.67797852 C150.74888661 370.1654135 139.52143148 369.52537742 128.53637695 369.36547852 C129.02106445 370.09508789 129.50575195 370.82469727 130.00512695 371.57641602 C144.32665165 393.88494488 155.36713422 422.45948957 149.8527832 449.34985352 C147.97207081 455.99867906 145.29461221 461.34289685 140.53637695 466.36547852 C140.02333008 466.91848633 139.5102832 467.47149414 138.98168945 468.04125977 C130.52699256 476.19255844 120.51954243 476.90589419 109.31738281 476.85131836 C95.96231591 476.50332445 82.72125858 474.39205613 69.53637695 472.36547852 C69.37782227 473.35547852 69.21926758 474.34547852 69.0559082 475.36547852 C67.16055951 486.41025583 64.31004046 493.26587866 55.8918457 500.82250977 C50.05036842 504.64901645 44.33496654 505.81160537 37.45300293 505.74642944 C36.29352953 505.7534494 36.29352953 505.7534494 35.11063242 505.76061118 C32.5420819 505.77249742 29.97407126 505.76312922 27.40551758 505.75366211 C25.55526927 505.75773065 23.7050234 505.76307411 21.8547821 505.76959229 C16.844487 505.78323806 11.83437776 505.77797853 6.82407951 505.76845503 C1.57342921 505.76084426 -3.6772055 505.76790798 -8.92785645 505.77261353 C-17.74433236 505.77806694 -26.56073281 505.77089031 -35.37719727 505.7565918 C-45.56103803 505.74026611 -55.74469859 505.7455549 -65.92853498 505.76207101 C-74.6820554 505.77569765 -83.43552165 505.77759977 -92.18904924 505.76975501 C-97.41282129 505.76508498 -102.63650871 505.76443522 -107.86027527 505.77436447 C-112.77201433 505.78304897 -117.68352171 505.77698506 -122.59523582 505.7596817 C-124.39471744 505.75572479 -126.19421865 505.75683724 -127.9936924 505.7634697 C-130.45613859 505.77170693 -132.91784928 505.76133789 -135.38024902 505.74642944 C-136.44019333 505.75646769 -136.44019333 505.75646769 -137.52155066 505.76670873 C-146.73760237 505.65899424 -152.6981975 502.02768479 -159.2565918 495.84204102 C-165.7194509 488.5899124 -166.61428519 480.24461564 -166.60406494 470.85908508 C-166.60703606 470.00432262 -166.61000719 469.14956016 -166.61306834 468.2688958 C-166.6217376 465.40565367 -166.6232621 462.54245343 -166.62475586 459.67919922 C-166.62938531 457.62574678 -166.63441014 455.57229519 -166.63980103 453.5188446 C-166.65291533 447.94013509 -166.65936817 442.3614376 -166.66381168 436.78271508 C-166.66674415 433.29589378 -166.6708493 429.80907574 -166.67531586 426.32225609 C-166.68898862 415.40860138 -166.6986562 404.49495418 -166.70251775 393.5812915 C-166.70699721 380.99103145 -166.72454091 368.40088005 -166.75351834 355.81065303 C-166.77514923 346.07374389 -166.78522279 336.33686528 -166.78655887 326.59993237 C-166.78760594 320.78694461 -166.79349299 314.974059 -166.81137848 309.16109657 C-166.82788326 303.69047403 -166.8300029 298.22003016 -166.82123947 292.74939156 C-166.82047037 290.745949 -166.82479496 288.74249675 -166.83469772 286.73907852 C-166.95301443 261.30268388 -166.95301443 261.30268388 -157.46362305 251.36547852 C-149.97425269 244.63849916 -143.48908779 243.04664412 -133.58862305 243.24047852 C-132.70948242 243.24950195 -131.8303418 243.25852539 -130.92456055 243.26782227 C-128.77079594 243.29123275 -126.6171729 243.32709842 -124.46362305 243.36547852 C-124.44944336 242.67583008 -124.43526367 241.98618164 -124.4206543 241.27563477 C-123.95943439 232.18835597 -121.47254749 225.93609646 -114.83862305 219.61547852 C-109.2835299 215.08480369 -102.71141018 211.36547852 -95.46362305 211.36547852 C-95.48320068 210.78209717 -95.50277832 210.19871582 -95.52294922 209.59765625 C-95.65056153 202.72212095 -94.90019442 196.20301529 -93.77612305 189.42797852 C-93.59678223 188.33694824 -93.41744141 187.24591797 -93.23266602 186.12182617 C-90.63962741 170.93021951 -86.84599298 156.420663 -80.46362305 142.36547852 C-80.16584961 141.70950684 -79.86807617 141.05353516 -79.5612793 140.37768555 C-73.51868679 127.28644649 -66.21266729 115.7205705 -56.01831055 105.38891602 C-53.59378972 100.6738931 -54.6510216 96.47462328 -55.46362305 91.36547852 C-55.58866211 90.54740723 -55.71370117 89.72933594 -55.8425293 88.88647461 C-56.0976424 87.25647464 -56.35674644 85.62709539 -56.61938477 83.99829102 C-58.35220635 72.78175563 -58.79392361 61.69054106 -58.83862305 50.36547852 C-58.84620636 49.63216309 -58.85378967 48.89884766 -58.86160278 48.14331055 C-59.006702 30.83798797 -57.14983728 12.33304024 -44.46362305 -0.63452148 C-30.78744601 -11.16819461 -14.31900251 -7.14742476 0 0 Z M-39.58862305 11.80297852 C-47.57461001 23.05881841 -47.66195266 37.54536672 -47.65112305 50.80297852 C-47.65031738 51.84341309 -47.64951172 52.88384766 -47.64868164 53.95581055 C-47.54769536 66.91175575 -46.36511228 79.72327541 -43.46362305 92.36547852 C-38.75479217 90.31561433 -34.82252879 87.01563959 -30.7722168 83.91040039 C-27.07756525 81.18148748 -24.22007121 79.48334968 -19.46362305 79.36547852 C-17.46362305 81.36547852 -17.46362305 81.36547852 -16.86987305 84.15454102 C-17.53554103 87.75440343 -17.80422442 88.00382203 -20.61987305 90.01391602 C-22.05882887 90.93689203 -23.50752971 91.84478282 -24.96362305 92.74047852 C-57.85316908 114.48660686 -73.46848541 148.38095141 -81.73901367 185.7565918 C-83.31035206 193.58257698 -84.61708962 201.36791434 -84.46362305 209.36547852 C-83.3034668 209.36805664 -82.14331055 209.37063477 -80.94799805 209.37329102 C-70.20770579 209.56796169 -60.64474408 210.38175855 -52.5065918 218.26000977 C-47.63425788 224.27040708 -45.5105209 230.48575356 -44.8894043 238.12719727 C-44.80730713 239.11034912 -44.72520996 240.09350098 -44.640625 241.10644531 C-44.58221436 241.85192627 -44.52380371 242.59740723 -44.46362305 243.36547852 C-43.38779968 243.36690353 -42.31197632 243.36832855 -41.20355225 243.36979675 C-31.02351365 243.38652671 -20.84387172 243.42948277 -10.66404343 243.49756908 C-5.43148918 243.53173821 -0.19922379 243.55693335 5.03344727 243.56103516 C10.09119401 243.56533976 15.14829025 243.59398083 20.20583344 243.63891029 C22.12730865 243.65181648 24.04886198 243.65621761 25.97037506 243.65163231 C49.11503659 243.60929864 49.11503659 243.60929864 58.01715088 251.58927917 C65.95236575 259.78931529 66.98216781 266.95909559 66.96875 278.00195312 C66.98403748 279.89080231 66.98403748 279.89080231 66.99963379 281.81781006 C67.02710683 285.25325969 67.03647498 288.6885438 67.04248786 292.124089 C67.05189695 295.72094013 67.07810229 299.31766886 67.10249329 302.91444397 C67.14609251 309.71759378 67.17467975 316.52071974 67.19781667 323.32396656 C67.22490372 331.07254066 67.26881299 338.82099122 67.31410539 346.56947696 C67.40685738 362.50141389 67.47858122 378.4333741 67.53637695 394.36547852 C68.63885269 394.77435806 69.74132843 395.18323761 70.87721252 395.60450745 C72.33598205 396.14786711 73.79471529 396.69132419 75.25341797 397.23486328 C75.97860878 397.50352455 76.70379959 397.77218582 77.45096588 398.04898834 C87.68554573 401.86867162 97.31981291 406.79288034 105.7277832 413.84985352 C107.67433977 415.5419946 107.67433977 415.5419946 110.59887695 417.36547852 C112.53637695 419.36547852 112.53637695 419.36547852 112.84887695 423.11547852 C112.69418945 424.72422852 112.69418945 424.72422852 112.53637695 426.36547852 C109.72577101 427.40418071 108.44052468 427.82236975 105.53637695 427.36547852 C103.4074707 425.74438477 103.4074707 425.74438477 101.09887695 423.49047852 C85.27171774 408.09431607 62.23804098 400.93722714 40.55688477 400.99658203 C33.80082126 401.18612629 29.65865034 402.39121357 24.8059082 407.01391602 C18.85035997 413.49287347 18.06852966 419.2364395 18.23168945 427.92016602 C18.80507022 434.40377931 21.21452939 438.34420448 25.78637695 442.86547852 C44.26951548 457.90669181 70.10402476 461.39056695 92.97387695 464.11547852 C94.5530188 464.30702515 94.5530188 464.30702515 96.1640625 464.50244141 C114.2926598 466.53104262 114.2926598 466.53104262 130.84887695 460.17797852 C138.11292555 452.5760672 139.90225856 443.30598186 139.7199707 433.07641602 C138.63448457 411.1357389 129.11373701 391.65510575 117.53637695 373.36547852 C117.28243164 372.76727295 117.02848633 372.16906738 116.7668457 371.55273438 C115.57890106 369.22543734 114.62504839 367.9675595 112.53637695 366.36547852 C107.39648144 364.94673946 102.20341117 364.50530441 96.91137695 364.05297852 C94.76362717 363.84383524 92.61715314 363.62572825 90.47109985 363.39985657 C88.53014303 363.19953586 86.58673013 363.02345298 84.64331055 362.84863281 C81.53637695 362.36547852 81.53637695 362.36547852 78.53637695 360.36547852 C78.22387695 357.36547852 78.22387695 357.36547852 78.53637695 354.36547852 C79.19637695 353.70547852 79.85637695 353.04547852 80.53637695 352.36547852 C83.40604125 352.49714195 86.13375875 352.74445531 88.97387695 353.11547852 C89.78993408 353.21401123 90.60599121 353.31254395 91.44677734 353.4140625 C96.63182406 354.05968942 101.75395071 354.9002522 106.88354492 355.89550781 C129.31938524 359.87019883 158.62902474 361.11866313 179.53637695 351.36547852 C180.2845166 351.02806641 181.03265625 350.6906543 181.8034668 350.34301758 C191.39952587 345.9196913 199.75344495 340.56909842 207.53637695 333.36547852 C208.70040039 332.32133789 208.70040039 332.32133789 209.88793945 331.25610352 C224.28313311 317.70186619 232.21954932 299.37766895 239.53637695 281.36547852 C240.02879883 280.1937207 240.5212207 279.02196289 241.02856445 277.81469727 C244.38426704 269.57580147 246.74552168 261.19366893 248.84887695 252.55297852 C249.23076172 250.9967981 249.23076172 250.9967981 249.62036133 249.40917969 C256.78960838 218.77139266 253.25393734 185.21964488 238.07666016 157.57739258 C236.17430986 154.05008908 234.88407981 151.40247305 235.53637695 147.36547852 C237.53637695 145.36547852 237.53637695 145.36547852 239.9777832 144.97485352 C242.53637695 145.36547852 242.53637695 145.36547852 244.1262207 147.13110352 C244.57094727 147.95094727 245.01567383 148.77079102 245.47387695 149.61547852 C245.97016602 150.51524414 246.46645508 151.41500977 246.9777832 152.34204102 C249.54727695 157.3264725 252.09104899 162.31873783 254.53637695 167.36547852 C258.5699395 163.57857267 261.69590861 159.56944458 264.78637695 154.99047852 C265.26236328 154.28858398 265.73834961 153.58668945 266.22875977 152.86352539 C274.32103398 140.82498537 281.05809319 128.81079546 286.53637695 115.36547852 C286.90891602 114.51211914 287.28145508 113.65875977 287.6652832 112.77954102 C290.24453077 105.63167108 291.14728802 96.14551836 288.70043945 88.88500977 C285.34892437 82.89052138 280.71203944 80.6699045 274.3605957 78.68579102 C247.18970188 72.01864732 213.38035672 82.11366432 187.53637695 90.36547852 C188.89936953 94.45445625 191.64494439 95.55635713 195.16137695 97.67797852 C206.19204792 104.61330447 206.19204792 104.61330447 209.53637695 108.36547852 C209.47387695 112.24047852 209.47387695 112.24047852 208.53637695 115.36547852 C203.26970981 115.85270323 201.123157 114.76727472 197.09887695 111.42797852 C185.07763526 101.91872271 172.3561646 95.59593707 158.00390625 90.28076172 C156.3772302 89.67737708 154.75602048 89.05901501 153.14111328 88.42480469 C145.01121865 85.30718519 136.65736234 83.13888068 128.24023438 80.95605469 C125.73763314 80.30654869 123.23748984 79.64818772 120.73754883 78.98852539 C108.35071862 75.73844037 95.93636542 72.79053399 83.28637695 70.74047852 C82.51753174 70.61568115 81.74868652 70.49088379 80.95654297 70.36230469 C65.99837606 67.97665991 51.35220689 67.57021008 36.33300781 69.65380859 C32.03136358 70.2458844 27.8771876 70.45567718 23.53637695 70.36547852 C23.41137695 66.99047852 23.41137695 66.99047852 23.53637695 63.36547852 C26.31260219 60.58925327 28.47565019 60.77765821 32.34887695 60.30297852 C33.01089111 60.22063965 33.67290527 60.13830078 34.35498047 60.0534668 C40.73198714 59.28588525 47.12702839 58.77619562 53.53637695 58.36547852 C49.48464057 53.44922329 45.20735076 48.94510956 40.53637695 44.61547852 C39.88628662 44.01131104 39.23619629 43.40714355 38.56640625 42.78466797 C32.68484524 37.38547038 26.53587169 32.4147151 20.16674805 27.60620117 C18.61439072 26.42484748 17.08444766 25.21421086 15.5559082 24.00219727 C3.63750245 14.68943487 -12.43939626 3.191268 -28.2487793 3.99047852 C-33.36352676 4.8564675 -36.36241055 8.00696232 -39.58862305 11.80297852 Z " fill="#67838E" transform="translate(188.463623046875,6.634521484375)"/>
<path d="M0 0 C69.63 0 139.26 0 211 0 C211 28.05 211 56.1 211 85 C203.41 85 195.82 85 188 85 C176.38194624 89.35677016 169.99502568 93.56098666 164.1875 104.375 C161.18015292 113.22420521 161.60149669 125.44309316 165.67578125 133.86328125 C174.87200344 148.70202326 190.98391954 156.10022363 207.33203125 160.2734375 C210 161 210 161 211 162 C211.90792792 169.72313369 211.55793212 175.63699268 207.09375 182.09765625 C198.96416141 189.48405484 189.63876475 188.58217406 179.34399414 188.54931641 C177.54462338 188.55801869 175.74526002 188.56838768 173.94590759 188.58029175 C169.0739476 188.60700679 164.20229852 188.60823659 159.33027959 188.60316515 C155.25724824 188.60102151 151.18427926 188.61080309 147.11126131 188.62037599 C137.49998911 188.64254338 127.88887326 188.64345376 118.27758789 188.63134766 C108.37421728 188.6192652 98.47141475 188.64390205 88.56814104 188.68648779 C80.05322311 188.72175208 71.53848576 188.73371758 63.02349752 188.72721231 C57.94320717 188.72359173 52.86332221 188.72880731 47.78309822 188.75664139 C43.00492897 188.78184269 38.22764379 188.77786981 33.44948769 188.75181961 C31.7004084 188.74709863 29.95126646 188.75251995 28.20225906 188.76906586 C12.35170968 188.90815318 12.35170968 188.90815318 5.73410702 183.96991539 C1.06126712 178.66165059 -0.5012588 174.56337632 -0.48101807 167.51454163 C-0.48444214 166.79566269 -0.48786621 166.07678375 -0.49139404 165.33612061 C-0.49797658 162.93729053 -0.47598723 160.53959585 -0.45410156 158.14086914 C-0.45287538 156.3878632 -0.45341162 154.63485529 -0.45556259 152.88185024 C-0.45646371 148.19760192 -0.43332151 143.51376434 -0.40512085 138.82961273 C-0.38230004 134.43030029 -0.38126617 130.03108652 -0.37841797 125.63171387 C-0.35744888 112.77525508 -0.30160405 99.91887232 -0.25 87.0625 C-0.1675 58.331875 -0.085 29.60125 0 0 Z " fill="#FEFEFE" transform="translate(34,313)"/>
<path d="M0 0 C1.39025391 0.01353516 1.39025391 0.01353516 2.80859375 0.02734375 C5.08100077 0.05077063 7.3528618 0.08357252 9.625 0.125 C9.84414062 1.03121094 10.06328125 1.93742188 10.2890625 2.87109375 C13.46003128 15.05225431 18.2631498 23.59220758 28.625 31.125 C39.09716068 36.93167884 49.29565629 37.50066864 60.875 34.5 C66.76806172 32.65030552 71.19707391 30.42848789 75.625 26.125 C76.43517578 25.33802734 76.43517578 25.33802734 77.26171875 24.53515625 C82.604349 18.8157158 86.04769291 12.07371953 87.69238281 4.44873047 C87.86827942 3.63886688 88.04417603 2.8290033 88.22540283 1.99459839 C88.42320343 1.06914719 88.42320343 1.06914719 88.625 0.125 C99.89141487 0.00872473 111.15768504 -0.07990807 122.42457962 -0.13406086 C127.65729341 -0.16006249 132.88959416 -0.19528686 138.12207031 -0.25219727 C143.17957318 -0.30685516 148.23668085 -0.33649135 153.29445648 -0.34938622 C155.21603356 -0.3585658 157.13759105 -0.37649034 159.05899811 -0.40365028 C171.419189 -0.5712868 182.82445851 -0.45512765 192.5625 8.3125 C199.64349769 16.60048018 201.35866429 24.28731124 201.19262695 35.01025391 C201.19372215 36.88512985 201.19372215 36.88512985 201.19483948 38.79788208 C201.19197152 42.19448646 201.16705903 45.589534 201.13196969 48.98586321 C201.10051737 52.54654803 201.09776071 56.10725799 201.09184265 59.6680603 C201.07635916 66.39695797 201.03540629 73.12544498 200.9850952 79.85416257 C200.92902939 87.52045398 200.90167214 95.18676595 200.87661803 102.85321164 C200.8244846 118.61071148 200.73665082 134.36780259 200.625 150.125 C196.87712088 149.62047781 193.29863066 149.04340767 189.625 148.125 C189.625 120.075 189.625 92.025 189.625 63.125 C119.995 63.125 50.365 63.125 -21.375 63.125 C-21.313125 91.835 -21.25125 120.545 -21.1875 150.125 C-21.18081299 159.18839844 -21.17412598 168.25179687 -21.16723633 177.58984375 C-21.13735871 185.71815386 -21.13735871 185.71815386 -21.10087585 193.84643555 C-21.08480989 197.46533464 -21.08268852 201.08395293 -21.08903503 204.70288086 C-21.09667856 209.32271951 -21.08040017 213.94189908 -21.04698312 218.5616169 C-21.03877514 220.25475681 -21.03888893 221.94796297 -21.04839098 223.64109612 C-21.30891132 234.64528912 -21.30891132 234.64528912 -17.12916088 244.58106995 C-11.92719576 249.15959543 -7.45865669 250.72159556 -0.60169983 250.63293457 C0.15001025 250.63917453 0.90172033 250.6454145 1.67620951 250.65184355 C4.17891475 250.66771653 6.68063826 250.65519227 9.18334961 250.64257812 C10.98419256 250.64800184 12.78503107 250.6551259 14.58586121 250.66381836 C19.46610453 250.68202625 24.34600893 250.67499428 29.22625804 250.66230202 C34.33945156 250.65215968 39.45261647 250.66157127 44.56581116 250.66784668 C53.15289507 250.67512014 61.7398413 250.66554395 70.3269043 250.64648438 C80.24550162 250.62472318 90.16376993 250.63176279 100.08235925 250.65379 C108.60657497 250.67196082 117.13069181 250.67449387 125.65492064 250.66403532 C130.74235744 250.65780876 135.82963978 250.65694159 140.91706657 250.67018127 C145.70164267 250.68176337 150.48579603 250.67367094 155.27032661 250.65060425 C157.02304 250.64532946 158.77578915 250.64680982 160.52848816 250.65565491 C174.00139196 250.92823636 174.00139196 250.92823636 185.46484375 244.44140625 C189.28537092 238.33672048 189.50616339 232.21198339 189.625 225.125 C191.43832154 225.43269707 193.25064345 225.74629064 195.0625 226.0625 C196.07183594 226.23652344 197.08117187 226.41054688 198.12109375 226.58984375 C200.625 227.125 200.625 227.125 201.625 228.125 C202.26310024 236.89887836 200.29088864 245.23405435 194.625 252.125 C188.84379956 258.09933631 183.11214792 261.69216275 174.71128082 262.50252342 C173.32149033 262.51876688 171.93144907 262.51911331 170.54162598 262.50595093 C169.76864371 262.5106309 168.99566144 262.51531087 168.19925547 262.52013266 C165.63070495 262.5320189 163.06269431 262.52265071 160.49414062 262.51318359 C158.64389232 262.51725213 156.79364645 262.5225956 154.94340515 262.52911377 C149.93311004 262.54275955 144.92300081 262.53750001 139.91270256 262.52797651 C134.66205226 262.52036574 129.41141755 262.52742946 124.1607666 262.53213501 C115.34429069 262.53758843 106.52789023 262.53041179 97.71142578 262.51611328 C87.52758502 262.49978759 77.34392446 262.50507639 67.16008806 262.5215925 C58.40656765 262.53521914 49.6531014 262.53712126 40.8995738 262.52927649 C35.67580176 262.52460646 30.45211434 262.5239567 25.22834778 262.53388596 C20.31660871 262.54257046 15.40510134 262.53650655 10.49338722 262.51920319 C8.69390561 262.51524628 6.89440439 262.51635872 5.09493065 262.52299118 C2.63248446 262.53122842 0.17077377 262.52085937 -2.29162598 262.50595093 C-2.99825552 262.51264309 -3.70488505 262.51933526 -4.43292761 262.52623022 C-13.64897932 262.41851572 -19.60957446 258.78720627 -26.16796875 252.6015625 C-32.63082785 245.34943388 -33.52566215 237.00413713 -33.51544189 227.61860657 C-33.51841302 226.76384411 -33.52138414 225.90908164 -33.5244453 225.02841729 C-33.53311455 222.16517515 -33.53463905 219.30197492 -33.53613281 216.4387207 C-33.54076226 214.38526826 -33.5457871 212.33181667 -33.55117798 210.27836609 C-33.56429228 204.69965657 -33.57074512 199.12095909 -33.57518864 193.54223657 C-33.5781211 190.05541526 -33.58222626 186.56859723 -33.58669281 183.08177757 C-33.60036558 172.16812287 -33.61003315 161.25447566 -33.6138947 150.34081298 C-33.61837416 137.75055294 -33.63591786 125.16040153 -33.6648953 112.57017452 C-33.68652618 102.83326537 -33.69659975 93.09638677 -33.69793582 83.35945386 C-33.69898289 77.5464661 -33.70486994 71.73358048 -33.72275543 65.92061806 C-33.73926021 60.44999551 -33.74137985 54.97955164 -33.73261642 49.50891304 C-33.73184733 47.50547049 -33.73617191 45.50201823 -33.74607468 43.49860001 C-33.86439138 18.06220536 -33.86439138 18.06220536 -24.375 8.125 C-16.71443153 1.24424988 -10.10985434 -0.1874866 0 0 Z " fill="#6EB851" transform="translate(55.375,249.875)"/>
<path d="M0 0 C3.5 -0.375 3.5 -0.375 7 0 C9.13586678 3.20380017 9.23132175 4.01939967 9.125 7.6875 C9.10695313 8.49574219 9.08890625 9.30398438 9.0703125 10.13671875 C9.04710937 10.75160156 9.02390625 11.36648438 9 12 C10.2375 12.04125 11.475 12.0825 12.75 12.125 C24.61846347 13.503754 34.33853546 21.26480942 41.8125 30.15625 C49.82293703 41.2106531 50.55988616 52.00372543 50.14575195 65.27929688 C49.93989084 71.04064967 49.93989084 71.04064967 52.72460938 75.75830078 C54.81175386 77.09629086 54.81175386 77.09629086 56.98339844 78.03735352 C59.18332123 79.08751036 60.48976371 80.09041223 62 82 C61.69921875 84.6640625 61.69921875 84.6640625 61 88 C60.81878316 90.79171894 60.81498838 93.57806524 60.8125 96.375 C60.80025391 97.09171875 60.78800781 97.8084375 60.77539062 98.546875 C60.76150688 103.67460427 61.59178009 108.06844728 63 113 C61.82325192 114.11561831 60.63290733 115.21689898 59.4375 116.3125 C58.44556641 117.23482422 58.44556641 117.23482422 57.43359375 118.17578125 C51.49007084 122.63103839 46.2169332 123.42659417 39.0625 123.1875 C37.89364258 123.16719727 37.89364258 123.16719727 36.70117188 123.14648438 C34.80047596 123.11150224 32.90014166 123.05770959 31 123 C30.81824219 124.11568359 30.81824219 124.11568359 30.6328125 125.25390625 C28.98570956 132.40151963 23.9497652 137.94170945 18 142 C13.11419592 144.95831201 9.25576314 145.54950667 3.6875 145.5 C2.9342041 145.49355469 2.1809082 145.48710937 1.40478516 145.48046875 C-7.07315693 145.2020831 -12.06523608 142.27334774 -17.875 136.1875 C-21.11402596 132.51816866 -22.40593422 128.56742799 -24 124 C-25.79244141 123.97873047 -25.79244141 123.97873047 -27.62109375 123.95703125 C-37.51465876 123.71374686 -45.27457534 123.45823818 -52.7578125 116.32421875 C-58.96734121 109.55973216 -60.57914241 103.51307717 -60.33984375 94.41015625 C-59.55443932 86.52902902 -55.92943017 82.42510737 -50 77.4453125 C-48.06424299 76.0464256 -46.1432647 75.03981826 -44 74 C-43.9906543 73.30551758 -43.98130859 72.61103516 -43.97167969 71.89550781 C-43.65369966 53.10974638 -43.11235205 38.87087437 -29.7109375 24.5546875 C-21.60617322 16.75867614 -13.25889434 12.55371612 -2 12 C-2.02320313 11.38511719 -2.04640625 10.77023437 -2.0703125 10.13671875 C-2.08835938 9.32847656 -2.10640625 8.52023437 -2.125 7.6875 C-2.14820313 6.88699219 -2.17140625 6.08648437 -2.1953125 5.26171875 C-2 3 -2 3 0 0 Z " fill="#FFFE9C" transform="translate(136,334)"/>
<path d="M0 0 C3.58294638 3.12613447 5.06449564 6.72455754 7 11 C12.26042571 18.15740787 21.2619483 23.42542039 30 25 C40.48283082 25.98986483 51.75741401 24.410753 60.5 18.1875 C65.415254 13.99693089 69.22487029 9.66616063 72.08886719 3.86865234 C72.44728699 3.14511566 72.80570679 2.42157898 73.17498779 1.67611694 C73.44724182 1.12299835 73.71949585 0.56987976 74 0 C85.59630792 -0.09281592 97.19252697 -0.16382398 108.78913116 -0.20724869 C114.17433321 -0.2280939 119.55928049 -0.25635573 124.94433594 -0.30175781 C130.1444498 -0.34532461 135.34431911 -0.36916016 140.54460144 -0.37950897 C142.52528226 -0.38688088 144.5059502 -0.40127651 146.48652649 -0.42292023 C149.26800107 -0.45209818 152.04847431 -0.45594999 154.83007812 -0.45410156 C155.64288239 -0.46848267 156.45568665 -0.48286377 157.29312134 -0.49768066 C163.23964919 -0.45512028 167.00751442 0.67229075 172 4 C178 13 178 13 178 41 C108.37 41 38.74 41 -33 41 C-33 13 -33 13 -27 4 C-19.22503158 -1.15383118 -9.07946424 -2.47285336 0 0 Z " fill="#89D670" transform="translate(67,261)"/>
<path d="M0 0 C15.24973417 5.72662612 28.07992937 14.63302089 40.546875 24.96484375 C41.08521973 25.40554199 41.62356445 25.84624023 42.17822266 26.30029297 C48.8965529 31.80601666 55.36715611 37.55705981 61.734375 43.46484375 C62.38269287 44.06466064 63.03101074 44.66447754 63.69897461 45.2824707 C64.30233643 45.84796631 64.90569824 46.41346191 65.52734375 46.99609375 C66.06254639 47.49689453 66.59774902 47.99769531 67.14916992 48.51367188 C68.546875 49.96484375 68.546875 49.96484375 70.546875 52.96484375 C69.84602783 53.01495605 69.14518066 53.06506836 68.4230957 53.11669922 C65.23451704 53.34941137 62.04700561 53.59450056 58.859375 53.83984375 C57.75658203 53.91847656 56.65378906 53.99710938 55.51757812 54.078125 C54.45087891 54.16191406 53.38417969 54.24570313 52.28515625 54.33203125 C51.30587158 54.40534668 50.32658691 54.47866211 49.31762695 54.55419922 C46.42778287 54.98249402 44.15047574 55.64113634 41.546875 56.96484375 C41.28648437 57.774375 41.02609375 58.58390625 40.7578125 59.41796875 C39.546875 61.96484375 39.546875 61.96484375 35.8984375 63.44921875 C34.32721812 63.88684196 32.7512507 64.30763765 31.171875 64.71484375 C20.46209453 67.75403569 10.57925638 72.18569501 0.546875 76.96484375 C0.10843262 76.46976318 -0.33000977 75.97468262 -0.78173828 75.46459961 C-2.4190189 73.65907796 -2.4190189 73.65907796 -5.1953125 73.96875 C-9.3314439 75.23339449 -12.17527773 77.29349417 -15.578125 79.90234375 C-22.96487477 85.44632686 -22.96487477 85.44632686 -26.453125 86.96484375 C-30.48473676 65.56433858 -33.42961277 42.46702675 -28.453125 20.96484375 C-28.25847656 20.06894531 -28.06382812 19.17304688 -27.86328125 18.25 C-25.96046444 10.76258475 -22.3835559 5.62887184 -16.703125 0.46484375 C-10.83410509 -2.24393467 -6.14467698 -1.8420129 0 0 Z " fill="#B0B8C5" transform="translate(171.453125,12.03515625)"/>
<path d="M0 0 C4.35721869 4.29360966 5.31886654 8.47760726 5.4375 14.5 C5.21221961 19.54859126 4.7081684 24.23033173 3 29 C2.61972656 30.07507813 2.23945313 31.15015625 1.84765625 32.2578125 C-5.31841684 51.27470451 -16.6480855 67.9758947 -29 84 C-31.50186646 82.74906677 -31.71138551 81.8408621 -32.83984375 79.32421875 C-33.18080078 78.57849609 -33.52175781 77.83277344 -33.87304688 77.06445312 C-34.22431641 76.28005859 -34.57558594 75.49566406 -34.9375 74.6875 C-37.65066527 67.76345136 -37.65066527 67.76345136 -42 62 C-43.09828125 62.06703125 -44.1965625 62.1340625 -45.328125 62.203125 C-49 62 -49 62 -50.51367188 60.70898438 C-52.03329047 58.78048089 -53.40124094 56.80166603 -54.75 54.75 C-55.7798386 53.28011411 -56.81508881 51.81400622 -57.85546875 50.3515625 C-58.37415527 49.6184082 -58.8928418 48.88525391 -59.42724609 48.12988281 C-61.77907257 44.94495046 -64.36881407 42.02239479 -67.0625 39.125 C-67.94035156 38.17882812 -68.81820313 37.23265625 -69.72265625 36.2578125 C-71.98203152 33.87339079 -71.98203152 33.87339079 -75 32 C-74.896875 30.948125 -74.79375 29.89625 -74.6875 28.8125 C-75.02936711 24.64172121 -75.20926299 24.26950566 -78.125 21.625 C-82.62334146 18.04419029 -87.5134525 14.99759761 -92.42626953 12.02001953 C-93.9825947 11.06316148 -95.49600207 10.03716711 -97 9 C-97 8.34 -97 7.68 -97 7 C-21.71812629 -16.03577839 -21.71812629 -16.03577839 0 0 Z " fill="#B0B8C5" transform="translate(473,90)"/>
<path d="M0 0 C3.5 -0.375 3.5 -0.375 7 0 C9.13586678 3.20380017 9.23132175 4.01939967 9.125 7.6875 C9.10695313 8.49574219 9.08890625 9.30398438 9.0703125 10.13671875 C9.04710937 10.75160156 9.02390625 11.36648438 9 12 C10.2375 12.04125 11.475 12.0825 12.75 12.125 C24.61846347 13.503754 34.33853546 21.26480942 41.8125 30.15625 C49.82293703 41.2106531 50.55988616 52.00372543 50.14575195 65.27929688 C49.93989084 71.04064967 49.93989084 71.04064967 52.72460938 75.75830078 C54.81175386 77.09629086 54.81175386 77.09629086 56.98339844 78.03735352 C59.18332123 79.08751036 60.48976371 80.09041223 62 82 C61.69921875 84.6640625 61.69921875 84.6640625 61 88 C60.81878316 90.79171894 60.81498838 93.57806524 60.8125 96.375 C60.80025391 97.09171875 60.78800781 97.8084375 60.77539062 98.546875 C60.76150688 103.67460427 61.59178009 108.06844728 63 113 C61.82325192 114.11561831 60.63290733 115.21689898 59.4375 116.3125 C58.44556641 117.23482422 58.44556641 117.23482422 57.43359375 118.17578125 C51.49007084 122.63103839 46.2169332 123.42659417 39.0625 123.1875 C37.89364258 123.16719727 37.89364258 123.16719727 36.70117188 123.14648438 C34.80047596 123.11150224 32.90014166 123.05770959 31 123 C30.81824219 124.11568359 30.81824219 124.11568359 30.6328125 125.25390625 C28.98570956 132.40151963 23.9497652 137.94170945 18 142 C13.11419592 144.95831201 9.25576314 145.54950667 3.6875 145.5 C2.9342041 145.49355469 2.1809082 145.48710937 1.40478516 145.48046875 C-7.07315693 145.2020831 -12.06523608 142.27334774 -17.875 136.1875 C-21.11402596 132.51816866 -22.40593422 128.56742799 -24 124 C-25.79244141 123.97873047 -25.79244141 123.97873047 -27.62109375 123.95703125 C-37.51465876 123.71374686 -45.27457534 123.45823818 -52.7578125 116.32421875 C-58.96734121 109.55973216 -60.57914241 103.51307717 -60.33984375 94.41015625 C-59.55443932 86.52902902 -55.92943017 82.42510737 -50 77.4453125 C-48.06424299 76.0464256 -46.1432647 75.03981826 -44 74 C-43.9906543 73.30551758 -43.98130859 72.61103516 -43.97167969 71.89550781 C-43.65369966 53.10974638 -43.11235205 38.87087437 -29.7109375 24.5546875 C-21.60617322 16.75867614 -13.25889434 12.55371612 -2 12 C-2.02320313 11.38511719 -2.04640625 10.77023437 -2.0703125 10.13671875 C-2.08835938 9.32847656 -2.10640625 8.52023437 -2.125 7.6875 C-2.14820313 6.88699219 -2.17140625 6.08648437 -2.1953125 5.26171875 C-2 3 -2 3 0 0 Z M-23 33 C-28.84654931 40.69106295 -32.24143667 47.4843381 -32.23828125 57.26171875 C-32.25368335 58.64128608 -32.26998565 60.02084359 -32.28710938 61.40039062 C-32.30362709 63.55336324 -32.31244094 65.70561107 -32.30541992 67.85864258 C-32.3028063 69.95215544 -32.33083905 72.04349614 -32.36328125 74.13671875 C-32.36626221 75.38155029 -32.36924316 76.62638184 -32.37231445 77.90893555 C-33 81 -33 81 -35.38354492 82.87426758 C-37.06569774 83.59801552 -38.77156644 84.27004825 -40.5 84.875 C-44.27615421 86.5742694 -47.14123962 89.28247923 -49 93 C-49.80889711 99.51095871 -48.90069977 103.7287841 -45 109 C-40.75059056 112.35408079 -36.75285735 112.43389681 -31.54125977 112.40405273 C-30.70160675 112.41091599 -29.86195374 112.41777924 -28.99685669 112.42485046 C-26.22819997 112.44311427 -23.46011014 112.43928156 -20.69140625 112.43359375 C-18.76236283 112.4381558 -16.83332104 112.44346145 -14.90428162 112.44947815 C-10.86344801 112.45840847 -6.82281204 112.45598706 -2.78198242 112.44604492 C2.39096862 112.43455625 7.56323693 112.45476562 12.73609829 112.48396206 C16.71930764 112.5023268 20.70235348 112.50203103 24.68559456 112.49632454 C26.59253967 112.49617135 28.49949589 112.50221342 30.40640068 112.51461601 C33.07532185 112.52952916 35.74298293 112.5188469 38.41186523 112.50170898 C39.58799629 112.51621094 39.58799629 112.51621094 40.78788757 112.53100586 C45.95942638 112.46162809 48.89115999 111.40214606 53 108 C56.3064941 103.2606918 56.88537638 98.61409115 56 93 C53.4506219 87.49334331 50.56717507 86.0510645 45 84 C42.31274414 82.83813477 42.31274414 82.83813477 40 81 C39.40405273 77.97241211 39.40405273 77.97241211 39.43359375 74.27734375 C39.42795914 73.61722794 39.42232452 72.95711212 39.41651917 72.2769928 C39.40006393 70.1631098 39.41556401 68.05130958 39.4375 65.9375 C39.54896833 52.02011371 38.04912133 41.34643261 28 31 C19.63883587 23.99924466 11.11559468 21.35297288 0.2734375 21.65625 C-8.81439867 22.61058124 -16.62043806 26.46425293 -23 33 Z " fill="#FECC6C" transform="translate(136,334)"/>
<path d="M0 0 C3.90772745 3.04838924 7.12828464 5.67949074 8.1953125 10.7109375 C8.46815999 16.63172801 7.28748147 21.57011489 3.6875 26.31640625 C2.13055713 27.61476595 0.56757085 28.90589831 -1 30.19140625 C-5.04954106 33.96439329 -5.81832849 36.65214106 -6.03955078 41.9675293 C-6.05479411 43.56921381 -6.0649234 45.17095553 -6.06982422 46.77270508 C-6.12370512 53.03011733 -6.95829494 56.55715885 -11.3125 61.31640625 C-13.48046875 62 -13.48046875 62 -15.3125 62.31640625 C-15.59222656 61.73890625 -15.87195313 61.16140625 -16.16015625 60.56640625 C-16.56105469 59.82390625 -16.96195312 59.08140625 -17.375 58.31640625 C-17.75785156 57.57390625 -18.14070313 56.83140625 -18.53515625 56.06640625 C-19.41494141 55.20015625 -19.41494141 55.20015625 -20.3125 54.31640625 C-21.40949219 54.3834375 -22.50648438 54.45046875 -23.63671875 54.51953125 C-27.3125 54.31640625 -27.3125 54.31640625 -28.82641602 53.02539062 C-30.34581991 51.09682525 -31.71378682 49.1180025 -33.0625 47.06640625 C-34.0923386 45.59652036 -35.12758881 44.13041247 -36.16796875 42.66796875 C-36.68665527 41.93481445 -37.2053418 41.20166016 -37.73974609 40.44628906 C-40.09157257 37.26135671 -42.68131407 34.33880104 -45.375 31.44140625 C-46.25285156 30.49523437 -47.13070313 29.5490625 -48.03515625 28.57421875 C-50.29453152 26.18979704 -50.29453152 26.18979704 -53.3125 24.31640625 C-53.35570247 21.98347291 -53.35272391 19.64939285 -53.3125 17.31640625 C-54.24702295 15.13359451 -54.24702295 15.13359451 -55.3125 13.31640625 C-47.64675269 7.50321454 -39.1876567 3.85420456 -30.3125 0.31640625 C-29.40113281 -0.0496875 -28.48976563 -0.41578125 -27.55078125 -0.79296875 C-19.03976737 -3.77534056 -7.95558826 -4.92080567 0 0 Z " fill="#FEFEFE" transform="translate(451.3125,97.68359375)"/>
<path d="M0 0 C13.16798338 5.81965864 25.03316724 21.10208353 31.73046875 33.41015625 C31.73046875 34.73015625 31.73046875 36.05015625 31.73046875 37.41015625 C30.4125959 38.4304449 29.07836222 39.42987009 27.73046875 40.41015625 C27.59616455 41.07249268 27.46186035 41.7348291 27.32348633 42.41723633 C27.02994263 43.40373169 27.02994263 43.40373169 26.73046875 44.41015625 C23.93345675 45.50249867 21.30594182 46.33112882 18.41796875 47.09765625 C7.69994793 50.18059722 -2.21843417 54.62209186 -12.26953125 59.41015625 C-12.70394531 58.91257813 -13.13835937 58.415 -13.5859375 57.90234375 C-15.26164105 56.06918806 -15.26164105 56.06918806 -18.20703125 56.53515625 C-21.26034534 57.40753171 -22.78913774 58.52847842 -25.26953125 60.41015625 C-26.25953125 60.08015625 -27.24953125 59.75015625 -28.26953125 59.41015625 C-30.55941844 54.83038188 -29.48274986 49.4849508 -28.01953125 44.78515625 C-26.94890384 41.77916392 -25.92792801 39.93570731 -24.01953125 37.28515625 C-21.95106322 34.48103236 -21.95106322 34.48103236 -22.39453125 30.97265625 C-23.21547648 27.43785676 -23.21547648 27.43785676 -24.33203125 24.16015625 C-25.9049781 17.86836887 -26.45995878 11.92836834 -23.64453125 5.97265625 C-16.92428406 -1.27813677 -9.57239959 -2.48783535 0 0 Z " fill="#FEFEFE" transform="translate(184.26953125,29.58984375)"/>
<path d="M0 0 C7.53755041 1.02645504 14.87170255 2.60927946 22.25 4.4375 C23.08885742 4.64270264 23.92771484 4.84790527 24.79199219 5.05932617 C30.02200273 6.3792173 34.98300214 8.01747665 40 10 C37.34483749 30.66861794 28.36727959 55.78651349 11.4375 69 C8.32896852 70.27529497 6.33239055 70.48597362 3 70 C-1.91644534 67.42471911 -3.31159473 63.57869901 -5.203125 58.6328125 C-10.23909219 41.99437187 -8.13920073 17.27154826 -0.91943359 1.6640625 C-0.61602051 1.11492187 -0.31260742 0.56578125 0 0 Z " fill="#91A2B5" transform="translate(287,81)"/>
<path d="M0 0 C0.82951172 -0.020625 1.65902344 -0.04125 2.51367188 -0.0625 C8.63118187 -0.10112674 13.53859881 0.61270518 18.39453125 4.6796875 C23.73919382 11.66740888 24.55859164 17.61436315 23.6875 26.25 C21.58430296 34.37857235 17.80778214 40.36202888 10.75 45 C3.57287219 49.1411628 -3.05555654 50.3768534 -11.3125 49.25 C-20.01224274 46.29755108 -26.21874768 42.01916707 -30.5546875 33.93359375 C-33.19139665 28.12374152 -34.39121613 22.60121638 -33.3125 16.25 C-29.48863414 8.45519652 -23.47081643 5.00798942 -15.6796875 2.046875 C-10.35940247 0.25588796 -5.58273634 0.03422367 0 0 Z " fill="#B0B8C5" transform="translate(109.3125,226.75)"/>
<path d="M0 0 C16.72308157 -0.36843999 32.58869974 1.98690938 49 5 C48.34 5.33 47.68 5.66 47 6 C46.58092188 8.02554424 46.1631 10.0513531 45.75 12.078125 C41.82226551 27.37992394 33.73056903 45.29944141 20 54 C15.38426343 54.58612528 13.21240341 54.74397482 9.25 52.3125 C0.82928068 41.97927832 2.08942309 26.05792487 3.21386719 13.63769531 C3.67790991 9.40261769 4.28710322 5.20099886 5 1 C3.35 1 1.7 1 0 1 C0 0.67 0 0.34 0 0 Z " fill="#91A1B4" transform="translate(236,75)"/>
<path d="M0 0 C4.99780696 0.92821894 9.64455269 2.45775064 14.4375 4.125 C15.31825195 4.43123291 16.19900391 4.73746582 17.10644531 5.05297852 C24.7487317 7.78028301 31.87677504 11.11996521 39 15 C36.46295696 30.78604557 28.00299468 48.37778393 15 58 C11.74854029 59.62572985 8.502943 59.68037931 5 59 C-0.8176135 54.0873486 -2.64123413 47.12535027 -3.28735352 39.69580078 C-3.40251526 36.04251589 -3.40929995 32.40485024 -3.375 28.75 C-3.38660156 27.52925781 -3.39820313 26.30851562 -3.41015625 25.05078125 C-3.38237448 16.29952379 -2.14170634 8.47250572 0 0 Z " fill="#91A2B4" transform="translate(330,92)"/>
<path d="M0 0 C15.78132972 3.3223852 15.78132972 3.3223852 18.59765625 7.546875 C18.04210069 13.10243056 18.04210069 13.10243056 16.59765625 14.546875 C13.94302504 15.00147358 11.27576487 15.24930738 8.59765625 15.546875 C7.9414031 22.00932082 7.9414031 22.00932082 10.97265625 27.546875 C14.796183 30.46003824 16.78290773 30.92450233 21.59765625 30.546875 C24.88488156 29.05979689 26.43310256 27.76799402 28.59765625 24.859375 C30.59765625 22.546875 30.59765625 22.546875 33.16015625 22.046875 C35.59765625 22.546875 35.59765625 22.546875 37.47265625 23.609375 C38.59765625 25.546875 38.59765625 25.546875 38.72265625 28.796875 C37.03941098 34.40769257 33.7328384 37.74716598 28.671875 40.65234375 C23.13034946 43.01776447 17.24935837 43.72850439 11.4609375 41.85546875 C6.55400582 39.62164652 3.12088796 36.59859147 -0.40234375 32.546875 C-0.40234375 31.886875 -0.40234375 31.226875 -0.40234375 30.546875 C-1.03140625 30.835625 -1.66046875 31.124375 -2.30859375 31.421875 C-8.60546671 34.15304881 -13.60553761 36.02565917 -20.4296875 33.921875 C-27.12186097 31.04462576 -32.6587039 25.3214549 -35.40234375 18.546875 C-35.703125 16.29296875 -35.703125 16.29296875 -35.71484375 13.984375 C-35.73160156 13.21996094 -35.74835938 12.45554688 -35.765625 11.66796875 C-35.3110245 9.01368844 -34.56423603 8.11778271 -32.40234375 6.546875 C-29.33984375 6.671875 -29.33984375 6.671875 -26.40234375 7.546875 C-24.57948818 10.28115835 -23.92778104 11.96244327 -23.08984375 15.046875 C-22.08758478 18.09334533 -21.5592986 19.39440457 -19.21484375 21.671875 C-14.39667843 23.17085977 -10.16051602 22.13293242 -5.40234375 20.546875 C-4.37533931 18.21796404 -4.37533931 18.21796404 -3.71484375 15.484375 C-3.33779297 14.10572266 -3.33779297 14.10572266 -2.953125 12.69921875 C-2.77136719 11.98894531 -2.58960938 11.27867187 -2.40234375 10.546875 C-3.18609375 10.423125 -3.96984375 10.299375 -4.77734375 10.171875 C-7.40234375 9.546875 -7.40234375 9.546875 -9.40234375 7.546875 C-9.21484375 4.546875 -9.21484375 4.546875 -8.40234375 1.546875 C-5.06436281 -0.67844562 -3.8391921 -0.60278904 0 0 Z " fill="#68838F" transform="translate(267.40234375,217.453125)"/>
<path d="M0 0 C4.81709526 3.34545895 8.99673524 7.45051542 11.74609375 12.6796875 C11.74609375 15.5546875 11.74609375 15.5546875 10.74609375 17.6796875 C8.74609375 19.6796875 8.74609375 19.6796875 5.859375 20.0703125 C2.74609375 19.6796875 2.74609375 19.6796875 0.7265625 17.8515625 C0.13488281 17.05234375 -0.45679688 16.253125 -1.06640625 15.4296875 C-5.56092017 10.01409673 -9.76842704 7.27133046 -16.80078125 6.34375 C-22.45666982 6.12094227 -26.19318786 7.29817296 -31.25390625 9.6796875 C-34.25219143 10.08854457 -35.5382249 10.14858218 -38.06640625 8.4921875 C-39.25390625 6.6796875 -39.25390625 6.6796875 -39.94140625 4.3046875 C-39.10467344 1.10988949 -38.33615625 0.74698243 -35.62890625 -1.0078125 C-23.79674105 -7.56291447 -11.63877125 -6.81785907 0 0 Z " fill="#625E60" transform="translate(359.25390625,237.3203125)"/>
<path d="M0 0 C4.24999219 3.02433901 7.85441703 6.23532803 10.7109375 10.609375 C11.2109375 14.359375 11.2109375 14.359375 10.7109375 17.609375 C7.7109375 19.609375 7.7109375 19.609375 5.0234375 19.796875 C1.28441131 18.45646939 0.28340597 17.22590718 -2.2265625 14.234375 C-6.3783294 9.31636864 -9.55351785 6.96149601 -16.1484375 6.33984375 C-20.8374634 6.18237646 -24.93485061 6.13401618 -29.2265625 8.171875 C-32.2890625 9.609375 -32.2890625 9.609375 -35.1015625 9.421875 C-37.2890625 8.609375 -37.2890625 8.609375 -39.2890625 6.609375 C-39.7265625 4.234375 -39.7265625 4.234375 -39.2890625 1.609375 C-29.33488907 -9.30810553 -11.43176805 -6.94489663 0 0 Z " fill="#615D5F" transform="translate(211.2890625,200.390625)"/>
<path d="M0 0 C3.60937158 1.80468579 5.58066396 3.41834033 7.9375 6.6875 C9.35777414 11.11541349 9.52993755 14.57579914 8 19 C5.59506175 22.47933373 2.88930815 24.51104173 -1.21875 25.57421875 C-5.53259748 25.90662138 -8.50064837 25.1224765 -12 22.5625 C-15.19579093 19.41873357 -16.05769508 16.60770683 -16.19921875 12.17578125 C-15.75237864 7.29558628 -13.88600893 4.76518953 -10.25 1.625 C-6.38918695 -0.30540652 -4.26568014 -0.60938288 0 0 Z " fill="#FCFEFB" transform="translate(224,270)"/>
<path d="M0 0 C4.29696335 3.38271583 6.66927091 6.46441031 7.375 11.875 C6.88822519 15.93145679 5.6272346 17.88880113 3 21 C-1.365558 23.910372 -4.79500079 24.6506249 -10 24 C-14.03019601 21.87083984 -16.30220108 20.21362823 -18 16 C-18.64908204 12.24215662 -18.84103267 8.58489424 -17.01953125 5.15234375 C-12.14579107 -0.95107856 -7.30819019 -2.03585298 0 0 Z " fill="#FBFDFB" transform="translate(187,271)"/>
<path d="M0 0 C6.33429985 0.84917589 12.42228056 2.52536476 18.55859375 4.2734375 C19.68072266 4.57765625 20.80285156 4.881875 21.95898438 5.1953125 C23.56870117 5.64777344 23.56870117 5.64777344 25.2109375 6.109375 C26.17894287 6.38056152 27.14694824 6.65174805 28.14428711 6.93115234 C30.6899356 7.9253228 31.99825902 8.71375954 33.62109375 10.8984375 C33.37656251 14.24036442 33.01565818 15.50387307 30.62109375 17.8984375 C23.04708022 18.66944487 16.08562696 16.51689613 8.80859375 14.5859375 C7.58205078 14.27720703 6.35550781 13.96847656 5.09179688 13.65039062 C3.91939453 13.34423828 2.74699219 13.03808594 1.5390625 12.72265625 C0.47453857 12.44510498 -0.58998535 12.16755371 -1.68676758 11.8815918 C-4.38560077 10.8959927 -5.67312613 10.17894819 -7.37890625 7.8984375 C-7.75390625 5.3984375 -7.75390625 5.3984375 -7.37890625 2.8984375 C-5.1078803 -0.12279453 -3.6852005 -0.46108017 0 0 Z " fill="#91A2B5" transform="translate(354.37890625,278.1015625)"/>
<path d="M0 0 C1.918125 0.4630957 1.918125 0.4630957 3.875 0.93554688 C5.09703125 1.24169922 6.3190625 1.54785156 7.578125 1.86328125 C8.6909082 2.14083252 9.80369141 2.41838379 10.95019531 2.7043457 C13.72553355 3.67890858 15.02133141 4.34415248 16.75 6.6875 C17.125 9.1875 17.125 9.1875 16.75 11.6875 C15.23492771 13.66408662 14.40757178 14.59852623 11.90234375 14.9375 C5.12031361 14.17197984 -1.29549796 12.42191394 -7.82836914 10.50390625 C-8.57078857 10.28605469 -9.31320801 10.06820312 -10.078125 9.84375 C-10.79009033 9.63371338 -11.50205566 9.42367676 -12.2355957 9.20727539 C-14.46377317 8.58463113 -14.46377317 8.58463113 -17.68359375 8.27734375 C-20.25 7.6875 -20.25 7.6875 -21.45703125 5.91015625 C-21.65683594 5.19730469 -21.85664063 4.48445312 -22.0625 3.75 C-22.27519531 3.03972656 -22.48789063 2.32945312 -22.70703125 1.59765625 C-22.88621094 0.96730469 -23.06539062 0.33695313 -23.25 -0.3125 C-23.58 -0.9725 -23.91 -1.6325 -24.25 -2.3125 C-16.14692146 -5.01352618 -7.9576098 -2.01782249 0 0 Z " fill="#91A2B5" transform="translate(162.25,229.3125)"/>
<path d="M0 0 C2.21655273 1.11401367 2.21655273 1.11401367 4.43359375 2.66796875 C5.24763672 3.23193359 6.06167969 3.79589844 6.90039062 4.37695312 C7.73763672 4.97443359 8.57488281 5.57191406 9.4375 6.1875 C10.27087891 6.76564453 11.10425781 7.34378906 11.96289062 7.93945312 C14.33179758 9.59675167 16.6716283 11.28633292 19 13 C19.63969727 13.46446533 20.27939453 13.92893066 20.93847656 14.4074707 C22.60546875 15.6875 22.60546875 15.6875 25 18 C24.875 21.8125 24.875 21.8125 24 25 C20.79694249 25.86524151 18.20600102 26.52164572 15.06738281 25.1640625 C13.01049165 23.85994574 11.06752191 22.46906732 9.125 21 C8.07989258 20.23985596 8.07989258 20.23985596 7.01367188 19.46435547 C5.63059668 18.453424 4.25375453 17.43390071 2.88378906 16.40527344 C1.26646748 15.19878005 -0.38345393 14.03620561 -2.0390625 12.8828125 C-2.85117187 12.30273438 -3.66328125 11.72265625 -4.5 11.125 C-5.1909375 10.63257813 -5.881875 10.14015625 -6.59375 9.6328125 C-8 8 -8 8 -8.29296875 5.41796875 C-8 3 -8 3 -6.8125 1.1875 C-4.36027644 -0.41912923 -2.90092557 -0.26241532 0 0 Z " fill="#91A2B5" transform="translate(350,297)"/>
<path d="M0 0 C2.12890625 0.81640625 2.12890625 0.81640625 5.12890625 2.81640625 C5.7833787 7.94310712 5.7833787 7.94310712 3.85546875 10.515625 C2.12890625 11.81640625 2.12890625 11.81640625 0.25390625 11.99609375 C-15.26732114 9.77062365 -15.26732114 9.77062365 -19.703125 6.44140625 C-20.87109375 4.81640625 -20.87109375 4.81640625 -20.68359375 1.19140625 C-20.41546875 0.07765625 -20.14734375 -1.03609375 -19.87109375 -2.18359375 C-14.20830043 -5.01499041 -5.70003705 -1.7475234 0 0 Z " fill="#FBFCFC" transform="translate(339.87109375,200.18359375)"/>
<path d="M0 0 C10.23 0 20.46 0 31 0 C29.76775131 4.92899477 27.51212941 7.43060028 23.19921875 10.125 C18.68763493 11.92001736 13.7567935 11.52216475 9 11 C5.01344681 9.04169317 2.24303052 6.86299701 0 3 C0 2.01 0 1.02 0 0 Z " fill="#FFFD9B" transform="translate(124,457)"/>
<path d="M0 0 C1.1171875 6.75 1.1171875 6.75 0.0625 9 C-6.59989157 12.23025046 -17.34188953 7.01052493 -24 5 C-25.1171875 -1.75 -25.1171875 -1.75 -24.0625 -4 C-17.40010843 -7.23025046 -6.65811047 -2.01052493 0 0 Z " fill="#FDFDFD" transform="translate(241,176)"/>
</svg>
