<svg width="51" height="42" viewBox="0 0 51 42" fill="none" xmlns="http://www.w3.org/2000/svg">
<path d="M48.875 35.5833C48.875 36.6884 48.4272 37.7482 47.6302 38.5296C46.8332 39.311 45.7522 39.75 44.625 39.75H6.375C5.24783 39.75 4.16683 39.311 3.3698 38.5296C2.57277 37.7482 2.125 36.6884 2.125 35.5833V12.6667C2.125 11.5616 2.57277 10.5018 3.3698 9.72039C4.16683 8.93899 5.24783 8.5 6.375 8.5H14.875L19.125 2.25H31.875L36.125 8.5H44.625C45.7522 8.5 46.8332 8.93899 47.6302 9.72039C48.4272 10.5018 48.875 11.5616 48.875 12.6667V35.5833Z" stroke="#1E1E1E" stroke-width="4" stroke-linecap="round" stroke-linejoin="round"/>
<path d="M25.5 31.4167C30.1944 31.4167 34 27.6857 34 23.0833C34 18.481 30.1944 14.75 25.5 14.75C20.8056 14.75 17 18.481 17 23.0833C17 27.6857 20.8056 31.4167 25.5 31.4167Z" stroke="#1E1E1E" stroke-width="4" stroke-linecap="round" stroke-linejoin="round"/>
</svg>
