<svg width="20" height="20" viewBox="0 0 20 20" fill="none" xmlns="http://www.w3.org/2000/svg">
<path d="M14.6492 18.4872L14.6248 18.5612C13.3972 19.1014 11.8644 19.423 10.5 19.4875V19.1531C11.9364 19.0834 13.5535 18.7216 14.7682 18.1273L14.6492 18.4872ZM9.49996 19.4851C7.16351 19.362 4.94759 18.3793 3.28437 16.716C1.62112 15.0526 0.637717 12.8358 0.513419 10.4978H0.846731C1.09744 15.1626 4.83527 18.9001 9.49996 19.1507V19.4851ZM3.52056 3.51804C1.91989 5.11841 0.971595 7.24886 0.847312 9.49779H0.51349C0.638105 7.16027 1.62159 4.94493 3.28482 3.28184C4.94799 1.6188 7.16373 0.636277 9.49996 0.513162V0.847748C7.25214 0.970517 5.12115 1.91775 3.52056 3.51804ZM10.5 0.847508V0.513162C12.8362 0.636277 15.0519 1.6188 16.7151 3.28184C18.3783 4.94489 19.3618 7.16138 19.4864 9.49913H19.1532C18.9024 4.83549 15.1646 1.0982 10.5 0.847508ZM19.4902 10.4991C19.4359 11.9054 19.1508 13.3883 18.5816 14.6211L18.4737 14.6571L18.1374 14.7693C18.7741 13.5419 19.0976 11.9858 19.1566 10.4991H19.4902ZM15.9304 18.0327L17.885 18.6781L18.0172 19.0738L16.1947 18.4715L16.1056 18.3234L15.9304 18.0327ZM18.4759 16.2417L19.0689 18.0159L18.6745 17.8857L18.0295 15.9553L18.2912 16.1232L18.4759 16.2417Z" fill="#686868" stroke="#686868"/>
</svg>
