<svg xmlns="http://www.w3.org/2000/svg" width="2133" height="1698" viewBox="0 0 2133 1698" version="1.1"><path d="M 120 1056.198 C 90.386 1058.628, 66.138 1068.506, 51.445 1084.126 C 29.429 1107.531, 19.948 1142.115, 25.942 1177.151 C 27.010 1183.393, 43.914 1252.625, 63.508 1331 C 83.101 1409.375, 104.696 1496.225, 111.496 1524 C 118.296 1551.775, 125.729 1579.900, 128.013 1586.500 C 135.321 1607.611, 146.511 1627.981, 159.733 1644.244 C 166.950 1653.119, 181.105 1666.452, 187.981 1670.851 C 200.383 1678.784, 224.106 1688.696, 241.500 1693.213 C 249.104 1695.187, 253.166 1695.327, 323.500 1696.040 C 364.200 1696.453, 533.400 1696.834, 699.500 1696.888 C 865.600 1696.942, 1075.075 1697.274, 1165 1697.625 C 1336.393 1698.295, 1341.411 1698.200, 1358.275 1693.964 C 1368.764 1691.329, 1384.746 1683.597, 1393.838 1676.757 C 1414.685 1661.074, 1434.898 1622.116, 1434.983 1597.455 C 1435.016 1587.752, 1426.878 1561.203, 1419.823 1548 C 1405.213 1520.657, 1388.129 1506.916, 1358.326 1498.536 C 1338.102 1492.850, 1340.752 1492.957, 1192.003 1491.856 C 1116.379 1491.297, 1054.344 1490.677, 1054.145 1490.479 C 1053.947 1490.280, 1045.490 1456.947, 1035.351 1416.404 C 1020.323 1356.311, 1016.470 1342.159, 1014.497 1339.814 C 1013.166 1338.232, 1011.609 1335.264, 1011.037 1333.219 C 1009.094 1326.265, 1004.033 1298.513, 1004.160 1295.500 C 1004.229 1293.850, 1000.655 1277.650, 996.216 1259.500 C 991.778 1241.350, 984.497 1210.190, 980.036 1190.255 C 975.576 1170.321, 970.586 1149.500, 968.948 1143.987 C 962.351 1121.779, 952.874 1104.548, 939.271 1090.028 C 925.183 1074.990, 912.183 1066.412, 897.500 1062.464 C 888.449 1060.031, 749.284 1058.329, 454.500 1057.046 C 318.650 1056.455, 189.725 1055.865, 168 1055.736 C 146.275 1055.606, 124.675 1055.814, 120 1056.198 M 860.425 1106.959 C 852.066 1107.494, 849.586 1108.052, 845.858 1110.237 C 840.115 1113.603, 833.809 1119.919, 828.743 1127.379 C 825.295 1132.456, 824.550 1134.570, 823.278 1142.879 C 821.421 1155.010, 822.153 1176.633, 824.873 1190 C 826.505 1198.018, 846.796 1275.089, 870.025 1361.500 C 877.924 1390.885, 879.363 1398.939, 879.438 1414.173 C 879.494 1425.552, 879.285 1427.134, 877.394 1429.673 C 875.292 1432.495, 875.263 1432.501, 862.234 1432.778 L 849.180 1433.057 845.715 1428.778 C 843.809 1426.425, 841.501 1423.027, 840.587 1421.226 C 838.903 1417.910, 785.613 1208.084, 782.079 1190.854 C 776.120 1161.800, 776.869 1138.189, 784.451 1116.081 C 785.851 1112.001, 786.884 1108.565, 786.748 1108.445 C 786.612 1108.325, 633.050 1108.064, 445.500 1107.864 L 104.500 1107.500 99.500 1110.485 C 93.412 1114.121, 80.906 1126.271, 78.582 1130.808 C 75.516 1136.797, 73 1148.953, 73 1157.782 C 73 1175.246, 74.338 1181.256, 103.992 1297 C 135.275 1419.101, 148.603 1472.632, 153.539 1496 C 164.271 1546.816, 170.833 1568.992, 181.500 1590.500 C 189.468 1606.565, 193.341 1611.720, 203.672 1620 C 219.620 1632.783, 236.053 1640.969, 256.500 1646.316 C 275.731 1651.345, 285.501 1651.998, 341.801 1652.020 C 436.414 1652.058, 869.200 1649.956, 888.750 1649.364 L 908 1648.781 908 1644.449 C 908 1640.972, 906.941 1638.376, 902.636 1631.308 C 890.877 1611.997, 885.864 1599.375, 883.913 1584.162 L 882.720 1574.861 887.068 1570.430 L 891.416 1566 904.005 1566 L 916.594 1566 920.806 1576.257 C 927.949 1593.650, 939.015 1611.640, 950.289 1624.187 C 953.819 1628.116, 957.006 1630.031, 970 1636.032 C 987.711 1644.212, 1002.374 1649.389, 1012.500 1651.038 C 1021.221 1652.458, 1325.885 1651.379, 1336 1649.893 C 1339.575 1649.367, 1346.040 1647.772, 1350.368 1646.347 C 1357.573 1643.976, 1358.925 1643.073, 1366.423 1635.629 C 1375.660 1626.458, 1379.817 1619.833, 1383.040 1609.146 C 1384.915 1602.929, 1385.153 1600.495, 1384.578 1593.404 C 1383.515 1580.307, 1379.552 1569.342, 1372.768 1560.728 C 1369.005 1555.951, 1359.187 1548.918, 1350.799 1544.993 C 1337.987 1538.998, 1343.742 1539.216, 1183.500 1538.638 C 1086.044 1538.286, 1035.082 1537.754, 1032.294 1537.059 C 1023.099 1534.766, 1021.451 1533.352, 1017.191 1524.101 C 1012.522 1513.963, 1013.340 1517.092, 984.487 1399 C 935.472 1198.385, 921.816 1145.577, 915.181 1130.996 C 910.571 1120.865, 899.603 1111.502, 888.230 1107.989 C 881.600 1105.942, 878.248 1105.817, 860.425 1106.959" stroke="none" fill="#e4e4e4" fill-rule="evenodd"/><path d="M 1703.472 106.980 C 1672.211 111.390, 1643.520 128.275, 1606.750 163.901 C 1599.109 171.304, 1596 174.994, 1596 176.658 L 1596 179 1687.500 179 L 1779 179 1778.964 169.250 C 1778.945 163.887, 1778.534 155.085, 1778.052 149.690 C 1776.800 135.669, 1774.205 130.747, 1764.222 123.457 C 1746.017 110.162, 1723.741 104.120, 1703.472 106.980 M 671.831 227.960 C 658.378 230.412, 633.699 241.930, 628.824 248.033 C 620.700 258.202, 617.884 282.752, 622.538 302.821 C 623.363 306.376, 625.809 313.066, 627.975 317.687 C 631.132 324.425, 633.666 327.913, 640.765 335.295 C 650.043 344.943, 655.126 351.663, 657.570 357.513 C 660.321 364.097, 660.916 377.415, 659.808 407.618 C 658.455 444.524, 658.948 447.586, 668.310 460.402 C 671.715 465.062, 675.377 469.109, 676.448 469.396 C 679.004 470.079, 680.337 468.870, 686.144 460.601 C 690.189 454.841, 691 452.943, 691 449.235 C 691 445.119, 691.170 444.825, 693.250 445.342 C 694.487 445.650, 701.366 446.397, 708.536 447.003 C 730.841 448.888, 734.286 447.146, 751.726 425.175 C 770.244 401.847, 791.275 382.173, 817.323 363.813 C 834.959 351.382, 837.121 349.598, 839.515 345.500 C 842.722 340.011, 845 330.509, 845 322.626 L 845 316.041 849 314 C 854.432 311.229, 854.281 308.729, 848.500 305.714 C 846.850 304.854, 841.727 300.940, 837.115 297.017 C 812.066 275.709, 782.169 256.777, 751 242.487 C 733.626 234.521, 727.522 232.284, 716.500 229.843 C 706.469 227.621, 679.848 226.499, 671.831 227.960 M 853.380 1107.882 C 845.909 1109.184, 837.333 1115.980, 830.306 1126.168 C 826.078 1132.298, 825.071 1134.648, 824.164 1140.500 C 820.343 1165.168, 822.034 1179.726, 833.867 1224 C 837.175 1236.375, 846.468 1271.250, 854.519 1301.500 C 862.570 1331.750, 870.430 1361.042, 871.986 1366.593 C 880.850 1398.220, 882.968 1425.477, 877.024 1431.420 C 875.138 1433.306, 873.772 1433.500, 862.364 1433.500 L 849.783 1433.500 845.111 1428.419 C 842.542 1425.625, 839.872 1421.575, 839.179 1419.419 C 836.598 1411.392, 782.017 1194.152, 780.408 1185.500 C 779.451 1180.361, 778.530 1168.990, 778.260 1158.995 C 777.740 1139.740, 778.883 1130.573, 783.499 1117.004 C 784.874 1112.959, 786 1109.279, 786 1108.825 C 786 1108.371, 632.652 1108, 445.227 1108 L 104.454 1108 98.977 1111.574 C 92.016 1116.116, 82.541 1125.323, 79.499 1130.500 C 74.582 1138.866, 72.444 1153.533, 73.982 1168.342 C 75.536 1183.307, 77.179 1190.253, 103.465 1293 C 143.892 1451.025, 147.687 1466.271, 154.489 1498 C 164.585 1545.091, 170.830 1566.774, 180.037 1586.701 C 189.118 1606.358, 196.670 1615.301, 213.948 1626.858 C 234.653 1640.707, 257.413 1648.213, 287 1650.951 C 297.866 1651.956, 482.058 1651.400, 807.750 1649.378 L 908 1648.756 908 1645.043 C 908 1642.340, 906.609 1639.041, 902.887 1632.915 C 890.382 1612.337, 884.242 1596.379, 883.296 1581.999 L 882.736 1573.498 887.346 1569.249 L 891.955 1565 903.855 1565 C 912.182 1565, 916.052 1565.375, 916.742 1566.250 C 917.285 1566.938, 919.825 1572.414, 922.385 1578.420 C 928.354 1592.419, 937.500 1607.745, 946.443 1618.734 C 952.922 1626.695, 954.239 1627.770, 962.500 1631.835 C 978.710 1639.810, 994.331 1646.173, 1004 1648.739 L 1013.500 1651.260 1166.500 1651.081 C 1253.763 1650.979, 1324.044 1650.492, 1330.076 1649.948 C 1347.892 1648.343, 1355.277 1645.414, 1365.412 1635.934 C 1378.069 1624.093, 1383.953 1611.745, 1383.964 1597 C 1383.982 1573.179, 1373.525 1556.677, 1351.675 1546.047 C 1337.391 1539.098, 1349.613 1539.608, 1183.500 1539.026 L 1033.500 1538.500 1027.773 1536.187 C 1020.803 1533.371, 1018.984 1531.174, 1014.930 1520.667 C 1013.188 1516.154, 1000.007 1464.402, 985.469 1405 C 933.571 1192.941, 923.165 1152.439, 915.788 1133.772 C 913.112 1126.999, 911.720 1125.002, 905.949 1119.659 C 902.252 1116.236, 896.589 1112.107, 893.364 1110.483 C 887.716 1107.639, 886.947 1107.523, 872.500 1107.347 C 864.250 1107.247, 855.646 1107.488, 853.380 1107.882" stroke="none" fill="#fefefe" fill-rule="evenodd"/><path d="M 1400.987 673.329 C 1400.719 673.588, 1390.825 674.318, 1379 674.950 C 1353.932 676.292, 1346.062 677.691, 1337.644 682.303 C 1322.882 690.390, 1320.935 707.296, 1333.350 719.608 L 1338.500 724.716 1350.500 725.349 C 1364.706 726.099, 1382.351 724.793, 1395.802 721.996 C 1404.927 720.099, 1424.983 713.931, 1427.766 712.165 C 1429.083 711.330, 1431.343 701.570, 1432.461 691.891 L 1433.109 686.283 1428.025 681.712 C 1425.107 679.089, 1420.929 676.500, 1418.220 675.638 C 1413.257 674.058, 1401.819 672.526, 1400.987 673.329 M 971.269 721.043 C 938.705 722.885, 925.377 730.459, 925.590 747 C 925.691 754.876, 928.315 760.949, 934.028 766.527 C 937.975 770.381, 938.065 770.410, 947.251 770.807 C 960.426 771.377, 999.253 769.271, 1007.257 767.552 C 1010.974 766.754, 1017.091 764.485, 1020.851 762.509 C 1026.570 759.504, 1028.080 758.147, 1030.094 754.208 C 1035.043 744.525, 1031.780 729.751, 1023.254 723.242 C 1019.682 720.514, 1019.573 720.499, 1002.581 720.369 C 993.187 720.297, 979.096 720.600, 971.269 721.043 M 188.829 1107.750 C 230.809 1107.894, 299.209 1107.894, 340.829 1107.750 C 382.448 1107.605, 348.100 1107.487, 264.500 1107.487 C 180.900 1107.487, 146.848 1107.605, 188.829 1107.750 M 1068.750 1538.748 C 1076.588 1538.917, 1089.412 1538.917, 1097.250 1538.748 C 1105.088 1538.579, 1098.675 1538.441, 1083 1538.441 C 1067.325 1538.441, 1060.912 1538.579, 1068.750 1538.748 M 897.750 1565.740 C 901.188 1565.936, 906.813 1565.936, 910.250 1565.740 C 913.688 1565.545, 910.875 1565.385, 904 1565.385 C 897.125 1565.385, 894.313 1565.545, 897.750 1565.740 M 828.317 1649.749 C 839.766 1649.910, 858.216 1649.909, 869.317 1649.749 C 880.418 1649.588, 871.050 1649.456, 848.500 1649.457 C 825.950 1649.457, 816.868 1649.589, 828.317 1649.749 M 610.822 1650.750 C 628.049 1650.903, 655.949 1650.903, 672.822 1650.749 C 689.695 1650.596, 675.600 1650.470, 641.500 1650.470 C 607.400 1650.470, 593.595 1650.596, 610.822 1650.750 M 413.750 1651.749 C 429.837 1651.904, 456.162 1651.904, 472.250 1651.749 C 488.337 1651.595, 475.175 1651.469, 443 1651.469 C 410.825 1651.469, 397.662 1651.595, 413.750 1651.749 M 1089.321 1651.749 C 1104.622 1651.905, 1129.372 1651.905, 1144.321 1651.749 C 1159.269 1651.594, 1146.750 1651.467, 1116.500 1651.467 C 1086.250 1651.467, 1074.019 1651.594, 1089.321 1651.749" stroke="none" fill="#fcfcfd" fill-rule="evenodd"/><path d="M 1538.500 282 C 1528.925 282.435, 1526.917 282.843, 1523 285.146 C 1520.525 286.602, 1517.037 289.613, 1515.250 291.838 L 1512 295.883 1512 307.838 L 1512 319.793 1515.677 323.022 C 1523.707 330.072, 1505.256 329.471, 1722.960 329.765 L 1919.419 330.029 1924.699 327.447 C 1927.807 325.926, 1931.524 322.976, 1933.739 320.274 L 1937.500 315.684 1937.500 306.092 C 1937.500 297.589, 1937.230 296.121, 1935.119 293.161 C 1931.977 288.757, 1925.679 284.275, 1920.596 282.827 C 1917.547 281.958, 1869.615 281.640, 1733 281.580 C 1632.075 281.536, 1544.550 281.725, 1538.500 282 M 1531 373.936 C 1525.266 374.788, 1520.942 377.092, 1517.582 381.085 C 1512.890 386.661, 1511.770 390.634, 1511.827 401.500 L 1511.879 411.500 1515.559 414.709 C 1523.031 421.225, 1509.728 420.783, 1719 421.480 C 1905.416 422.101, 1926.049 421.864, 1929.434 419.055 C 1930.129 418.478, 1932.228 414.991, 1934.099 411.305 C 1937.150 405.293, 1937.500 403.757, 1937.500 396.358 C 1937.500 388.294, 1937.422 388.030, 1934 384.466 C 1932.075 382.462, 1928.309 379.702, 1925.631 378.334 C 1914.848 372.824, 1922.779 373.025, 1721.500 373.151 C 1619.200 373.215, 1533.475 373.568, 1531 373.936 M 1694 470 C 1675.461 470.530, 1674.455 470.774, 1669.534 475.944 C 1667.137 478.463, 1666.457 480.220, 1665.990 485.106 C 1665.672 488.431, 1665.706 493.992, 1666.065 497.464 C 1666.634 502.954, 1667.160 504.183, 1670.109 506.891 C 1676.183 512.469, 1684.499 515.858, 1695 517.035 C 1701.298 517.740, 1739.887 517.998, 1809.500 517.800 L 1914.500 517.500 1920.178 514.712 C 1923.654 513.005, 1927.991 509.617, 1931.365 505.973 C 1937.574 499.266, 1938.688 495.521, 1937.703 484.659 C 1937.080 477.787, 1935.231 475.534, 1927.174 471.829 C 1922.950 469.886, 1920.360 469.835, 1817.174 469.670 C 1759.053 469.576, 1703.625 469.725, 1694 470 M 213.093 724.181 C 200.257 727.091, 193.239 738.769, 195.453 753.533 C 196.012 757.260, 197.147 759.317, 200.831 763.272 C 209.165 772.222, 197.961 771.462, 326.500 771.798 C 407.218 772.008, 442.398 771.769, 447 770.978 C 463.882 768.075, 469.010 757.939, 464.192 737 C 462.596 730.065, 462.198 729.368, 458.898 727.747 C 456.936 726.782, 452.894 725.581, 449.915 725.078 C 442.152 723.766, 218.657 722.919, 213.093 724.181 M 1458 782.901 C 1445.338 784.377, 1428.978 794.805, 1417.505 808.716 C 1402.374 827.059, 1399.467 833.998, 1399.579 851.500 C 1399.711 872.164, 1410.507 898.191, 1424.003 910.384 C 1453.130 936.699, 1498.134 936.123, 1526.362 909.075 C 1542.704 893.416, 1551.132 876.009, 1551.091 858 C 1551.058 843.113, 1547.878 831.083, 1540.877 819.363 C 1531.199 803.161, 1511.836 788.785, 1493.985 784.547 C 1486.272 782.716, 1467.113 781.839, 1458 782.901 M 902.867 844.874 C 896.111 845.503, 894.287 846.155, 887.009 850.542 C 871.211 860.067, 856.221 876.606, 848.746 892.762 C 845.745 899.248, 845.631 899.986, 845.695 912.500 C 845.785 930.065, 848.766 942.760, 856.270 957.535 C 860.835 966.525, 877.125 980.036, 890.500 985.928 C 908.500 993.857, 933.255 993.892, 950.630 986.014 C 968.185 978.054, 979.381 967.102, 987.959 949.500 C 1001.260 922.206, 999.565 900.882, 982.141 876.322 C 974.097 864.983, 966.002 858.071, 953.154 851.573 C 941.664 845.761, 921.789 843.114, 902.867 844.874 M 1878 1116.671 C 1854.843 1118.994, 1849.917 1121.033, 1837.423 1133.463 C 1826.905 1143.928, 1814.043 1163.377, 1816.209 1165.542 C 1816.456 1165.789, 1840.502 1166.106, 1869.644 1166.246 L 1922.630 1166.500 1927.565 1163.459 C 1935.752 1158.414, 1939.375 1148.652, 1937.557 1136.532 C 1936.217 1127.598, 1925.605 1120.190, 1910.215 1117.445 C 1903.185 1116.192, 1886.723 1115.796, 1878 1116.671 M 1796.846 1209.068 C 1758.780 1212.258, 1729.906 1222.905, 1687.507 1249.385 L 1674.513 1257.500 1794.507 1258.321 C 1875.947 1258.878, 1916.173 1258.811, 1919.708 1258.113 C 1933.111 1255.465, 1939.902 1244.171, 1937.545 1228.450 C 1936.647 1222.463, 1930.988 1216.113, 1923.727 1212.947 C 1918.954 1210.866, 1916.372 1210.603, 1894 1209.925 C 1851.090 1208.624, 1806.812 1208.233, 1796.846 1209.068 M 1722.750 1307.749 C 1704.257 1307.984, 1700 1308.295, 1700 1309.412 C 1700 1312.323, 1705.900 1333.857, 1708.654 1341 L 1711.547 1348.500 1733.523 1349.114 C 1745.611 1349.451, 1792.400 1349.901, 1837.500 1350.114 L 1919.500 1350.500 1925.072 1347.764 C 1928.366 1346.146, 1932.044 1343.285, 1934.072 1340.764 C 1937.447 1336.565, 1937.500 1336.351, 1937.500 1326.800 L 1937.500 1317.099 1933.535 1313.037 C 1931.354 1310.803, 1927.979 1308.533, 1926.035 1307.993 C 1922.823 1307.101, 1786.752 1306.937, 1722.750 1307.749" stroke="none" fill="#635d5e" fill-rule="evenodd"/><path d="M 587.411 696 C 587.411 705.625, 587.561 709.563, 587.745 704.750 C 587.928 699.938, 587.928 692.063, 587.745 687.250 C 587.561 682.438, 587.411 686.375, 587.411 696 M 582.419 785 C 582.419 795.725, 582.566 800.112, 582.746 794.750 C 582.925 789.388, 582.925 780.612, 582.746 775.250 C 582.566 769.888, 582.419 774.275, 582.419 785 M 1226.113 1000.545 C 1196.969 1006.867, 1176.153 1022.949, 1161.598 1050.384 C 1158.863 1055.539, 1158 1058.356, 1158 1062.123 C 1158 1070.019, 1160.682 1073.996, 1170.343 1080.424 C 1186.476 1091.159, 1197.253 1094.786, 1215.703 1095.689 L 1227.906 1096.287 1237.203 1091.622 C 1254.111 1083.137, 1265.934 1071.480, 1274.547 1054.804 C 1279.609 1045.003, 1281.621 1036.630, 1282.636 1021.136 L 1283.270 1011.460 1274.385 1007.246 C 1257.814 999.386, 1241.739 997.155, 1226.113 1000.545" stroke="none" fill="#ff81a8" fill-rule="evenodd"/><path d="M 1841.378 168 C 1841.378 174.325, 1841.541 176.912, 1841.739 173.750 C 1841.937 170.588, 1841.937 165.412, 1841.739 162.250 C 1841.541 159.088, 1841.378 161.675, 1841.378 168 M 1261 251.097 C 1195.473 257.029, 1125.555 264.338, 1119.500 265.890 L 1116.500 266.659 1120.500 268.729 L 1124.500 270.800 1124.650 288.150 C 1124.871 313.670, 1126.701 324.054, 1142.052 386.853 C 1153.795 434.892, 1160.365 454.972, 1169.160 469.698 C 1174.021 477.838, 1185.905 489.264, 1199.823 499.180 C 1209.675 506.199, 1213.106 508.088, 1217.753 509.054 C 1223.836 510.318, 1235.817 509.781, 1240.401 508.038 C 1247.825 505.215, 1262.422 487.253, 1269.980 471.642 C 1275.495 460.250, 1277.911 453.432, 1281.459 439.256 C 1287.537 414.965, 1287.501 415.491, 1287.490 352 C 1287.480 297.857, 1286.882 280.326, 1284.344 259.846 C 1283.851 255.864, 1284.037 255.122, 1285.634 254.712 C 1287.106 254.333, 1287.153 254.207, 1285.858 254.116 C 1284.956 254.052, 1283.934 252.875, 1283.589 251.500 C 1283.244 250.125, 1282.633 249.054, 1282.231 249.121 C 1281.829 249.187, 1272.275 250.076, 1261 251.097 M 1295.671 249.750 C 1294.938 250.981, 1296.841 277.636, 1298.539 289.928 C 1305.440 339.868, 1323.585 388.060, 1348.698 423.145 C 1354.651 431.462, 1361.646 437.266, 1372 442.482 C 1379.314 446.166, 1389.668 449.666, 1390.573 448.760 C 1390.902 448.432, 1392.018 407.514, 1393.055 357.831 C 1394.806 273.900, 1395.083 266.940, 1396.970 259.590 C 1398.086 255.240, 1399 251.077, 1399 250.340 C 1399 249.237, 1389.889 249, 1347.559 249 C 1319.266 249, 1295.917 249.338, 1295.671 249.750 M 1088.500 273.508 C 1034.362 281.616, 990.515 292.710, 967.462 304.134 C 958.355 308.647, 951.882 313.649, 953.627 314.826 C 954.176 315.197, 957.908 328.550, 961.920 344.500 C 982.630 426.848, 988.337 439.874, 1017.681 471.782 C 1029.222 484.330, 1034.966 487.252, 1049.235 487.834 C 1064.860 488.472, 1066.764 487.919, 1074.896 480.390 C 1089.648 466.732, 1098.824 448.043, 1107.985 413 C 1112.600 395.349, 1113.325 381.303, 1112.683 322.021 C 1112.376 293.707, 1111.760 270.468, 1111.313 270.378 C 1110.866 270.288, 1100.600 271.696, 1088.500 273.508 M 1516.750 617.743 C 1520.737 617.932, 1527.263 617.932, 1531.250 617.743 C 1535.237 617.553, 1531.975 617.397, 1524 617.397 C 1516.025 617.397, 1512.763 617.553, 1516.750 617.743 M 1625.750 618.746 C 1631.388 618.924, 1640.612 618.924, 1646.250 618.746 C 1651.888 618.568, 1647.275 618.422, 1636 618.422 C 1624.725 618.422, 1620.112 618.568, 1625.750 618.746 M 1736.807 619.747 C 1743.576 619.921, 1754.376 619.920, 1760.807 619.746 C 1767.238 619.572, 1761.700 619.431, 1748.500 619.431 C 1735.300 619.432, 1730.038 619.574, 1736.807 619.747 M 1839.500 620.690 C 1856.597 621.405, 1874.774 621.437, 1874.348 620.750 C 1874.092 620.337, 1864.571 620.089, 1853.191 620.199 C 1841.811 620.308, 1835.650 620.529, 1839.500 620.690 M 627.392 778 C 627.392 785.425, 627.549 788.462, 627.742 784.750 C 627.934 781.038, 627.934 774.962, 627.742 771.250 C 627.549 767.538, 627.392 770.575, 627.392 778 M 1173.801 893.502 C 1173.636 901.477, 1173.838 908.002, 1174.250 908.002 C 1174.662 908.001, 1175 901.475, 1175 893.500 C 1175 885.525, 1174.798 879, 1174.551 879 C 1174.305 879, 1173.967 885.526, 1173.801 893.502 M 1641.500 918.099 C 1631.600 919.115, 1610.900 921.074, 1595.500 922.451 C 1562.072 925.441, 1558.569 926.044, 1549.500 930.368 C 1537.880 935.908, 1533.550 941.669, 1533.618 951.500 C 1533.670 958.854, 1536.269 965.099, 1541.610 970.702 L 1545.500 974.782 1556.500 975.531 C 1571.947 976.583, 1591.002 975.554, 1632 971.454 C 1669.667 967.687, 1674.527 966.774, 1685.009 961.496 L 1691.637 958.158 1693.285 950.329 C 1694.192 946.023, 1695.170 939.314, 1695.458 935.420 C 1695.973 928.461, 1695.922 928.269, 1692.489 924.258 C 1686.822 917.638, 1682.219 915.978, 1669.934 916.126 C 1664.195 916.195, 1651.400 917.083, 1641.500 918.099 M 1331.389 999.500 C 1331.390 1006.650, 1331.550 1009.444, 1331.742 1005.708 C 1331.935 1001.973, 1331.934 996.123, 1331.739 992.708 C 1331.545 989.294, 1331.387 992.350, 1331.389 999.500 M 1555.500 1005.627 C 1549.969 1007.272, 1547.946 1009.199, 1544.395 1016.207 C 1539.718 1025.438, 1542.218 1037.798, 1550.105 1044.435 C 1558.521 1051.516, 1569.504 1055.430, 1607.500 1064.886 C 1639.130 1072.758, 1646.040 1074.013, 1661.500 1074.697 L 1674.500 1075.272 1678.994 1071.840 C 1686.113 1066.403, 1687.964 1062.202, 1687.984 1051.444 C 1687.998 1043.496, 1687.713 1041.999, 1685.652 1039.205 C 1679.401 1030.734, 1671.151 1026.561, 1650.833 1021.597 C 1618.780 1013.765, 1586.154 1006.096, 1580.566 1005.079 C 1572.439 1003.601, 1561.507 1003.840, 1555.500 1005.627 M 826 1012.065 C 794.850 1013.892, 757.199 1017.151, 751.188 1018.540 C 744.308 1020.131, 735.680 1023.891, 731.670 1027.045 C 727.564 1030.275, 725 1038.672, 725 1048.892 L 725 1057.709 765.750 1058.369 C 830.755 1059.423, 854.969 1059.343, 860.454 1058.060 C 867.257 1056.467, 875.795 1051.738, 882.161 1046.036 L 887.495 1041.259 885.736 1030.952 C 883.777 1019.471, 881.814 1015.220, 877.450 1013 C 873.900 1011.195, 848.664 1010.737, 826 1012.065 M 637.299 1057.745 C 642.139 1057.929, 649.789 1057.928, 654.299 1057.743 C 658.810 1057.558, 654.850 1057.408, 645.500 1057.409 C 636.150 1057.410, 632.460 1057.562, 637.299 1057.745 M 1024.750 1294.743 C 1028.737 1294.932, 1035.263 1294.932, 1039.250 1294.743 C 1043.237 1294.553, 1039.975 1294.397, 1032 1294.397 C 1024.025 1294.397, 1020.763 1294.553, 1024.750 1294.743 M 1680.378 1426 C 1680.378 1432.325, 1680.541 1434.912, 1680.739 1431.750 C 1680.937 1428.588, 1680.937 1423.412, 1680.739 1420.250 C 1680.541 1417.088, 1680.378 1419.675, 1680.378 1426 M 1599.789 1537.741 C 1603.248 1537.937, 1608.648 1537.936, 1611.789 1537.738 C 1614.930 1537.540, 1612.100 1537.380, 1605.500 1537.382 C 1598.900 1537.384, 1596.330 1537.546, 1599.789 1537.741" stroke="none" fill="#8ba3b7" fill-rule="evenodd"/><path d="M 1755.500 49.058 C 1733.072 52.084, 1709.081 60.480, 1647 87.030 C 1565.696 121.800, 1544.826 132.245, 1530.184 145.494 C 1524.113 150.987, 1519.314 157.722, 1512.546 170.250 L 1507.819 179 1551.409 179 L 1595 179 1595 176.645 C 1595 174.941, 1598.533 170.856, 1607.757 161.895 C 1648.041 122.755, 1680.080 106, 1714.641 106 C 1734.395 106, 1749.961 111.460, 1766.827 124.305 C 1770.550 127.141, 1773.102 130.189, 1775.304 134.431 L 1778.454 140.500 1778.819 159.750 L 1779.184 179 1810.229 179 L 1841.274 179 1840.686 146.250 C 1839.793 96.533, 1837.903 90.072, 1817.905 68.380 C 1808.031 57.669, 1801.676 53.671, 1789.500 50.509 C 1781.971 48.554, 1764.702 47.817, 1755.500 49.058 M 615.500 178.575 C 597.307 181.367, 575.028 190.503, 569.216 197.554 C 564.997 202.673, 558.610 213.788, 555.744 221 C 550.689 233.723, 549.599 241.581, 549.644 265 C 549.689 288.998, 550.752 296.215, 558.037 322 C 571.915 371.118, 587.339 409.719, 615.861 466.716 C 629.231 493.433, 633.711 500.426, 643.829 510.370 L 649.801 516.240 651.067 513.870 C 658.282 500.358, 674.451 471.184, 675.349 470.058 C 676.065 469.162, 676.092 468.860, 675.421 469.261 C 673.602 470.349, 662.410 454.191, 660.348 447.500 C 658.716 442.200, 658.558 438.993, 659 420 C 659.947 379.263, 659.553 365.127, 657.309 359.406 C 654.501 352.247, 650.007 346.059, 639.956 335.508 C 625.200 320.019, 619.916 305.800, 619.921 281.591 C 619.923 269.203, 620.222 266.744, 622.656 259.099 C 626.015 248.550, 631.166 242.756, 640.500 239.027 C 643.800 237.709, 648.177 235.590, 650.226 234.318 C 652.275 233.046, 657.900 230.803, 662.726 229.333 C 670.752 226.888, 672.950 226.659, 688.500 226.648 C 715.510 226.629, 726.457 229.582, 759.429 245.778 C 790.690 261.134, 813.581 275.930, 838 296.564 C 848.884 305.761, 852.074 307.399, 857.623 306.638 C 860.334 306.267, 875.047 299.480, 897.636 288.182 L 933.362 270.313 928.431 265.568 C 925.719 262.957, 920.575 259.093, 917 256.980 C 910.343 253.045, 874.286 238.448, 836 224.187 C 769.424 199.390, 707.320 182.655, 664.789 178.051 C 651.605 176.624, 626.472 176.891, 615.500 178.575 M 1285.634 254.712 C 1284.037 255.122, 1283.851 255.864, 1284.344 259.846 C 1286.882 280.326, 1287.480 297.857, 1287.490 352 C 1287.501 415.491, 1287.537 414.965, 1281.459 439.256 C 1277.911 453.432, 1275.495 460.250, 1269.980 471.642 C 1262.422 487.253, 1247.825 505.215, 1240.401 508.038 C 1235.817 509.781, 1223.836 510.318, 1217.753 509.054 C 1206.325 506.679, 1177.118 483.024, 1169.160 469.698 C 1160.365 454.972, 1153.795 434.892, 1142.052 386.853 C 1126.679 323.962, 1124.870 313.688, 1124.650 288 L 1124.500 270.500 1120.308 270.684 C 1118.003 270.784, 1115.204 271.356, 1114.088 271.953 C 1112.078 273.029, 1112.064 273.513, 1112.661 323.269 C 1113.356 381.192, 1112.623 395.259, 1107.985 413 C 1098.824 448.043, 1089.648 466.732, 1074.896 480.390 C 1066.764 487.919, 1064.860 488.472, 1049.235 487.834 C 1034.966 487.252, 1029.222 484.330, 1017.681 471.782 C 988.331 439.869, 982.552 426.672, 961.938 344.500 C 957.937 328.550, 954.519 315.318, 954.343 315.095 C 953.371 313.865, 923.292 328.356, 904 339.349 C 889.598 347.555, 878.532 352.273, 868.319 354.561 C 858.397 356.784, 851.918 355.441, 845.556 349.840 L 840.954 345.789 838.905 348.394 C 837.778 349.827, 830.701 355.355, 823.178 360.678 C 815.655 366.002, 805.225 373.751, 800 377.898 C 786.415 388.681, 764.213 410.752, 754.674 422.957 C 743.815 436.850, 739.484 441.551, 735.129 444.167 C 733.133 445.366, 731.394 446.412, 731.265 446.492 C 731.136 446.571, 731.956 448.406, 733.088 450.568 C 737.373 458.753, 733.854 471.345, 722.792 487.420 C 699.533 521.218, 688.200 540.078, 676.473 564.500 C 651.163 617.209, 636.688 669.166, 629.808 732 C 628.090 747.691, 628.095 807.802, 629.815 823.500 C 631.465 838.550, 638.051 884.603, 642.037 908.965 C 647.727 943.734, 652.100 961.614, 665.856 1006.346 C 668.536 1015.061, 672.702 1030.243, 675.114 1040.085 L 679.500 1057.979 702.250 1057.989 L 725 1058 725 1049.038 C 725 1038.666, 727.539 1030.294, 731.670 1027.045 C 735.682 1023.889, 744.310 1020.131, 751.188 1018.543 C 763.396 1015.724, 844.041 1010.447, 863.740 1011.177 C 880.633 1011.803, 882.801 1013.752, 885.736 1030.952 L 887.495 1041.259 881.997 1046.192 C 874.633 1052.801, 864.264 1057.812, 856 1058.757 C 850.963 1059.333, 854.564 1059.639, 872 1060.116 C 889.318 1060.590, 895.766 1061.134, 899.998 1062.478 C 923.608 1069.978, 948.288 1093.757, 960.856 1121.114 C 968.217 1137.137, 970.528 1145.346, 981.512 1194.500 C 985.691 1213.200, 992.507 1242.450, 996.658 1259.500 C 1000.810 1276.550, 1004.427 1291.460, 1004.697 1292.633 C 1005.187 1294.762, 1005.235 1294.764, 1032.844 1294.251 C 1061.215 1293.724, 1080.037 1294.694, 1096.024 1297.504 C 1103.740 1298.861, 1104.790 1299.328, 1107.805 1302.747 C 1112.482 1308.051, 1115.767 1315.497, 1116.547 1322.564 C 1117.216 1328.624, 1117.213 1328.632, 1112.974 1333.530 C 1102.034 1346.170, 1097.709 1347.524, 1071 1346.671 C 1054.178 1346.133, 1036.818 1344.641, 1021.352 1342.404 L 1017.204 1341.803 1035.846 1416.402 L 1054.489 1491 1145.995 1491.072 C 1273.675 1491.172, 1330.162 1492.256, 1344.500 1494.880 C 1363.241 1498.309, 1383.224 1506.272, 1394.469 1514.790 C 1400.536 1519.386, 1411.728 1533.030, 1417.610 1543 C 1422.800 1551.797, 1429.266 1567.832, 1431.680 1577.890 C 1432.618 1581.798, 1433.663 1584.545, 1434.003 1583.995 C 1434.343 1583.445, 1446.744 1580.279, 1461.561 1576.959 C 1500.618 1568.208, 1503.609 1567.686, 1511 1568.337 C 1516.614 1568.831, 1519.932 1569.520, 1531.500 1572.597 C 1532.600 1572.890, 1529.225 1570.797, 1524 1567.947 C 1484.797 1546.561, 1448.523 1513.640, 1426.545 1479.500 C 1418.911 1467.642, 1415.789 1461.747, 1409.005 1446.388 C 1395.598 1416.037, 1385.024 1399.106, 1370 1383.939 C 1359.585 1373.424, 1335.072 1354.580, 1325.573 1349.785 C 1320.001 1346.972, 1318.991 1346.786, 1312.026 1347.298 C 1307.328 1347.643, 1302.177 1348.811, 1298.318 1350.406 C 1285.852 1355.558, 1271.887 1356.058, 1256.848 1351.891 C 1249.503 1349.855, 1246.623 1348.032, 1235.230 1338.204 C 1223.121 1327.759, 1213.384 1311.980, 1212.008 1300.572 C 1211.037 1292.529, 1212.501 1274.803, 1215.019 1264.105 C 1221.027 1238.579, 1231.278 1217.784, 1255.742 1181.500 C 1278.066 1148.390, 1290.072 1133.110, 1305.695 1117.926 C 1325.479 1098.698, 1338.207 1090.626, 1358.716 1084.303 C 1366.805 1081.809, 1368.846 1081.594, 1384.500 1081.595 C 1424.327 1081.597, 1450.075 1091.842, 1487.461 1122.562 C 1494.589 1128.419, 1503.084 1135.020, 1506.338 1137.230 C 1513.268 1141.935, 1528.978 1149.489, 1534 1150.530 C 1540.726 1151.924, 1557.392 1158.176, 1566.409 1162.689 C 1581.943 1170.462, 1596.949 1180.836, 1617.876 1198.269 C 1627.810 1206.543, 1635.510 1211.680, 1642 1214.361 C 1645.196 1215.681, 1646.323 1215.599, 1654.960 1213.411 C 1668.070 1210.090, 1676.154 1206.900, 1693.190 1198.325 C 1716.889 1186.395, 1743.700 1167.802, 1768.196 1146.308 C 1806.584 1112.624, 1842.175 1060.542, 1862.801 1007.869 C 1880.043 963.835, 1889.026 919.776, 1892.104 864.145 C 1893.606 836.986, 1892.690 760.007, 1890.566 735 C 1887.862 703.165, 1880.449 650.146, 1875.256 625.500 L 1874.414 621.500 1846.957 620.866 C 1831.856 620.517, 1752.225 619.697, 1670 619.043 C 1505.390 617.735, 1483.567 617.188, 1471.963 614.081 C 1440.640 605.692, 1418.658 587.629, 1403.779 558.051 C 1392.762 536.149, 1389.002 514.341, 1389.001 472.330 L 1389 449.161 1383.750 447.440 C 1368.803 442.543, 1356.458 433.986, 1348.698 423.145 C 1326.337 391.905, 1309.464 350.237, 1301.060 305.500 C 1298.377 291.217, 1296 270.432, 1296 261.256 L 1296 254 1291.750 254.116 C 1289.412 254.180, 1286.660 254.448, 1285.634 254.712 M 1373 674.538 C 1351.187 676.016, 1346.906 676.889, 1337.654 681.751 C 1328.238 686.699, 1324.996 691.621, 1325.010 700.946 C 1325.022 709.031, 1327.938 715.751, 1333.930 721.500 L 1338.099 725.500 1360.800 725.455 C 1386.794 725.403, 1394.868 724.145, 1416.982 716.702 L 1429.463 712.500 1430.692 706.940 C 1431.368 703.881, 1432.333 698.031, 1432.837 693.940 L 1433.752 686.500 1429.003 681.869 C 1426.033 678.973, 1422.133 676.445, 1418.590 675.119 C 1411.951 672.635, 1402.808 672.519, 1373 674.538 M 975.976 720.090 C 956.350 721.027, 947.099 722.781, 937.340 727.416 C 930.880 730.484, 929.838 731.386, 927.555 735.891 C 922.574 745.720, 924.832 758.111, 933.159 766.640 C 937.075 770.652, 937.454 770.801, 945.350 771.438 C 956.214 772.315, 995.684 770.410, 1005.478 768.536 C 1016.723 766.384, 1025.683 761.603, 1029.750 755.584 C 1032.607 751.355, 1033 749.972, 1032.999 744.137 C 1032.999 738.903, 1032.394 736.232, 1030.140 731.500 C 1023.947 718.500, 1021.239 717.930, 975.976 720.090 M 1443.018 787.136 C 1433.859 791.629, 1431.420 793.412, 1423.525 801.386 C 1413.692 811.316, 1403.478 824.933, 1401.453 830.812 C 1395.590 847.827, 1398.876 871.501, 1410.092 893.059 C 1419.140 910.452, 1435.570 922.942, 1456.782 928.555 C 1465.455 930.850, 1484.577 930.612, 1494.287 928.087 C 1517.949 921.936, 1538.286 903.291, 1548.218 878.644 C 1551.393 870.767, 1551.499 870.042, 1551.464 856.500 C 1551.431 843.467, 1551.216 841.899, 1548.353 833.806 C 1539.352 808.366, 1517.502 788.819, 1492.026 783.418 C 1488.051 782.575, 1479.244 782.028, 1469.493 782.017 L 1453.486 782 1443.018 787.136 M 1204.500 823.585 C 1190.709 825.469, 1184.288 826.645, 1169.266 830.039 C 1159.787 832.180, 1150.670 834.636, 1149.006 835.497 C 1147.343 836.357, 1143.933 839.635, 1141.429 842.780 C 1136.911 848.457, 1136.882 848.544, 1137.504 854.386 C 1138.365 862.478, 1141.270 869.679, 1145.770 874.881 L 1149.561 879.261 1161.807 879.296 L 1174.053 879.330 1173.776 893.415 L 1173.500 907.500 1166.500 908.212 C 1150.340 909.857, 1133.318 916.313, 1121.433 925.304 C 1112.420 932.124, 1100.769 944.801, 1096.500 952.433 C 1084.413 974.047, 1081.732 1008.063, 1089.941 1035.656 C 1100.641 1071.619, 1120.645 1101.628, 1147.034 1121.300 C 1159.294 1130.440, 1179.002 1138.255, 1198.276 1141.619 C 1216.736 1144.841, 1241.042 1142.046, 1254.753 1135.125 C 1263.170 1130.876, 1277.465 1121.036, 1284.727 1114.492 C 1302.086 1098.850, 1318.453 1071.826, 1325.467 1047.223 C 1335.229 1012.980, 1333.537 965.901, 1321.826 945.887 C 1315.822 935.627, 1300.033 919.871, 1289 913.130 C 1274.898 904.513, 1271.315 903.721, 1244.226 903.232 L 1220.951 902.812 1221.226 886.668 L 1221.500 870.523 1226.169 869.856 C 1235.066 868.585, 1241.432 866.109, 1246 862.142 L 1250.500 858.234 1250.500 847.545 L 1250.500 836.857 1247 833.941 C 1242.528 830.214, 1236.389 827.187, 1229.744 825.429 C 1224.206 823.964, 1209.560 822.894, 1204.500 823.585 M 896.304 844.965 C 890.833 846.267, 877.869 855.092, 869.172 863.436 C 859.957 872.277, 851.290 884.480, 847.363 894.145 C 844.909 900.184, 844.817 901.118, 845.256 915.480 C 846.175 945.580, 854.446 963.112, 874.500 977.469 C 901.697 996.939, 934.317 998.098, 962.403 980.593 C 988.049 964.609, 1003.795 925.613, 995.148 899.500 C 990.271 884.772, 978.931 868.142, 968.230 860.024 C 959.589 853.469, 947.438 847.609, 938.303 845.590 C 930.670 843.904, 902.526 843.485, 896.304 844.965 M 1641.500 918.099 C 1631.600 919.115, 1610.900 921.074, 1595.500 922.451 C 1562.072 925.441, 1558.569 926.044, 1549.500 930.368 C 1537.880 935.908, 1533.550 941.669, 1533.618 951.500 C 1533.670 958.854, 1536.269 965.099, 1541.610 970.702 L 1545.500 974.782 1556.500 975.531 C 1571.947 976.583, 1591.002 975.554, 1632 971.454 C 1669.667 967.687, 1674.527 966.774, 1685.009 961.496 L 1691.637 958.158 1693.285 950.329 C 1694.192 946.023, 1695.170 939.314, 1695.458 935.420 C 1695.973 928.461, 1695.922 928.269, 1692.489 924.258 C 1686.822 917.638, 1682.219 915.978, 1669.934 916.126 C 1664.195 916.195, 1651.400 917.083, 1641.500 918.099 M 1555.500 1005.627 C 1549.969 1007.272, 1547.946 1009.199, 1544.395 1016.207 C 1539.718 1025.438, 1542.218 1037.798, 1550.105 1044.435 C 1558.521 1051.516, 1569.504 1055.430, 1607.500 1064.886 C 1639.130 1072.758, 1646.040 1074.013, 1661.500 1074.697 L 1674.500 1075.272 1678.994 1071.840 C 1686.113 1066.403, 1687.964 1062.202, 1687.984 1051.444 C 1687.998 1043.496, 1687.713 1041.999, 1685.652 1039.205 C 1679.401 1030.734, 1671.151 1026.561, 1650.833 1021.597 C 1618.780 1013.765, 1586.154 1006.096, 1580.566 1005.079 C 1572.439 1003.601, 1561.507 1003.840, 1555.500 1005.627 M 362.281 1053.986 C 281.861 1054.326, 215.749 1054.918, 215.365 1055.302 C 214.981 1055.686, 264.167 1056, 324.668 1056 C 385.168 1056, 478.056 1056.291, 531.084 1056.648 L 627.500 1057.295 625.595 1055.148 L 623.690 1053 566.095 1053.184 C 534.418 1053.285, 442.702 1053.645, 362.281 1053.986 M 754.250 1058.739 C 757.413 1058.937, 762.587 1058.937, 765.750 1058.739 C 768.913 1058.541, 766.325 1058.378, 760 1058.378 C 753.675 1058.378, 751.087 1058.541, 754.250 1058.739 M 823.296 1059.744 C 827.583 1059.932, 834.333 1059.931, 838.296 1059.742 C 842.258 1059.552, 838.750 1059.399, 830.500 1059.400 C 822.250 1059.401, 819.008 1059.556, 823.296 1059.744 M 1376.715 1129.058 C 1354.214 1134.589, 1336.753 1147.683, 1317.632 1173.364 C 1289.809 1210.733, 1271.148 1237.736, 1264.471 1250.288 C 1257.833 1262.766, 1256.621 1268.724, 1257.307 1285.500 L 1257.879 1299.500 1261.924 1303.122 C 1267.926 1308.497, 1274.009 1309.326, 1282.833 1305.972 C 1307.112 1296.744, 1326.549 1279.550, 1354.835 1242.277 C 1366.789 1226.525, 1369.258 1224.279, 1376.025 1222.995 C 1384.618 1221.366, 1390.645 1223.043, 1396.076 1228.577 L 1400.500 1233.085 1400.500 1241.793 C 1400.500 1249.769, 1400.220 1251.017, 1397.159 1256.659 C 1395.321 1260.047, 1387.968 1269.497, 1380.818 1277.659 C 1365.595 1295.038, 1359.918 1302.675, 1356.529 1310.338 L 1354.062 1315.917 1358.281 1319.311 C 1374.017 1331.969, 1394.544 1346.554, 1401.400 1349.948 C 1415.807 1357.081, 1422.544 1358.370, 1445.500 1358.389 L 1465.500 1358.405 1472.165 1355.192 C 1489.063 1347.046, 1501.664 1333.836, 1520.130 1304.906 C 1534.515 1282.369, 1538.549 1269.529, 1537.798 1248.670 C 1537.376 1236.942, 1537.221 1236.228, 1533.544 1229 C 1523.213 1208.693, 1503.734 1186.171, 1479.981 1167.072 C 1451.604 1144.254, 1423.627 1130.315, 1401.527 1127.986 C 1389.212 1126.688, 1385.749 1126.838, 1376.715 1129.058 M 1583 1239.122 C 1583 1253.224, 1577.829 1278.290, 1571.460 1295.062 C 1562.138 1319.611, 1549.243 1339.716, 1527.772 1363.176 C 1512.786 1379.550, 1498.767 1388.810, 1479 1395.391 C 1468.446 1398.905, 1450.449 1403, 1445.562 1403 C 1444.118 1403, 1442.698 1403.624, 1442.406 1404.386 C 1440.811 1408.540, 1452.143 1433.957, 1462.793 1450.116 C 1478.687 1474.231, 1505.898 1501.639, 1524.573 1512.343 C 1555.379 1530.001, 1578.334 1537, 1605.440 1537 C 1622.044 1537, 1623.179 1536.643, 1636.500 1527.236 C 1650.883 1517.078, 1660.794 1505.039, 1668.915 1487.862 C 1676.518 1471.780, 1679.947 1452.601, 1679.980 1425.974 C 1680.044 1375.405, 1663.929 1329.101, 1627.243 1274.445 C 1603.014 1238.347, 1597.846 1233, 1587.184 1233 L 1583 1233 1583 1239.122" stroke="none" fill="#aeb9c7" fill-rule="evenodd"/><path d="M 1841.317 140 C 1841.322 153.972, 1841.447 155.592, 1841.936 148.034 C 1842.273 142.828, 1842.270 134.953, 1841.929 130.534 C 1841.489 124.827, 1841.312 127.569, 1841.317 140 M 1509.808 172.621 C 1508.864 173.565, 1503.079 175.255, 1495.957 176.668 C 1458.344 184.132, 1433.543 198.253, 1414.436 223.083 C 1407.872 231.613, 1400.056 245.471, 1399.031 250.395 C 1398.561 252.653, 1397.475 257.650, 1396.618 261.500 C 1395.354 267.174, 1394.728 285.435, 1393.312 357.896 C 1391.858 432.297, 1391.325 447.532, 1390.138 448.719 C 1388.143 450.714, 1389.168 502.914, 1391.495 517.822 C 1395.598 544.104, 1406.760 568.231, 1423.309 586.589 C 1435.356 599.954, 1461.066 612.800, 1482 615.914 C 1486.939 616.648, 1545.334 617.527, 1653 618.486 C 1742.925 619.287, 1874.165 620.482, 1944.645 621.142 C 2083.931 622.445, 2084.219 622.438, 2095.464 617.150 C 2106.989 611.730, 2122.809 594.883, 2129.410 581 L 2132.500 574.500 2132.500 550.988 L 2132.500 527.476 2127.895 517.988 C 2121.875 505.585, 2114.622 495.997, 2096.509 476.500 C 2075.049 453.400, 2069.741 445.642, 2065.096 430.584 C 2061.932 420.328, 2061.174 405.663, 2060.569 343 C 2059.982 282.270, 2059.432 274.638, 2054.385 257.178 C 2046.492 229.875, 2027.530 204.742, 2005 191.723 C 1997.944 187.646, 1985.379 182.942, 1975.522 180.687 C 1966.525 178.629, 1965.872 178.624, 1737.157 178.954 L 1507.814 179.285 1509.927 175.142 C 1512.248 170.593, 1512.230 170.199, 1509.808 172.621 M 1722 223.083 C 1608.425 223.477, 1511 224.050, 1505.500 224.358 C 1493.246 225.044, 1485.917 226.888, 1475.500 231.905 C 1461.761 238.523, 1453.874 244.826, 1448.459 253.514 C 1443.166 262.006, 1438.702 273.972, 1436.898 284.500 C 1435.486 292.746, 1435.566 475.989, 1436.993 502.500 C 1438.293 526.644, 1442.631 537.538, 1456.529 551.562 C 1464.358 559.462, 1472.552 564.478, 1484.500 568.684 L 1492.500 571.500 1561 571.749 C 1598.675 571.886, 1730.590 571.661, 1854.145 571.249 C 2072.298 570.522, 2078.851 570.445, 2080.875 568.614 C 2084.180 565.622, 2087.142 556.361, 2087.331 548.427 C 2087.483 542.087, 2087.191 540.896, 2084.518 536.927 C 2082.877 534.492, 2069.575 520.575, 2054.958 506 C 2020.709 471.852, 2014.094 463.560, 2009.480 449 C 2007.008 441.198, 2006.459 411.537, 2007.917 364.500 C 2008.564 343.600, 2009.171 315.250, 2009.265 301.500 C 2009.432 277.003, 2009.383 276.345, 2006.837 268.792 C 2002.845 256.949, 1999.875 252.745, 1989.329 244.011 C 1974.047 231.354, 1959.082 224.689, 1943.292 223.508 C 1939.006 223.187, 1933.925 222.800, 1932 222.646 C 1930.075 222.493, 1835.575 222.690, 1722 223.083 M 1634.750 330.750 C 1662.387 330.898, 1707.612 330.898, 1735.250 330.750 C 1762.887 330.602, 1740.275 330.481, 1685 330.481 C 1629.725 330.481, 1607.112 330.602, 1634.750 330.750 M 1629.250 372.750 C 1678.063 372.893, 1757.938 372.893, 1806.750 372.750 C 1855.563 372.606, 1815.625 372.489, 1718 372.489 C 1620.375 372.489, 1580.438 372.606, 1629.250 372.750 M 1743.821 518.750 C 1759.948 518.904, 1786.048 518.904, 1801.821 518.749 C 1817.595 518.595, 1804.400 518.468, 1772.500 518.468 C 1740.600 518.468, 1727.695 518.595, 1743.821 518.750 M 1913.723 1015.695 C 1911.835 1016.186, 1904.666 1029.332, 1905.714 1030.381 C 1906.055 1030.721, 1905.782 1031, 1905.108 1031 C 1904.434 1031, 1904.160 1031.450, 1904.500 1032 C 1904.840 1032.550, 1904.615 1033, 1904 1033 C 1903.385 1033, 1903.160 1033.450, 1903.500 1034 C 1903.840 1034.550, 1903.615 1035, 1903 1035 C 1902.385 1035, 1902.160 1035.450, 1902.500 1036 C 1902.840 1036.550, 1902.615 1037, 1902 1037 C 1901.385 1037, 1901.160 1037.450, 1901.500 1038 C 1901.840 1038.550, 1901.615 1039, 1901 1039 C 1900.385 1039, 1900.160 1039.450, 1900.500 1040 C 1900.840 1040.550, 1900.615 1041, 1900 1041 C 1899.385 1041, 1899.135 1041.409, 1899.444 1041.910 C 1900.136 1043.029, 1899.037 1046.141, 1898.145 1045.590 C 1897.453 1045.162, 1897.290 1046.108, 1896.400 1055.750 L 1895.822 1062 1906.661 1062.027 C 1924.347 1062.072, 1946.014 1063.719, 1953.405 1065.581 C 1957.213 1066.541, 1967.503 1070.948, 1976.350 1075.410 L 1992.391 1083.500 1996.228 1089.985 C 1998.338 1093.551, 2001.063 1099.401, 2002.282 1102.985 C 2004.497 1109.491, 2004.500 1109.609, 2004.592 1190 C 2004.684 1271.112, 2004.994 1279.148, 2008.402 1289.041 C 2011.228 1297.242, 2016.766 1304.766, 2029 1317.026 C 2039.639 1327.688, 2055.345 1344.687, 2069.164 1360.500 C 2071.087 1362.700, 2075.023 1367.650, 2077.911 1371.500 C 2083.128 1378.454, 2083.158 1378.536, 2082.499 1384 C 2081.767 1390.078, 2077.747 1400.014, 2075.023 1402.480 C 2073.456 1403.897, 2057.453 1404.221, 1923.385 1405.549 C 1840.948 1406.365, 1762.651 1407.299, 1749.392 1407.624 L 1725.284 1408.216 1724.751 1430.858 C 1724.458 1443.311, 1724.331 1453.624, 1724.469 1453.776 C 1724.950 1454.307, 2049.650 1456.200, 2066 1455.767 C 2081.134 1455.367, 2083.214 1455.082, 2091.118 1452.330 C 2107.827 1446.512, 2121.463 1434.818, 2128.927 1419.906 L 2133 1411.768 2132.976 1388.634 C 2132.954 1366.569, 2132.842 1365.232, 2130.567 1359.698 C 2125.860 1348.252, 2121.541 1342.621, 2102.449 1323.039 C 2081.134 1301.177, 2075.825 1294.682, 2069.517 1282.743 C 2064.094 1272.481, 2061.370 1264.205, 2059.402 1252.016 C 2058.088 1243.881, 2057.967 1233.638, 2058.545 1180.016 C 2059.284 1111.499, 2059.076 1107.855, 2053.395 1089.844 C 2047.789 1072.073, 2039.231 1058.282, 2025.836 1045.432 C 2007.339 1027.687, 1989.420 1019.390, 1962.500 1016.104 C 1953.846 1015.048, 1917.384 1014.742, 1913.723 1015.695 M 1711.302 1258.746 C 1716.693 1258.926, 1725.243 1258.925, 1730.302 1258.744 C 1735.361 1258.563, 1730.950 1258.416, 1720.500 1258.417 C 1710.050 1258.418, 1705.911 1258.566, 1711.302 1258.746 M 1877.195 1259.746 C 1883.077 1259.922, 1892.977 1259.923, 1899.195 1259.747 C 1905.413 1259.571, 1900.600 1259.427, 1888.500 1259.426 C 1876.400 1259.425, 1871.313 1259.569, 1877.195 1259.746 M 1810.750 1306.743 C 1814.737 1306.932, 1821.263 1306.932, 1825.250 1306.743 C 1829.237 1306.553, 1825.975 1306.397, 1818 1306.397 C 1810.025 1306.397, 1806.763 1306.553, 1810.750 1306.743 M 1873.314 1306.749 C 1882.561 1306.914, 1897.411 1306.913, 1906.314 1306.748 C 1915.216 1306.582, 1907.650 1306.447, 1889.500 1306.448 C 1871.350 1306.448, 1864.066 1306.583, 1873.314 1306.749 M 1791.750 1350.746 C 1797.388 1350.924, 1806.612 1350.924, 1812.250 1350.746 C 1817.888 1350.568, 1813.275 1350.422, 1802 1350.422 C 1790.725 1350.422, 1786.112 1350.568, 1791.750 1350.746" stroke="none" fill="#00d4d8" fill-rule="evenodd"/><path d="M 1639 223.982 C 1497.739 224.554, 1497.487 224.558, 1489.804 226.723 C 1480.385 229.376, 1471.916 233.460, 1461.858 240.198 C 1455.958 244.150, 1453.225 246.821, 1449.873 251.909 C 1443.690 261.294, 1439.245 273.047, 1437.499 284.630 C 1435.813 295.816, 1435.662 342.401, 1436.953 453 C 1437.773 523.249, 1437.641 521.815, 1444.534 534.932 C 1453.488 551.972, 1468.379 563.818, 1487.406 569.038 L 1494.911 571.097 1786.390 570.798 L 2077.869 570.500 2080.826 567.667 C 2086.037 562.674, 2088.992 545.218, 2085.647 539.190 C 2083.122 534.639, 2066.359 516.749, 2049.386 500.491 C 2039.885 491.389, 2028.744 479.929, 2024.629 475.025 C 2006.104 452.945, 2004.948 446.721, 2007.017 380.180 C 2007.763 356.156, 2008.403 322.550, 2008.437 305.500 C 2008.493 277.727, 2008.305 273.927, 2006.628 269 C 2003.393 259.496, 1999.099 252.466, 1993.680 247.801 C 1979.568 235.652, 1969.083 229.628, 1955.296 225.748 C 1947.564 223.571, 1946.818 223.553, 1864 223.481 C 1818.075 223.442, 1716.825 223.667, 1639 223.982 M 1524.444 283.374 C 1517.751 286.490, 1512.286 292.912, 1511.421 298.676 C 1511.057 301.103, 1510.955 307.166, 1511.193 312.149 C 1511.686 322.468, 1512.059 323.008, 1522 327.785 L 1527.500 330.427 1722.144 330.829 C 1943.775 331.287, 1923.026 332.105, 1932.598 322.532 C 1937.377 317.753, 1937.814 316.912, 1938.477 311.202 C 1938.870 307.810, 1938.877 302.664, 1938.491 299.767 C 1937.872 295.121, 1937.164 293.888, 1932.483 289.315 C 1923.192 280.237, 1942.402 280.999, 1723.068 281.010 L 1529.500 281.020 1524.444 283.374 M 1534 372.962 C 1517.198 374.440, 1510.454 383.208, 1511.155 402.660 L 1511.500 412.231 1515.436 415.632 C 1523.179 422.323, 1509.320 421.896, 1723.279 422.047 C 1830.101 422.123, 1920.249 421.868, 1923.608 421.480 L 1929.717 420.774 1933.302 414.637 C 1937.809 406.921, 1939.308 400.385, 1938.435 392.241 C 1937.808 386.380, 1937.465 385.696, 1933.560 382.496 C 1927.665 377.665, 1919.622 374.225, 1911.469 373.047 C 1903.687 371.922, 1546.729 371.842, 1534 372.962 M 1676.484 470.058 C 1674.826 470.541, 1671.676 472.773, 1669.484 475.018 L 1665.500 479.100 1665.500 491.661 L 1665.500 504.221 1669 507.183 C 1674.569 511.895, 1680.061 514.793, 1687.025 516.693 C 1693.030 518.331, 1701.513 518.461, 1804 518.480 L 1914.500 518.500 1920 515.914 C 1925.250 513.445, 1933.391 506.272, 1936.856 501.061 C 1938.074 499.228, 1938.478 496.196, 1938.478 488.880 C 1938.478 479.963, 1938.274 478.921, 1936.069 476.574 C 1934.744 475.164, 1931.399 472.883, 1928.634 471.505 L 1923.607 469 1801.554 469.090 C 1734.424 469.140, 1678.143 469.575, 1676.484 470.058 M 1886.448 1068.250 C 1879.639 1081.650, 1863.938 1111.078, 1860.228 1117.396 C 1859.938 1117.889, 1860.781 1118.025, 1862.101 1117.699 C 1863.420 1117.373, 1871.296 1116.574, 1879.601 1115.924 C 1908.291 1113.680, 1926.968 1118.225, 1935.609 1129.554 C 1938.129 1132.857, 1938.385 1133.973, 1938.440 1141.844 C 1938.515 1152.598, 1936.195 1158.397, 1930.036 1162.859 C 1922.976 1167.973, 1920.107 1168.177, 1866 1167.412 L 1816.500 1166.712 1809.500 1170.243 C 1798.785 1175.647, 1791.551 1181.624, 1776.544 1197.471 C 1760.525 1214.388, 1760.026 1213.422, 1783 1209.952 C 1798.174 1207.660, 1824.416 1207.386, 1885 1208.888 C 1922.086 1209.807, 1924.928 1210.359, 1932.826 1218.179 C 1937.818 1223.122, 1938.467 1225.058, 1938.457 1235 C 1938.444 1248.433, 1931.983 1256.538, 1919.382 1258.928 C 1916.296 1259.513, 1868.410 1259.560, 1792.957 1259.052 C 1726.156 1258.603, 1671.428 1258.295, 1671.341 1258.368 C 1670.984 1258.664, 1679.890 1280.032, 1683.021 1286.390 C 1684.872 1290.150, 1688.662 1295.598, 1691.443 1298.498 C 1699.272 1306.660, 1695.012 1306.397, 1820.085 1306.452 L 1926.669 1306.500 1930.749 1309.327 C 1938.222 1314.504, 1938.427 1314.963, 1938.375 1326.413 C 1938.332 1335.981, 1938.142 1336.948, 1935.664 1340.196 C 1934.199 1342.117, 1933 1344.209, 1933 1344.844 C 1933 1345.480, 1932.351 1346, 1931.557 1346 C 1930.764 1346, 1928.401 1347.012, 1926.307 1348.250 L 1922.500 1350.500 1817.750 1350.275 C 1760.138 1350.151, 1713 1350.425, 1713 1350.883 C 1713 1351.341, 1714.772 1359.594, 1716.938 1369.224 C 1720.584 1385.437, 1721.396 1391.872, 1723.340 1420 C 1723.511 1422.475, 1723.729 1420.563, 1723.825 1415.750 L 1724 1407 1736.250 1407.020 C 1775.138 1407.084, 2059.895 1403.804, 2066.895 1403.211 L 2075.290 1402.500 2078.275 1396.791 C 2080.473 1392.589, 2081.377 1389.288, 2081.700 1384.291 L 2082.138 1377.500 2076.217 1369.692 C 2072.961 1365.398, 2063.143 1353.937, 2054.398 1344.224 C 2037.188 1325.105, 2037.849 1325.799, 2026.902 1315.410 C 2018.126 1307.081, 2010.804 1296.772, 2008.023 1288.828 C 2004.273 1278.118, 2003.868 1267.666, 2004.129 1188.500 C 2004.404 1105.069, 2004.522 1106.974, 1998.314 1094.571 C 1993.483 1084.917, 1991.703 1083.366, 1977.038 1076.019 C 1954.382 1064.670, 1946.556 1063.011, 1915.526 1062.985 C 1905.612 1062.976, 1896.870 1062.570, 1896.099 1062.082 C 1895.056 1061.422, 1894.853 1059.892, 1895.302 1056.098 C 1895.634 1053.294, 1895.750 1051, 1895.559 1051 C 1895.369 1051, 1891.269 1058.763, 1886.448 1068.250" stroke="none" fill="#00e0e8" fill-rule="evenodd"/><path d="M 208.500 541.861 C 206.300 542.871, 202.527 545.847, 200.116 548.473 L 195.731 553.247 196.298 560.873 C 196.609 565.068, 197.578 570.831, 198.450 573.679 C 200.235 579.510, 202.741 581.543, 212.649 585.195 L 218.500 587.353 382.500 588.216 C 472.700 588.691, 559.342 588.936, 575.037 588.761 L 603.574 588.443 609.077 585.751 C 612.104 584.270, 615.688 581.582, 617.041 579.779 C 619.175 576.933, 619.500 575.443, 619.500 568.500 C 619.500 561.439, 619.114 559.737, 616.211 554 C 614.402 550.425, 611.622 545.925, 610.033 544 L 607.144 540.500 409.822 540.261 C 220.151 540.032, 212.345 540.094, 208.500 541.861 M 214.781 632.052 C 203.170 633.427, 195.050 642.468, 194.742 654.368 C 194.526 662.666, 196.518 667.648, 202.404 673.534 L 207.653 678.784 218.253 679.506 C 229.904 680.301, 590.515 678.821, 591.359 677.975 C 591.647 677.687, 592.182 675.212, 592.549 672.475 C 592.915 669.739, 593.354 667.265, 593.525 666.979 C 593.696 666.692, 594.120 664.442, 594.468 661.979 C 594.816 659.515, 595.287 656.825, 595.514 656 C 595.742 655.175, 596.174 652.925, 596.474 651 C 596.774 649.075, 597.437 645.475, 597.947 643 C 598.456 640.525, 599.054 637.316, 599.275 635.869 L 599.677 633.238 526.589 632.635 C 409.449 631.667, 221.006 631.315, 214.781 632.052 M 311.304 723.747 C 317.247 723.924, 326.697 723.923, 332.304 723.745 C 337.912 723.567, 333.050 723.422, 321.500 723.423 C 309.950 723.424, 305.362 723.570, 311.304 723.747" stroke="none" fill="#675d5f" fill-rule="evenodd"/><path d="M 181.500 431.612 C 152.690 435.520, 132.357 443.054, 114.662 456.380 C 105.657 463.160, 101.047 468.634, 93.413 481.604 C 86.354 493.599, 80.688 507.903, 77.809 521 C 75.524 531.391, 75.500 532.211, 75.466 600 C 75.440 651.881, 75.124 669.702, 74.165 673.455 C 72.262 680.907, 68.443 690.034, 60.968 705 C 54.468 718.012, 53.886 718.808, 44.862 727.036 C 39.713 731.731, 32.882 737.806, 29.682 740.536 C 19.497 749.224, 7.289 766.680, 2.500 779.403 C 0.118 785.733, 0 787.054, 0 807.485 C -0 826.982, 0.195 829.449, 2.155 834.712 C 5.429 843.506, 11.316 852.113, 19.040 859.399 C 29.195 868.978, 39.564 873.672, 55.585 875.941 C 61.842 876.827, 583.684 875.465, 586.541 874.555 C 587.238 874.333, 586.802 866.022, 585.219 849.362 C 582.069 816.208, 581.674 757.527, 584.452 735.500 C 585.423 727.800, 586.439 711.876, 586.710 700.113 L 587.203 678.726 407.299 679.471 C 308.352 679.881, 222.941 679.882, 217.498 679.474 L 207.602 678.732 202.378 673.508 C 196.488 667.619, 194.525 662.652, 194.748 654.208 C 194.902 648.398, 199.546 637.066, 201.790 637.024 C 202.500 637.011, 204.346 636.065, 205.892 634.921 C 207.635 633.633, 211.326 632.506, 215.602 631.956 C 219.396 631.468, 258.050 631.277, 301.500 631.532 C 344.950 631.787, 429.850 632.221, 490.167 632.496 L 599.835 632.997 608.021 608.436 C 612.524 594.927, 615.964 583.631, 615.667 583.333 C 615.369 583.035, 612.526 584.063, 609.349 585.618 L 603.574 588.443 575.037 588.761 C 559.342 588.936, 472.700 588.691, 382.500 588.216 L 218.500 587.353 212.649 585.195 C 202.736 581.540, 200.234 579.510, 198.458 573.679 C 197.591 570.831, 196.616 565.213, 196.292 561.196 C 195.772 554.751, 195.956 553.551, 197.852 550.987 C 199.033 549.389, 200 547.350, 200 546.457 C 200 545.564, 200.548 545.016, 201.217 545.239 C 201.887 545.462, 203.957 544.612, 205.818 543.349 C 207.679 542.086, 210.618 540.797, 212.351 540.484 C 214.083 540.171, 303.775 540.046, 411.666 540.207 L 607.832 540.500 603.512 532.500 C 588.693 505.055, 560.756 452.842, 556.059 443.809 L 550.500 433.117 544.500 432.588 C 537.412 431.962, 185.886 431.018, 181.500 431.612 M 211.753 724.011 C 205.353 725.644, 200.269 729.751, 197.409 735.597 C 195.088 740.340, 194.832 741.898, 195.146 749.380 C 195.468 757.054, 195.779 758.163, 198.595 761.658 C 200.298 763.771, 203.599 766.850, 205.931 768.500 L 210.171 771.500 326.708 771.778 C 403.758 771.962, 445.137 771.706, 448.830 771.024 C 455.402 769.809, 461.300 766.196, 464.035 761.710 C 466.570 757.553, 466.691 746.344, 464.311 736.172 C 462.371 727.877, 461.375 726.985, 452 725.154 C 444.733 723.735, 217.079 722.652, 211.753 724.011" stroke="none" fill="#ff80a8" fill-rule="evenodd"/><path d="M 1741.568 1.582 C 1711.009 6.332, 1677.299 18.136, 1636 38.550 C 1593.343 59.635, 1554.385 82.044, 1516.500 107.288 C 1491.629 123.861, 1480.617 131.996, 1468.657 142.634 C 1448.368 160.681, 1445.028 163.416, 1435.102 170.112 C 1412.700 185.224, 1389.592 193.893, 1359.500 198.472 C 1347.518 200.296, 1322.030 201.635, 1273.500 202.990 C 1234.756 204.072, 1221.632 205.092, 1176 210.567 C 1128.118 216.313, 1111.981 219.071, 1080 226.980 C 1051.029 234.143, 1041.757 235.445, 1019.500 235.472 C 1003.587 235.491, 998.658 235.122, 989.166 233.201 C 967.550 228.827, 951.874 222.799, 916.202 205.145 C 890.862 192.604, 874.476 185.932, 833.208 171.356 C 741.167 138.844, 684.378 126.690, 632 128.291 C 598.058 129.328, 568.977 136.471, 552.138 147.906 C 526.490 165.324, 510.138 189.893, 504.823 219 C 502.329 232.653, 501.284 267.854, 502.886 284.222 C 505.424 310.152, 511.767 338.892, 521.424 368.217 C 527.571 386.881, 543.673 429.886, 545.212 431.750 C 545.780 432.437, 547.202 433.005, 548.372 433.010 C 550.782 433.022, 553.833 438.370, 588.010 502.500 C 599.149 523.400, 610.009 543.311, 612.144 546.746 C 617.877 555.970, 620 562.093, 620 569.402 C 620 574.297, 619.529 576.329, 617.920 578.375 C 616.776 579.829, 616.027 581.577, 616.257 582.260 C 616.486 582.942, 612.926 594.729, 608.345 608.453 C 601.182 629.916, 599.456 636.488, 596.008 655.453 C 593.804 667.580, 592 677.839, 592 678.251 C 592 678.663, 591.141 679, 590.090 679 C 588.291 679, 588.154 680.139, 587.721 698.750 C 587.469 709.613, 586.433 724.575, 585.420 732 C 582.683 752.058, 582.875 825.941, 585.736 854 C 586.830 864.725, 587.449 873.814, 587.112 874.197 C 586.775 874.580, 489.525 875.198, 371 875.571 C 252.475 875.943, 150.100 876.576, 143.500 876.977 C 136.756 877.387, 168.551 877.771, 216.084 877.853 C 262.605 877.934, 364.133 878.299, 441.700 878.665 L 582.732 879.330 586.393 897.415 C 588.407 907.362, 594.342 937.272, 599.583 963.881 C 613.499 1034.536, 616.551 1045.507, 624.399 1053.091 L 628.115 1056.683 653.237 1057.329 C 667.054 1057.684, 678.503 1057.830, 678.680 1057.653 C 679.606 1056.727, 667.122 1010.833, 659.324 986.500 C 650.059 957.587, 644.546 930.734, 636 872.903 C 628.025 818.932, 626.052 790.084, 627.935 755 C 633.126 658.283, 662.822 571.558, 716.790 495.500 C 731.147 475.266, 736.089 463.804, 734.160 455.215 C 732.439 447.559, 732.604 447.641, 719.365 447.825 C 712.839 447.915, 704.575 447.605, 701 447.136 C 693.135 446.104, 692.002 446.446, 691.994 449.857 C 691.986 453.241, 690.019 456.977, 684.184 464.693 C 680.570 469.470, 679.042 470.773, 677.496 470.396 C 675.770 469.974, 673.754 473.108, 662.996 492.934 C 656.123 505.599, 650.218 515.970, 649.873 515.980 C 649.528 515.991, 644.908 511.481, 639.606 505.957 L 629.967 495.914 614.174 464.207 C 596.362 428.445, 587.819 409.511, 577.851 383.701 C 566.105 353.285, 552.614 307.596, 550.037 289.500 C 548.508 278.764, 548.762 248.622, 550.465 238.881 C 552.969 224.548, 558.082 212.292, 566.480 200.491 C 570.143 195.344, 572.029 193.812, 579.628 189.809 C 590.154 184.264, 600.761 180.658, 613.321 178.352 C 625.821 176.058, 655.119 176.062, 672 178.362 C 714.799 184.191, 775.599 201.009, 836.770 223.938 C 885.323 242.138, 909.536 251.994, 917.500 256.801 C 923.624 260.497, 933 268.571, 933 270.147 C 933 270.628, 916.778 279.116, 896.952 289.010 C 866.312 304.301, 860.230 307, 856.416 307 C 852.290 307, 852.013 307.156, 852.965 308.934 C 854.589 311.969, 854.266 312.576, 850 314.500 L 846 316.304 846 322.369 C 846 325.706, 845.041 332.195, 843.869 336.791 L 841.737 345.147 845.437 348.936 C 855.540 359.282, 873.969 356.086, 904.190 338.747 C 916.720 331.558, 933.589 322.973, 944.874 318.041 C 948.929 316.269, 953.675 313.397, 955.419 311.659 C 965.081 302.034, 1007.700 287.893, 1052.500 279.448 C 1074.667 275.270, 1111.398 270.131, 1112.534 271.050 C 1113.102 271.509, 1114.227 271.468, 1115.034 270.958 C 1115.840 270.448, 1117.850 270.006, 1119.500 269.975 L 1122.500 269.920 1119.662 268.382 C 1118.100 267.536, 1117.042 266.624, 1117.310 266.356 C 1118.513 265.154, 1194.343 257.045, 1246.500 252.543 C 1262.450 251.166, 1277.190 249.848, 1279.255 249.614 C 1282.553 249.241, 1283.083 249.482, 1283.613 251.595 C 1284.156 253.758, 1284.752 254, 1289.539 254 C 1294.297 254, 1294.895 253.761, 1295.180 251.750 L 1295.500 249.500 1347.153 249.241 L 1398.807 248.982 1402.026 242.741 C 1420.769 206.402, 1450.490 185.397, 1495.205 176.887 C 1501.417 175.705, 1507.459 174.146, 1508.631 173.424 C 1509.803 172.701, 1512.800 168.576, 1515.291 164.257 C 1529.584 139.478, 1543.738 130.929, 1636.705 90.928 C 1696.811 65.067, 1716.831 57.324, 1735.922 52.555 C 1762.669 45.875, 1784.417 46.430, 1801.335 54.225 C 1806.805 56.746, 1809.773 59.084, 1816.199 65.937 C 1831.057 81.784, 1836.685 91.604, 1838.869 105.500 C 1839.474 109.350, 1840.467 115.650, 1841.075 119.500 C 1841.698 123.447, 1842.132 137.730, 1842.071 152.250 L 1841.961 178 1867.138 178 L 1892.315 178 1891.697 157.750 C 1890.098 105.289, 1879.659 68.904, 1857.935 40.075 C 1842.550 19.657, 1819.896 6.373, 1792.198 1.528 C 1781.299 -0.379, 1753.995 -0.349, 1741.568 1.582 M 1704.818 281.749 C 1717.093 281.908, 1736.893 281.908, 1748.818 281.749 C 1760.743 281.589, 1750.700 281.459, 1726.500 281.459 C 1702.300 281.460, 1692.543 281.590, 1704.818 281.749 M 1817.750 330.750 C 1836.037 330.902, 1865.963 330.902, 1884.250 330.750 C 1902.537 330.597, 1887.575 330.472, 1851 330.472 C 1814.425 330.472, 1799.463 330.597, 1817.750 330.750 M 1581.826 421.750 C 1610.606 421.897, 1657.406 421.897, 1685.826 421.750 C 1714.247 421.602, 1690.700 421.482, 1633.500 421.482 C 1576.300 421.482, 1553.047 421.602, 1581.826 421.750 M 1689.296 469.744 C 1693.583 469.932, 1700.333 469.931, 1704.296 469.742 C 1708.258 469.552, 1704.750 469.399, 1696.500 469.400 C 1688.250 469.401, 1685.008 469.556, 1689.296 469.744 M 1760.325 469.750 C 1783.328 469.900, 1820.678 469.899, 1843.325 469.750 C 1865.971 469.600, 1847.150 469.477, 1801.500 469.477 C 1755.850 469.477, 1737.321 469.600, 1760.325 469.750 M 1849.750 518.749 C 1860.888 518.910, 1879.112 518.910, 1890.250 518.749 C 1901.388 518.588, 1892.275 518.456, 1870 518.456 C 1847.725 518.456, 1838.612 518.588, 1849.750 518.749 M 1875.459 623.693 C 1877.388 631.379, 1885.188 681.266, 1887.390 700 C 1892.228 741.160, 1892.500 747.226, 1892.496 814 C 1892.493 868.549, 1892.242 879.614, 1890.715 892.500 C 1882.267 963.770, 1864.255 1018.130, 1831.690 1070.630 C 1815.305 1097.047, 1790.952 1126.703, 1771.423 1144.021 C 1730.454 1180.353, 1685.758 1206.927, 1652.768 1214.567 L 1645.035 1216.357 1637.656 1212.612 C 1633.598 1210.552, 1627.128 1206.309, 1623.279 1203.183 C 1619.430 1200.058, 1612.055 1194.057, 1606.890 1189.849 C 1583.581 1170.857, 1560.541 1158.400, 1535.928 1151.480 C 1519.062 1146.738, 1508.562 1140.493, 1485.398 1121.430 C 1453.108 1094.857, 1429.672 1084.812, 1393.296 1081.954 C 1381.354 1081.015, 1377.848 1081.092, 1369.876 1082.465 C 1344.809 1086.784, 1326.811 1097.080, 1303.471 1120.454 C 1290.579 1133.364, 1283.295 1142.515, 1264.126 1169.880 C 1239.988 1204.341, 1227.177 1227.226, 1220.115 1248.500 C 1214.681 1264.868, 1212.895 1274.210, 1212.275 1289.500 C 1211.769 1301.996, 1211.854 1302.750, 1214.471 1308.948 C 1220.073 1322.222, 1230.616 1335.076, 1244.099 1345.073 C 1249.543 1349.109, 1252.257 1350.338, 1259.599 1352.091 C 1272.487 1355.167, 1286.128 1354.434, 1298.500 1349.999 C 1311.278 1345.419, 1318.386 1345.383, 1326.667 1349.858 C 1337.281 1355.593, 1361.255 1374.488, 1371.682 1385.337 C 1386.689 1400.950, 1396.639 1417.088, 1410.011 1447.500 C 1421.444 1473.501, 1435.696 1494.502, 1456.281 1515.683 C 1471.929 1531.785, 1484.016 1541.893, 1501.500 1553.498 C 1515.634 1562.880, 1535.296 1574.004, 1544.500 1577.827 C 1556.009 1582.607, 1572.448 1585.163, 1594 1585.524 C 1614.687 1585.870, 1622.715 1585.016, 1637.500 1580.897 C 1643.550 1579.212, 1649.235 1577.681, 1650.133 1577.496 C 1656.248 1576.237, 1670.007 1566.707, 1681.725 1555.616 C 1697.461 1540.720, 1711.678 1519.700, 1716.296 1504.500 C 1717.132 1501.750, 1718.545 1497.796, 1719.437 1495.713 C 1721.509 1490.873, 1725.053 1459.781, 1724.457 1451.674 C 1724.207 1448.278, 1723.522 1436.050, 1722.935 1424.500 C 1721.452 1395.341, 1720.572 1387.830, 1716.487 1369.500 C 1714.526 1360.700, 1712.683 1352.713, 1712.393 1351.750 C 1711.906 1350.134, 1713.235 1349.983, 1729.683 1349.785 L 1747.500 1349.570 1729.524 1349.035 L 1711.548 1348.500 1708.655 1341 C 1705.891 1333.835, 1700 1312.321, 1700 1309.393 C 1700 1308.248, 1704.049 1307.970, 1722.750 1307.832 L 1745.500 1307.663 1727 1306.967 C 1716.825 1306.584, 1705.437 1305.709, 1701.693 1305.023 C 1695.121 1303.818, 1694.714 1303.568, 1689.927 1297.816 C 1684.108 1290.824, 1682.704 1288.210, 1675.985 1271.867 C 1671.209 1260.247, 1670.465 1256.322, 1673.211 1257.237 C 1673.876 1257.459, 1680.288 1253.953, 1687.460 1249.446 C 1704.309 1238.860, 1716.596 1232.078, 1729.289 1226.358 C 1740.921 1221.117, 1760.096 1214.592, 1767.500 1213.356 L 1772.500 1212.521 1767.296 1212.010 L 1762.091 1211.500 1778.296 1194.920 C 1794.517 1178.322, 1803.629 1171.266, 1813.116 1167.956 C 1815.827 1167.011, 1816.615 1166.245, 1816.263 1164.899 C 1815.250 1161.024, 1829.556 1140.278, 1839.687 1130.931 C 1843.007 1127.868, 1848.700 1123.818, 1852.339 1121.932 L 1858.955 1118.502 1867.512 1103.001 C 1872.218 1094.475, 1884.137 1071.469, 1893.998 1051.876 C 1908.329 1023.401, 1912.386 1016.129, 1914.213 1015.640 C 1920.726 1013.895, 1959.539 1015.213, 1973 1017.635 C 1974.925 1017.982, 1976.244 1017.987, 1975.931 1017.647 C 1974.599 1016.199, 1950.476 1012.920, 1936.813 1012.329 C 1926.176 1011.868, 1922 1011.344, 1922 1010.468 C 1922 1009.797, 1924.238 1000.530, 1926.974 989.874 C 1956.121 876.346, 1958.312 745.325, 1932.848 638.689 C 1931.165 631.643, 1929.949 625.722, 1930.144 625.532 C 1930.431 625.253, 1991.454 623.840, 2048 622.803 C 2065.080 622.490, 1975.539 621.300, 1923.142 621.144 L 1874.783 621 1875.459 623.693 M 1193.163 825.601 C 1179.884 827.828, 1153.854 833.874, 1149.665 835.705 C 1147.082 836.833, 1144.425 839.359, 1141.530 843.440 L 1137.230 849.500 1138.116 855.858 C 1139.236 863.895, 1141.764 869.626, 1146.504 874.872 L 1150.233 879 1162.616 879 L 1175 879 1175 893.340 L 1175 907.679 1165.547 908.841 C 1141.041 911.853, 1120.882 922.647, 1105.042 941.240 C 1092.548 955.904, 1087.043 971.816, 1086.269 995.500 C 1085.625 1015.185, 1086.889 1024.613, 1092.428 1041.445 C 1100.890 1067.160, 1112.530 1087.195, 1128.959 1104.320 C 1141.948 1117.859, 1153.025 1125.968, 1166.056 1131.474 C 1199.735 1145.706, 1233.093 1146.281, 1257.651 1133.053 C 1293.376 1113.810, 1319.181 1077.681, 1328.083 1034.443 C 1332.252 1014.195, 1331.732 978.001, 1327.007 959.527 C 1323.511 945.860, 1312.107 930.504, 1296.993 919.116 C 1279.316 905.795, 1267.331 902.541, 1238.250 903.166 L 1221 903.536 1221 886.994 L 1221 870.451 1229.661 868.668 C 1239.839 866.573, 1242.302 865.417, 1247 860.530 L 1250.500 856.889 1250.500 847.330 L 1250.500 837.771 1246.664 834.455 C 1235.728 825.002, 1216.106 821.754, 1193.163 825.601 M 1221.299 1001.477 C 1194.677 1008.358, 1173.704 1025.781, 1160.487 1051.997 C 1155.086 1062.710, 1157.169 1071.374, 1166.792 1078.225 C 1185.002 1091.189, 1199.127 1096, 1218.983 1096 C 1228.552 1096, 1229.408 1095.821, 1236.275 1092.383 C 1255.105 1082.957, 1268.671 1069.044, 1277.034 1050.578 C 1279.879 1044.298, 1282.619 1029.790, 1283.187 1018 L 1283.500 1011.500 1275 1007.266 C 1257.720 998.657, 1239.715 996.716, 1221.299 1001.477 M 1373.226 1129.553 C 1348.164 1136.963, 1335.125 1148.533, 1304.548 1190.497 C 1258.630 1253.514, 1254.435 1262.062, 1256.778 1287.822 C 1257.727 1298.256, 1258.046 1299.441, 1260.656 1302.186 C 1267.954 1309.865, 1276.191 1310.024, 1291.091 1302.776 C 1313.656 1291.798, 1327.522 1278.382, 1360.387 1235.724 C 1364.106 1230.898, 1368.240 1226.233, 1369.575 1225.359 C 1372.751 1223.278, 1383.385 1222.475, 1388.705 1223.915 C 1391.713 1224.729, 1393.936 1226.306, 1396.519 1229.458 C 1399.902 1233.587, 1400.137 1234.330, 1400.271 1241.320 C 1400.400 1248.078, 1400.066 1249.469, 1396.708 1256.139 C 1394.143 1261.232, 1389.435 1267.505, 1381.423 1276.500 C 1366.162 1293.634, 1358.915 1303.317, 1356.026 1310.437 C 1353.971 1315.499, 1353.852 1316.423, 1355.126 1317.388 C 1355.935 1317.999, 1364 1324.160, 1373.048 1331.078 C 1392.907 1346.261, 1400.537 1350.868, 1413 1355.199 L 1422.500 1358.500 1444.500 1358.500 C 1464.993 1358.500, 1466.823 1358.351, 1471.217 1356.321 C 1486.800 1349.122, 1499.637 1336.266, 1516.535 1310.934 C 1528.698 1292.702, 1531.990 1286.391, 1535.613 1274.364 C 1537.903 1266.758, 1538.298 1263.563, 1538.391 1251.845 L 1538.500 1238.191 1533.236 1227.845 C 1525.888 1213.406, 1516.957 1201.863, 1500.048 1184.947 C 1475.430 1160.321, 1447.709 1141.466, 1423 1132.543 C 1405.951 1126.386, 1387.655 1125.287, 1373.226 1129.553 M 1831.250 1166.745 C 1836.063 1166.928, 1843.938 1166.928, 1848.750 1166.745 C 1853.563 1166.561, 1849.625 1166.411, 1840 1166.411 C 1830.375 1166.411, 1826.438 1166.561, 1831.250 1166.745 M 1896.292 1167.742 C 1900.027 1167.935, 1905.877 1167.934, 1909.292 1167.739 C 1912.706 1167.545, 1909.650 1167.387, 1902.500 1167.389 C 1895.350 1167.390, 1892.556 1167.550, 1896.292 1167.742 M 1888.750 1209.743 C 1892.737 1209.932, 1899.263 1209.932, 1903.250 1209.743 C 1907.237 1209.553, 1903.975 1209.397, 1896 1209.397 C 1888.025 1209.397, 1884.763 1209.553, 1888.750 1209.743 M 1582.534 1241.250 C 1578.590 1289.505, 1560.815 1328.108, 1525.740 1364.593 C 1513.191 1377.647, 1502.670 1385.212, 1488.661 1391.254 C 1478.616 1395.586, 1461.967 1400.188, 1449.500 1402.078 C 1445.100 1402.745, 1441.375 1403.388, 1441.222 1403.507 C 1440.565 1404.016, 1446.551 1421.155, 1449.948 1428.490 C 1460.430 1451.124, 1480.887 1477.269, 1503.948 1497.503 C 1516.897 1508.865, 1518.495 1509.915, 1537.500 1519.534 C 1564.447 1533.174, 1580.528 1537.449, 1605 1537.480 L 1620.500 1537.500 1626.500 1534.127 C 1645.143 1523.648, 1658.079 1510.234, 1667.774 1491.329 C 1673.156 1480.832, 1675.097 1475.088, 1677.440 1462.724 C 1688.441 1404.672, 1672.246 1340.792, 1630.770 1278.631 C 1615.474 1255.705, 1608.949 1246.746, 1603.128 1240.672 C 1597.220 1234.508, 1594.277 1233, 1588.154 1233 L 1583.208 1233 1582.534 1241.250 M 1759.250 1258.749 C 1770.662 1258.909, 1789.338 1258.909, 1800.750 1258.749 C 1812.162 1258.588, 1802.825 1258.457, 1780 1258.457 C 1757.175 1258.457, 1747.838 1258.588, 1759.250 1258.749 M 1025.500 1295 C 1007.607 1295.426, 1004.528 1295.722, 1004.690 1297 C 1005.176 1300.824, 1011.102 1330.901, 1012 1334.100 C 1013.977 1341.137, 1016.289 1341.885, 1044 1344.447 C 1052.525 1345.235, 1066.250 1346.165, 1074.500 1346.514 C 1088.174 1347.092, 1090.117 1346.955, 1096.476 1344.964 C 1102.522 1343.071, 1104.306 1341.910, 1109.851 1336.254 L 1116.249 1329.729 1115.761 1322.903 C 1115.190 1314.926, 1111.777 1307.093, 1106.793 1302.325 C 1101.899 1297.642, 1090.637 1296.052, 1053 1294.729 C 1049.425 1294.603, 1037.050 1294.725, 1025.500 1295 M 1837.250 1350.748 C 1845.912 1350.915, 1860.088 1350.915, 1868.750 1350.748 C 1877.412 1350.582, 1870.325 1350.445, 1853 1350.445 C 1835.675 1350.445, 1828.588 1350.582, 1837.250 1350.748" stroke="none" fill="#5b8390" fill-rule="evenodd"/><path d="M 1665.750 223.750 C 1686.787 223.900, 1721.213 223.900, 1742.250 223.750 C 1763.287 223.599, 1746.075 223.476, 1704 223.476 C 1661.925 223.476, 1644.713 223.599, 1665.750 223.750 M 1435.400 315.500 C 1435.401 323.750, 1435.556 326.992, 1435.744 322.704 C 1435.932 318.417, 1435.931 311.667, 1435.742 307.704 C 1435.552 303.742, 1435.399 307.250, 1435.400 315.500 M 2008.385 336 C 2008.385 342.875, 2008.545 345.688, 2008.740 342.250 C 2008.936 338.813, 2008.936 333.188, 2008.740 329.750 C 2008.545 326.313, 2008.385 329.125, 2008.385 336 M 2006.419 413 C 2006.419 423.725, 2006.566 428.113, 2006.746 422.750 C 2006.925 417.387, 2006.925 408.613, 2006.746 403.250 C 2006.566 397.887, 2006.419 402.275, 2006.419 413 M 1436.459 449.500 C 1436.460 473.700, 1436.590 483.457, 1436.749 471.182 C 1436.908 458.907, 1436.908 439.107, 1436.749 427.182 C 1436.589 415.257, 1436.459 425.300, 1436.459 449.500 M 2054.750 570.743 C 2058.738 570.932, 2065.262 570.932, 2069.250 570.743 C 2073.238 570.553, 2069.975 570.397, 2062 570.397 C 2054.025 570.397, 2050.762 570.553, 2054.750 570.743 M 1562.250 571.750 C 1598.412 571.895, 1657.588 571.895, 1693.750 571.750 C 1729.912 571.604, 1700.325 571.485, 1628 571.485 C 1555.675 571.485, 1526.088 571.604, 1562.250 571.750 M 1903.250 1062.742 C 1906.963 1062.934, 1913.037 1062.934, 1916.750 1062.742 C 1920.463 1062.549, 1917.425 1062.392, 1910 1062.392 C 1902.575 1062.392, 1899.537 1062.549, 1903.250 1062.742 M 2004.378 1154 C 2004.378 1160.325, 2004.541 1162.912, 2004.739 1159.750 C 2004.937 1156.588, 2004.937 1151.412, 2004.739 1148.250 C 2004.541 1145.088, 2004.378 1147.675, 2004.378 1154 M 2004.441 1200.500 C 2004.442 1216.450, 2004.580 1222.835, 2004.748 1214.689 C 2004.916 1206.543, 2004.916 1193.493, 2004.747 1185.689 C 2004.579 1177.885, 2004.441 1184.550, 2004.441 1200.500 M 2000.807 1404.747 C 2007.576 1404.921, 2018.376 1404.920, 2024.807 1404.746 C 2031.238 1404.572, 2025.700 1404.431, 2012.500 1404.431 C 1999.300 1404.432, 1994.038 1404.574, 2000.807 1404.747 M 1905.308 1405.748 C 1912.353 1405.920, 1923.603 1405.919, 1930.308 1405.747 C 1937.014 1405.574, 1931.250 1405.433, 1917.500 1405.434 C 1903.750 1405.434, 1898.264 1405.576, 1905.308 1405.748 M 1810.807 1406.747 C 1817.576 1406.921, 1828.376 1406.920, 1834.807 1406.746 C 1841.238 1406.572, 1835.700 1406.431, 1822.500 1406.431 C 1809.300 1406.432, 1804.038 1406.574, 1810.807 1406.747 M 1724.225 1425.250 L 1724.451 1443.500 1724.748 1425.781 L 1725.046 1408.061 1737.273 1407.747 L 1749.500 1407.432 1736.750 1407.216 L 1724 1407 1724.225 1425.250" stroke="none" fill="#04dde5" fill-rule="evenodd"/><path d="M 158.816 1055.749 C 169.440 1055.911, 186.540 1055.911, 196.816 1055.748 C 207.092 1055.586, 198.400 1055.453, 177.500 1055.454 C 156.600 1055.454, 148.192 1055.587, 158.816 1055.749 M 392.250 1056.750 C 411.913 1056.901, 444.087 1056.901, 463.750 1056.750 C 483.413 1056.598, 467.325 1056.474, 428 1056.474 C 388.675 1056.474, 372.587 1056.598, 392.250 1056.750 M 597.750 1057.746 C 603.388 1057.924, 612.612 1057.924, 618.250 1057.746 C 623.888 1057.568, 619.275 1057.422, 608 1057.422 C 596.725 1057.422, 592.112 1057.568, 597.750 1057.746 M 730.292 1058.742 C 734.027 1058.935, 739.877 1058.934, 743.292 1058.739 C 746.706 1058.545, 743.650 1058.387, 736.500 1058.389 C 729.350 1058.390, 726.556 1058.550, 730.292 1058.742 M 1178.250 1491.749 C 1191.862 1491.906, 1214.138 1491.906, 1227.750 1491.749 C 1241.362 1491.592, 1230.225 1491.463, 1203 1491.463 C 1175.775 1491.463, 1164.638 1491.592, 1178.250 1491.749" stroke="none" fill="#cec9d2" fill-rule="evenodd"/></svg>