<svg width="123" height="36" viewBox="0 0 123 36" fill="none" xmlns="http://www.w3.org/2000/svg">
<path d="M50.7177 15H48.604C48.479 14.392 48.2603 13.858 47.9478 13.3977C47.641 12.9375 47.266 12.5511 46.8228 12.2386C46.3853 11.9205 45.8995 11.6818 45.3654 11.5227C44.8313 11.3636 44.2745 11.2841 43.695 11.2841C42.6381 11.2841 41.6808 11.5511 40.8228 12.0852C39.9705 12.6193 39.2915 13.4062 38.7859 14.446C38.2859 15.4858 38.0359 16.7614 38.0359 18.2727C38.0359 19.7841 38.2859 21.0597 38.7859 22.0994C39.2915 23.1392 39.9705 23.9261 40.8228 24.4602C41.6808 24.9943 42.6381 25.2614 43.695 25.2614C44.2745 25.2614 44.8313 25.1818 45.3654 25.0227C45.8995 24.8636 46.3853 24.6278 46.8228 24.3153C47.266 23.9972 47.641 23.608 47.9478 23.1477C48.2603 22.6818 48.479 22.1477 48.604 21.5455H50.7177C50.5586 22.4375 50.2688 23.2358 49.8484 23.9403C49.4279 24.6449 48.9052 25.2443 48.2802 25.7386C47.6552 26.2273 46.9535 26.5994 46.1751 26.8551C45.4023 27.1108 44.5756 27.2386 43.695 27.2386C42.2063 27.2386 40.8825 26.875 39.7234 26.1477C38.5643 25.4205 37.6523 24.3864 36.9876 23.0455C36.3228 21.7045 35.9904 20.1136 35.9904 18.2727C35.9904 16.4318 36.3228 14.8409 36.9876 13.5C37.6523 12.1591 38.5643 11.125 39.7234 10.3977C40.8825 9.67045 42.2063 9.30682 43.695 9.30682C44.5756 9.30682 45.4023 9.43466 46.1751 9.69034C46.9535 9.94602 47.6552 10.321 48.2802 10.8153C48.9052 11.304 49.4279 11.9006 49.8484 12.6051C50.2688 13.304 50.5586 14.1023 50.7177 15ZM55.8718 19.125V27H53.8604V9.54545H55.8718V15.9545H56.0423C56.3491 15.2784 56.8093 14.7415 57.4229 14.3438C58.0423 13.9403 58.8661 13.7386 59.8945 13.7386C60.7866 13.7386 61.5678 13.9176 62.2383 14.2756C62.9087 14.6278 63.4286 15.1705 63.7979 15.9034C64.1729 16.6307 64.3604 17.5568 64.3604 18.6818V27H62.3491V18.8182C62.3491 17.7784 62.0792 16.9744 61.5394 16.4062C61.0053 15.8324 60.2638 15.5455 59.315 15.5455C58.6559 15.5455 58.065 15.6847 57.5423 15.9631C57.0252 16.2415 56.6161 16.6477 56.315 17.1818C56.0195 17.7159 55.8718 18.3636 55.8718 19.125ZM71.8924 27.3068C71.0629 27.3068 70.31 27.1506 69.6339 26.8381C68.9577 26.5199 68.4208 26.0625 68.0231 25.4659C67.6254 24.8636 67.4265 24.1364 67.4265 23.2841C67.4265 22.5341 67.5742 21.9261 67.8697 21.4602C68.1651 20.9886 68.56 20.6193 69.0543 20.3523C69.5487 20.0852 70.0941 19.8864 70.6907 19.7557C71.293 19.6193 71.8981 19.5114 72.506 19.4318C73.3015 19.3295 73.9464 19.2528 74.4407 19.2017C74.9407 19.1449 75.3043 19.0511 75.5316 18.9205C75.7646 18.7898 75.881 18.5625 75.881 18.2386V18.1705C75.881 17.3295 75.6509 16.6761 75.1907 16.2102C74.7362 15.7443 74.0458 15.5114 73.1197 15.5114C72.1594 15.5114 71.4066 15.7216 70.8612 16.142C70.3157 16.5625 69.9322 17.0114 69.7106 17.4886L67.8015 16.8068C68.1424 16.0114 68.5969 15.392 69.1651 14.9489C69.739 14.5 70.364 14.1875 71.0401 14.0114C71.7219 13.8295 72.3924 13.7386 73.0515 13.7386C73.4719 13.7386 73.9549 13.7898 74.5004 13.892C75.0515 13.9886 75.5827 14.1903 76.0941 14.4972C76.6112 14.804 77.0401 15.267 77.381 15.8864C77.7219 16.5057 77.8924 17.3352 77.8924 18.375V27H75.881V25.2273H75.7788C75.6424 25.5114 75.4151 25.8153 75.0969 26.1392C74.7788 26.4631 74.3555 26.7386 73.8271 26.9659C73.2987 27.1932 72.6538 27.3068 71.8924 27.3068ZM72.1992 25.5C72.9947 25.5 73.6651 25.3438 74.2106 25.0312C74.7617 24.7188 75.1765 24.3153 75.4549 23.821C75.739 23.3267 75.881 22.8068 75.881 22.2614V20.4205C75.7958 20.5227 75.6083 20.6165 75.3185 20.7017C75.0344 20.7812 74.7049 20.8523 74.3299 20.9148C73.9606 20.9716 73.5998 21.0227 73.2475 21.0682C72.9009 21.108 72.6197 21.142 72.4038 21.1705C71.881 21.2386 71.3924 21.3494 70.9379 21.5028C70.489 21.6506 70.1254 21.875 69.8469 22.1761C69.5742 22.4716 69.4379 22.875 69.4379 23.3864C69.4379 24.0852 69.6964 24.6136 70.2134 24.9716C70.7362 25.3239 71.3981 25.5 72.1992 25.5ZM87.2567 13.9091V15.6136H80.4727V13.9091H87.2567ZM82.4499 10.7727H84.4613V23.25C84.4613 23.8182 84.5437 24.2443 84.7085 24.5284C84.8789 24.8068 85.0948 24.9943 85.3562 25.0909C85.6232 25.1818 85.9045 25.2273 86.1999 25.2273C86.4215 25.2273 86.6033 25.2159 86.7454 25.1932C86.8874 25.1648 87.0011 25.142 87.0863 25.125L87.4954 26.9318C87.359 26.983 87.1687 27.0341 86.9244 27.0852C86.68 27.142 86.3704 27.1705 85.9954 27.1705C85.4272 27.1705 84.8704 27.0483 84.3249 26.804C83.7852 26.5597 83.3363 26.1875 82.9783 25.6875C82.6261 25.1875 82.4499 24.5568 82.4499 23.7955V10.7727Z" fill="#686868"/>
<path d="M21.6492 26.4872L21.6248 26.5612C20.3972 27.1014 18.8644 27.423 17.5 27.4875V27.1531C18.9364 27.0834 20.5535 26.7216 21.7682 26.1273L21.6492 26.4872ZM16.5 27.4851C14.1635 27.362 11.9476 26.3793 10.2844 24.716C8.62112 23.0526 7.63772 20.8358 7.51342 18.4978H7.84673C8.09744 23.1626 11.8353 26.9001 16.5 27.1507V27.4851ZM10.5206 11.518C8.91989 13.1184 7.97159 15.2489 7.84731 17.4978H7.51349C7.63811 15.1603 8.62159 12.9449 10.2848 11.2818C11.948 9.6188 14.1637 8.63628 16.5 8.51316V8.84775C14.2521 8.97052 12.1212 9.91775 10.5206 11.518ZM17.5 8.84751V8.51316C19.8362 8.63628 22.0519 9.6188 23.7151 11.2818C25.3783 12.9449 26.3618 15.1614 26.4864 17.4991H26.1532C25.9024 12.8355 22.1646 9.0982 17.5 8.84751ZM26.4902 18.4991C26.4359 19.9054 26.1508 21.3883 25.5816 22.6211L25.4737 22.6571L25.1374 22.7693C25.7741 21.5419 26.0976 19.9858 26.1566 18.4991H26.4902ZM22.9304 26.0327L24.885 26.6781L25.0172 27.0738L23.1947 26.4715L23.1056 26.3234L22.9304 26.0327ZM25.4759 24.2417L26.0689 26.0159L25.6745 25.8857L25.0295 23.9553L25.2912 24.1232L25.4759 24.2417Z" fill="#686868" stroke="#686868"/>
</svg>
