<?xml version="1.0" encoding="UTF-8"?>
<svg version="1.1" xmlns="http://www.w3.org/2000/svg" width="512" height="512">
<path d="M0 0 C0.91289795 0.00499512 1.8257959 0.00999023 2.76635742 0.01513672 C12.39408983 0.25622491 21.09118198 2.49123373 30.1875 5.5 C31.41597656 5.88800781 32.64445312 6.27601563 33.91015625 6.67578125 C57.66943961 14.88353368 81.31674896 27.58616597 102.1875 41.5 C108.58130562 41.8141276 114.89498363 41.27157129 121.27148438 40.78808594 C147.84088687 38.80177734 174.1644836 39.04877995 200.72265625 41.0625 C202.87737072 41.21174295 205.03230077 41.35792905 207.1875 41.5 C208.48385376 41.59837158 208.48385376 41.59837158 209.80639648 41.69873047 C215.1921127 41.94485038 218.65946124 40.68056758 223.125 37.625 C224.43446753 36.78895023 225.74574374 35.95572815 227.05859375 35.125 C227.73519043 34.69058594 228.41178711 34.25617187 229.10888672 33.80859375 C249.36642879 21.05543126 271.44457022 10.87764311 294.1875 3.5 C295.35152344 3.1184375 296.51554687 2.736875 297.71484375 2.34375 C304.40058659 0.48516512 311.03601484 0.18230705 317.9375 0.0625 C319.2514978 0.02866211 319.2514978 0.02866211 320.59204102 -0.00585938 C329.17233166 0.0266202 336.28994525 2.9065737 342.62109375 8.73828125 C352.18174911 19.49103827 351.90527505 33.05049946 351.36962891 46.59375 C350.1804061 65.57030269 344.22764351 86.43155862 335.28515625 103.1484375 C330.42154646 111.68714736 330.42154646 111.68714736 329.60351562 121.17919922 C331.36392551 126.82161642 334.09738315 131.91767243 336.93554688 137.08105469 C338.74742256 140.58184725 339.95580931 144.16349559 341.0625 147.9375 C341.25513428 148.58952393 341.44776855 149.24154785 341.64624023 149.91333008 C342.17921248 151.77014419 342.68392939 153.6349974 343.1875 155.5 C343.48269531 156.57378906 343.77789062 157.64757812 344.08203125 158.75390625 C354.24632099 200.36240266 348.65109949 253.07769468 327.875 290.734375 C326.42346526 293.11327916 324.89768548 295.17371644 323.125 297.3125 C320.7218184 300.41992822 320.7218184 300.41992822 322.05859375 304.07421875 C322.25880127 304.77635498 322.45900879 305.47849121 322.6652832 306.2019043 C323.59014454 310.27189952 323.39542022 314.34761048 323.3125 318.5 C323.30347656 319.37011719 323.29445313 320.24023438 323.28515625 321.13671875 C323.26184619 323.2579342 323.22598579 325.37900562 323.1875 327.5 C323.79625977 327.73460937 324.40501953 327.96921875 325.03222656 328.2109375 C333.61109627 331.60050451 339.30247073 335.94718322 343.1875 344.4375 C343.87458501 346.11679 344.54873405 347.80174244 345.1875 349.5 C346.09371094 349.52578125 346.99992187 349.5515625 347.93359375 349.578125 C358.78976875 350.0835977 366.31951814 351.95399318 374.34375 359.46875 C380.80119503 366.58288435 384.16108164 375.5121085 387.1875 384.5 C387.43628906 385.23605469 387.68507813 385.97210938 387.94140625 386.73046875 C391.03136124 397.9018445 390.54015631 411.18634516 385.1875 421.5 C382.15331877 426.55696871 377.26530239 429.64741217 372.1875 432.5 C371.5275 432.5 370.8675 432.5 370.1875 432.5 C370.55875 433.7375 370.93 434.975 371.3125 436.25 C372.92428417 443.61318669 371.81793215 451.24367631 368.0625 457.8125 C361.92734474 466.12221024 355.13775427 469.8066386 345.375 472.765625 C343.62195557 473.32301361 343.62195557 473.32301361 341.83349609 473.8916626 C338.62938085 474.9042296 335.42059882 475.89752077 332.20733643 476.88040161 C329.47931029 477.71724195 326.75526914 478.56669483 324.03092861 479.41544151 C314.42983034 482.40434361 304.81008368 485.33116225 295.1875 488.25 C293.59863218 488.73224387 292.00977526 489.21452365 290.42092896 489.69683838 C289.62789462 489.9375601 288.83486029 490.17828182 288.01779461 490.42629814 C284.82431887 491.39571931 281.6308886 492.36529021 278.43748283 493.33494186 C276.86066492 493.81358849 275.28377747 494.29200609 273.70681953 494.77019119 C263.94151276 497.73165323 254.1937685 500.74094923 244.46484375 503.8203125 C241.56779472 504.72867782 238.67017277 505.63518211 235.7722168 506.54064941 C234.03967097 507.08671373 232.30940167 507.6400675 230.58178711 508.20153809 C218.03872161 512.27580953 205.87839618 515.65441799 193.375 509.5625 C191.63112177 508.56700676 189.89794143 507.55190691 188.1875 506.5 C185.06399951 504.93824976 182.60666033 506.13210462 179.25 506.875 C148.888335 513.27814405 116.03277983 508.72555757 89.40429688 492.40722656 C85.47636602 489.82758303 81.627522 487.15789767 78.53515625 483.59765625 C76.7747222 481.62220735 75.6408092 480.53389459 73.1875 479.5 C68.41282544 479.60470778 63.85289337 480.38553011 59.15625 481.19824219 C38.13003591 484.42101012 16.50449988 475.95431209 -1.8125 466.5 C-2.64813477 466.07380371 -3.48376953 465.64760742 -4.34472656 465.20849609 C-31.29747842 451.35208136 -31.29747842 451.35208136 -36.8125 436.5 C-38.57330851 430.71288412 -38.31586619 424.325544 -36.8125 418.5 C-38.01003906 418.13003906 -39.20757812 417.76007813 -40.44140625 417.37890625 C-47.06337491 415.16985383 -53.38319047 412.28500185 -59.75 409.4375 C-60.99271963 408.88970412 -62.23555743 408.34217623 -63.47851562 407.79492188 C-65.23518555 407.0127832 -65.23518555 407.0127832 -67.02734375 406.21484375 C-68.09073975 405.74167725 -69.15413574 405.26851074 -70.24975586 404.78100586 C-72.8125 403.5 -72.8125 403.5 -74.8125 401.5 C-75.33428317 396.09174861 -74.18238305 392.12935178 -71.91015625 387.3125 C-71.6012294 386.62939255 -71.29230255 385.9462851 -70.97401428 385.24247742 C-70.30376279 383.76421945 -69.62758056 382.28863904 -68.94610596 380.81552124 C-67.47781481 377.64136344 -66.03822769 374.45443974 -64.59631348 371.26823425 C-63.83570135 369.58852179 -63.07355023 367.90950544 -62.30993652 366.2311554 C-58.45646297 357.75455249 -54.72949305 349.22451737 -51.02151489 340.68347168 C-49.94342995 338.20115385 -48.86260603 335.72004576 -47.78100586 333.23925781 C-44.70532775 326.18117081 -41.64250052 319.11833148 -38.625 312.03515625 C-38.16206543 310.95339111 -37.69913086 309.87162598 -37.22216797 308.75708008 C-36.39718381 306.82600257 -35.57798974 304.8924354 -34.76611328 302.95581055 C-34.41274902 302.12992432 -34.05938477 301.30403809 -33.6953125 300.453125 C-33.25276123 299.40366699 -33.25276123 299.40366699 -32.80126953 298.33300781 C-31.70196134 296.29508043 -30.59689475 294.97274447 -28.8125 293.5 C-23.35608138 292.66793616 -19.25698287 294.74277384 -14.4375 297 C-13.33341797 297.50080078 -13.33341797 297.50080078 -12.20703125 298.01171875 C-10.40427802 298.83115204 -8.60773101 299.66421549 -6.8125 300.5 C-7.27626777 294.56377248 -9.1107744 290.61158264 -12.0625 285.5 C-33.04626891 247.20338156 -35.00422096 191.85924958 -23.63232422 150.21240234 C-21.74923911 143.98218331 -19.32034327 137.9666109 -16.77734375 131.98046875 C-16.46490723 131.23337646 -16.1524707 130.48628418 -15.83056641 129.71655273 C-14.8125 127.5 -14.8125 127.5 -13.50927734 125.34790039 C-11.55112558 121.91091602 -10.54722858 119.73025543 -11.40014648 115.7746582 C-12.63864085 112.61342572 -14.0557869 109.60497238 -15.5625 106.5625 C-21.5541358 93.50395044 -26.08386503 80.36828878 -29.8125 66.5 C-30.01875 65.7354248 -30.225 64.97084961 -30.4375 64.18310547 C-32.62835477 55.67944765 -33.08737488 47.36578389 -33.1875 38.625 C-33.20167969 37.67343018 -33.21585938 36.72186035 -33.23046875 35.74145508 C-33.15704273 25.22960294 -30.47588912 15.60649047 -23.21484375 7.77734375 C-16.39431365 1.45398213 -9.04174056 -0.06601664 0 0 Z " fill="#ADB6C3" transform="translate(98.8125,-0.5)"/>
<path d="M0 0 C0.60070312 0.42925781 1.20140625 0.85851562 1.8203125 1.30078125 C2.46226562 1.74035156 3.10421875 2.17992187 3.765625 2.6328125 C16.45326465 12.4595138 25.32426981 31.76984898 27.8203125 47.30078125 C28.60792969 47.254375 29.39554688 47.20796875 30.20703125 47.16015625 C45.54176148 46.65202318 60.10559803 51.90430008 71.5703125 62.17578125 C72.99960394 63.53765328 74.42123182 64.9078912 75.8203125 66.30078125 C76.34238281 66.0490918 76.86445313 65.79740234 77.40234375 65.53808594 C93.56968406 57.81542032 111.44327083 49.35588574 129.8046875 54.06640625 C137.84462929 57.06354431 143.07307707 61.53523379 146.8203125 69.30078125 C146.8203125 70.29078125 146.8203125 71.28078125 146.8203125 72.30078125 C148.3671875 72.08421875 148.3671875 72.08421875 149.9453125 71.86328125 C159.16423857 71.83035651 168.17884913 78.45669722 174.8203125 84.30078125 C175.160625 83.72070312 175.5009375 83.140625 175.8515625 82.54296875 C180.03702887 75.7972437 184.48470631 71.42041094 191.6328125 67.92578125 C200.61795814 66.16398799 207.62202966 67.31723384 215.8203125 71.30078125 C216.03945313 70.61113281 216.25859375 69.92148437 216.484375 69.2109375 C220.45823889 57.43473109 226.69425713 47.24038386 238.0078125 41.42578125 C244.12994283 38.51415391 249.37025226 38.06570876 256.0703125 37.98828125 C256.89144531 37.95927734 257.71257812 37.93027344 258.55859375 37.90039062 C265.9332348 37.82442364 271.05524595 39.84992681 276.5703125 44.73828125 C277.3128125 45.58390625 278.0553125 46.42953125 278.8203125 47.30078125 C279.5421875 48.10515625 280.2640625 48.90953125 281.0078125 49.73828125 C285.13953076 55.57967603 285.07994789 61.29901969 284.9453125 68.17578125 C284.93628906 69.05492187 284.92726563 69.9340625 284.91796875 70.83984375 C284.89455827 72.99360835 284.8586926 75.14723139 284.8203125 77.30078125 C285.42907227 77.53539062 286.03783203 77.77 286.66503906 78.01171875 C295.24390877 81.40128576 300.93528323 85.74796447 304.8203125 94.23828125 C305.50739751 95.91757125 306.18154655 97.60252369 306.8203125 99.30078125 C307.72652344 99.3265625 308.63273437 99.35234375 309.56640625 99.37890625 C320.42258125 99.88437895 327.95233064 101.75477443 335.9765625 109.26953125 C342.43400753 116.3836656 345.79389414 125.31288975 348.8203125 134.30078125 C349.06910156 135.03683594 349.31789063 135.77289063 349.57421875 136.53125 C352.66417374 147.70262575 352.17296881 160.98712641 346.8203125 171.30078125 C343.78613127 176.35774996 338.89811489 179.44819342 333.8203125 182.30078125 C333.1603125 182.30078125 332.5003125 182.30078125 331.8203125 182.30078125 C332.1915625 183.53828125 332.5628125 184.77578125 332.9453125 186.05078125 C334.55709667 193.41396794 333.45074465 201.04445756 329.6953125 207.61328125 C323.56015724 215.92299149 316.77056677 219.60741985 307.0078125 222.56640625 C305.25476807 223.12379486 305.25476807 223.12379486 303.46630859 223.69244385 C300.26219335 224.70501085 297.05341132 225.69830202 293.84014893 226.68118286 C291.11212279 227.5180232 288.38808164 228.36747608 285.66374111 229.21622276 C276.06264284 232.20512486 266.44289618 235.1319435 256.8203125 238.05078125 C255.23144468 238.53302512 253.64258776 239.0153049 252.05374146 239.49761963 C251.26070712 239.73834135 250.46767279 239.97906307 249.65060711 240.22707939 C246.45713137 241.19650056 243.2637011 242.16607146 240.07029533 243.13572311 C238.49347742 243.61436974 236.91658997 244.09278734 235.33963203 244.57097244 C225.57432526 247.53243448 215.826581 250.54173048 206.09765625 253.62109375 C203.20060722 254.52945907 200.30298527 255.43596336 197.4050293 256.34143066 C195.67248347 256.88749498 193.94221417 257.44084875 192.21459961 258.00231934 C179.67153411 262.07659078 167.51120868 265.45519924 155.0078125 259.36328125 C153.26393427 258.36778801 151.53075393 257.35268816 149.8203125 256.30078125 C146.69681201 254.73903101 144.23947283 255.93288587 140.8828125 256.67578125 C110.5211475 263.0789253 77.66559233 258.52633882 51.03710938 242.20800781 C47.10917852 239.62836428 43.2603345 236.95867892 40.16796875 233.3984375 C38.4075347 231.4229886 37.2736217 230.33467584 34.8203125 229.30078125 C30.04563794 229.40548903 25.48570587 230.18631136 20.7890625 230.99902344 C-0.23715159 234.22179137 -21.86268762 225.75509334 -40.1796875 216.30078125 C-41.01532227 215.87458496 -41.85095703 215.44838867 -42.71191406 215.00927734 C-69.66466592 201.15286261 -69.66466592 201.15286261 -75.1796875 186.30078125 C-76.94049601 180.51366537 -76.68305369 174.12632525 -75.1796875 168.30078125 C-76.37722656 167.93082031 -77.57476562 167.56085938 -78.80859375 167.1796875 C-85.43056241 164.97063508 -91.75037797 162.0857831 -98.1171875 159.23828125 C-99.35990713 158.69048537 -100.60274493 158.14295748 -101.84570312 157.59570312 C-103.60237305 156.81356445 -103.60237305 156.81356445 -105.39453125 156.015625 C-106.45792725 155.5424585 -107.52132324 155.06929199 -108.61694336 154.58178711 C-111.1796875 153.30078125 -111.1796875 153.30078125 -113.1796875 151.30078125 C-113.70147067 145.89252986 -112.54957055 141.93013303 -110.27734375 137.11328125 C-109.9684169 136.4301738 -109.65949005 135.74706635 -109.34120178 135.04325867 C-108.67095029 133.5650007 -107.99476806 132.08942029 -107.31329346 130.61630249 C-105.84500231 127.44214469 -104.40541519 124.25522099 -102.96350098 121.0690155 C-102.20288885 119.38930304 -101.44073773 117.71028669 -100.67712402 116.03193665 C-96.82365047 107.55533374 -93.09668055 99.02529862 -89.38870239 90.48425293 C-88.31061745 88.0019351 -87.22979353 85.52082701 -86.14819336 83.04003906 C-83.07251525 75.98195206 -80.00968802 68.91911273 -76.9921875 61.8359375 C-76.52925293 60.75417236 -76.06631836 59.67240723 -75.58935547 58.55786133 C-74.76437131 56.62678382 -73.94517724 54.69321665 -73.13330078 52.7565918 C-72.77993652 51.93070557 -72.42657227 51.10481934 -72.0625 50.25390625 C-71.76746582 49.55426758 -71.47243164 48.85462891 -71.16845703 48.13378906 C-70.06914884 46.09586168 -68.96408225 44.77352572 -67.1796875 43.30078125 C-61.72326888 42.46871741 -57.62417037 44.54355509 -52.8046875 46.80078125 C-52.06863281 47.13464844 -51.33257812 47.46851563 -50.57421875 47.8125 C-48.77146552 48.63193329 -46.97491851 49.46499674 -45.1796875 50.30078125 C-45.2111084 49.25120239 -45.2111084 49.25120239 -45.24316406 48.18041992 C-45.32731684 44.94985861 -45.37865821 41.71952899 -45.4296875 38.48828125 C-45.46320313 37.38806641 -45.49671875 36.28785156 -45.53125 35.15429688 C-45.66200547 24.07277044 -42.94268504 14.4572948 -35.1796875 6.30078125 C-25.80601495 -2.25609825 -11.76909648 -7.16486836 0 0 Z " fill="#68838E" transform="translate(137.1796875,249.69921875)"/>
<path d="M0 0 C5.76789196 4.48494029 8.30181284 9.81475437 10.83984375 16.5625 C12.19916016 16.60117187 12.19916016 16.60117187 13.5859375 16.640625 C24.4421125 17.1460977 31.97186189 19.01649318 39.99609375 26.53125 C46.45353878 33.64538435 49.81342539 42.5746085 52.83984375 51.5625 C53.08863281 52.29855469 53.33742188 53.03460938 53.59375 53.79296875 C56.68370499 64.9643445 56.19250006 78.24884516 50.83984375 88.5625 C47.80566252 93.61946871 42.91764614 96.70991217 37.83984375 99.5625 C37.17984375 99.5625 36.51984375 99.5625 35.83984375 99.5625 C36.21109375 100.8 36.58234375 102.0375 36.96484375 103.3125 C38.57662792 110.67568669 37.4702759 118.30617631 33.71484375 124.875 C27.57968849 133.18471024 20.79009802 136.8691386 11.02734375 139.828125 C9.27429932 140.38551361 9.27429932 140.38551361 7.48583984 140.9541626 C4.2817246 141.9667296 1.07294257 142.96002077 -2.14031982 143.94290161 C-4.86834596 144.77974195 -7.59238711 145.62919483 -10.31672764 146.47794151 C-19.91782591 149.46684361 -29.53757257 152.39366225 -39.16015625 155.3125 C-40.74902407 155.79474387 -42.33788099 156.27702365 -43.92672729 156.75933838 C-44.71976163 157.0000601 -45.51279596 157.24078182 -46.32986164 157.48879814 C-49.52333738 158.45821931 -52.71676765 159.42779021 -55.91017342 160.39744186 C-57.48699133 160.87608849 -59.06387878 161.35450609 -60.64083672 161.83269119 C-70.40614349 164.79415323 -80.15388775 167.80344923 -89.8828125 170.8828125 C-92.77986153 171.79117782 -95.67748348 172.69768211 -98.57543945 173.60314941 C-100.30798528 174.14921373 -102.03825458 174.7025675 -103.76586914 175.26403809 C-117.41781688 179.69849957 -129.78924853 182.45116706 -143.37890625 175.94921875 C-151.55300925 168.93464441 -154.7298488 159.0509434 -157.59765625 149 C-158.16820394 147.08416869 -158.73876708 145.16834171 -159.31051636 143.25286865 C-159.89011828 141.30248637 -160.46225975 139.3500479 -161.03271484 137.39697266 C-162.77313283 131.4777425 -164.59134918 125.58301835 -166.41015625 119.6875 C-166.90757324 118.0641272 -166.90757324 118.0641272 -167.41503906 116.40795898 C-169.14901468 110.76378961 -170.94317918 105.15133925 -172.84765625 99.5625 C-175.00215029 93.23047853 -176.81273713 86.82960007 -178.54956055 80.37304688 C-179.59179494 76.37268908 -179.59179494 76.37268908 -181.16015625 72.5625 C-181.93776532 63.053452 -182.166604 54.51042581 -176.16015625 46.5625 C-169.9826764 39.66531376 -161.76678079 36.45252121 -152.97265625 34.25 C-146.10428985 32.44071556 -139.38067745 30.3595278 -132.66015625 28.0625 C-126.20369186 25.86251518 -119.74979009 23.8246305 -113.16015625 22.0625 C-106.5531047 20.29413559 -100.07494734 18.25871842 -93.59765625 16.0625 C-86.89766871 13.79102171 -80.19958293 11.63852083 -73.39746094 9.69189453 C-68.37945751 8.24309974 -63.39170826 6.70583079 -58.41015625 5.13671875 C-57.71191238 4.91700912 -57.01366852 4.6972995 -56.29426575 4.47093201 C-52.77103806 3.36135653 -49.2493221 2.24722318 -45.72924805 1.12768555 C-13.59226796 -9.04512588 -13.59226796 -9.04512588 0 0 Z " fill="#65E0E8" transform="translate(433.16015625,332.4375)"/>
<path d="M0 0 C0.60070312 0.42925781 1.20140625 0.85851562 1.8203125 1.30078125 C2.46226562 1.74035156 3.10421875 2.17992187 3.765625 2.6328125 C16.45326465 12.4595138 25.32426981 31.76984898 27.8203125 47.30078125 C28.60792969 47.254375 29.39554687 47.20796875 30.20703125 47.16015625 C45.54176148 46.65202318 60.10559803 51.90430008 71.5703125 62.17578125 C72.99960394 63.53765328 74.42123182 64.9078912 75.8203125 66.30078125 C76.34238281 66.0490918 76.86445313 65.79740234 77.40234375 65.53808594 C93.56968406 57.81542032 111.44327083 49.35588574 129.8046875 54.06640625 C137.84462929 57.06354431 143.07307707 61.53523379 146.8203125 69.30078125 C146.8203125 70.29078125 146.8203125 71.28078125 146.8203125 72.30078125 C148.3671875 72.08421875 148.3671875 72.08421875 149.9453125 71.86328125 C159.16423857 71.83035651 168.17884913 78.45669722 174.8203125 84.30078125 C175.160625 83.72070312 175.5009375 83.140625 175.8515625 82.54296875 C180.03702887 75.7972437 184.48470631 71.42041094 191.6328125 67.92578125 C200.61795814 66.16398799 207.62202966 67.31723384 215.8203125 71.30078125 C216.03945313 70.61113281 216.25859375 69.92148437 216.484375 69.2109375 C220.45823889 57.43473109 226.69425713 47.24038386 238.0078125 41.42578125 C244.12994283 38.51415391 249.37025226 38.06570876 256.0703125 37.98828125 C256.89144531 37.95927734 257.71257812 37.93027344 258.55859375 37.90039062 C265.9332348 37.82442364 271.05524595 39.84992681 276.5703125 44.73828125 C277.3128125 45.58390625 278.0553125 46.42953125 278.8203125 47.30078125 C279.5421875 48.10515625 280.2640625 48.90953125 281.0078125 49.73828125 C284.89274189 55.23076764 285.11340866 60.57051166 285.0078125 67.05078125 C285.00716797 67.81777344 285.00652344 68.58476562 285.00585938 69.375 C284.96122349 75.01895926 284.96122349 75.01895926 283.8203125 77.30078125 C281.85015026 77.58178696 279.86677309 77.76956388 277.8828125 77.92578125 C266.92053968 79.09623225 256.59775239 82.87556253 246.15380859 86.23828125 C240.99814341 87.88156929 235.81508629 89.43143803 230.6328125 90.98828125 C224.45299455 92.85650138 218.30599517 94.77994318 212.1953125 96.86328125 C205.47665752 99.14255888 198.68303506 101.08106967 191.85449219 103.00244141 C185.24167479 104.87159148 178.68570101 106.8808357 172.14135742 108.97583008 C165.74042716 111.02207819 159.31524316 112.98105671 152.8828125 114.92578125 C149.19434666 116.04763276 145.50716501 117.17364127 141.8203125 118.30078125 C141.13163086 118.50977051 140.44294922 118.71875977 139.73339844 118.93408203 C133.81641385 120.74143462 128.73200956 122.48057243 123.8203125 126.30078125 C123.05182983 125.90463623 123.05182983 125.90463623 122.26782227 125.50048828 C119.10301314 123.94917935 115.88423953 122.52786059 112.66015625 121.10546875 C111.96155991 120.79655197 111.26296356 120.48763519 110.54319763 120.1693573 C108.2819728 119.17020125 106.01997074 118.17282204 103.7578125 117.17578125 C102.61122162 116.66988968 102.61122162 116.66988968 101.44146729 116.15377808 C89.94957852 111.08539224 78.4298974 106.09471275 66.8203125 101.30078125 C67.05669434 101.94998535 67.29307617 102.59918945 67.53662109 103.26806641 C67.95448931 107.73515671 66.21621899 110.8201193 64.359375 114.82421875 C63.79364021 116.08699898 63.79364021 116.08699898 63.21647644 117.37528992 C61.97146778 120.14772548 60.70828403 122.91148857 59.4453125 125.67578125 C58.57620126 127.60405338 57.70862451 129.53301781 56.8425293 131.46264648 C55.5063107 134.43906613 54.16907376 137.41498289 52.82688904 140.38871765 C48.33629871 150.34027258 43.97608105 160.3467659 39.6328125 170.36328125 C37.3638884 175.58997022 35.09111039 180.81494085 32.80914307 186.03594971 C32.11722562 187.62072723 31.42688534 189.20619385 30.73773193 190.79217529 C29.64880712 193.29579926 28.5535957 195.79658926 27.45703125 198.296875 C27.12234329 199.06951187 26.78765533 199.84214874 26.44282532 200.63819885 C24.04840876 206.07268499 24.04840876 206.07268499 21.8203125 208.30078125 C16.86345318 208.86890266 13.78785934 207.61680623 9.4453125 205.30078125 C8.38570312 204.74390625 7.32609375 204.18703125 6.234375 203.61328125 C5.43773437 203.18015625 4.64109375 202.74703125 3.8203125 202.30078125 C4.02527344 201.553125 4.23023438 200.80546875 4.44140625 200.03515625 C4.71082031 199.0503125 4.98023438 198.06546875 5.2578125 197.05078125 C5.52464844 196.07625 5.79148438 195.10171875 6.06640625 194.09765625 C6.31519531 193.1746875 6.56398437 192.25171875 6.8203125 191.30078125 C7.01238281 190.64851562 7.20445312 189.99625 7.40234375 189.32421875 C9.8489079 177.48010445 6.8469302 166.57601649 0.47265625 156.6171875 C-4.81255061 149.20790223 -11.07024499 145.30417692 -19.1796875 141.30078125 C-18.59335806 135.60128863 -16.46326888 130.92718415 -14.13671875 125.765625 C-13.73063889 124.85051651 -13.32455902 123.93540802 -12.90617371 122.99256897 C-11.607971 120.07154687 -10.30014121 117.15494808 -8.9921875 114.23828125 C-8.13154676 112.30430989 -7.27151473 110.37006752 -6.41210938 108.43554688 C-4.37564745 103.85640685 -2.32122878 99.28559763 -0.2612915 94.71697998 C0.71778226 92.52982389 1.67848205 90.33587343 2.63134766 88.13720703 C3.14358887 86.97560059 3.65583008 85.81399414 4.18359375 84.6171875 C4.60552002 83.64338135 5.02744629 82.6695752 5.4621582 81.66625977 C6.93244668 79.1054787 8.34870825 77.87344097 10.8203125 76.30078125 C10.03197021 75.95934082 9.24362793 75.61790039 8.43139648 75.26611328 C7.32094971 74.78513184 6.21050293 74.30415039 5.06640625 73.80859375 C4.4621431 73.54688889 3.85787994 73.28518402 3.23530579 73.01554871 C-0.12254833 71.56111885 -3.48004041 70.10586144 -6.83691406 68.64916992 C-13.29372276 65.8477873 -19.75252165 63.05177335 -26.22265625 60.28125 C-27.27702881 59.8279834 -28.33140137 59.3747168 -29.41772461 58.90771484 C-31.3921631 58.05917202 -33.36818856 57.21431027 -35.34594727 56.37353516 C-36.66357056 55.80578369 -36.66357056 55.80578369 -38.0078125 55.2265625 C-39.1510498 54.73796753 -39.1510498 54.73796753 -40.31738281 54.23950195 C-42.1796875 53.30078125 -42.1796875 53.30078125 -44.1796875 51.30078125 C-47.24866966 41.20283995 -46.75549333 26.06139063 -42.4375 16.51953125 C-37.60443068 7.99411705 -31.06134141 0.91897396 -21.51171875 -2.2265625 C-14.23848306 -3.7007024 -6.4886307 -3.95019149 0 0 Z " fill="#FDCC6C" transform="translate(137.1796875,249.69921875)"/>
<path d="M0 0 C1.36934692 0.00749268 1.36934692 0.00749268 2.76635742 0.01513672 C12.39408983 0.25622491 21.09118198 2.49123373 30.1875 5.5 C31.41597656 5.88800781 32.64445312 6.27601563 33.91015625 6.67578125 C57.66943961 14.88353368 81.31674896 27.58616597 102.1875 41.5 C108.58130562 41.8141276 114.89498363 41.27157129 121.27148438 40.78808594 C147.84088687 38.80177734 174.1644836 39.04877995 200.72265625 41.0625 C202.87737072 41.21174295 205.03230077 41.35792905 207.1875 41.5 C208.05173584 41.56558105 208.91597168 41.63116211 209.80639648 41.69873047 C215.1921127 41.94485038 218.65946124 40.68056758 223.125 37.625 C224.43446753 36.78895023 225.74574374 35.95572815 227.05859375 35.125 C227.73519043 34.69058594 228.41178711 34.25617187 229.10888672 33.80859375 C249.36642879 21.05543126 271.44457022 10.87764311 294.1875 3.5 C295.35152344 3.1184375 296.51554687 2.736875 297.71484375 2.34375 C304.40058659 0.48516512 311.03601484 0.18230705 317.9375 0.0625 C319.2514978 0.02866211 319.2514978 0.02866211 320.59204102 -0.00585938 C329.17233166 0.0266202 336.28994525 2.9065737 342.62109375 8.73828125 C352.18174911 19.49103827 351.90527505 33.05049946 351.36962891 46.59375 C350.1804061 65.57030269 344.22764351 86.43155862 335.28515625 103.1484375 C330.42154646 111.68714736 330.42154646 111.68714736 329.60351562 121.17919922 C331.36392551 126.82161642 334.09738315 131.91767243 336.93554688 137.08105469 C338.74742256 140.58184725 339.95580931 144.16349559 341.0625 147.9375 C341.25513428 148.58952393 341.44776855 149.24154785 341.64624023 149.91333008 C342.17921248 151.77014419 342.68392939 153.6349974 343.1875 155.5 C343.48269531 156.57378906 343.77789062 157.64757812 344.08203125 158.75390625 C354.18264307 200.10173099 348.83200707 253.2616054 327.93359375 290.63671875 C325.59895512 294.46510828 323.03962066 298.04193429 320.1875 301.5 C317.52083333 298.83333333 314.85416667 296.16666667 312.1875 293.5 C313.64197634 289.48357803 315.61797627 286.11833274 317.875 282.5 C337.77934968 248.45368498 340.8711255 196.15010173 331.1875 158.5 C325.15134588 135.92284944 314.5273158 115.37700418 297.90234375 98.78125 C295.80840714 95.99569424 295.41995508 93.94887433 295.1875 90.5 C296.1875 88.5625 296.1875 88.5625 298.1875 87.5 C301.33526368 87.18522363 302.4111884 87.1840604 305.1875 88.5 C310.98280818 93.72081676 315.6740078 100.16341096 320.1875 106.5 C324.38085825 98.36742642 327.49595413 90.04424593 330.375 81.375 C330.70757812 80.3746875 331.04015625 79.374375 331.3828125 78.34375 C340.59923816 50.23538926 340.59923816 50.23538926 336.38671875 21.7109375 C334.12458085 17.54035102 331.82699388 15.1456516 327.41015625 13.40625 C299.06329573 5.43476922 263.97178698 28.51897343 240.1875 41.5 C238.80056659 42.29981927 237.4159059 43.10361475 236.03515625 43.9140625 C233.1875 45.5 233.1875 45.5 231.1875 45.5 C231.1875 46.16 231.1875 46.82 231.1875 47.5 C232.47785156 47.7578125 233.76820313 48.015625 235.09765625 48.28125 C240.14108184 49.40354804 244.83209017 51.0924139 249.625 53 C250.42615234 53.30808594 251.22730469 53.61617187 252.05273438 53.93359375 C257.92741201 56.23991201 257.92741201 56.23991201 260.1875 58.5 C260.52052312 61.6304173 260.66421956 63.67898298 259.0625 66.4375 C256.16969632 68.07675542 254.42122656 67.24458443 251.1875 66.5 C247.79280052 65.30905208 244.46371371 63.96359154 241.125 62.625 C215.81639964 52.77128624 189.4348273 52.3173712 162.58642578 52.36962891 C159.32449676 52.37498032 156.06270608 52.36965507 152.80078125 52.36328125 C128.2028715 52.2773063 128.2028715 52.2773063 103.8125 55.125 C102.39529663 55.37624634 102.39529663 55.37624634 100.94946289 55.63256836 C89.64746977 57.7825112 78.07082322 61.02293844 67.76953125 66.2265625 C65.1875 67.5 65.1875 67.5 62.4375 67.3125 C60.1875 66.5 60.1875 66.5 58.1875 64.5 C57.6875 61.625 57.6875 61.625 58.1875 58.5 C62.90151808 54.69543879 68.15348754 52.77853831 73.8125 50.75 C74.658125 50.43417969 75.50375 50.11835937 76.375 49.79296875 C80.29395157 48.36508576 82.94301522 47.5 87.1875 47.5 C87.1875 46.84 87.1875 46.18 87.1875 45.5 C86.41019531 45.28601562 85.63289063 45.07203125 84.83203125 44.8515625 C79.88690456 43.01767843 75.46555808 40.45429034 70.875 37.875 C32.81922674 16.14160645 32.81922674 16.14160645 -9.22265625 13.1484375 C-14.48636113 15.45069346 -16.49053343 18.32022843 -18.8125 23.5 C-27.48649417 46.22209343 -14.89525121 77.25080795 -5.89453125 98.03125 C-4.58762313 100.88720124 -3.25292056 103.70953822 -1.8125 106.5 C-1.31621094 105.8709375 -0.81992188 105.241875 -0.30859375 104.59375 C1.10917588 102.80741407 2.53548032 101.02782981 3.96875 99.25390625 C5.34282814 97.54840433 6.70051945 95.82937924 8.03125 94.08984375 C10.9155096 90.47796412 12.43102233 88.73955126 16.9375 87.3125 C20.1875 87.5 20.1875 87.5 22.1875 88.5625 C23.71711245 91.52612412 23.04737677 93.32269748 22.1875 96.5 C20.03515625 99.18359375 20.03515625 99.18359375 17.25 101.9375 C3.57090963 116.13754952 -5.44527174 133.8600874 -11.1875 152.625 C-11.5273291 153.73137817 -11.5273291 153.73137817 -11.87402344 154.86010742 C-15.79130204 168.56910987 -17.39991752 182.22960542 -17.3125 196.4375 C-17.31035492 197.58013306 -17.31035492 197.58013306 -17.3081665 198.74584961 C-17.20958988 220.29458872 -14.85247423 242.00523723 -7.63574219 262.38964844 C-4.38709445 272.44871432 -5.78497775 283.13892711 -6.8125 293.5 C-29.29841351 267.37304141 -31.49746848 218.97420043 -29.55078125 186.38671875 C-28.10332746 167.29272503 -24.2738899 149.62710633 -16.77734375 131.98046875 C-16.46490723 131.23337646 -16.1524707 130.48628418 -15.83056641 129.71655273 C-14.8125 127.5 -14.8125 127.5 -13.50927734 125.34790039 C-11.55112558 121.91091602 -10.54722858 119.73025543 -11.40014648 115.7746582 C-12.63864085 112.61342572 -14.0557869 109.60497238 -15.5625 106.5625 C-21.5541358 93.50395044 -26.08386503 80.36828878 -29.8125 66.5 C-30.01875 65.7354248 -30.225 64.97084961 -30.4375 64.18310547 C-32.62835477 55.67944765 -33.08737488 47.36578389 -33.1875 38.625 C-33.20167969 37.67343018 -33.21585937 36.72186035 -33.23046875 35.74145508 C-33.15704273 25.22960294 -30.47588912 15.60649047 -23.21484375 7.77734375 C-16.39431365 1.45398213 -9.04174056 -0.06601664 0 0 Z " fill="#67828E" transform="translate(98.8125,-0.5)"/>
<path d="M0 0 C5.26670681 1.63302973 10.2367003 3.77049681 15.2734375 5.9921875 C16.59729965 6.57300583 16.59729965 6.57300583 17.94790649 7.16555786 C19.80926063 7.98294682 21.67003885 8.80164836 23.53027344 9.62158203 C26.35718186 10.86714913 29.18624681 12.10771128 32.015625 13.34765625 C33.83086056 14.14553447 35.64596891 14.94370217 37.4609375 15.7421875 C38.29764984 16.10899628 39.13436218 16.47580505 39.99642944 16.85372925 C42.33805364 17.8876362 44.67152598 18.93682993 47 20 C47.75935852 20.34613342 48.51871704 20.69226685 49.30108643 21.04888916 C50.01722107 21.38869812 50.73335571 21.72850708 51.47119141 22.07861328 C52.10441315 22.37663849 52.73763489 22.6746637 53.39004517 22.98171997 C55 24 55 24 57 27 C56.57847656 27.61488281 56.15695312 28.22976563 55.72265625 28.86328125 C55.17480469 29.67152344 54.62695312 30.47976563 54.0625 31.3125 C53.51722656 32.11300781 52.97195312 32.91351563 52.41015625 33.73828125 C48.40951048 40.15482946 48.86479445 49.7768138 50.44677734 57.05566406 C51.70261213 61.46465362 53.35135952 65.72429739 55 70 C55.64836261 71.82520192 56.27669641 73.65778152 56.875 75.5 C57.11992187 76.2115625 57.36484375 76.923125 57.6171875 77.65625 C58.52880802 83.23760011 56.71950559 88.20974977 54.41015625 93.21875 C53.87753174 94.38817139 53.34490723 95.55759277 52.79614258 96.76245117 C52.2183916 98.00836102 51.64050803 99.25420939 51.0625 100.5 C50.175899 102.43545235 49.2924369 104.37231518 48.40934753 106.30937195 C47.81267963 107.6180154 47.21503043 108.92621188 46.6164093 110.23396301 C43.30897391 117.47365019 40.17479544 124.78751078 37.07250977 132.1171875 C36.69408936 133.00019531 36.31566895 133.88320313 35.92578125 134.79296875 C35.43718628 135.94575317 35.43718628 135.94575317 34.9387207 137.12182617 C34 139 34 139 32 141 C26.56313694 141.52903733 22.58263032 140.34719455 17.7421875 138.0625 C17.05256927 137.75038574 16.36295105 137.43827148 15.6524353 137.11669922 C13.38786575 136.0892705 11.13174814 135.04448075 8.875 134 C6.48514756 132.91168268 4.09308005 131.82834311 1.70080566 130.74536133 C0.03862366 129.99270918 -1.62290751 129.23861816 -3.28381348 128.4831543 C-12.71894538 124.19828662 -22.23183097 120.09620827 -31.75 116 C-33.38953692 115.29308758 -35.02902391 114.58605936 -36.66845703 113.87890625 C-40.44476515 112.25057021 -44.22205318 110.62453019 -48 109 C-47.11090942 108.69098755 -47.11090942 108.69098755 -46.20385742 108.37573242 C-43.11117828 106.44516336 -42.30352133 104.26527338 -40.73828125 100.98828125 C-40.44101639 100.37028152 -40.14375153 99.7522818 -39.83747864 99.11555481 C-36.0860994 91.23075838 -32.64180345 83.20540345 -29.1875 75.1875 C-28.08226414 72.63445193 -26.9755454 70.08205004 -25.86871338 67.5296936 C-25.10083724 65.75885926 -24.33338532 63.98784091 -23.56634521 62.21664429 C-19.12308612 51.9614467 -14.62413714 41.73077426 -10.125 31.5 C-8.98024859 28.89658068 -7.83559389 26.29311911 -6.69129944 23.6894989 C-6.01124146 22.14224422 -5.33087795 20.59512377 -4.65013123 19.048172 C-4.04805124 17.67855426 -3.44832965 16.30789647 -2.85137939 14.93603516 C-2.2795563 13.6357105 -1.6946338 12.34107471 -1.09735107 11.05224609 C0.80324967 6.87469074 1.20306803 4.48416267 0 0 Z " fill="#89D66F" transform="translate(203,350)"/>
<path d="M0 0 C4.48196856 0.55764027 8.04747294 2.19459084 12.109375 4.10546875 C12.85703125 4.44513672 13.6046875 4.78480469 14.375 5.13476562 C18.30761439 6.93609156 22.18605994 8.82740627 26.04272461 10.78564453 C31.007104 13.27246534 36.04001317 15.55484087 41.12890625 17.7734375 C42.01293625 18.16114822 42.89696625 18.54885895 43.80778503 18.94831848 C45.65672978 19.75866067 47.50620746 20.56778789 49.35620117 21.37573242 C52.18330094 22.61045899 55.00877351 23.84884889 57.83398438 25.08789062 C59.64053245 25.8791176 61.44716992 26.67014049 63.25390625 27.4609375 C64.09355423 27.82865768 64.93320221 28.19637787 65.79829407 28.57524109 C69.63052114 30.24818493 73.4626639 31.89899539 77.359375 33.41796875 C76.76125 33.64484375 76.163125 33.87171875 75.546875 34.10546875 C71.22916926 36.6960922 69.59548986 41.914888 67.609375 46.37109375 C67.08835205 47.53648682 66.5673291 48.70187988 66.03051758 49.90258789 C65.47338017 51.15767495 64.91633465 52.4128028 64.359375 53.66796875 C63.78366961 54.95900217 63.20773917 56.24993525 62.6315918 57.54077148 C58.31320836 67.22666516 54.03572701 76.93077053 49.78710938 86.64746094 C49.36365234 87.61458008 48.94019531 88.58169922 48.50390625 89.578125 C48.13628174 90.41996338 47.76865723 91.26180176 47.38989258 92.12915039 C46.43240134 94.25577449 45.41907318 96.34069742 44.359375 98.41796875 C43.4725 98.08796875 42.585625 97.75796875 41.671875 97.41796875 C31.70648691 94.64534061 21.62191737 96.10980951 12.359375 100.41796875 C1.47949983 106.63504027 -4.03576991 114.42688767 -9.640625 125.41796875 C-14.0861721 124.74801878 -17.97562599 123.13031705 -22.05859375 121.328125 C-23.10627678 120.8712455 -23.10627678 120.8712455 -24.17512512 120.40513611 C-25.64443075 119.76284719 -27.11265015 119.11806833 -28.57983398 118.47094727 C-30.82809389 117.48048246 -33.08071642 116.50049384 -35.33398438 115.52148438 C-36.76329336 114.89515279 -38.19233923 114.26822036 -39.62109375 113.640625 C-40.29504684 113.34785172 -40.96899994 113.05507843 -41.66337585 112.75343323 C-44.41074961 111.53496564 -46.49588977 110.56270398 -48.640625 108.41796875 C-49.16240817 103.00971736 -48.01050805 99.04732053 -45.73828125 94.23046875 C-45.4293544 93.5473613 -45.12042755 92.86425385 -44.80213928 92.16044617 C-44.13188779 90.6821882 -43.45570556 89.20660779 -42.77423096 87.73348999 C-41.30593981 84.55933219 -39.86635269 81.37240849 -38.42443848 78.186203 C-37.66382635 76.50649054 -36.90167523 74.82747419 -36.13806152 73.14912415 C-32.28458797 64.67252124 -28.55761805 56.14248612 -24.84963989 47.60144043 C-23.77155495 45.1191226 -22.69073103 42.63801451 -21.60913086 40.15722656 C-18.53345275 33.09913956 -15.47062552 26.03630023 -12.453125 18.953125 C-11.99019043 17.87135986 -11.52725586 16.78959473 -11.05029297 15.67504883 C-10.22530881 13.74397132 -9.40611474 11.81040415 -8.59423828 9.8737793 C-8.06419189 8.63494995 -8.06419189 8.63494995 -7.5234375 7.37109375 C-7.22840332 6.67145508 -6.93336914 5.97181641 -6.62939453 5.25097656 C-4.92258966 2.08685534 -3.5968086 0.56931734 0 0 Z " fill="#88D66F" transform="translate(72.640625,292.58203125)"/>
<path d="M0 0 C0.82113281 -0.02900391 1.64226562 -0.05800781 2.48828125 -0.08789062 C9.8629223 -0.16385761 14.98493345 1.86164556 20.5 6.75 C21.2425 7.595625 21.985 8.44125 22.75 9.3125 C23.471875 10.116875 24.19375 10.92125 24.9375 11.75 C28.82242939 17.24248639 29.04309616 22.58223041 28.9375 29.0625 C28.9365332 30.21298828 28.9365332 30.21298828 28.93554688 31.38671875 C28.89091099 37.03067801 28.89091099 37.03067801 27.75 39.3125 C25.77983776 39.59350571 23.79646059 39.78128263 21.8125 39.9375 C10.85022718 41.107951 0.52743989 44.88728128 -9.91650391 48.25 C-15.07216909 49.89328804 -20.25522621 51.44315678 -25.4375 53 C-31.61731795 54.86822013 -37.76431733 56.79166193 -43.875 58.875 C-50.59365498 61.15427763 -57.38727744 63.09278842 -64.21582031 65.01416016 C-70.82863771 66.88331023 -77.38461149 68.89255445 -83.92895508 70.98754883 C-90.32988534 73.03379694 -96.75506934 74.99277546 -103.1875 76.9375 C-106.87596584 78.05935151 -110.56314749 79.18536002 -114.25 80.3125 C-114.93868164 80.52148926 -115.62736328 80.73047852 -116.33691406 80.94580078 C-122.25389865 82.75315337 -127.33830294 84.49229118 -132.25 88.3125 C-139.05450264 85.39628458 -142.1929976 79.76743444 -145.25 73.3125 C-147.3099909 67.14548321 -147.48788332 59.04426534 -145.44921875 52.8984375 C-144.22343443 50.78385425 -142.90905635 49.10786379 -141.25 47.3125 C-140.61835938 46.62542969 -139.98671875 45.93835938 -139.3359375 45.23046875 C-130.3949017 36.46825366 -120.68431676 33.51101007 -108.40991211 33.57543945 C-97.48085311 34.09379223 -89.37769406 39.27821769 -81.25 46.3125 C-80.9096875 45.73242188 -80.569375 45.15234375 -80.21875 44.5546875 C-76.03328363 37.80896245 -71.58560619 33.43212969 -64.4375 29.9375 C-55.45235436 28.17570674 -48.44828284 29.32895259 -40.25 33.3125 C-40.03085937 32.62285156 -39.81171875 31.93320312 -39.5859375 31.22265625 C-35.61207361 19.44644984 -29.37605537 9.25210261 -18.0625 3.4375 C-11.94036967 0.52587266 -6.70006024 0.07742751 0 0 Z " fill="#FD528E" transform="translate(393.25,287.6875)"/>
<path d="M0 0 C5.70940227 4.43946045 8.50193936 9.78482526 10.83984375 16.5625 C10.83984375 17.2225 10.83984375 17.8825 10.83984375 18.5625 C7.20984375 19.8825 3.57984375 21.2025 -0.16015625 22.5625 C-5.16015625 12.8125 -5.16015625 12.8125 -5.16015625 10.5625 C-11.83073712 6.97064876 -17.91182763 5.40012437 -25.38671875 7.4453125 C-26.50820313 7.85523438 -27.6296875 8.26515625 -28.78515625 8.6875 C-34.95456153 10.87192413 -41.16790064 12.74580326 -47.47265625 14.5 C-54.09890646 16.35525473 -60.64975919 18.3343972 -67.16015625 20.5625 C-74.54087427 23.0862028 -81.98728463 25.27566614 -89.49536133 27.38720703 C-95.9334095 29.20065853 -102.31896677 31.13638924 -108.6953125 33.15625 C-113.26343835 34.6020613 -117.84455782 36.00460365 -122.42602539 37.4074707 C-125.78427393 38.43722945 -129.14030673 39.47396974 -132.49609375 40.51171875 C-136.82793004 41.85036336 -141.16623702 43.16342624 -145.51171875 44.45703125 C-147.47797544 45.05432269 -149.44412655 45.65196182 -151.41015625 46.25 C-152.30814941 46.51087402 -153.20614258 46.77174805 -154.13134766 47.04052734 C-160.02139717 48.85467616 -164.93926191 50.92280313 -168.29316711 56.41932678 C-171.91556333 65.37379025 -167.74265451 75.59773311 -164.9609375 84.22265625 C-164.52306566 85.62067758 -164.08666923 87.01916176 -163.6516571 88.41807556 C-162.50808577 92.08313375 -161.34653156 95.74222646 -160.18035889 99.40014648 C-158.33102515 105.21402432 -156.51226623 111.03760976 -154.68702316 116.85908508 C-154.02825947 118.9572979 -153.36691108 121.05468293 -152.70523071 123.15197754 C-150.1829836 131.16504194 -147.75157546 139.19295905 -145.63240051 147.32374573 C-143.63692488 154.89552334 -141.14783487 162.33311557 -134.16015625 166.5625 C-127.48259546 168.7883536 -121.48007681 167.40602468 -114.99902344 165.33789062 C-114.22212504 165.0999475 -113.44522665 164.86200438 -112.64478588 164.61685085 C-110.07879797 163.82806512 -107.51806241 163.0234694 -104.95703125 162.21875 C-103.13560789 161.6555422 -101.3138691 161.09335362 -99.49183655 160.53211975 C-94.62996397 159.03153401 -89.77242032 157.51738325 -84.91571426 156.00017166 C-79.90915084 154.43822788 -74.89917046 152.88732768 -69.8894043 151.33569336 C-63.90641474 149.48197643 -57.92377616 147.6271665 -51.94291687 145.7665863 C-41.2666163 142.44625477 -30.58282144 139.15443326 -19.87720871 135.92981339 C-16.79595579 135.00130938 -13.71597332 134.06860585 -10.63574219 133.13671875 C-7.33846035 132.13940521 -4.04044773 131.14518569 -0.7388916 130.16210938 C2.20064219 129.28604739 5.13580191 128.39662216 8.0703125 127.50390625 C8.90255844 127.26027847 9.73480438 127.0166507 10.5922699 126.76564026 C16.18130308 125.04559307 20.07741178 122.93266713 23.65234375 118.125 C25.47215463 112.66556737 25.0683126 107.26575951 24.83984375 101.5625 C30.28484375 100.5725 30.28484375 100.5725 35.83984375 99.5625 C38.27210787 107.67004707 38.21570493 114.95203264 34.8671875 122.859375 C29.37447666 132.46696413 21.29882762 136.7149481 11.02734375 139.828125 C9.27429932 140.38551361 9.27429932 140.38551361 7.48583984 140.9541626 C4.2817246 141.9667296 1.07294257 142.96002077 -2.14031982 143.94290161 C-4.86834596 144.77974195 -7.59238711 145.62919483 -10.31672764 146.47794151 C-19.91782591 149.46684361 -29.53757257 152.39366225 -39.16015625 155.3125 C-40.74902407 155.79474387 -42.33788099 156.27702365 -43.92672729 156.75933838 C-44.71976163 157.0000601 -45.51279596 157.24078182 -46.32986164 157.48879814 C-49.52333738 158.45821931 -52.71676765 159.42779021 -55.91017342 160.39744186 C-57.48699133 160.87608849 -59.06387878 161.35450609 -60.64083672 161.83269119 C-70.40614349 164.79415323 -80.15388775 167.80344923 -89.8828125 170.8828125 C-92.77986153 171.79117782 -95.67748348 172.69768211 -98.57543945 173.60314941 C-100.30798528 174.14921373 -102.03825458 174.7025675 -103.76586914 175.26403809 C-117.41781688 179.69849957 -129.78924853 182.45116706 -143.37890625 175.94921875 C-151.55300925 168.93464441 -154.7298488 159.0509434 -157.59765625 149 C-158.16820394 147.08416869 -158.73876708 145.16834171 -159.31051636 143.25286865 C-159.89011828 141.30248637 -160.46225975 139.3500479 -161.03271484 137.39697266 C-162.77313283 131.4777425 -164.59134918 125.58301835 -166.41015625 119.6875 C-166.90757324 118.0641272 -166.90757324 118.0641272 -167.41503906 116.40795898 C-169.14901468 110.76378961 -170.94317918 105.15133925 -172.84765625 99.5625 C-175.00215029 93.23047853 -176.81273713 86.82960007 -178.54956055 80.37304688 C-179.59179494 76.37268908 -179.59179494 76.37268908 -181.16015625 72.5625 C-181.93776532 63.053452 -182.166604 54.51042581 -176.16015625 46.5625 C-169.9826764 39.66531376 -161.76678079 36.45252121 -152.97265625 34.25 C-146.10428985 32.44071556 -139.38067745 30.3595278 -132.66015625 28.0625 C-126.20369186 25.86251518 -119.74979009 23.8246305 -113.16015625 22.0625 C-106.5531047 20.29413559 -100.07494734 18.25871842 -93.59765625 16.0625 C-86.89766871 13.79102171 -80.19958293 11.63852083 -73.39746094 9.69189453 C-68.37945751 8.24309974 -63.39170826 6.70583079 -58.41015625 5.13671875 C-57.71191238 4.91700912 -57.01366852 4.6972995 -56.29426575 4.47093201 C-52.77103806 3.36135653 -49.2493221 2.24722318 -45.72924805 1.12768555 C-13.59226796 -9.04512588 -13.59226796 -9.04512588 0 0 Z " fill="#03D3D6" transform="translate(433.16015625,332.4375)"/>
<path d="M0 0 C5.38154221 4.08768206 7.30627969 10.02766608 8.8359375 16.39453125 C9.71190804 27.04269262 8.52148217 37.07050147 5.8359375 47.39453125 C5.61019043 48.26609863 5.38444336 49.13766602 5.15185547 50.03564453 C1.19391392 64.997225 -3.97715548 79.21681875 -10.1640625 93.39453125 C-12.91699488 90.75092109 -15.45785575 88.10336226 -17.8125 85.09765625 C-18.26109375 84.53175781 -18.7096875 83.96585937 -19.171875 83.3828125 C-20.08799211 82.21803503 -20.99161152 81.04332514 -21.8828125 79.859375 C-24.4681968 76.64611165 -25.61897266 75.5293257 -29.765625 74.50390625 C-32.23076394 74.42456845 -34.69764719 74.39453125 -37.1640625 74.39453125 C-39.171875 72.890625 -39.171875 72.890625 -41.2890625 70.83203125 C-47.06789876 65.48473146 -53.17574931 61.02854392 -60.0625 57.203125 C-60.73974121 56.82019287 -61.41698242 56.43726074 -62.11474609 56.04272461 C-63.45295508 55.29295133 -64.80209029 54.56226733 -66.16259766 53.85375977 C-68.0390625 52.80078125 -68.0390625 52.80078125 -71.1640625 50.39453125 C-71.42703125 49.23566406 -71.69 48.07679687 -71.9609375 46.8828125 C-72.77451255 43.3492589 -72.77451255 43.3492589 -75.17382812 42.11669922 C-77.88908872 40.96916608 -80.61294735 40.00002794 -83.4140625 39.08203125 C-84.82751953 38.58219727 -84.82751953 38.58219727 -86.26953125 38.07226562 C-88.89232961 37.15079159 -91.52413096 36.26549662 -94.1640625 35.39453125 C-95.37578125 34.98847656 -96.5875 34.58242188 -97.8359375 34.1640625 C-98.98835938 33.78314453 -98.98835938 33.78314453 -100.1640625 33.39453125 C-100.1640625 32.73453125 -100.1640625 32.07453125 -100.1640625 31.39453125 C-21.58030146 -11.35171991 -21.58030146 -11.35171991 0 0 Z " fill="#B0B8C5" transform="translate(430.1640625,13.60546875)"/>
<path d="M0 0 C1.06355713 0.38744385 2.12711426 0.7748877 3.22290039 1.17407227 C22.43080465 8.37896262 40.70555669 17.91919819 58.4375 28.1875 C58.4375 28.8475 58.4375 29.5075 58.4375 30.1875 C57.25414062 30.56261719 56.07078125 30.93773437 54.8515625 31.32421875 C41.85088532 34.77525536 41.85088532 34.77525536 30.4375 41.1875 C30.33179688 42.14011719 30.22609375 43.09273437 30.1171875 44.07421875 C29.4375 47.1875 29.4375 47.1875 26.48046875 49.42578125 C25.20508616 50.13505442 23.91912592 50.82553184 22.625 51.5 C21.24959562 52.26938581 19.8772314 53.04422924 18.5078125 53.82421875 C17.82106445 54.21399902 17.13431641 54.6037793 16.42675781 55.00537109 C9.75478737 58.97023129 3.72176441 63.89644318 -1.8125 69.3125 C-4.95175627 72.17821112 -4.95175627 72.17821112 -7.6171875 72.21875 C-8.30039063 72.0846875 -8.98359375 71.950625 -9.6875 71.8125 C-13.60244744 70.72042579 -13.60244744 70.72042579 -16.4375 73.19140625 C-19.87166094 76.2859249 -22.65256144 79.82584872 -25.4375 83.5 C-25.93507813 84.14517578 -26.43265625 84.79035156 -26.9453125 85.45507812 C-28.15701851 87.02796574 -29.36061973 88.6070916 -30.5625 90.1875 C-32.90595206 87.84404794 -33.578983 85.95522774 -34.76953125 82.8671875 C-35.18904053 81.78252197 -35.6085498 80.69785645 -36.04077148 79.58032227 C-36.48106689 78.41944092 -36.9213623 77.25855957 -37.375 76.0625 C-37.82496338 74.877771 -38.27492676 73.69304199 -38.73852539 72.47241211 C-56.07535935 26.43666259 -56.07535935 26.43666259 -48.875 6.5625 C-46.51279451 1.56457049 -43.49383543 -1.44643347 -39 -4.625 C-26.63260056 -8.89737435 -11.78842466 -4.32790805 0 0 Z " fill="#B0B8C5" transform="translate(127.5625,16.8125)"/>
<path d="M0 0 C13.10401706 6.97746363 18.55772971 18.87356898 23.125 32.4375 C23.37378906 33.17355469 23.62257813 33.90960938 23.87890625 34.66796875 C26.96886124 45.8393445 26.47765631 59.12384516 21.125 69.4375 C16.87430174 76.52199709 9.62302747 80.32709014 1.8125 82.3125 C-10.35428049 84.675119 -20.9535547 84.07929929 -31.828125 77.70703125 C-42.20519404 70.60469301 -48.95225163 61.80098424 -51.875 49.4375 C-53.08051941 39.71500775 -52.888435 30.07435219 -47.875 21.4375 C-47.45089844 20.67308594 -47.02679688 19.90867187 -46.58984375 19.12109375 C-37.37559202 3.95222809 -17.73997749 -7.25726352 0 0 Z " fill="#B0B8C5" transform="translate(462.875,351.5625)"/>
<path d="M0 0 C5.14202223 0.60290625 9.3135193 2.22241119 13.98828125 4.30859375 C14.73208542 4.63537613 15.47588959 4.96215851 16.24223328 5.29884338 C17.80433805 5.98727638 19.36493172 6.67914739 20.92407227 7.37426758 C23.31808953 8.43998823 25.71813757 9.49114364 28.11914062 10.54101562 C29.63840115 11.21268207 31.15729487 11.88517895 32.67578125 12.55859375 C33.39550613 12.87324081 34.11523102 13.18788788 34.85676575 13.5120697 C39.88495957 15.76991914 39.88495957 15.76991914 41 18 C39.99916404 20.65920458 38.92695071 23.20775764 37.7578125 25.79296875 C37.40267075 26.59508286 37.04752899 27.39719696 36.68162537 28.22361755 C35.50313241 30.88143887 34.31396016 33.53434674 33.125 36.1875 C32.30762736 38.02678795 31.49114964 39.86647384 30.67553711 41.70654297 C29.40878971 44.56395449 28.1414037 47.42106637 26.87113953 50.2769165 C22.75848055 59.5240702 18.70767532 68.79768264 14.67059326 78.07803345 C13.58036249 80.58394283 12.48885747 83.08929337 11.39697266 85.59448242 C10.72424253 87.13849111 10.05155162 88.68251689 9.37890625 90.2265625 C9.0796373 90.91342636 8.78036835 91.60029022 8.47203064 92.30796814 C6.63329638 96.53242201 4.81137365 100.76373951 3 105 C-0.36327963 104.43945339 -2.99112219 103.58158962 -6 102 C-5.94779297 100.22496094 -5.94779297 100.22496094 -5.89453125 98.4140625 C-5.61652562 85.14841998 -6.86336837 74.98085242 -15 64 C-17.11776601 61.8897438 -19.26098345 59.89693459 -21.55859375 57.984375 C-23 56 -23 56 -22.83349609 53.45336914 C-21.75039379 48.96582314 -19.9920369 44.96426247 -18.10546875 40.76171875 C-17.71684158 39.88151566 -17.32821442 39.00131256 -16.92781067 38.09443665 C-15.68746669 35.28922537 -14.43765221 32.4883519 -13.1875 29.6875 C-12.35809475 27.81603394 -11.52931237 25.9442917 -10.70117188 24.07226562 C-8.82306176 19.83051611 -6.93835258 15.59176218 -5.04940796 11.35482788 C-3.36327574 7.57121719 -1.68167155 3.78559493 0 0 Z " fill="#FEFE9C" transform="translate(151,340)"/>
<path d="M0 0 C0.33 0 0.66 0 1 0 C1.29132813 1.00675781 1.58265625 2.01351563 1.8828125 3.05078125 C4.33666938 11.48623207 6.87430407 19.88836566 9.55493164 28.25463867 C11.08451264 33.04429916 12.55661505 37.84688105 13.984375 42.66796875 C14.32879639 43.81982666 14.67321777 44.97168457 15.02807617 46.15844727 C15.70081468 48.41292309 16.36548815 50.66982665 17.02075195 52.92944336 C18.98231918 59.46615609 21.38807343 65.20134866 25 71 C1.53065033 81.05228418 -31.20793356 77.1293505 -54.51269531 68.01757812 C-64.49858625 63.81014823 -73.63627053 58.93825906 -82 52 C-83.09634766 51.09314453 -83.09634766 51.09314453 -84.21484375 50.16796875 C-85.83010466 48.80219369 -87.41902005 47.40531552 -89 46 C-88 43 -88 43 -85.92578125 41.796875 C-85.06339844 41.45140625 -84.20101562 41.1059375 -83.3125 40.75 C-82.03826172 40.21632813 -82.03826172 40.21632813 -80.73828125 39.671875 C-75.10117902 38.28873437 -70.3067171 40.53993045 -65.16796875 42.80078125 C-64.21389885 43.21725166 -64.21389885 43.21725166 -63.24055481 43.64213562 C-61.2200239 44.52592931 -59.20377132 45.41903781 -57.1875 46.3125 C-55.84597383 46.9010081 -54.50417896 47.48890406 -53.16210938 48.07617188 C-43.24613941 52.42329399 -43.24613941 52.42329399 -39.18823242 54.30126953 C-38.4016626 54.66462402 -37.61509277 55.02797852 -36.8046875 55.40234375 C-36.1535498 55.71034912 -35.50241211 56.01835449 -34.83154297 56.33569336 C-31.80849576 57.43216249 -29.17842395 57.27050417 -26 57 C-20.56613936 46.60650655 -15.95195657 35.88893792 -11.3125 25.125 C-10.17238412 22.48493502 -9.03126938 19.84531277 -7.88822937 17.20651245 C-7.18295463 15.57785002 -6.47940794 13.94843777 -5.77790833 12.31814575 C-3.97248424 8.1438554 -2.08005571 4.04748029 0 0 Z " fill="#AFB9C5" transform="translate(261,433)"/>
<path d="M0 0 C2.40235348 0.01077179 4.80396717 0.00001932 7.20629883 -0.01269531 C27.619344 -0.03249855 27.619344 -0.03249855 35.20825195 6.26074219 C38.32952174 11.1303521 37.77359578 16.7003352 37.20825195 22.26074219 C35.06039507 29.88756335 29.59320345 35.30145261 22.88793945 39.18261719 C9.97174515 45.95456579 -2.01125521 48.67129148 -16.2331543 44.23339844 C-24.87812474 40.94698983 -33.52811792 35.68412862 -38.29174805 27.51074219 C-40.82221737 21.74127212 -40.79043469 15.32338122 -38.85424805 9.38574219 C-28.76144712 -1.01290119 -13.43221626 -0.07166054 0 0 Z " fill="#FDFEFE" transform="translate(259.791748046875,228.7392578125)"/>
<path d="M0 0 C7.64065769 4.12867276 14.34341434 9.46256009 21 15 C21.62261719 15.49886719 22.24523437 15.99773438 22.88671875 16.51171875 C25.42363527 18.55722287 27.17260369 20.25890554 29 23 C28.75 24.75 28.75 24.75 28 27 C27.79632813 28.11117187 27.59265625 29.22234375 27.3828125 30.3671875 C25.64960548 34.92052798 23.25498175 36.24797516 19.125 38.375 C17.75870708 39.1352375 16.39545746 39.90096773 15.03515625 40.671875 C14.35469238 41.05537109 13.67422852 41.43886719 12.97314453 41.83398438 C6.30000252 45.77742984 0.27615681 50.71687761 -5.25 56.125 C-8.40661078 59.00116809 -8.40661078 59.00116809 -10.984375 58.99609375 C-12.31738631 58.70934132 -13.64595577 58.40101106 -14.96875 58.0703125 C-19.09830136 57.92736649 -22.10829501 61.34670686 -25 64 C-28.14369572 61.12966912 -28.94240121 59.105093 -29.16796875 54.77734375 C-29.17441406 53.51019531 -29.18085937 52.24304688 -29.1875 50.9375 C-29.19249512 50.26501221 -29.19749023 49.59252441 -29.20263672 48.8996582 C-29.18076439 44.92602733 -28.73328195 41.49078451 -27.625 37.6875 C-26.58183004 33.40764518 -27.49454876 31.36774156 -29.75 27.625 C-30.8274953 26.0792474 -31.9104297 24.53726503 -33 23 C-36.20526465 17.84601964 -35.69163143 11.8461057 -35 6 C-33.08230193 1.33508794 -28.69109442 -1.31685893 -24.22265625 -3.3046875 C-15.87878838 -5.91489573 -7.74703686 -3.40628469 0 0 Z " fill="#FEFEFE" transform="translate(131,30)"/>
<path d="M0 0 C3.93294905 2.2976272 6.46293569 5.23837137 8.5 9.3125 C9.52402522 18.04189533 7.39950492 25.39425011 2.1875 32.4375 C-0.2322089 36.55996702 0.52868961 38.68009661 1.5 43.3125 C1.6753125 43.9209375 1.850625 44.529375 2.03125 45.15625 C3.20162707 50.53998453 3.71758003 57.34032866 1.60546875 62.49609375 C0.5 64.125 0.5 64.125 -1.5 66.3125 C-4.5 65.3125 -4.5 65.3125 -6.875 62.75 C-9.22264274 60.09201081 -9.22264274 60.09201081 -12.0625 60 C-13.2690625 60.1546875 -13.2690625 60.1546875 -14.5 60.3125 C-19.14645533 60.3125 -19.45505715 59.8322138 -22.625 56.75 C-28.40383626 51.40270021 -34.51168681 46.94651267 -41.3984375 43.12109375 C-42.07567871 42.73816162 -42.75291992 42.35522949 -43.45068359 41.96069336 C-44.78889258 41.21092008 -46.13802779 40.48023608 -47.49853516 39.77172852 C-51.11296122 37.74349281 -52.39374799 36.59393237 -53.87890625 32.66015625 C-54.08386719 31.55542969 -54.28882813 30.45070312 -54.5 29.3125 C-54.809375 28.631875 -55.11875 27.95125 -55.4375 27.25 C-55.52975613 24.39005983 -53.90165652 23.05848877 -52.10717773 20.98217773 C-49.18712758 17.94857254 -45.91079296 15.41664844 -42.5625 12.875 C-41.8204834 12.3087793 -41.0784668 11.74255859 -40.31396484 11.15917969 C-29.18626757 2.87578172 -14.09193459 -6.58154384 0 0 Z " fill="#FEFEFE" transform="translate(411.5,27.6875)"/>
<path d="M0 0 C6.7419292 4.73469984 11.23483326 11.51988784 13.375 19.4375 C14.26457094 27.58845231 13.84779441 35.38234638 9.375 42.4375 C5.67533013 46.43694549 1.97301983 50.19946153 -3.609375 50.7109375 C-18.63737577 51.11625702 -32.55336121 46.35554514 -43.625 35.875 C-47.94042484 31.21434117 -49.09234192 27.20091487 -48.9453125 20.91015625 C-47.98565906 13.50209978 -44.58600584 6.49649461 -38.65234375 1.9140625 C-25.87371328 -7.07262445 -13.63789161 -8.14581343 0 0 Z " fill="#B0B8C5" transform="translate(121.625,404.5625)"/>
<path d="M0 0 C4.69351254 0.49255163 8.42208431 2.21666058 12.69067383 4.15917969 C13.57087692 4.5492218 14.45108002 4.93926392 15.35795593 5.34112549 C18.1650036 6.58785971 20.96491918 7.84977473 23.76489258 9.11230469 C25.63618501 9.94665333 27.50792579 10.77999717 29.38012695 11.61230469 C33.62814589 13.50317355 37.87284635 15.40105442 42.10928345 17.31774902 C43.71482401 18.03349737 45.32813396 18.73199623 46.94760132 19.41564941 C47.74606476 19.75543823 48.5445282 20.09522705 49.3671875 20.4453125 C50.08073898 20.74270325 50.79429047 21.04009399 51.52946472 21.34649658 C53.6249908 22.45348162 54.97191503 23.51263338 56.45239258 25.36230469 C56.26460383 30.50818582 54.09884594 34.92425751 52.01489258 39.54589844 C51.48676468 40.73983215 51.48676468 40.73983215 50.94796753 41.95788574 C49.7889717 44.5746576 48.62061846 47.18714217 47.45239258 49.79980469 C46.64057501 51.6289661 45.82955094 53.45847988 45.01928711 55.28833008 C43.76378083 58.12347721 42.50778711 60.95839649 41.2492981 63.79222107 C36.89184511 73.60630954 32.606638 83.45142631 28.32739258 93.29980469 C26.03993747 98.56337252 23.7491071 103.82541579 21.44836426 109.08319092 C20.75282556 110.67481431 20.05903563 112.26720256 19.36657715 113.86016846 C18.2773293 116.36419543 17.18190365 118.86543975 16.08520508 121.36621094 C15.75076385 122.13835434 15.41632263 122.91049774 15.07174683 123.70603943 C12.68033146 129.1343658 12.68033146 129.1343658 10.45239258 131.36230469 C5.49553326 131.9304261 2.41993942 130.67832967 -1.92260742 128.36230469 C-2.9822168 127.80542969 -4.04182617 127.24855469 -5.13354492 126.67480469 C-5.93018555 126.24167969 -6.72682617 125.80855469 -7.54760742 125.36230469 C-6.55760742 121.73230469 -5.56760742 118.10230469 -4.54760742 114.36230469 C-1.24760742 115.68230469 2.05239258 117.00230469 5.45239258 118.36230469 C5.78239258 116.71230469 6.11239258 115.06230469 6.45239258 113.36230469 C7.23039886 111.41573574 8.06441515 109.49111562 8.93676758 107.58496094 C9.45327881 106.44687988 9.96979004 105.30879883 10.50195312 104.13623047 C10.77856781 103.53264709 11.0551825 102.92906372 11.34017944 102.30718994 C12.82810971 99.05873792 14.29777524 95.80203282 15.76879883 92.54589844 C16.07392899 91.87139648 16.37905914 91.19689453 16.69343567 90.50195312 C19.91667984 83.36254604 23.03653651 76.17946257 26.13989258 68.98730469 C26.40744354 68.36773895 26.67499451 67.74817322 26.95065308 67.10983276 C28.27205004 64.04981613 29.59249658 60.9893923 30.91235352 57.92871094 C33.35283597 52.27706736 35.80847874 46.63203799 38.26489258 40.98730469 C38.69181396 40.00584473 39.11873535 39.02438477 39.55859375 38.01318359 C40.52300828 35.79614335 41.48759848 33.57917977 42.45239258 31.36230469 C39.29267263 29.25582472 36.03748714 27.72622452 32.58911133 26.17480469 C31.91950882 25.8716333 31.24990631 25.56846191 30.56001282 25.25610352 C29.14428652 24.61602244 27.72794507 23.97730044 26.31103516 23.33984375 C24.15637464 22.3697256 22.00447743 21.39366869 19.8527832 20.41699219 C18.47338918 19.7942346 17.09383688 19.17182744 15.71411133 18.54980469 C15.07640305 18.26016846 14.43869476 17.97053223 13.78166199 17.67211914 C10.06376507 16.00542388 6.33876499 14.58459844 2.45239258 13.36230469 C2.27820297 13.91491974 2.10401337 14.46753479 1.92454529 15.03689575 C0.18237044 20.42927194 -1.85137508 25.57567957 -4.19995117 30.72949219 C-4.54135635 31.48972687 -4.88276154 32.24996155 -5.23451233 33.03323364 C-6.31396296 35.43645393 -7.3988614 37.83714903 -8.48510742 40.23730469 C-12.83267506 49.84812753 -17.12527014 59.37229663 -20.54760742 69.36230469 C-23.84760742 67.71230469 -27.14760742 66.06230469 -30.54760742 64.36230469 C-29.96127798 58.66281207 -27.83118881 53.98870759 -25.50463867 48.82714844 C-24.89551888 47.4544857 -24.89551888 47.4544857 -24.27409363 46.05409241 C-22.97589092 43.13307031 -21.66806113 40.21647151 -20.36010742 37.29980469 C-19.49946668 35.36583333 -18.63943466 33.43159096 -17.7800293 31.49707031 C-15.74410308 26.920503 -13.69577176 22.34968242 -11.63800049 17.78289795 C-10.94598994 16.24668489 -10.25535507 14.7098508 -9.56658936 13.17218018 C-8.73551693 11.31808469 -7.89772453 9.46700526 -7.05932617 7.61621094 C-6.61419678 6.63080322 -6.16906738 5.64539551 -5.71044922 4.63012695 C-4.17337764 1.63246626 -3.40367916 0.48404982 0 0 Z " fill="#FDCC6B" transform="translate(148.547607421875,326.6376953125)"/>
<path d="M0 0 C4.48196856 0.55764027 8.04747294 2.19459084 12.109375 4.10546875 C12.85703125 4.44513672 13.6046875 4.78480469 14.375 5.13476562 C18.30761439 6.93609156 22.18605994 8.82740627 26.04272461 10.78564453 C31.007104 13.27246534 36.04001317 15.55484087 41.12890625 17.7734375 C42.01293625 18.16114822 42.89696625 18.54885895 43.80778503 18.94831848 C45.65672978 19.75866067 47.50620746 20.56778789 49.35620117 21.37573242 C52.18330094 22.61045899 55.00877351 23.84884889 57.83398438 25.08789062 C59.64053245 25.8791176 61.44716992 26.67014049 63.25390625 27.4609375 C64.09355423 27.82865768 64.93320221 28.19637787 65.79829407 28.57524109 C69.63052114 30.24818493 73.4626639 31.89899539 77.359375 33.41796875 C76.781875 33.62421875 76.204375 33.83046875 75.609375 34.04296875 C72.54526956 35.91547763 71.20397532 38.38755394 69.359375 41.41796875 C63.69897431 40.8326273 59.08453294 38.73289485 53.96484375 36.41015625 C53.05922195 36.00644806 52.15360016 35.60273987 51.22053528 35.1867981 C48.32634164 33.8953855 45.43643676 32.59470799 42.546875 31.29296875 C38.77108251 29.59938399 34.99348817 27.9098676 31.21484375 26.22265625 C30.29831024 25.81287537 29.38177673 25.40309448 28.43746948 24.980896 C20.14646194 21.28974649 11.77675916 17.80953751 3.359375 14.41796875 C0.56677917 20.73005806 -2.22473003 27.04262722 -5.015625 33.35546875 C-5.43713837 34.30882111 -5.85865173 35.26217346 -6.29293823 36.24441528 C-11.15562434 47.24417754 -16.00987583 58.24754571 -20.83984375 69.26171875 C-21.25224304 70.2020546 -21.66464233 71.14239044 -22.08953857 72.11122131 C-24.07030774 76.62867819 -26.04949579 81.14682123 -28.02685547 85.66577148 C-28.7431461 87.30062636 -29.45945376 88.93547378 -30.17578125 90.5703125 C-30.49890793 91.31007324 -30.82203461 92.04983398 -31.154953 92.81201172 C-32.57640239 96.05415779 -34.0094644 99.27509995 -35.640625 102.41796875 C-34.39410156 102.80597656 -33.14757812 103.19398438 -31.86328125 103.59375 C-26.07797594 105.5221851 -20.60454041 108.04159237 -15.078125 110.60546875 C-14.06943359 111.06888672 -13.06074219 111.53230469 -12.02148438 112.00976562 C-9.55928337 113.14167794 -7.09968093 114.27923998 -4.640625 115.41796875 C-6.290625 118.71796875 -7.940625 122.01796875 -9.640625 125.41796875 C-14.14543513 124.51700672 -17.90312568 123.16231816 -22.05859375 121.328125 C-23.10627678 120.8712455 -23.10627678 120.8712455 -24.17512512 120.40513611 C-25.64443075 119.76284719 -27.11265015 119.11806833 -28.57983398 118.47094727 C-30.82809389 117.48048246 -33.08071642 116.50049384 -35.33398438 115.52148438 C-36.76329336 114.89515279 -38.19233923 114.26822036 -39.62109375 113.640625 C-40.29504684 113.34785172 -40.96899994 113.05507843 -41.66337585 112.75343323 C-44.41074961 111.53496564 -46.49588977 110.56270398 -48.640625 108.41796875 C-49.16240817 103.00971736 -48.01050805 99.04732053 -45.73828125 94.23046875 C-45.4293544 93.5473613 -45.12042755 92.86425385 -44.80213928 92.16044617 C-44.13188779 90.6821882 -43.45570556 89.20660779 -42.77423096 87.73348999 C-41.30593981 84.55933219 -39.86635269 81.37240849 -38.42443848 78.186203 C-37.66382635 76.50649054 -36.90167523 74.82747419 -36.13806152 73.14912415 C-32.28458797 64.67252124 -28.55761805 56.14248612 -24.84963989 47.60144043 C-23.77155495 45.1191226 -22.69073103 42.63801451 -21.60913086 40.15722656 C-18.53345275 33.09913956 -15.47062552 26.03630023 -12.453125 18.953125 C-11.99019043 17.87135986 -11.52725586 16.78959473 -11.05029297 15.67504883 C-10.22530881 13.74397132 -9.40611474 11.81040415 -8.59423828 9.8737793 C-8.06419189 8.63494995 -8.06419189 8.63494995 -7.5234375 7.37109375 C-7.22840332 6.67145508 -6.93336914 5.97181641 -6.62939453 5.25097656 C-4.92258966 2.08685534 -3.5968086 0.56931734 0 0 Z " fill="#6DB850" transform="translate(72.640625,292.58203125)"/>
<path d="M0 0 C16.5 0 33 0 50 0 C49.01 0.33 48.02 0.66 47 1 C47.02320313 2.31871094 47.04640625 3.63742188 47.0703125 4.99609375 C47.34192563 26.80070593 46.73430971 52.02350794 31 69 C27.75152526 70.62423737 24.51091599 70.53912942 21 70 C13.4067437 65.74777647 10.37905732 57.26336022 7.8046875 49.3046875 C4.42326657 37.10652458 2.68037187 25.43077152 2.875 12.75 C2.88402344 11.61175781 2.89304688 10.47351563 2.90234375 9.30078125 C2.9255972 6.53362119 2.95827132 3.7669324 3 1 C2.01 0.67 1.02 0.34 0 0 Z " fill="#91A2B5" transform="translate(233,51)"/>
<path d="M0 0 C13.10401706 6.97746363 18.55772971 18.87356898 23.125 32.4375 C23.37378906 33.17355469 23.62257813 33.90960938 23.87890625 34.66796875 C26.96886124 45.8393445 26.47765631 59.12384516 21.125 69.4375 C16.87430174 76.52199709 9.62302747 80.32709014 1.8125 82.3125 C-10.35428049 84.675119 -20.9535547 84.07929929 -31.828125 77.70703125 C-42.20519404 70.60469301 -48.95225163 61.80098424 -51.875 49.4375 C-53.08051941 39.71500775 -52.888435 30.07435219 -47.875 21.4375 C-47.45089844 20.67308594 -47.02679688 19.90867187 -46.58984375 19.12109375 C-37.37559202 3.95222809 -17.73997749 -7.25726352 0 0 Z M-35.671875 22.71484375 C-41.30867118 30.78083067 -41.92329743 38.68422297 -40.875 48.4375 C-38.00862114 57.68211886 -32.33013131 64.75253482 -23.91796875 69.5546875 C-15.41348232 73.445629 -6.93535479 73.30862268 1.796875 70.40234375 C6.99045211 68.24997203 9.99629932 65.17916071 12.5 60.25 C16.78747491 49.26109372 13.18110008 36.71225121 8.76953125 26.2109375 C5.29115194 19.44068716 1.15661113 13.41041608 -5.8125 10 C-18.39102469 7.68965873 -27.87644735 12.83498653 -35.671875 22.71484375 Z " fill="#67838F" transform="translate(462.875,351.5625)"/>
<path d="M0 0 C12.89122211 8.68756273 20.33066239 24.86214804 23.73828125 39.6953125 C23.875 42.9375 23.875 42.9375 22.58203125 44.72265625 C21.95683594 45.14417969 21.33164063 45.56570313 20.6875 46 C17.11775254 48.64875261 15.1415346 51.12972188 12.875 54.9375 C10.92816677 51.33494879 9.59754681 47.54211063 8.25 43.6875 C7.90582031 42.71296875 7.90582031 42.71296875 7.5546875 41.71875 C6.99247537 40.12581562 6.43341997 38.53176771 5.875 36.9375 C1.77276415 35.92209888 1.77276415 35.92209888 -2.125 36.9375 C-2.47539987 42.31029805 -1.53556129 46.42355849 0.21875 51.5078125 C0.91512808 54.08606945 0.98850911 56.27949504 0.875 58.9375 C-7.83017609 57.34317365 -16.91900444 54.16494623 -24.125 48.9375 C-27.28744139 44.14047523 -27.88861009 39.56620652 -28.125 33.9375 C-28.20717773 32.85130371 -28.20717773 32.85130371 -28.29101562 31.74316406 C-29.02931725 21.56260737 -28.49304381 13.24998571 -21.8125 5.125 C-14.69339713 -0.66961861 -8.96752217 -3.04895754 0 0 Z " fill="#FEFE9C" transform="translate(131.125,259.0625)"/>
<path d="M0 0 C0.58483536 17.69668473 -0.81569964 39.14728709 -12.47265625 53.484375 C-15.35051143 56.34014945 -17.25320541 57.87318582 -21.3125 58.5625 C-26.35184139 57.79378691 -28.7683978 55.86707313 -32 52 C-40.66458123 38.67910642 -43.5535322 21.62190885 -43 6 C-43.66 5.67 -44.32 5.34 -45 5 C-29.7294514 1.56584364 -15.61831502 -0.31552152 0 0 Z " fill="#91A2B5" transform="translate(232,52)"/>
<path d="M0 0 C9.16154523 -0.34987514 17.9258984 0.05847919 27 1.375 C27.87100342 1.50108643 28.74200684 1.62717285 29.6394043 1.75708008 C34.85258461 2.55776304 39.9033728 3.64325896 45 5 C44.34 5.33 43.68 5.66 43 6 C43.061875 7.155 43.12375 8.31 43.1875 9.5 C43.16239265 25.46827554 38.5647602 44.77641209 27.5625 56.625 C23.99244305 58.54064032 22.00296946 58.69016715 18 58 C10.16162605 53.71234246 7.08040154 45.70241177 4.6171875 37.5625 C1.794874 27.79677817 -0.16831965 18.83252608 -0.0625 8.625 C-0.05798828 7.79355469 -0.05347656 6.96210937 -0.04882812 6.10546875 C-0.03713164 4.07028103 -0.01919935 2.03513077 0 0 Z " fill="#91A2B4" transform="translate(284,52)"/>
<path d="M0 0 C1.80215112 2.70322668 2.7162324 4.69879838 3.6875 7.75 C3.95949219 8.56984375 4.23148437 9.3896875 4.51171875 10.234375 C5.53340071 16.0211816 3.81660796 20.99913383 1.41015625 26.21875 C0.61121948 27.97288208 0.61121948 27.97288208 -0.20385742 29.76245117 C-0.7816084 31.00836102 -1.35949197 32.25420939 -1.9375 33.5 C-2.824101 35.43545235 -3.7075631 37.37231518 -4.59065247 39.30937195 C-5.18732037 40.6180154 -5.78496957 41.92621188 -6.3835907 43.23396301 C-9.69102609 50.47365019 -12.82520456 57.78751078 -15.92749023 65.1171875 C-16.49512085 66.44169922 -16.49512085 66.44169922 -17.07421875 67.79296875 C-17.56281372 68.94575317 -17.56281372 68.94575317 -18.0612793 70.12182617 C-19 72 -19 72 -21 74 C-26.43686306 74.52903733 -30.41736968 73.34719455 -35.2578125 71.0625 C-35.94743073 70.75038574 -36.63704895 70.43827148 -37.3475647 70.11669922 C-39.61213425 69.0892705 -41.86825186 68.04448075 -44.125 67 C-46.51485244 65.91168268 -48.90691995 64.82834311 -51.29919434 63.74536133 C-52.96137634 62.99270918 -54.62290751 62.23861816 -56.28381348 61.4831543 C-65.71894538 57.19828662 -75.23183097 53.09620827 -84.75 49 C-86.38953692 48.29308758 -88.02902391 47.58605936 -89.66845703 46.87890625 C-93.44476515 45.25057021 -97.22205318 43.62453019 -101 42 C-100.36610352 41.70561035 -99.73220703 41.4112207 -99.07910156 41.10791016 C-96.65450175 39.81589114 -95.99853679 38.78289237 -94.75 36.375 C-94.1725 35.26125 -93.595 34.1475 -93 33 C-87.86104737 34.59613929 -83.02187914 36.67012012 -78.11328125 38.8515625 C-76.82855171 39.41815079 -76.82855171 39.41815079 -75.51786804 39.9961853 C-72.78161487 41.20324952 -70.0469383 42.41383071 -67.3125 43.625 C-63.74698972 45.20255638 -60.18065948 46.7782346 -56.61328125 48.3515625 C-55.73858185 48.73733459 -54.86388245 49.12310669 -53.962677 49.52056885 C-45.01925928 53.45228746 -36.01700352 57.24070752 -27 61 C-24.58104555 55.50973223 -22.16416973 50.01855535 -19.74902344 44.52661133 C-18.93120218 42.66765054 -18.11286265 40.80891765 -17.29394531 38.95043945 C-12.58098879 28.25364931 -7.91478433 17.5432845 -3.44909668 6.74040222 C-1.10519376 1.10519376 -1.10519376 1.10519376 0 0 Z " fill="#6DB851" transform="translate(256,417)"/>
<path d="M0 0 C8.97302629 5.2729637 15.54546364 13.33574502 20.75 22.1875 C20.20811035 22.33783691 19.6662207 22.48817383 19.10791016 22.64306641 C8.58050517 25.57584316 -1.88258455 28.60177119 -12.21044922 32.18212891 C-16.84635801 33.7772685 -21.47874464 35.05479436 -26.25 36.1875 C-37.28047401 24.39720712 -37.28047401 24.39720712 -37.75 15.6875 C-37.59430913 11.57837299 -37.22975161 8.53227598 -34.1015625 5.53515625 C-23.91464485 -1.87937242 -12.09054077 -5.220043 0 0 Z " fill="#FC7FA6" transform="translate(295.25,334.8125)"/>
<path d="M0 0 C8.55427805 3.3950089 17.65098021 7.34922069 22.13671875 15.84765625 C24.62095181 22.87974455 22.77239251 31.26038147 19.875 37.9375 C16.14826714 39.17974429 15.3082076 38.54663203 11.7734375 37.015625 C10.73687012 36.5719458 9.70030273 36.1282666 8.63232422 35.67114258 C7.51615723 35.18154053 6.39999023 34.69193848 5.25 34.1875 C4.1067627 33.69467529 2.96352539 33.20185059 1.78564453 32.6940918 C-1.23996499 31.3863078 -4.26151363 30.06978386 -7.28027344 28.74627686 C-9.11854778 27.94032882 -10.95761483 27.13621492 -12.796875 26.33251953 C-19.91454294 23.2195027 -27.02397549 20.08829181 -34.125 16.9375 C-33.37567036 12.53125671 -32.03390706 9.94100851 -29.375 6.3125 C-28.69953125 5.37148438 -28.0240625 4.43046875 -27.328125 3.4609375 C-20.02906511 -4.89933323 -9.70213407 -3.23404469 0 0 Z " fill="#FEFE9C" transform="translate(184.125,310.0625)"/>
<path d="M0 0 C3.42437593 2.63413533 6.05062043 5.52005648 6.77416992 9.92431641 C6.8657888 12.17086159 6.83670248 14.37844239 6.75 16.625 C6.73549805 17.77548828 6.73549805 17.77548828 6.72070312 18.94921875 C6.60782252 24.53435497 6.60782252 24.53435497 5.4375 26.875 C6.0975 27.205 6.7575 27.535 7.4375 27.875 C6.77967529 28.05562988 6.12185059 28.23625977 5.4440918 28.42236328 C-6.6836759 31.76148082 -18.78746763 35.11100422 -30.72192383 39.09619141 C-34.21534913 40.24169259 -36.84419136 40.875 -40.5625 40.875 C-41.21757429 28.76825656 -39.56711385 16.45628022 -31.5625 6.875 C-22.62240724 -0.83142405 -11.4185836 -3.60586851 0 0 Z " fill="#FC7FA5" transform="translate(403.5625,300.125)"/>
<path d="M0 0 C3.3125 2.125 3.3125 2.125 5.3125 4.125 C5.3125 5.115 5.3125 6.105 5.3125 7.125 C4.38308594 7.54910156 3.45367187 7.97320312 2.49609375 8.41015625 C-7.01246353 12.87094504 -14.42330313 17.00677562 -18.6875 27.125 C-20.12588772 38.06193006 -17.74885331 47.03297004 -11.6875 56.125 C-19.42259365 53.70106156 -26.80387146 50.63105264 -34.25 47.4375 C-35.44947266 46.92638672 -36.64894531 46.41527344 -37.88476562 45.88867188 C-40.82036285 44.63724198 -43.75454935 43.38261707 -46.6875 42.125 C-43.80157991 35.78738905 -37.3643853 33.14037029 -31.0625 30.75 C-30.27875 30.54375 -29.495 30.3375 -28.6875 30.125 C-28.6875 27.155 -28.6875 24.185 -28.6875 21.125 C-34.36932413 20.72792207 -37.59466466 21.72437233 -42.5 24.5625 C-43.62019531 25.20058594 -44.74039063 25.83867187 -45.89453125 26.49609375 C-46.81621094 27.03363281 -47.73789063 27.57117188 -48.6875 28.125 C-49.3475 28.455 -50.0075 28.785 -50.6875 29.125 C-50.98673143 16.10192793 -50.98673143 16.10192793 -48.6875 10.125 C-44.77248823 6.56733159 -40.86345554 5.16575392 -35.828125 3.74267578 C-33.70367242 3.12966654 -31.66237327 2.40030833 -29.59375 1.62109375 C-20.0645801 -1.85420994 -9.60885706 -4.57153882 0 0 Z " fill="#FEFC9B" transform="translate(266.6875,315.875)"/>
<path d="M0 0 C4.06001298 2.34545539 7.23769062 4.51204765 8.88671875 9.046875 C9.62589088 14.73850043 9.16443578 19.18681182 5.88671875 24.046875 C2.20681715 27.45078398 -0.37856743 28.9159532 -5.42578125 29.296875 C-10.75079245 28.93585729 -13.80470002 27.46155742 -17.42578125 23.546875 C-20.53957434 18.93384821 -20.76098629 14.45058558 -20.11328125 9.046875 C-16.46929183 1.32161743 -8.46421793 -3.8175031 0 0 Z " fill="#FBFE9E" transform="translate(329.11328125,452.953125)"/>
<path d="M0 0 C4.16170515 2.53934552 7.11958046 5.47110223 9 10 C9.67151988 15.81983893 8.57513243 20.38337241 5 25 C1.36011265 27.8187414 -2.0953198 28.87521652 -6.625 29.5 C-11.77360145 28.73724423 -14.60666485 26.31801974 -18.3125 22.8125 C-20.63907993 18.93486678 -21.19106309 15.49794346 -21 11 C-19.27420059 5.72108416 -16.36222715 3.18079063 -12 0 C-7.7836445 -1.40545183 -4.27887726 -1.16374108 0 0 Z " fill="#FBFE9E" transform="translate(399,431)"/>
<path d="M0 0 C4.32634779 2.2329537 6.92445842 4.85724852 9.06640625 9.3125 C9.86376626 15.49204009 8.85623861 20.27425227 5.06640625 25.3125 C1.90198084 28.10095408 -1.24589317 29.21425706 -5.43359375 29.8125 C-11.10050934 29.00294063 -14.45326532 26.86874271 -18.37109375 22.75 C-20.59235418 17.86322706 -20.95797899 13.58731952 -19.93359375 8.3125 C-15.78158373 0.78530765 -8.42315984 -2.99490128 0 0 Z " fill="#FBFE9E" transform="translate(343.93359375,384.6875)"/>
<path d="M0 0 C5.26670681 1.63302973 10.2367003 3.77049681 15.2734375 5.9921875 C16.15601227 6.37939972 17.03858704 6.76661194 17.94790649 7.16555786 C19.80926063 7.98294682 21.67003885 8.80164836 23.53027344 9.62158203 C26.35718186 10.86714913 29.18624681 12.10771128 32.015625 13.34765625 C33.83086056 14.14553447 35.64596891 14.94370217 37.4609375 15.7421875 C38.71600601 16.29240067 38.71600601 16.29240067 39.99642944 16.85372925 C42.33805364 17.8876362 44.67152598 18.93682993 47 20 C47.75935852 20.34613342 48.51871704 20.69226685 49.30108643 21.04888916 C50.01722107 21.38869812 50.73335571 21.72850708 51.47119141 22.07861328 C52.10441315 22.37663849 52.73763489 22.6746637 53.39004517 22.98171997 C55 24 55 24 57 27 C54.525 30.465 54.525 30.465 52 34 C47.33119407 33.33253958 43.28231921 31.50586723 39.0234375 29.578125 C37.87459579 29.0653299 37.87459579 29.0653299 36.70254517 28.54217529 C34.25785637 27.44956549 31.81642839 26.3498729 29.375 25.25 C27.75671722 24.52557952 26.13822948 23.80161671 24.51953125 23.078125 C16.3328626 19.41522247 8.15856934 15.72510545 0 12 C0.29296875 9.4609375 0.5859375 6.921875 0.87890625 4.3828125 C1.19674852 1.98346943 1.19674852 1.98346943 0 0 Z " fill="#6FB851" transform="translate(203,350)"/>
<path d="M0 0 C4.14781815 2.60782262 8.33467301 5.40480567 11.23046875 9.40234375 C11.05419773 12.79178357 10.64766868 13.98514382 8.23046875 16.40234375 C4.9250794 17.04729777 2.89638954 16.7889702 -0.0234375 15.09375 C-1.57533165 14.02762173 -3.10912889 12.93453708 -4.62109375 11.8125 C-9.72776276 8.46066816 -15.87035172 8.94478966 -21.76953125 9.40234375 C-26.00560009 10.3722181 -29.05175977 11.80420085 -32.39453125 14.58984375 C-35.39551392 16.88006737 -37.078692 16.89445565 -40.76953125 16.40234375 C-42.76953125 14.40234375 -42.76953125 14.40234375 -43.33203125 11.65234375 C-42.60946219 7.47750031 -41.11074147 6.31596386 -37.84765625 3.7890625 C-26.99299293 -3.45418088 -12.11294205 -5.85841087 0 0 Z " fill="#615E5F" transform="translate(193.76953125,204.59765625)"/>
<path d="M0 0 C2.69764864 1.7935718 4.82042769 3.43565718 6.890625 5.921875 C7.265625 9.046875 7.265625 9.046875 6.890625 11.921875 C4.890625 13.921875 4.890625 13.921875 2.328125 14.421875 C-2.02865621 13.78816137 -4.47191116 11.92125606 -7.9609375 9.33203125 C-13.4833719 5.70730612 -20.77286981 6.12437435 -27.109375 6.921875 C-31.12347914 8.64515364 -34.99394004 10.80644004 -38.109375 13.921875 C-43.36388402 14.37878883 -43.36388402 14.37878883 -46.046875 12.734375 C-47.109375 10.921875 -47.109375 10.921875 -46.88671875 8.53125 C-45.28553069 3.15640767 -40.42531538 0.20351191 -35.6953125 -2.4140625 C-23.1446393 -7.76042178 -11.61368196 -6.32000367 0 0 Z " fill="#615D5F" transform="translate(358.109375,207.078125)"/>
<path d="M0 0 C4.61608867 0.0827256 7.86967065 1.29525449 11.375 4.3125 C14.18972718 7.66692413 15.278678 10.52816368 15.8125 14.875 C15.07167858 20.69573976 12.88453183 24.68964946 8.19140625 28.3359375 C4.83811852 30.13878037 1.14725951 30.59272499 -2.625 30.3125 C-7.12319336 27.31370442 -7.58565098 23.4600867 -8.625 18.3125 C-9.21697275 13.09045471 -9.66547485 8.23054193 -6.6875 3.6875 C-3.76722658 0.32476091 -3.76722658 0.32476091 0 0 Z " fill="#FBFE9E" transform="translate(271.625,383.6875)"/>
<path d="M0 0 C5.05957981 0.60028913 7.43276171 2.61705719 10.6875 6.4375 C12.57468148 9.34123027 14.17971285 12.32223728 15.6875 15.4375 C16.0175 16.0975 16.3475 16.7575 16.6875 17.4375 C16.07753174 17.60878418 15.46756348 17.78006836 14.83911133 17.95654297 C12.05860649 18.73904704 9.27930137 19.52573266 6.5 20.3125 C5.54029297 20.58191406 4.58058594 20.85132813 3.59179688 21.12890625 C2.66044922 21.39316406 1.72910156 21.65742188 0.76953125 21.9296875 C-0.51087036 22.29102783 -0.51087036 22.29102783 -1.81713867 22.65966797 C-4.3641237 23.41349332 -4.3641237 23.41349332 -6.9543457 24.52392578 C-9.56375032 25.53483706 -11.53882638 25.59599564 -14.3125 25.4375 C-14.53557542 23.2097603 -14.74038178 20.98018636 -14.9375 18.75 C-15.05351562 17.50863281 -15.16953125 16.26726562 -15.2890625 14.98828125 C-15.31245431 11.4444216 -14.98736764 9.52077906 -13.3125 6.4375 C-8.70403406 2.02940215 -6.07722817 0.80265278 0 0 Z " fill="#FB7FA6" transform="translate(338.3125,327.5625)"/>
<path d="M0 0 C2.625 1.6875 2.625 1.6875 3.625 4.6875 C2.69921875 6.7109375 2.69921875 6.7109375 1.3125 9.0625 C-1.488075 14.31454785 -2.3304444 19.22565847 -3.015625 25.09765625 C-3.375 27.6875 -3.375 27.6875 -4.375 28.6875 C-10.3798384 28.5839683 -13.61499235 27.46446633 -17.96484375 23.29296875 C-20.77776359 20.09044783 -21.28615594 17.48709651 -21.75 13.3125 C-21.22820278 8.26846022 -19.73057862 4.66991765 -15.796875 1.359375 C-10.5127942 -2.02053254 -5.8980966 -2.29370423 0 0 Z " fill="#FAFD9E" transform="translate(414.375,364.3125)"/>
<path d="M0 0 C1.21720482 0.00136711 1.21720482 0.00136711 2.45899963 0.00276184 C3.29250443 -0.00152328 4.12600922 -0.00580841 4.98477173 -0.01022339 C6.74920238 -0.01597126 8.51365674 -0.01646359 10.27809143 -0.01213074 C12.98008121 -0.00897336 15.68097367 -0.03241436 18.38282776 -0.05778503 C20.095717 -0.06005822 21.80860919 -0.06076143 23.52149963 -0.05973816 C24.33094528 -0.06894791 25.14039093 -0.07815765 25.97436523 -0.08764648 C31.60502206 -0.04113823 31.60502206 -0.04113823 33.80178833 1.63540649 C35.05665588 3.30354309 35.05665588 3.30354309 34.93165588 6.36604309 C34.05665588 9.30354309 34.05665588 9.30354309 31.05665588 11.30354309 C28.34633183 11.52338398 25.74118126 11.6315329 23.02931213 11.63948059 C22.24398605 11.64613739 21.45865997 11.65279419 20.64953613 11.65965271 C18.98944947 11.66977224 17.32932219 11.67446995 15.66920471 11.67414856 C13.13165685 11.67852155 10.59584909 11.71484481 8.05860901 11.75276184 C6.44468266 11.75863026 4.83074806 11.76259949 3.21681213 11.76448059 C2.08071251 11.78603714 2.08071251 11.78603714 0.92166138 11.80802917 C-2.61217878 11.77743576 -4.58472522 11.56914293 -7.46116638 9.438797 C-8.94334412 7.30354309 -8.94334412 7.30354309 -8.81834412 4.67854309 C-7.05308486 -0.1128749 -4.74247629 0.06019719 0 0 Z " fill="#91A2B5" transform="translate(357.94334411621094,235.6964569091797)"/>
<path d="M0 0 C1.21720482 0.00136711 1.21720482 0.00136711 2.45899963 0.00276184 C3.29250443 -0.00152328 4.12600922 -0.00580841 4.98477173 -0.01022339 C6.74920238 -0.01597126 8.51365674 -0.01646359 10.27809143 -0.01213074 C12.98008121 -0.00897336 15.68097367 -0.03241436 18.38282776 -0.05778503 C20.095717 -0.06005822 21.80860919 -0.06076143 23.52149963 -0.05973816 C24.33094528 -0.06894791 25.14039093 -0.07815765 25.97436523 -0.08764648 C31.60502206 -0.04113823 31.60502206 -0.04113823 33.80178833 1.63540649 C35.05665588 3.30354309 35.05665588 3.30354309 34.93165588 6.36604309 C34.05665588 9.30354309 34.05665588 9.30354309 31.05665588 11.30354309 C28.34633183 11.52338398 25.74118126 11.6315329 23.02931213 11.63948059 C22.24398605 11.64613739 21.45865997 11.65279419 20.64953613 11.65965271 C18.98944947 11.66977224 17.32932219 11.67446995 15.66920471 11.67414856 C13.13165685 11.67852155 10.59584909 11.71484481 8.05860901 11.75276184 C6.44468266 11.75863026 4.83074806 11.76259949 3.21681213 11.76448059 C2.08071251 11.78603714 2.08071251 11.78603714 0.92166138 11.80802917 C-2.61217878 11.77743576 -4.58472522 11.56914293 -7.46116638 9.438797 C-8.94334412 7.30354309 -8.94334412 7.30354309 -8.81834412 4.67854309 C-7.05308486 -0.1128749 -4.74247629 0.06019719 0 0 Z " fill="#91A2B5" transform="translate(131.94334411621094,235.6964569091797)"/>
<path d="M0 0 C21.60739583 9.71300865 21.60739583 9.71300865 31 14 C24.56950781 18.28699479 16.78375593 18.36095803 9.25 18.3125 C8.3839917 18.30976074 7.5179834 18.30702148 6.62573242 18.30419922 C-0.44002815 18.19005547 -7.33520611 17.53564584 -14 15 C-14.33 14.34 -14.66 13.68 -15 13 C-13.80375 12.484375 -12.6075 11.96875 -11.375 11.4375 C-6.27445749 8.90987769 -2.55127825 5.10255649 0 0 Z " fill="#AFB8C3" transform="translate(140,451)"/>
<path d="M0 0 C4.2454776 1.05398168 8.19149223 2.57442956 12.2421875 4.2109375 C13.78106751 4.82337541 15.32012886 5.43535786 16.859375 6.046875 C17.98037598 6.49885254 17.98037598 6.49885254 19.12402344 6.95996094 C20.62134386 7.54467858 22.13041344 8.10014365 23.64941406 8.62597656 C29.16780137 10.53685831 29.16780137 10.53685831 31.3671875 13.8359375 C31.0430506 17.15834074 30.75942447 18.44370053 28.3671875 20.8359375 C23.80934675 21.26040444 20.43584102 20.3847413 16.19921875 18.75390625 C15.05904297 18.31626953 13.91886719 17.87863281 12.74414062 17.42773438 C10.97973633 16.73260742 10.97973633 16.73260742 9.1796875 16.0234375 C7.99181641 15.57162109 6.80394531 15.11980469 5.58007812 14.65429688 C-4.49373104 10.74019632 -4.49373104 10.74019632 -6.6328125 7.8359375 C-6.5078125 4.7734375 -6.5078125 4.7734375 -5.6328125 1.8359375 C-2.6328125 -0.1640625 -2.6328125 -0.1640625 0 0 Z " fill="#92A2B5" transform="translate(355.6328125,256.1640625)"/>
<path d="M0 0 C0.87140625 -0.00386719 1.7428125 -0.00773438 2.640625 -0.01171875 C3.54296875 -0.00011719 4.4453125 0.01148438 5.375 0.0234375 C6.72851562 0.00603516 6.72851562 0.00603516 8.109375 -0.01171875 C9.41648438 -0.00591797 9.41648438 -0.00591797 10.75 0 C11.54148438 0.00338379 12.33296875 0.00676758 13.1484375 0.01025391 C15.88086937 0.48663183 17.29747801 1.60728627 19.375 3.3984375 C18.5 10.2734375 18.5 10.2734375 17.375 11.3984375 C13.59075935 11.67850016 9.79337268 11.63024387 6 11.6484375 C4.39898437 11.679375 4.39898437 11.679375 2.765625 11.7109375 C1.23035156 11.71867188 1.23035156 11.71867188 -0.3359375 11.7265625 C-1.27743652 11.7359082 -2.21893555 11.74525391 -3.18896484 11.75488281 C-5.625 11.3984375 -5.625 11.3984375 -7.42822266 10.03417969 C-8.625 8.3984375 -8.625 8.3984375 -9.0625 5.8984375 C-8.625 3.3984375 -8.625 3.3984375 -6.88671875 1.76708984 C-4.33587612 0.22347761 -2.95334157 0.01262626 0 0 Z " fill="#FBFCFC" transform="translate(196.625,159.6015625)"/>
<path d="M0 0 C0.95455078 -0.01998047 1.90910156 -0.03996094 2.89257812 -0.06054688 C9.85634143 -0.0556737 9.85634143 -0.0556737 13.23046875 2.30078125 C14.5625 4.4375 14.5625 4.4375 14.4375 7.0625 C13.5625 9.4375 13.5625 9.4375 11.5625 11.4375 C7.74795714 11.89170837 3.90097486 11.76154776 0.0625 11.75 C-1.54431641 11.77416992 -1.54431641 11.77416992 -3.18359375 11.79882812 C-4.20582031 11.79947266 -5.22804688 11.80011719 -6.28125 11.80078125 C-7.22162109 11.80376221 -8.16199219 11.80674316 -9.13085938 11.80981445 C-10.27264648 11.6255188 -10.27264648 11.6255188 -11.4375 11.4375 C-13.59252531 8.20496204 -13.90606135 7.18599077 -13.4375 3.4375 C-10.03376323 -1.09696506 -5.19276855 -0.03841322 0 0 Z " fill="#FBFCFC" transform="translate(313.4375,159.5625)"/>
<path d="M0 0 C1.875 1.25 1.875 1.25 3 3 C2.92473002 6.01079916 2.49113084 7.46957869 0.4375 9.6875 C-2.94806636 11.51049727 -6.2428498 12.18595079 -10 13 C-10.83878455 11.71186658 -11.67086783 10.41936744 -12.5 9.125 C-12.9640625 8.40570313 -13.428125 7.68640625 -13.90625 6.9453125 C-15 5 -15 5 -15 3 C-13.4447088 2.29634398 -11.88035173 1.61270622 -10.3125 0.9375 C-9.44238281 0.55464844 -8.57226562 0.17179687 -7.67578125 -0.22265625 C-4.64178105 -1.10406653 -2.9936644 -0.91601013 0 0 Z " fill="#93A3B4" transform="translate(164,257)"/>
<path d="M0 0 C2.41396234 2.89675481 4.38617243 5.59787701 6 9 C4.56068883 8.54738642 3.12361001 8.08767021 1.6875 7.625 C0.88699219 7.36976563 0.08648437 7.11453125 -0.73828125 6.8515625 C-3 6 -3 6 -6 4 C-4.02 2.68 -2.04 1.36 0 0 Z " fill="#F8C86C" transform="translate(249,363)"/>
</svg>
