<?xml version="1.0" encoding="UTF-8"?>
<svg version="1.1" xmlns="http://www.w3.org/2000/svg" width="512" height="512">
<path d="M0 0 C0.59377441 0.31839844 1.18754883 0.63679688 1.79931641 0.96484375 C8.68113633 4.66379797 15.23938906 8.72582151 21.6875 13.125 C22.36200195 13.57584961 23.03650391 14.02669922 23.73144531 14.49121094 C27.42730594 17.01593379 30.74703839 19.63909385 33.97265625 22.74609375 C47.29443536 34.99657914 60.82165406 34.63724766 77.94747925 34.82723999 C86.07949182 34.94554317 94.06283493 35.79810027 102.125 36.8125 C103.49950133 36.97429073 104.87401299 37.13599379 106.24853516 37.29760742 C112.60132322 38.07750409 118.77055628 39.10597962 124.9609375 40.7578125 C141.69007651 45.15138607 150.73086851 42.55753702 165.86914062 34.56445312 C171.02665461 31.98730484 176.38185969 30.04302047 181.8125 28.125 C182.84294434 27.75810059 183.87338867 27.39120117 184.93505859 27.01318359 C203.82481373 20.44844587 230.43318383 11.82994365 249.83984375 20.6875 C256.32761272 24.62943557 260.04132556 29.400347 262.33984375 36.6640625 C265.50649487 52.6659563 261.54635411 67.58234428 255.8515625 82.4921875 C255.57610596 83.21978271 255.30064941 83.94737793 255.0168457 84.69702148 C254.34691732 86.46557429 253.67379869 88.23291811 253 90 C254.10754135 89.99333817 255.2150827 89.98667633 256.35618591 89.97981262 C266.81652985 89.9188794 277.27683755 89.8739688 287.73731899 89.84456348 C293.114587 89.82893749 298.49171122 89.80775526 303.86889648 89.77368164 C309.06252002 89.74097883 314.25600561 89.72312394 319.4497242 89.71536827 C321.42677035 89.70984434 323.40380933 89.69905759 325.38079643 89.68280983 C328.15954515 89.66089033 330.93773085 89.65803912 333.71655273 89.65942383 C334.52576172 89.648638 335.3349707 89.63785217 336.16870117 89.6267395 C344.51180605 89.67144436 352.98475411 91.92732933 359 98 C364.83649482 105.99718364 366.14164552 112.15060452 365.9296875 121.81640625 C365.9187782 123.56834283 365.91107031 125.32030171 365.90625 127.07226562 C365.89843092 129.81016558 365.87556305 132.54267032 365.79785156 135.27954102 C365.28580517 147.7497694 365.28580517 147.7497694 370.83364868 158.46324158 C373.10968926 160.77366142 375.54523534 162.88260339 378 165 C382.81040999 170.59899268 384.92154117 174.91329032 384.44921875 182.41796875 C383.51930415 187.76295615 381.55607627 190.82730869 377.13743591 194.1572876 C371.86536637 197.01460561 366.21634791 196.57082636 360.36352539 196.54589844 C358.47467621 196.56140495 358.47467621 196.56140495 356.54766846 196.57722473 C353.11215383 196.60498402 349.67699997 196.60849168 346.24138951 196.60750484 C342.64452319 196.61064269 339.04781729 196.63627892 335.45103455 196.65948486 C328.64786242 196.69998198 321.844786 196.7203707 315.04151195 196.73345876 C307.29292291 196.7493502 299.54449623 196.78777477 291.79600155 196.82805204 C275.86404935 196.91036482 259.93212949 196.96451067 244 197 C243.87471924 197.66829834 243.74943848 198.33659668 243.62036133 199.02514648 C241.05629368 212.58040119 238.24562473 225.86566307 234 239 C234.63499861 239.00146656 235.26999722 239.00293312 235.9242382 239.00444412 C251.40824328 239.0415706 266.89198757 239.10066223 282.37580681 239.18390274 C289.86382255 239.22363388 297.35173411 239.25605631 304.83984375 239.27099609 C311.37001415 239.2840435 317.89995473 239.31108634 324.42999566 239.35461307 C327.88446767 239.37715904 331.33865696 239.39291485 334.79320908 239.39188385 C338.65908668 239.39099326 342.52439093 239.42136276 346.39013672 239.45410156 C347.52302628 239.4490712 348.65591583 239.44404083 349.82313538 239.43885803 C357.45945234 239.53856808 364.92215379 240.48426204 370.90923882 245.64606094 C376.25116501 251.25251366 378.1600486 257.21526315 378.10862732 264.8598156 C377.94638289 268.05636863 377.24793931 271.01622211 376.47460938 274.11743164 C376.31189545 274.78081543 376.14918152 275.44419922 375.98153687 276.12768555 C375.44449052 278.30748687 374.89427464 280.48372354 374.34375 282.66015625 C373.95857736 284.21094402 373.57419438 285.76192811 373.19055176 287.31309509 C372.17609619 291.40497474 371.15026753 295.4939218 370.12219238 299.58239746 C369.10791955 303.62536022 368.10539909 307.67123289 367.1015625 311.71679688 C365.33069391 318.84785541 363.53714386 325.97296374 361.73323059 333.09572792 C360.58337342 337.64810277 359.46044453 342.205996 358.36226654 346.77110767 C357.67538588 349.61735848 356.97485598 352.46014858 356.27198792 355.30248833 C355.7985946 357.23769014 355.34322204 359.17727296 354.8885498 361.11695862 C352.31382939 371.44557382 347.62892941 380.43024692 339 387 C332.69027915 390.45959126 326.62633455 393.11805551 319.3759346 393.13422108 C317.98151386 393.14090784 317.98151386 393.14090784 316.55892301 393.14772969 C315.54103908 393.14754533 314.52315516 393.14736097 313.47442627 393.14717102 C312.39042817 393.15084771 311.30643007 393.1545244 310.18958354 393.1583125 C306.54467854 393.16935612 302.89980204 393.17319432 299.25488281 393.17700195 C296.64661569 393.18326601 294.03834947 393.18991276 291.43008423 393.19691467 C283.5947946 393.21666281 275.7595037 393.22674253 267.92419541 393.23564246 C264.23332455 393.24002748 260.54245512 393.24539368 256.85158539 393.25063133 C244.58095726 393.26764085 232.31033003 393.28213525 220.03969193 393.28938007 C216.8565394 393.29128992 213.67338688 393.29321026 210.49023438 393.29516602 C209.69909134 393.29564976 208.9079483 393.2961335 208.09283122 393.2966319 C195.27532341 393.30493318 182.45790888 393.33027296 169.64044181 393.36274669 C156.47789022 393.39582263 143.31538605 393.41382926 130.15279269 393.41702431 C122.76370121 393.41918876 115.37474584 393.42792792 107.98569489 393.45348549 C101.03521527 393.47747086 94.08498433 393.48101482 87.13447189 393.47072411 C84.58352977 393.47022772 82.03257575 393.47657818 79.48167038 393.49028015 C75.99865478 393.50794212 72.51652417 393.50091991 69.0335083 393.48774719 C67.52006675 393.50420106 67.52006675 393.50420106 65.97605062 393.52098733 C58.68593006 393.45444184 53.40707811 391.87038793 47.79296875 387.140625 C41.93731525 380.24491626 39.81439218 375.09478306 40 366 C37.8131784 365.51774669 35.62550745 365.03934417 33.4375 364.5625 C32.21933594 364.29566406 31.00117188 364.02882813 29.74609375 363.75390625 C21.97973574 361.84859954 21.97973574 361.84859954 14.625 363.9375 C6.72063116 367.39415059 -2.79782605 367.4362236 -11.0703125 365.15234375 C-19.43742364 361.37818811 -24.57547201 354.78232089 -28.2734375 346.56640625 C-28.96865037 344.11073498 -29.28009146 341.87238151 -29.54541016 339.33959961 C-29.63166656 338.52744492 -29.71792297 337.71529022 -29.80679321 336.87852478 C-29.87055145 336.2586116 -29.93430969 335.63869843 -30 335 C-31.08914703 335.00888245 -32.17829407 335.01776489 -33.30044556 335.0269165 C-43.570387 335.10804371 -53.84026333 335.16798534 -64.11045265 335.20724869 C-69.39034009 335.22811311 -74.6699686 335.25641012 -79.94970703 335.30175781 C-85.04607052 335.345256 -90.14218513 335.36914573 -95.23871994 335.37950897 C-97.18197929 335.38689318 -99.1252252 335.40131288 -101.06837845 335.42292023 C-103.79279135 335.45200697 -106.51617917 335.4559538 -109.24072266 335.45410156 C-110.04201599 335.46848267 -110.84330933 335.48286377 -111.66888428 335.49768066 C-116.91283483 335.45916733 -119.81476383 334.42394932 -124 331 C-127.55704794 327.25573901 -128.34654621 324.14982517 -128.625 319.125 C-128.3083163 311.3038722 -124.85755939 307.64554775 -119.26879883 302.47143555 C-112.93708095 296.29350845 -110.04021884 291.25126749 -109.8125 282.296875 C-109.78440858 278.77595224 -109.87856047 275.26853382 -110 271.75 C-110.04891486 269.07663325 -110.08183024 266.40403305 -110.1003418 263.73028564 C-110.11623317 262.08147731 -110.15138541 260.43268653 -110.21020508 258.78485107 C-110.36951443 251.0965409 -108.62193858 244.00663558 -103.375 238.1875 C-95.70986079 230.21631167 -87.74535201 229.33215926 -77 229 C-77.39832031 227.58074219 -77.39832031 227.58074219 -77.8046875 226.1328125 C-85.44178579 198.00620239 -86.46425555 164.27564623 -79 136 C-80.01835938 135.98541748 -81.03671875 135.97083496 -82.0859375 135.95581055 C-85.89568672 135.89745571 -89.70486766 135.82022822 -93.51416016 135.73754883 C-95.15696937 135.70447322 -96.79988747 135.67638823 -98.44287109 135.65356445 C-100.816549 135.61969595 -103.18924441 135.56736925 -105.5625 135.51171875 C-106.28679199 135.50532883 -107.01108398 135.4989389 -107.75732422 135.49235535 C-113.35903137 135.33398142 -119.31131633 134.48812582 -123.56835938 130.54862976 C-126.97398585 126.54107489 -128.17693291 123.98545483 -128.3125 118.8125 C-128.34988281 117.89082031 -128.38726562 116.96914062 -128.42578125 116.01953125 C-127.47076608 109.246809 -122.95063215 104.4969125 -118.375 99.75 C-112.77631298 93.85664525 -110.71259876 90.50500588 -110.69140625 82.2734375 C-110.66622718 80.50129906 -110.64082947 78.72916373 -110.61523438 76.95703125 C-110.58661314 74.1726984 -110.56259104 71.38841988 -110.54370117 68.60400391 C-110.52186458 65.9101843 -110.48239337 63.21702433 -110.44140625 60.5234375 C-110.44129044 59.70434906 -110.44117462 58.88526062 -110.4410553 58.04135132 C-110.29139781 49.17252072 -108.01435653 42.21330756 -101.90234375 35.7265625 C-96.7604224 31.05976735 -91.37193309 28.85559505 -84.453125 28.90234375 C-83.60878906 28.90556641 -82.76445313 28.90878906 -81.89453125 28.91210938 C-80.58548828 28.92467773 -80.58548828 28.92467773 -79.25 28.9375 C-77.91775391 28.94426758 -77.91775391 28.94426758 -76.55859375 28.95117188 C-74.37232671 28.962926 -72.18619821 28.97935751 -70 29 C-70.03101807 28.37609375 -70.06203613 27.7521875 -70.09399414 27.109375 C-70.60188087 14.97313661 -68.08644865 2.31970057 -59.75 -6.8125 C-43.04993577 -22.17936583 -16.64322009 -9.11957265 0 0 Z " fill="#B0B8C5" transform="translate(128,66)"/>
<path d="M0 0 C16.73194002 -0.11485005 33.4637693 -0.20321585 50.19604969 -0.24843979 C51.65069647 -0.25238982 53.10534321 -0.25635075 54.55998993 -0.26032257 C55.27988694 -0.26227827 55.99978395 -0.26423398 56.74149603 -0.26624894 C61.83455353 -0.28103623 66.92750463 -0.30583778 72.02050018 -0.33466339 C78.32919412 -0.37010198 84.63773927 -0.39065071 90.94653517 -0.39325482 C94.22618863 -0.39496991 97.50541652 -0.40526996 100.78499794 -0.42854118 C104.4018691 -0.4528983 108.01792132 -0.45206703 111.63484955 -0.44519806 C112.68601613 -0.45801126 113.73718271 -0.47082447 114.82020283 -0.48402596 C122.24726467 -0.43189512 129.51551138 0.66991114 135.32517052 5.67113018 C140.66185984 11.28298561 142.5727436 17.23804197 142.5213089 24.88458824 C142.35906447 28.08114127 141.66062089 31.04099476 140.88729095 34.14220428 C140.72457703 34.80558807 140.5618631 35.46897186 140.39421844 36.15245819 C139.8571721 38.33225951 139.30695622 40.50849619 138.75643158 42.68492889 C138.37125894 44.23571667 137.98687596 45.78670075 137.60323334 47.33786774 C136.58877777 51.42974739 135.56294911 55.51869445 134.53487396 59.6071701 C133.52060113 63.65013286 132.51808067 67.69600554 131.51424408 71.74156952 C129.74337549 78.87262805 127.94982544 85.99773639 126.14591217 93.12050056 C124.996055 97.67287541 123.87312611 102.23076864 122.77494812 106.79588032 C122.08806746 109.64213113 121.38753756 112.48492122 120.68466949 115.32726097 C120.21127618 117.26246279 119.75590362 119.2020456 119.30123138 121.14173126 C116.72651097 131.47034646 112.04161099 140.45501957 103.41268158 147.02477264 C97.10296073 150.48436391 91.03901613 153.14282815 83.78861618 153.15899372 C82.39419544 153.16568049 82.39419544 153.16568049 80.97160459 153.17250234 C79.95372066 153.17231798 78.93583674 153.17213361 77.88710785 153.17194366 C76.80310975 153.17562035 75.71911165 153.17929704 74.60226512 153.18308514 C70.95736012 153.19412876 67.31248362 153.19796697 63.66756439 153.2017746 C61.05929727 153.20803866 58.45103105 153.21468541 55.84276581 153.22168732 C48.00747618 153.24143545 40.17218528 153.25151517 32.33687699 153.26041511 C28.64600613 153.26480012 24.9551367 153.27016632 21.26426697 153.27540398 C8.99363884 153.29241349 -3.27698839 153.3069079 -15.5476265 153.31415272 C-18.73077902 153.31606257 -21.91393154 153.31798291 -25.09708405 153.31993866 C-25.88822709 153.3204224 -26.67937012 153.32090614 -27.4944872 153.32140454 C-40.31199501 153.32970582 -53.12940954 153.3550456 -65.94687662 153.38751934 C-79.1094282 153.42059528 -92.27193237 153.4386019 -105.43452573 153.44179696 C-112.82361721 153.4439614 -120.21257258 153.45270056 -127.60162354 153.47825813 C-134.55210315 153.50224351 -141.50233409 153.50578746 -148.45284653 153.49549675 C-151.00378865 153.49500037 -153.55474267 153.50135083 -156.10564804 153.5150528 C-159.58866364 153.53271477 -163.07079425 153.52569255 -166.55381012 153.51251984 C-167.56277116 153.52348908 -168.57173219 153.53445833 -169.61126781 153.54575998 C-176.90138836 153.47921449 -182.18024031 151.89516058 -187.79434967 147.16539764 C-192.48608578 141.64033615 -195.08930301 136.86660584 -196.02481842 129.64977264 C-195.11685652 122.12665974 -192.16457415 115.2382943 -186.58731842 110.02477264 C-178.25259751 104.12312574 -169.6266009 104.28924059 -159.86075592 104.31774139 C-158.26077154 104.30460364 -156.66080367 104.28929309 -155.06085968 104.27191925 C-150.88188564 104.23229855 -146.70334772 104.22189376 -142.52420807 104.21788788 C-138.24693513 104.20851281 -133.96991385 104.17107228 -129.69278717 104.13610077 C-121.32429262 104.07175891 -112.95604874 104.0383273 -104.58731842 104.02477264 C-104.27504303 102.77567108 -103.96276764 101.52656952 -103.64102936 100.23961639 C-97.84903717 77.07164764 -97.84903717 77.07164764 -97.11414337 74.13243866 C-96.62671072 72.18246351 -96.1395085 70.23243074 -95.65253448 68.282341 C-94.59164133 64.03497577 -93.52903556 59.78811834 -92.45401764 55.54430389 C-90.84481641 49.17981411 -89.29778413 42.80924823 -87.87638092 36.39977264 C-87.60052155 35.17903046 -87.32466217 33.95828827 -87.04044342 32.70055389 C-86.48202809 30.22192735 -85.93805776 27.7400079 -85.40763092 25.25524139 C-83.18854133 15.60836581 -79.92131108 8.72697815 -71.58731842 3.02477264 C-68.69854209 1.36171623 -66.59916844 0.76539888 -63.27359772 0.70592499 C-62.3976445 0.68608047 -61.52169128 0.66623596 -60.61919403 0.6457901 C-59.64316727 0.63421371 -58.6671405 0.62263733 -57.66153717 0.61071014 C-56.59144913 0.5911174 -55.52136108 0.57152466 -54.41884613 0.5513382 C-50.70424917 0.48862946 -46.98969084 0.44303091 -43.27481842 0.39977264 C-41.31883728 0.37374466 -41.31883728 0.37374466 -39.32334137 0.34719086 C-26.21598858 0.17442577 -13.1081208 0.09051965 0 0 Z " fill="#FEFEFE" transform="translate(363.58731842041016,305.97522735595703)"/>
<path d="M0 0 C13.93858722 5.92445533 30.99667141 13.85214016 41.8046875 24.66015625 C43.15313288 24.95817153 44.50889038 25.2233633 45.8671875 25.47265625 C54.07771864 27.24790623 60.30928065 30.61013502 65.18359375 37.65234375 C68.48508926 42.78800344 69.92552106 46.4482247 69.98168945 52.64111328 C70.00094231 54.48916061 70.00094231 54.48916061 70.02058411 56.37454224 C70.0287548 57.72234696 70.0361979 59.07015627 70.04296875 60.41796875 C70.04704428 61.09903561 70.0511198 61.78010246 70.05531883 62.48180771 C70.07616918 66.09073328 70.09047209 69.69962101 70.09985352 73.30859375 C70.11088137 77.01729237 70.1452411 80.72538493 70.18502522 84.43387032 C70.21131281 87.30112743 70.21955628 90.16824321 70.22313499 93.0356102 C70.22797425 94.40142762 70.23951148 95.76723988 70.25817299 97.13293839 C70.3965693 107.93772174 68.93634414 116.02228981 61.51953125 124.15625 C55.13182302 129.75822646 47.96177564 130.81157691 39.7434082 130.86547852 C38.81638092 130.87537811 37.88935364 130.88527771 36.93423462 130.89547729 C33.86633875 130.92709561 30.79842739 130.95185111 27.73046875 130.9765625 C25.60482884 130.99713173 23.47919303 131.0181282 21.3535614 131.03953552 C15.75584221 131.09475931 10.15808609 131.14416728 4.56030273 131.19238281 C-1.15058687 131.24259556 -6.86142276 131.29828281 -12.57226562 131.35351562 C-23.77990205 131.46110098 -34.98758508 131.56254516 -46.1953125 131.66015625 C-49.05899823 146.32719064 -50.83199802 160.49365424 -50.66186523 175.44555664 C-50.63247093 178.25530674 -50.64142662 181.06320264 -50.65429688 183.87304688 C-50.62326854 210.91379719 -42.970696 235.16294042 -23.92578125 255.02734375 C-15.73388431 262.87960981 -2.65919512 272.62941133 8.8046875 274.66015625 C12.23548357 273.48272328 14.69516783 271.17689694 17.4296875 268.84765625 C23.12834196 264.22326949 28.96826312 260.56573084 36.1640625 258.8671875 C40.58549477 257.40128345 43.35912278 255.20237457 46.8671875 252.22265625 C55.40889773 245.07167551 62.1898716 242.20706394 73.4140625 242.3203125 C82.29322741 243.21027488 88.03789849 248.27878232 93.8046875 254.66015625 C95.94492339 257.31077128 97.92391612 260.05026642 99.8671875 262.84765625 C100.38450439 263.58725586 100.90182129 264.32685547 101.43481445 265.08886719 C107.93613683 274.54943335 113.63801907 283.78518138 112.8046875 295.66015625 C110.91141254 300.91925335 108.20685535 303.45024219 103.8046875 306.66015625 C99.33299812 308.15071938 95.37359694 308.4143966 91.06640625 306.34375 C87.44749595 305.58529575 87.01205383 305.73155869 84 307.52734375 C82.61997694 308.49769346 81.26392899 309.50276008 79.9296875 310.53515625 C79.22005859 311.07454834 78.51042969 311.61394043 77.77929688 312.16967773 C71.00849719 317.68302094 68.03750744 323.94430097 64.66259766 331.80615234 C58.50792111 345.10683921 45.46826086 356.32573613 32.02734375 361.7890625 C24.03368526 363.94977261 13.81478464 364.14880833 6.1796875 360.66015625 C-1.33490334 356.11050601 -6.79584345 349.13570015 -9.1953125 340.66015625 C-9.39775878 339.10924456 -9.57777201 337.5553132 -9.74072266 335.99975586 C-9.82697906 335.18760117 -9.91323547 334.37544647 -10.00210571 333.53868103 C-10.06586395 332.91876785 -10.12962219 332.29885468 -10.1953125 331.66015625 C-11.28445953 331.6690387 -12.37360657 331.67792114 -13.49575806 331.68707275 C-23.7656995 331.76819996 -34.03557583 331.82814159 -44.30576515 331.86740494 C-49.58565259 331.88826936 -54.8652811 331.91656637 -60.14501953 331.96191406 C-65.24138302 332.00541225 -70.33749763 332.02930198 -75.43403244 332.03966522 C-77.37729179 332.04704943 -79.3205377 332.06146913 -81.26369095 332.08307648 C-83.98810385 332.11216322 -86.71149167 332.11611005 -89.43603516 332.11425781 C-90.23732849 332.12863892 -91.03862183 332.14302002 -91.86419678 332.15783691 C-97.10814733 332.11932358 -100.01007633 331.08410557 -104.1953125 327.66015625 C-107.75236044 323.91589526 -108.54185871 320.80998142 -108.8203125 315.78515625 C-108.5036288 307.96402845 -105.05287189 304.305704 -99.46411133 299.1315918 C-93.13239345 292.9536647 -90.23553134 287.91142374 -90.0078125 278.95703125 C-89.97972108 275.43610849 -90.07387297 271.92869007 -90.1953125 268.41015625 C-90.24422736 265.7367895 -90.27714274 263.0641893 -90.2956543 260.39044189 C-90.31154567 258.74163356 -90.34669791 257.09284278 -90.40551758 255.44500732 C-90.56482693 247.75669715 -88.81725108 240.66679183 -83.5703125 234.84765625 C-75.90517329 226.87646792 -67.94066451 225.99231551 -57.1953125 225.66015625 C-57.59363281 224.24089844 -57.59363281 224.24089844 -58 222.79296875 C-65.63709829 194.66635864 -66.65956805 160.93580248 -59.1953125 132.66015625 C-60.21367188 132.64557373 -61.23203125 132.63099121 -62.28125 132.6159668 C-66.09099922 132.55761196 -69.90018016 132.48038447 -73.70947266 132.39770508 C-75.35228187 132.36462947 -76.99519997 132.33654448 -78.63818359 132.3137207 C-81.0118615 132.2798522 -83.38455691 132.2275255 -85.7578125 132.171875 C-86.48210449 132.16548508 -87.20639648 132.15909515 -87.95263672 132.1525116 C-93.55434387 131.99413767 -99.50662883 131.14828207 -103.76367188 127.20878601 C-107.16929835 123.20123114 -108.37224541 120.64561108 -108.5078125 115.47265625 C-108.54519531 114.55097656 -108.58257812 113.62929687 -108.62109375 112.6796875 C-107.66607858 105.90696525 -103.14594465 101.15706875 -98.5703125 96.41015625 C-92.97162548 90.5168015 -90.90791126 87.16516213 -90.88671875 78.93359375 C-90.86153968 77.16145531 -90.83614197 75.38931998 -90.81054688 73.6171875 C-90.78192564 70.83285465 -90.75790354 68.04857613 -90.73901367 65.26416016 C-90.71717708 62.57034055 -90.67770587 59.87718058 -90.63671875 57.18359375 C-90.63660294 56.36450531 -90.63648712 55.54541687 -90.6363678 54.70150757 C-90.48671031 45.83267697 -88.20966903 38.87346381 -82.09765625 32.38671875 C-75.94803531 26.80533794 -70.14633226 25.52920945 -62.0234375 25.5625 C-60.9998111 25.56462242 -60.9998111 25.56462242 -59.95550537 25.56678772 C-57.78539566 25.57236541 -55.6153908 25.58491371 -53.4453125 25.59765625 C-51.97005358 25.60267414 -50.49479303 25.60723654 -49.01953125 25.61132812 C-45.41142452 25.6223275 -41.80337875 25.63957672 -38.1953125 25.66015625 C-38.21561523 24.63680176 -38.23591797 23.61344727 -38.25683594 22.55908203 C-38.27325824 21.19954989 -38.28918241 19.84001166 -38.3046875 18.48046875 C-38.32668213 17.47173706 -38.32668213 17.47173706 -38.34912109 16.44262695 C-38.41680315 8.51899198 -35.71249756 2.34975334 -30.1953125 -3.33984375 C-20.99044492 -8.85116152 -9.04210777 -3.58134292 0 0 Z " fill="#68838E" transform="translate(108.1953125,69.33984375)"/>
<path d="M0 0 C0.59377441 0.31839844 1.18754883 0.63679688 1.79931641 0.96484375 C8.68113633 4.66379797 15.23938906 8.72582151 21.6875 13.125 C22.36200195 13.57584961 23.03650391 14.02669922 23.73144531 14.49121094 C27.42730594 17.01593379 30.74703839 19.63909385 33.97265625 22.74609375 C47.29443536 34.99657914 60.82165406 34.63724766 77.94747925 34.82723999 C86.07949182 34.94554317 94.06283493 35.79810027 102.125 36.8125 C103.49950133 36.97429073 104.87401299 37.13599379 106.24853516 37.29760742 C112.60132322 38.07750409 118.77055628 39.10597962 124.9609375 40.7578125 C141.69007651 45.15138607 150.73086851 42.55753702 165.86914062 34.56445312 C171.02665461 31.98730484 176.38185969 30.04302047 181.8125 28.125 C182.84294434 27.75810059 183.87338867 27.39120117 184.93505859 27.01318359 C203.82481373 20.44844587 230.43318383 11.82994365 249.83984375 20.6875 C256.32761272 24.62943557 260.04132556 29.400347 262.33984375 36.6640625 C265.50649487 52.6659563 261.54635411 67.58234428 255.8515625 82.4921875 C255.57610596 83.21978271 255.30064941 83.94737793 255.0168457 84.69702148 C254.34691732 86.46557429 253.67379869 88.23291811 253 90 C254.10754135 89.99333817 255.2150827 89.98667633 256.35618591 89.97981262 C266.81652985 89.9188794 277.27683755 89.8739688 287.73731899 89.84456348 C293.114587 89.82893749 298.49171122 89.80775526 303.86889648 89.77368164 C309.06252002 89.74097883 314.25600561 89.72312394 319.4497242 89.71536827 C321.42677035 89.70984434 323.40380933 89.69905759 325.38079643 89.68280983 C328.15954515 89.66089033 330.93773085 89.65803912 333.71655273 89.65942383 C334.52576172 89.648638 335.3349707 89.63785217 336.16870117 89.6267395 C344.51180605 89.67144436 352.98475411 91.92732933 359 98 C364.83649482 105.99718364 366.14164552 112.15060452 365.9296875 121.81640625 C365.9187782 123.56834283 365.91107031 125.32030171 365.90625 127.07226562 C365.89843092 129.81016558 365.87556305 132.54267032 365.79785156 135.27954102 C365.28580517 147.7497694 365.28580517 147.7497694 370.83364868 158.46324158 C373.10968926 160.77366142 375.54523534 162.88260339 378 165 C382.81040999 170.59899268 384.92154117 174.91329032 384.44921875 182.41796875 C383.51930415 187.76295615 381.55607627 190.82730869 377.13743591 194.1572876 C371.86536637 197.01460561 366.21634791 196.57082636 360.36352539 196.54589844 C358.47467621 196.56140495 358.47467621 196.56140495 356.54766846 196.57722473 C353.11215383 196.60498402 349.67699997 196.60849168 346.24138951 196.60750484 C342.64452319 196.61064269 339.04781729 196.63627892 335.45103455 196.65948486 C328.64786242 196.69998198 321.844786 196.7203707 315.04151195 196.73345876 C307.29292291 196.7493502 299.54449623 196.78777477 291.79600155 196.82805204 C275.86404935 196.91036482 259.93212949 196.96451067 244 197 C243.8629364 197.70495605 243.7258728 198.40991211 243.58465576 199.13623047 C242.95100431 202.38327034 242.31147609 205.62912707 241.671875 208.875 C241.45644043 209.98359375 241.24100586 211.0921875 241.01904297 212.234375 C236.15027068 236.84972932 236.15027068 236.84972932 233 240 C230.98035801 240.07244053 228.95832876 240.08377188 226.9375 240.0625 C225.83277344 240.05347656 224.72804688 240.04445313 223.58984375 240.03515625 C222.30787109 240.01775391 222.30787109 240.01775391 221 240 C222.42831059 233.99460321 223.94710021 228.0953243 225.9375 222.25 C229.13762445 212.1203753 230.45773093 201.48589414 232 191 C232.16230103 189.90582764 232.16230103 189.90582764 232.32788086 188.78955078 C236.42562893 159.01233775 228.88849037 128.11194844 211.1496582 103.9074707 C209.29283211 101.31564335 208.05644927 99.38863153 207.59375 96.203125 C208 94 208 94 210 92 C212.8125 91.5625 212.8125 91.5625 216 92 C218.875 94.375 218.875 94.375 221 97 C221 97.66 221 98.32 221 99 C223.52588702 96.63707344 224.88820837 95.33537489 226 92 C226.01299827 90.61022482 225.96932091 89.2194104 225.88671875 87.83203125 C225.24083059 72.6740798 225.24083059 72.6740798 228.8125 68.1875 C229.85633115 67.10665356 230.91703373 66.04163168 232 65 C235.2055449 59.97797966 235.61045228 55.80465147 235 50 C234.20372633 46.88126147 233.84611059 45.53587004 231.125 43.8125 C230.42375 43.544375 229.7225 43.27625 229 43 C228.41992188 42.66226563 227.83984375 42.32453125 227.2421875 41.9765625 C221.63531568 39.53454516 214.65887641 40.24894286 208.90234375 41.875 C191.76647671 48.68116419 191.76647671 48.68116419 179 61 C179.99 61.33 180.98 61.66 182 62 C182.125 65.375 182.125 65.375 182 69 C180 71 180 71 177.43359375 71.41796875 C172.63230765 70.83351185 169.21637596 68.69153424 165.0625 66.3125 C150.50988497 58.3731921 136.29847197 55.00775551 120.00854492 52.40136719 C118 52 118 52 116 51 C114.19712232 50.72063715 112.38676218 50.48885022 110.57421875 50.28125 C109.46626953 50.15363281 108.35832031 50.02601562 107.21679688 49.89453125 C106.05212891 49.76433594 104.88746094 49.63414063 103.6875 49.5 C102.56537109 49.36980469 101.44324219 49.23960938 100.28710938 49.10546875 C90.05398095 47.94167815 79.90581668 46.93040904 69.59765625 47 C67.73850586 46.99806641 67.73850586 46.99806641 65.84179688 46.99609375 C63.29469824 46.99872641 60.74745766 47.03325853 58.20117188 47.09765625 C49.06372492 47.01149908 49.06372492 47.01149908 45.93139648 44.03295898 C44.375 41.62109375 44.375 41.62109375 43.21484375 39.22045898 C40.53094944 34.3149086 34.18431405 31.59517355 29 30 C27.96875 29.95875 26.9375 29.9175 25.875 29.875 C20.99363776 28.77275691 18.33906511 26.45825448 14.40625 23.44921875 C-1.24883441 11.84598253 -25.8322619 -3.49833739 -46 -1 C-51.71704534 1.58885072 -53.7637853 5.41519713 -56 11 C-57.18695553 14.56086658 -57.35095418 17.97331024 -57.5625 21.6875 C-57.60568359 22.38939453 -57.64886719 23.09128906 -57.69335938 23.81445312 C-57.7991736 25.54275206 -57.90006581 27.2713511 -58 29 C-61.96 29 -65.92 29 -70 29 C-70.58202414 16.19546896 -68.63077217 2.91598224 -59.75 -6.8125 C-43.04993577 -22.17936583 -16.64322009 -9.11957265 0 0 Z " fill="#68828E" transform="translate(128,66)"/>
<path d="M0 0 C13.93858722 5.92445533 30.99667141 13.85214016 41.8046875 24.66015625 C43.15313288 24.95817153 44.50889038 25.2233633 45.8671875 25.47265625 C54.07771864 27.24790623 60.30928065 30.61013502 65.18359375 37.65234375 C68.48508926 42.78800344 69.92552106 46.4482247 69.98168945 52.64111328 C70.00094231 54.48916061 70.00094231 54.48916061 70.02058411 56.37454224 C70.0287548 57.72234696 70.0361979 59.07015627 70.04296875 60.41796875 C70.04704428 61.09903561 70.0511198 61.78010246 70.05531883 62.48180771 C70.07616918 66.09073328 70.09047209 69.69962101 70.09985352 73.30859375 C70.11088137 77.01729237 70.1452411 80.72538493 70.18502522 84.43387032 C70.21131281 87.30112743 70.21955628 90.16824321 70.22313499 93.0356102 C70.22797425 94.40142762 70.23951148 95.76723988 70.25817299 97.13293839 C70.3965693 107.93772174 68.93634414 116.02228981 61.51953125 124.15625 C56.85866214 128.24380036 50.80974415 130.76440323 44.6240387 130.81837463 C43.34541962 130.83305786 43.34541962 130.83305786 42.04096985 130.84803772 C41.10778427 130.85379318 40.17459869 130.85954865 39.21313477 130.86547852 C37.73376938 130.88032791 37.73376938 130.88032791 36.22451782 130.89547729 C32.9400678 130.92721626 29.65560435 130.95195344 26.37109375 130.9765625 C24.06265427 130.99717603 21.75421819 131.01817351 19.44578552 131.03953552 C14.57740262 131.08359504 9.70900712 131.12446253 4.84057617 131.1628418 C-1.28782044 131.21118813 -7.41615236 131.2649604 -13.54448509 131.32076454 C-25.23713372 131.42719506 -36.92976742 131.51844387 -48.62267113 131.59182167 C-54.6683942 131.63105789 -60.7135644 131.68574741 -66.75894451 131.7610445 C-70.1276186 131.8008629 -73.4963157 131.82892594 -76.86512947 131.85386467 C-78.37327981 131.86770639 -79.88139345 131.88676166 -81.38940239 131.911623 C-98.44840382 132.18824786 -98.44840382 132.18824786 -103.7379303 127.20762634 C-107.18434858 123.22977764 -108.37235764 120.64132859 -108.5078125 115.47265625 C-108.54519531 114.55097656 -108.58257812 113.62929687 -108.62109375 112.6796875 C-107.66607858 105.90696525 -103.14594465 101.15706875 -98.5703125 96.41015625 C-92.97162548 90.5168015 -90.90791126 87.16516213 -90.88671875 78.93359375 C-90.86153968 77.16145531 -90.83614197 75.38931998 -90.81054688 73.6171875 C-90.78192564 70.83285465 -90.75790354 68.04857613 -90.73901367 65.26416016 C-90.71717708 62.57034055 -90.67770587 59.87718058 -90.63671875 57.18359375 C-90.63660294 56.36450531 -90.63648712 55.54541687 -90.6363678 54.70150757 C-90.48671031 45.83267697 -88.20966903 38.87346381 -82.09765625 32.38671875 C-75.94803531 26.80533794 -70.14633226 25.52920945 -62.0234375 25.5625 C-60.9998111 25.56462242 -60.9998111 25.56462242 -59.95550537 25.56678772 C-57.78539566 25.57236541 -55.6153908 25.58491371 -53.4453125 25.59765625 C-51.97005358 25.60267414 -50.49479303 25.60723654 -49.01953125 25.61132812 C-45.41142452 25.6223275 -41.80337875 25.63957672 -38.1953125 25.66015625 C-38.21561523 24.63680176 -38.23591797 23.61344727 -38.25683594 22.55908203 C-38.27325824 21.19954989 -38.28918241 19.84001166 -38.3046875 18.48046875 C-38.32668213 17.47173706 -38.32668213 17.47173706 -38.34912109 16.44262695 C-38.41680315 8.51899198 -35.71249756 2.34975334 -30.1953125 -3.33984375 C-20.99044492 -8.85116152 -9.04210777 -3.58134292 0 0 Z " fill="#64DFE7" transform="translate(108.1953125,69.33984375)"/>
<path d="M0 0 C11.70945159 -0.06964428 23.41885355 -0.12288452 35.12847042 -0.15543652 C40.56627174 -0.17106327 46.00393088 -0.19224692 51.44165039 -0.22631836 C56.69362846 -0.25901842 61.94547014 -0.27687549 67.19754219 -0.28463173 C69.19691679 -0.29015614 71.19628429 -0.30094387 73.19560051 -0.31719017 C76.00548048 -0.33910597 78.81480358 -0.34196103 81.62475586 -0.34057617 C82.44331558 -0.351362 83.26187531 -0.36214783 84.10523987 -0.3732605 C92.47463961 -0.32889972 100.96265887 1.90502316 107 8 C112.83649482 15.99718364 114.14164552 22.15060452 113.9296875 31.81640625 C113.9187782 33.56834283 113.91107031 35.32030171 113.90625 37.07226562 C113.89843092 39.81016558 113.87556305 42.54267032 113.79785156 45.27954102 C113.28580517 57.7497694 113.28580517 57.7497694 118.83364868 68.46324158 C121.10968926 70.77366142 123.54523534 72.88260339 126 75 C130.81040999 80.59899268 132.92154117 84.91329032 132.44921875 92.41796875 C131.51939908 97.7624105 129.55287059 100.82425571 125.14317322 104.1630249 C119.84216616 107.03543204 114.15031649 106.52511846 108.27172852 106.45410156 C107.00274216 106.45468567 105.7337558 106.45526978 104.42631531 106.45587158 C100.9638007 106.45701461 97.50184554 106.43357314 94.03946042 106.40557575 C90.41467742 106.38049273 86.7898802 106.37821469 83.1650238 106.37347412 C76.30860258 106.36106451 69.45243787 106.32827049 62.59612936 106.28807616 C54.78720391 106.24329544 46.97826591 106.22135563 39.16924393 106.20129442 C23.11267937 106.15953581 7.05637247 106.08922335 -9 106 C-8.92935333 105.26883972 -8.85870667 104.53767944 -8.78591919 103.78436279 C-8.69430511 102.81234924 -8.60269104 101.84033569 -8.50830078 100.83886719 C-8.37139328 99.40181427 -8.37139328 99.40181427 -8.23171997 97.93572998 C-7.87149243 93.37189893 -7.8548434 88.82554808 -7.875 84.25 C-7.87113281 83.35667969 -7.86726563 82.46335937 -7.86328125 81.54296875 C-7.87058524 76.5835566 -8.28004754 71.91396125 -9 67 C-9.06172376 64.33141739 -9.02166945 61.6698143 -9 59 C-7.86438629 58.99191315 -6.72877258 58.98382629 -5.55874634 58.97549438 C5.12465336 58.89813006 15.80792417 58.81041569 26.49115562 58.71247292 C31.98398674 58.66245044 37.47679805 58.61612107 42.96972656 58.578125 C48.26714611 58.54134721 53.56440239 58.49500806 58.86168289 58.44193649 C60.88632987 58.42335251 62.91101189 58.40825949 64.93571091 58.39665604 C67.76378988 58.37986187 70.59149162 58.35084394 73.41943359 58.31884766 C74.68502357 58.31560738 74.68502357 58.31560738 75.97618103 58.31230164 C80.46122878 58.43530795 80.46122878 58.43530795 84 56 C84 53.69 84 51.38 84 49 C52.32 48.67 20.64 48.34 -12 48 C-13.32 44.04 -14.64 40.08 -16 36 C-14.79143845 36.00666183 -13.58287689 36.01332367 -12.33769226 36.02018738 C-0.96307498 36.08093158 10.41150951 36.12594045 21.78625202 36.15543652 C27.63450682 36.17111037 33.48263096 36.19238012 39.33081055 36.22631836 C44.97179135 36.25885031 50.61264626 36.27684005 56.25371361 36.28463173 C58.40876435 36.29018632 60.56380799 36.3010327 62.71880531 36.31719017 C65.73106548 36.33888235 68.74280159 36.34197035 71.75512695 36.34057617 C73.09948067 36.35675491 73.09948067 36.35675491 74.47099304 36.3732605 C75.70143845 36.36707451 75.70143845 36.36707451 76.95674133 36.36076355 C77.66928731 36.36352893 78.38183329 36.36629431 79.11597157 36.36914349 C81.69437051 35.86394985 82.53174075 35.18062068 84 33 C84 31.02 84 29.04 84 27 C51.66 26.67 19.32 26.34 -14 26 C-4.71428571 8.58928571 -4.71428571 8.58928571 0 0 Z " fill="#FB7FA5" transform="translate(380,156)"/>
<path d="M0 0 C16.73194002 -0.11485005 33.4637693 -0.20321585 50.19604969 -0.24843979 C51.65069647 -0.25238982 53.10534321 -0.25635075 54.55998993 -0.26032257 C55.27988694 -0.26227827 55.99978395 -0.26423398 56.74149603 -0.26624894 C61.83455353 -0.28103623 66.92750463 -0.30583778 72.02050018 -0.33466339 C78.32919412 -0.37010198 84.63773927 -0.39065071 90.94653517 -0.39325482 C94.22618863 -0.39496991 97.50541652 -0.40526996 100.78499794 -0.42854118 C104.4018691 -0.4528983 108.01792132 -0.45206703 111.63484955 -0.44519806 C112.68601613 -0.45801126 113.73718271 -0.47082447 114.82020283 -0.48402596 C122.24726467 -0.43189512 129.51551138 0.66991114 135.32517052 5.67113018 C140.66185984 11.28298561 142.5727436 17.23804197 142.5213089 24.88458824 C142.35906447 28.08114127 141.66062089 31.04099476 140.88729095 34.14220428 C140.72457703 34.80558807 140.5618631 35.46897186 140.39421844 36.15245819 C139.8571721 38.33225951 139.30695622 40.50849619 138.75643158 42.68492889 C138.37125894 44.23571667 137.98687596 45.78670075 137.60323334 47.33786774 C136.58877777 51.42974739 135.56294911 55.51869445 134.53487396 59.6071701 C133.52060113 63.65013286 132.51808067 67.69600554 131.51424408 71.74156952 C129.74337549 78.87262805 127.94982544 85.99773639 126.14591217 93.12050056 C124.996055 97.67287541 123.87312611 102.23076864 122.77494812 106.79588032 C122.08806746 109.64213113 121.38753756 112.48492122 120.68466949 115.32726097 C120.21127618 117.26246279 119.75590362 119.2020456 119.30123138 121.14173126 C116.72651097 131.47034646 112.04161099 140.45501957 103.41268158 147.02477264 C97.10296073 150.48436391 91.03901613 153.14282815 83.78861618 153.15899372 C82.39419544 153.16568049 82.39419544 153.16568049 80.97160459 153.17250234 C79.95372066 153.17231798 78.93583674 153.17213361 77.88710785 153.17194366 C76.80310975 153.17562035 75.71911165 153.17929704 74.60226512 153.18308514 C70.95736012 153.19412876 67.31248362 153.19796697 63.66756439 153.2017746 C61.05929727 153.20803866 58.45103105 153.21468541 55.84276581 153.22168732 C48.00747618 153.24143545 40.17218528 153.25151517 32.33687699 153.26041511 C28.64600613 153.26480012 24.9551367 153.27016632 21.26426697 153.27540398 C8.99363884 153.29241349 -3.27698839 153.3069079 -15.5476265 153.31415272 C-18.73077902 153.31606257 -21.91393154 153.31798291 -25.09708405 153.31993866 C-25.88822709 153.3204224 -26.67937012 153.32090614 -27.4944872 153.32140454 C-40.31199501 153.32970582 -53.12940954 153.3550456 -65.94687662 153.38751934 C-79.1094282 153.42059528 -92.27193237 153.4386019 -105.43452573 153.44179696 C-112.82361721 153.4439614 -120.21257258 153.45270056 -127.60162354 153.47825813 C-134.55210315 153.50224351 -141.50233409 153.50578746 -148.45284653 153.49549675 C-151.00378865 153.49500037 -153.55474267 153.50135083 -156.10564804 153.5150528 C-159.58866364 153.53271477 -163.07079425 153.52569255 -166.55381012 153.51251984 C-167.56277116 153.52348908 -168.57173219 153.53445833 -169.61126781 153.54575998 C-176.90138836 153.47921449 -182.18024031 151.89516058 -187.79434967 147.16539764 C-192.48608578 141.64033615 -195.08930301 136.86660584 -196.02481842 129.64977264 C-195.11685652 122.12665974 -192.16457415 115.2382943 -186.58731842 110.02477264 C-178.25259751 104.12312574 -169.6266009 104.28924059 -159.86075592 104.31774139 C-158.26077154 104.30460364 -156.66080367 104.28929309 -155.06085968 104.27191925 C-150.88188564 104.23229855 -146.70334772 104.22189376 -142.52420807 104.21788788 C-138.24693513 104.20851281 -133.96991385 104.17107228 -129.69278717 104.13610077 C-121.32429262 104.07175891 -112.95604874 104.0383273 -104.58731842 104.02477264 C-104.27504303 102.77567108 -103.96276764 101.52656952 -103.64102936 100.23961639 C-97.84903717 77.07164764 -97.84903717 77.07164764 -97.11414337 74.13243866 C-96.62671072 72.18246351 -96.1395085 70.23243074 -95.65253448 68.282341 C-94.59164133 64.03497577 -93.52903556 59.78811834 -92.45401764 55.54430389 C-90.84481641 49.17981411 -89.29778413 42.80924823 -87.87638092 36.39977264 C-87.60052155 35.17903046 -87.32466217 33.95828827 -87.04044342 32.70055389 C-86.48202809 30.22192735 -85.93805776 27.7400079 -85.40763092 25.25524139 C-83.18854133 15.60836581 -79.92131108 8.72697815 -71.58731842 3.02477264 C-68.69854209 1.36171623 -66.59916844 0.76539888 -63.27359772 0.70592499 C-62.3976445 0.68608047 -61.52169128 0.66623596 -60.61919403 0.6457901 C-59.64316727 0.63421371 -58.6671405 0.62263733 -57.66153717 0.61071014 C-56.59144913 0.5911174 -55.52136108 0.57152466 -54.41884613 0.5513382 C-50.70424917 0.48862946 -46.98969084 0.44303091 -43.27481842 0.39977264 C-41.31883728 0.37374466 -41.31883728 0.37374466 -39.32334137 0.34719086 C-26.21598858 0.17442577 -13.1081208 0.09051965 0 0 Z M-70.58731842 16.02477264 C-72.10805149 19.29461094 -72.10805149 19.29461094 -73.10245514 23.08995819 C-73.30637312 23.79040851 -73.5102911 24.49085882 -73.72038841 25.2125349 C-75.92100464 32.90187701 -77.84356497 40.66869573 -79.72819138 48.44043159 C-80.36229976 51.05252786 -81.00385256 53.66269999 -81.6473465 56.27249908 C-83.47235881 63.67831954 -85.28668575 71.08671864 -87.09073639 78.49767303 C-88.20275237 83.06355546 -89.32501092 87.62681853 -90.45373917 92.18859673 C-90.87952744 93.91839689 -91.30132965 95.64918334 -91.7190361 97.38095284 C-92.29979295 99.78789993 -92.89345764 102.19131475 -93.49015045 104.59435272 C-93.74271103 105.66255753 -93.74271103 105.66255753 -94.00037384 106.75234222 C-94.65668199 109.35138571 -95.37018708 111.66745647 -96.76702118 113.96611786 C-99.6433778 115.63895932 -102.57578947 115.42981962 -105.80924225 115.39366913 C-106.90734978 115.39931885 -106.90734978 115.39931885 -108.0276413 115.4050827 C-109.61708356 115.4115174 -111.2065643 115.41118302 -112.79600716 115.40489769 C-115.31432682 115.39579418 -117.83190078 115.40600323 -120.35018158 115.42151642 C-127.50970016 115.46163137 -134.66916125 115.46282175 -141.8287735 115.46056366 C-146.20903183 115.46051248 -150.58888952 115.47972025 -154.96903801 115.50989723 C-157.44531936 115.52070693 -159.92083062 115.50859976 -162.3970871 115.49607086 C-163.92380273 115.50497887 -165.45051214 115.51505451 -166.977211 115.52648163 C-167.66158234 115.51673813 -168.34595367 115.50699463 -169.05106354 115.49695587 C-173.9895742 115.57046943 -176.76467588 116.97210385 -180.58731842 120.02477264 C-183.47248184 123.48696875 -184.12649707 126.51274149 -183.93888092 131.03258514 C-183.18404207 135.31000529 -180.81104856 138.08467445 -177.45027924 140.66649628 C-173.76469883 142.41504859 -170.46348561 142.46027206 -166.46744537 142.44469452 C-165.26149467 142.45739883 -165.26149467 142.45739883 -164.03118134 142.4703598 C-161.37915873 142.49371409 -158.72771727 142.49475197 -156.07559967 142.49352264 C-154.22339905 142.50062778 -152.37120062 142.50832729 -150.51900482 142.51659393 C-146.63619627 142.53003704 -142.75359099 142.53160944 -138.87076569 142.52574921 C-133.91554915 142.51986885 -128.96131774 142.55037618 -124.00629139 142.59086609 C-120.17903721 142.61683279 -116.35201693 142.61961211 -112.52468681 142.61597443 C-110.69918287 142.61765889 -108.87366733 142.62723598 -107.0482502 142.64511871 C-93.00490796 142.97468789 -93.00490796 142.97468789 -80.58731842 137.02477264 C-76.3381986 132.56234146 -73.73914128 127.76296694 -71.58731842 122.02477264 C-68.71231842 121.89977264 -68.71231842 121.89977264 -65.58731842 122.02477264 C-64.92731842 122.68477264 -64.26731842 123.34477264 -63.58731842 124.02477264 C-63.7018318 129.63592812 -65.64121551 133.35427464 -68.52872467 138.10680389 C-69.74839134 139.95148697 -69.74839134 139.95148697 -69.58731842 142.02477264 C-49.45478916 142.16520049 -29.32235987 142.27086959 -9.18944168 142.33564568 C0.15954503 142.36652756 9.50822667 142.40859904 18.85701752 142.47740936 C27.00950673 142.53738567 35.16177491 142.57596295 43.31447864 142.58930361 C47.62771659 142.59709672 51.94032244 142.61529215 56.25335693 142.65915298 C60.3213924 142.70018324 64.38854147 142.71238124 68.45676422 142.70341873 C69.94177586 142.70505592 71.42682024 142.71680963 72.91165161 142.74000549 C84.04312793 142.90522333 93.61320593 140.93545605 101.91268158 132.96227264 C109.04317552 123.39857678 110.70254446 107.50061362 113.61580658 96.07555389 C113.85485466 95.14012442 114.09390274 94.20469494 114.3401947 93.24091911 C115.60185312 88.30255527 116.85950196 83.36319064 118.11385345 78.422966 C119.40359528 73.34681307 120.70751592 68.27441336 122.01459885 63.20270252 C123.02459216 59.27289289 124.02392269 55.34042721 125.02043152 51.40717888 C125.49646293 49.53601133 125.97646001 47.66584769 126.46063232 45.7967701 C127.13729425 43.18059718 127.79864986 40.56098123 128.45662689 37.94005585 C128.75577499 36.80434898 128.75577499 36.80434898 129.06096649 35.64569855 C130.45653372 29.98819269 132.27527785 22.463126 129.3723259 17.1042757 C127.61374681 14.94070882 125.91788999 13.27737685 123.41268158 12.02477264 C121.25884905 11.93036869 119.10199813 11.9028724 116.94609833 11.90451813 C116.27468689 11.9036637 115.60327545 11.90280928 114.91151822 11.90192896 C112.65129983 11.90027576 110.3911549 11.90579292 108.1309433 11.91124725 C106.51490531 11.91152919 104.8988672 11.91137127 103.28282928 11.91080475 C98.88638257 11.91051701 94.48996295 11.91640996 90.09352255 11.92337871 C85.50241068 11.92961614 80.91129825 11.93021635 76.3201828 11.93140411 C67.62208182 11.93451627 58.92399336 11.94272812 50.22589791 11.9527536 C40.32519518 11.9639183 30.42449186 11.96942609 20.5237844 11.97444904 C0.1534098 11.98491082 -20.21695352 12.00250805 -40.58731842 12.02477264 C-40.26367498 12.96774452 -39.94003155 13.9107164 -39.60658073 14.88226318 C-36.6511881 23.99409747 -39.49471223 33.07654884 -41.79825592 42.05602264 C-42.13059433 43.38194708 -42.46209183 44.70808254 -42.79279327 46.0344162 C-43.48323101 48.79288314 -44.18155991 51.54918346 -44.88614655 54.30406952 C-45.78911048 57.83602602 -46.67512487 61.37197013 -47.55578423 64.9095459 C-48.23659848 67.63893215 -48.92453246 70.36648219 -49.61483383 73.09348297 C-50.10429072 75.03043756 -50.58904637 76.96857816 -51.0737381 78.90673065 C-51.37389832 80.07554779 -51.67405853 81.24436493 -51.98331451 82.44860077 C-52.24534668 83.47989105 -52.50737885 84.51118134 -52.77735138 85.57372284 C-53.58731842 88.02477264 -53.58731842 88.02477264 -55.58731842 90.02477264 C-58.64981842 90.21227264 -58.64981842 90.21227264 -61.58731842 90.02477264 C-62.58731842 89.02477264 -62.58731842 89.02477264 -62.84342194 86.23717499 C-62.75221438 80.52651295 -60.97690338 75.1004111 -59.48966217 69.62633514 C-58.84670347 67.18372696 -58.20413745 64.74101538 -57.5619278 62.29821014 C-56.5448951 58.46978568 -55.52294186 54.64280118 -54.49332428 50.81774139 C-53.4992724 47.11157629 -52.52467323 43.40070151 -51.55216217 39.68883514 C-51.24076797 38.55418823 -50.92937378 37.41954132 -50.6085434 36.25051117 C-48.90791392 29.71243856 -48.21055583 24.6764158 -49.58731842 18.02477264 C-51.40852138 15.20484548 -52.59422798 13.52131787 -55.58731842 12.02477264 C-57.8564345 11.75039508 -57.8564345 11.75039508 -60.39981842 11.71227264 C-61.25188873 11.67488983 -62.10395905 11.63750702 -62.98184967 11.59899139 C-66.55034948 12.18214953 -67.99439779 13.51438071 -70.58731842 16.02477264 Z " fill="#E3E3E3" transform="translate(363.58731842041016,305.97522735595703)"/>
<path d="M0 0 C13.93858722 5.92445533 30.99667141 13.85214016 41.8046875 24.66015625 C43.15313288 24.95817153 44.50889038 25.2233633 45.8671875 25.47265625 C54.07771864 27.24790623 60.30928065 30.61013502 65.18359375 37.65234375 C68.48508926 42.78800344 69.92552106 46.4482247 69.98168945 52.64111328 C70.00094231 54.48916061 70.00094231 54.48916061 70.02058411 56.37454224 C70.0287548 57.72234696 70.0361979 59.07015627 70.04296875 60.41796875 C70.04704428 61.09903561 70.0511198 61.78010246 70.05531883 62.48180771 C70.07616918 66.09073328 70.09047209 69.69962101 70.09985352 73.30859375 C70.11088137 77.01729237 70.1452411 80.72538493 70.18502522 84.43387032 C70.21131281 87.30112743 70.21955628 90.16824321 70.22313499 93.0356102 C70.22797425 94.40142762 70.23951148 95.76723988 70.25817299 97.13293839 C70.3965693 107.93772174 68.93634414 116.02228981 61.51953125 124.15625 C56.85866214 128.24380036 50.80974415 130.76440323 44.6240387 130.81837463 C43.34541962 130.83305786 43.34541962 130.83305786 42.04096985 130.84803772 C41.10778427 130.85379318 40.17459869 130.85954865 39.21313477 130.86547852 C37.73376938 130.88032791 37.73376938 130.88032791 36.22451782 130.89547729 C32.9400678 130.92721626 29.65560435 130.95195344 26.37109375 130.9765625 C24.06265427 130.99717603 21.75421819 131.01817351 19.44578552 131.03953552 C14.57740262 131.08359504 9.70900712 131.12446253 4.84057617 131.1628418 C-1.28782044 131.21118813 -7.41615236 131.2649604 -13.54448509 131.32076454 C-25.23713372 131.42719506 -36.92976742 131.51844387 -48.62267113 131.59182167 C-54.6683942 131.63105789 -60.7135644 131.68574741 -66.75894451 131.7610445 C-70.1276186 131.8008629 -73.4963157 131.82892594 -76.86512947 131.85386467 C-78.37327981 131.86770639 -79.88139345 131.88676166 -81.38940239 131.911623 C-98.44840382 132.18824786 -98.44840382 132.18824786 -103.7379303 127.20762634 C-107.18434858 123.22977764 -108.37235764 120.64132859 -108.5078125 115.47265625 C-108.54519531 114.55097656 -108.58257812 113.62929687 -108.62109375 112.6796875 C-107.66607858 105.90696525 -103.14594465 101.15706875 -98.5703125 96.41015625 C-92.97162548 90.5168015 -90.90791126 87.16516213 -90.88671875 78.93359375 C-90.86153968 77.16145531 -90.83614197 75.38931998 -90.81054688 73.6171875 C-90.78192564 70.83285465 -90.75790354 68.04857613 -90.73901367 65.26416016 C-90.71717708 62.57034055 -90.67770587 59.87718058 -90.63671875 57.18359375 C-90.63660294 56.36450531 -90.63648712 55.54541687 -90.6363678 54.70150757 C-90.48671031 45.83267697 -88.20966903 38.87346381 -82.09765625 32.38671875 C-75.94803531 26.80533794 -70.14633226 25.52920945 -62.0234375 25.5625 C-60.9998111 25.56462242 -60.9998111 25.56462242 -59.95550537 25.56678772 C-57.78539566 25.57236541 -55.6153908 25.58491371 -53.4453125 25.59765625 C-51.97005358 25.60267414 -50.49479303 25.60723654 -49.01953125 25.61132812 C-45.41142452 25.6223275 -41.80337875 25.63957672 -38.1953125 25.66015625 C-38.21561523 24.63680176 -38.23591797 23.61344727 -38.25683594 22.55908203 C-38.27325824 21.19954989 -38.28918241 19.84001166 -38.3046875 18.48046875 C-38.32668213 17.47173706 -38.32668213 17.47173706 -38.34912109 16.44262695 C-38.41680315 8.51899198 -35.71249756 2.34975334 -30.1953125 -3.33984375 C-20.99044492 -8.85116152 -9.04210777 -3.58134292 0 0 Z M-76.05249023 43.2890625 C-78.97806227 47.89158029 -78.72386043 51.27387222 -78.48046875 56.59765625 C-78.45305031 58.56507695 -78.42772821 60.53252777 -78.40429688 62.5 C-78.34055321 65.57093022 -78.25867587 68.63829708 -78.13745117 71.70751953 C-77.42723788 91.53257045 -77.42723788 91.53257045 -84.87890625 99.66015625 C-86.41285943 101.20388611 -87.98056923 102.68920093 -89.59005737 104.15380859 C-91.35098807 105.8062399 -92.98282893 107.52548875 -94.59399414 109.32421875 C-95.09459854 109.88061035 -95.59520294 110.43700195 -96.11097717 111.01025391 C-97.51039322 112.80130847 -97.51039322 112.80130847 -97.1328125 116.03515625 C-96.44453406 118.55363013 -96.44453406 118.55363013 -95.1953125 119.66015625 C-93.3740389 119.76315565 -91.54873987 119.79537271 -89.7245636 119.80059814 C-87.94329323 119.80916336 -87.94329323 119.80916336 -86.1260376 119.81790161 C-84.81125427 119.81901947 -83.49647095 119.82013733 -82.1418457 119.82128906 C-80.75243497 119.82591507 -79.36302551 119.83093944 -77.97361755 119.83633423 C-74.18827116 119.84948502 -70.40294252 119.8559089 -66.61757684 119.86034489 C-64.25312259 119.86327255 -61.88867322 119.86737686 -59.52422142 119.87184906 C-52.12813155 119.88553378 -44.73205281 119.89519449 -37.33595115 119.89905095 C-28.79578485 119.90352809 -20.25577889 119.92105583 -11.71566135 119.95005155 C-5.11772182 119.97167556 1.48017264 119.98175569 8.07814723 119.98309207 C12.01984455 119.98414 15.96139135 119.99004446 19.90305138 120.00791168 C23.6138908 120.0244039 27.32446678 120.0265424 31.03532982 120.01777267 C33.04282929 120.01663633 35.05032005 120.0303466 37.05776978 120.04452515 C38.86018883 120.03617142 38.86018883 120.03617142 40.69902039 120.02764893 C41.73934764 120.02911549 42.77967489 120.03058205 43.85152721 120.03209305 C48.6292744 119.43035802 52.63793743 117.48635032 55.6171875 113.66015625 C58.57645991 109.60172552 58.93446803 106.90915503 58.98168945 102.01464844 C58.99452469 100.85624451 59.00735992 99.69784058 59.02058411 98.5043335 C59.02797104 97.25122375 59.03535797 95.99811401 59.04296875 94.70703125 C59.05507637 92.77395111 59.05507637 92.77395111 59.06742859 90.80181885 C59.08244311 88.07149386 59.09228639 85.34119476 59.09985352 82.61083984 C59.11089936 79.12612841 59.14528244 75.64205882 59.18502522 72.1575737 C59.21757838 68.81991945 59.2219777 65.48233194 59.23046875 62.14453125 C59.25673088 60.27701202 59.25673088 60.27701202 59.28352356 58.37176514 C59.26657385 51.5873313 59.00688897 47.10638375 54.8046875 41.66015625 C50.31476128 38.17817265 46.84480773 36.54233462 41.19438171 36.51298523 C40.24812927 36.50582993 39.30187683 36.49867462 38.32695007 36.49130249 C37.29052872 36.48861359 36.25410736 36.48592468 35.1862793 36.4831543 C33.5468486 36.4732975 33.5468486 36.4732975 31.8742981 36.46324158 C28.25083348 36.44350114 24.6274103 36.43184504 21.00390625 36.421875 C19.76746683 36.41779947 18.53102741 36.41372395 17.25712013 36.40952492 C11.38916426 36.39081369 5.5212247 36.37624774 -0.34675533 36.36791295 C-7.11374344 36.35814168 -13.88040434 36.33182239 -20.64727718 36.29141206 C-26.51362433 36.25758506 -32.37986191 36.2457657 -38.24629784 36.24170876 C-40.73938403 36.23683284 -43.23246648 36.22519046 -45.72548866 36.20667076 C-49.21349887 36.18236775 -52.70065205 36.18322854 -56.1887207 36.19018555 C-57.21906937 36.17737549 -58.24941803 36.16456543 -59.31098938 36.15136719 C-66.87448106 36.20637803 -70.45419193 38.13803489 -76.05249023 43.2890625 Z " fill="#02D3D7" transform="translate(108.1953125,69.33984375)"/>
<path d="M0 0 C0.77923828 1.57587891 0.77923828 1.57587891 1.57421875 3.18359375 C5.22745322 10.54615842 8.8862384 17.880028 13 25 C11.86820312 25.04898437 10.73640625 25.09796875 9.5703125 25.1484375 C8.08851661 25.22346514 6.606747 25.29901297 5.125 25.375 C4.37863281 25.4059375 3.63226563 25.436875 2.86328125 25.46875 C-1.53473188 25.55643831 -1.53473188 25.55643831 -5 28 C-5.33333333 30.5 -5.33333333 30.5 -5 33 C-3.16941452 35.26836489 -3.16941452 35.26836489 -0.453125 35.17602539 C0.60390625 35.15016357 1.6609375 35.12430176 2.75 35.09765625 C4.49990234 35.09475586 4.49990234 35.09475586 6.28515625 35.09179688 C8.73084194 35.07250913 11.17648708 35.02632969 13.62109375 34.95117188 C20.56866808 34.99302473 24.48697809 35.70728648 29.75 40.43359375 C31.19688143 41.92703769 32.62003689 43.44451214 34 45 C34.66 45.66 35.32 46.32 36 47 C34.82904785 47.01981934 33.6580957 47.03963867 32.45166016 47.06005859 C28.11663926 47.13600081 23.78195905 47.2247352 19.44726562 47.31738281 C17.56940424 47.35571977 15.69146824 47.39056427 13.81347656 47.421875 C11.11756679 47.46742363 8.42217288 47.52543375 5.7265625 47.5859375 C4.46243027 47.60326431 4.46243027 47.60326431 3.17276001 47.62094116 C-1.39020957 47.54193181 -1.39020957 47.54193181 -5 50 C-5.33333333 52.5 -5.33333333 52.5 -5 55 C-2.3141831 57.6858169 -0.93007121 57.27246826 2.82666016 57.31884766 C4.65833237 57.34865219 4.65833237 57.34865219 6.52700806 57.37905884 C7.86435769 57.39093608 9.20170925 57.40259889 10.5390625 57.4140625 C11.90385112 57.43276749 13.26862811 57.4523404 14.63339233 57.4727478 C18.22706243 57.52414605 21.82077005 57.56373027 25.41461182 57.60089111 C29.0811904 57.64088279 32.74761185 57.6919971 36.4140625 57.7421875 C43.60926732 57.83903773 50.80454795 57.92341307 58 58 C54.74357502 66.16684505 54.74357502 66.16684505 52 69 C47.89442764 69.90031546 43.83644037 69.78909764 39.6484375 69.734375 C37.8328685 69.74781952 37.8328685 69.74781952 35.98062134 69.76153564 C32.11158552 69.78567871 28.2440404 69.76968611 24.375 69.75 C20.49921114 69.75143903 16.62369221 69.76124003 12.74795532 69.78131104 C10.33519539 69.79156552 7.92234897 69.78970615 5.50961304 69.77484131 C3.87749374 69.77559662 3.87749374 69.77559662 2.21240234 69.77636719 C1.25183929 69.77159363 0.29127625 69.76682007 -0.69839478 69.76190186 C-3.19620788 69.77581303 -3.19620788 69.77581303 -5 72 C-5 74.31 -5 76.62 -5 79 C12.49 79.33 29.98 79.66 48 80 C47.34 82.97 46.68 85.94 46 89 C45.72839589 91.87234159 45.50434857 94.68718899 45.375 97.5625 C45.33632812 98.28501953 45.29765625 99.00753906 45.2578125 99.75195312 C45.16514995 101.50095875 45.08157448 103.25044216 45 105 C33.6299195 105.09272773 22.25992913 105.16377926 10.88954735 105.20724869 C5.60965991 105.22811311 0.3300314 105.25641012 -4.94970703 105.30175781 C-10.04607052 105.345256 -15.14218513 105.36914573 -20.23871994 105.37950897 C-22.18197929 105.38689318 -24.1252252 105.40131288 -26.06837845 105.42292023 C-28.79279135 105.45200697 -31.51617917 105.4559538 -34.24072266 105.45410156 C-35.04201599 105.46848267 -35.84330933 105.48286377 -36.66888428 105.49768066 C-41.91283483 105.45916733 -44.81476383 104.42394932 -49 101 C-52.55704794 97.25573901 -53.34654621 94.14982517 -53.625 89.125 C-53.3083163 81.3038722 -49.85755939 77.64554775 -44.26879883 72.47143555 C-37.93708095 66.29350845 -35.04021884 61.25126749 -34.8125 52.296875 C-34.78440858 48.77595224 -34.87856047 45.26853382 -35 41.75 C-35.04891486 39.07663325 -35.08183024 36.40403305 -35.1003418 33.73028564 C-35.11623317 32.08147731 -35.15138541 30.43268653 -35.21020508 28.78485107 C-35.36951443 21.0965409 -33.62193858 14.00663558 -28.375 8.1875 C-19.95250099 -0.52437963 -11.5726291 -0.5488994 0 0 Z " fill="#64DFE7" transform="translate(53,296)"/>
<path d="M0 0 C11.70945159 -0.06964428 23.41885355 -0.12288452 35.12847042 -0.15543652 C40.56627174 -0.17106327 46.00393088 -0.19224692 51.44165039 -0.22631836 C56.69362846 -0.25901842 61.94547014 -0.27687549 67.19754219 -0.28463173 C69.19691679 -0.29015614 71.19628429 -0.30094387 73.19560051 -0.31719017 C76.00548048 -0.33910597 78.81480358 -0.34196103 81.62475586 -0.34057617 C82.44331558 -0.351362 83.26187531 -0.36214783 84.10523987 -0.3732605 C92.47463961 -0.32889972 100.96265887 1.90502316 107 8 C112.83649482 15.99718364 114.14164552 22.15060452 113.9296875 31.81640625 C113.9187782 33.56834283 113.91107031 35.32030171 113.90625 37.07226562 C113.89843092 39.81016558 113.87556305 42.54267032 113.79785156 45.27954102 C113.28580517 57.7497694 113.28580517 57.7497694 118.83364868 68.46324158 C121.10968926 70.77366142 123.54523534 72.88260339 126 75 C130.81040999 80.59899268 132.92154117 84.91329032 132.44921875 92.41796875 C131.51939908 97.7624105 129.55287059 100.82425571 125.14317322 104.1630249 C119.84216616 107.03543204 114.15031649 106.52511846 108.27172852 106.45410156 C107.00274216 106.45468567 105.7337558 106.45526978 104.42631531 106.45587158 C100.9638007 106.45701461 97.50184554 106.43357314 94.03946042 106.40557575 C90.41467742 106.38049273 86.7898802 106.37821469 83.1650238 106.37347412 C76.30860258 106.36106451 69.45243787 106.32827049 62.59612936 106.28807616 C54.78720391 106.24329544 46.97826591 106.22135563 39.16924393 106.20129442 C23.11267512 106.1595358 7.05638048 106.08841327 -9 106 C-8.67 102.37 -8.34 98.74 -8 95 C-6.42590363 94.99191315 -4.85180725 94.98382629 -3.23001099 94.97549438 C11.57388634 94.89815133 26.37768243 94.81056145 41.18145561 94.71247292 C48.79298763 94.66230423 56.40450864 94.61586192 64.01611328 94.578125 C70.6486915 94.54523253 77.2811854 94.50541674 83.91367066 94.45720994 C87.42706142 94.43191746 90.94039605 94.41014446 94.45385361 94.39665604 C98.37151847 94.38148633 102.28897767 94.35086282 106.20654297 94.31884766 C107.37754547 94.31668747 108.54854797 94.31452728 109.7550354 94.31230164 C110.81796814 94.30113815 111.88090088 94.28997467 112.9760437 94.2784729 C113.90336744 94.27294214 114.83069118 94.26741138 115.78611565 94.26171303 C118.20541929 94.20738404 118.20541929 94.20738404 120 92 C119.90004839 86.57185866 117.49473951 83.78298234 113.8125 80.125 C111.83795395 78.11524256 109.90493242 76.07588813 108 74 C107.47928421 73.43780762 106.95856842 72.87561523 106.42207336 72.29638672 C101.84608 66.86241412 101.1685955 62.78173519 101.3359375 55.8046875 C101.33171783 54.85361115 101.32749817 53.90253479 101.32315063 52.92263794 C101.31234501 49.90594818 101.34025567 46.89148321 101.375 43.875 C101.39909788 40.85168048 101.41421366 37.82934926 101.40542603 34.80593872 C101.40087186 32.93159272 101.41537572 31.05707347 101.45175171 29.18307495 C101.44946904 23.6483931 100.89774981 20.25731784 97 16 C91.79967509 12.66603275 87.38881719 12.55794419 81.41455078 12.56762695 C80.46757828 12.5574353 79.52060577 12.54724365 78.54493713 12.53674316 C75.42833509 12.5066531 72.31204062 12.49735318 69.1953125 12.48828125 C67.02911358 12.47143164 64.86292443 12.45328102 62.69674683 12.43388367 C57.00536143 12.3864084 51.31401561 12.35658288 45.62249756 12.33044434 C39.8107522 12.30062647 33.99914317 12.25410029 28.1875 12.20898438 C16.79173802 12.12297929 5.39594795 12.05562143 -6 12 C-4.02 8.04 -2.04 4.08 0 0 Z " fill="#FD518E" transform="translate(380,156)"/>
<path d="M0 0 C1.7421875 0.6953125 1.7421875 0.6953125 3.7421875 3.6953125 C3.4180506 7.01771574 3.13442447 8.30307553 0.7421875 10.6953125 C-2.3828125 10.8203125 -2.3828125 10.8203125 -5.2578125 10.6953125 C-5.2578125 13.0053125 -5.2578125 15.3153125 -5.2578125 17.6953125 C-4.2265625 17.7984375 -3.1953125 17.9015625 -2.1328125 18.0078125 C4.54416944 19.19243833 8.15931723 21.73483621 12.4453125 26.78125 C16.46682582 32.71661605 16.50944428 38.7573523 15.7421875 45.6953125 C13.31139426 55.72528461 8.27604915 64.43754477 -0.51171875 70.1640625 C-7.72845298 73.88539875 -15.07470069 75.30050198 -22.95703125 72.859375 C-31.79362417 68.82674913 -36.9143991 62.5606541 -40.53125 53.67578125 C-43.26453963 46.22536275 -43.52433708 36.73969898 -41.57421875 28.97265625 C-39.11961657 23.68660424 -35.17445307 20.10469586 -29.9296875 17.5703125 C-26.94302435 16.59222398 -24.5784776 16.49481455 -21.4453125 16.5703125 C-19.98158203 16.59738281 -19.98158203 16.59738281 -18.48828125 16.625 C-17.75222656 16.64820313 -17.01617187 16.67140625 -16.2578125 16.6953125 C-16.2578125 14.0553125 -16.2578125 11.4153125 -16.2578125 8.6953125 C-17.0415625 8.5715625 -17.8253125 8.4478125 -18.6328125 8.3203125 C-21.2578125 7.6953125 -21.2578125 7.6953125 -23.2578125 5.6953125 C-23.6328125 3.2578125 -23.6328125 3.2578125 -23.2578125 0.6953125 C-17.4869287 -5.08908625 -7.23633188 -1.45786906 0 0 Z " fill="#68828E" transform="translate(235.2578125,252.3046875)"/>
<path d="M0 0 C0.67119549 1.4562545 1.33681807 2.91507867 2 4.375 C2.37125 5.18710937 2.7425 5.99921875 3.125 6.8359375 C4 9 4 9 4 11 C2.92621094 11.02578125 1.85242187 11.0515625 0.74609375 11.078125 C-9.86589254 11.20868033 -9.86589254 11.20868033 -19 16 C-22.77715746 20.63935898 -22.36319311 25.10422386 -22.265625 30.796875 C-22.26839728 32.74479361 -22.27234058 34.69271084 -22.27734375 36.640625 C-22.26901158 39.69314093 -22.25007169 42.74460995 -22.20947266 45.796875 C-21.99454067 65.03484532 -21.99454067 65.03484532 -26.24609375 70.5546875 C-28.16455078 72.43945312 -28.16455078 72.43945312 -30 74 C-31.27810547 75.46566406 -31.27810547 75.46566406 -32.58203125 76.9609375 C-33.31808594 77.75757813 -34.05414063 78.55421875 -34.8125 79.375 C-37.1161282 81.87291009 -39.11151058 84.16726587 -41 87 C-40.71725862 90.31086259 -40.71725862 90.31086259 -39 93 C-36.38399547 93.12507482 -33.79308066 93.18605405 -31.17553711 93.20532227 C-30.35609116 93.21522186 -29.5366452 93.22512146 -28.69236755 93.23532104 C-25.97072283 93.26703055 -23.24906061 93.29173062 -20.52734375 93.31640625 C-18.64546747 93.33696763 -16.76359589 93.35796388 -14.88172913 93.37937927 C-9.91856689 93.43468426 -4.9553624 93.48405623 0.00787354 93.53222656 C5.06843851 93.58238022 10.1289418 93.63809824 15.18945312 93.69335938 C25.12624945 93.80104395 35.06309923 93.90246589 45 94 C45 97.63 45 101.26 45 105 C33.6299195 105.09272773 22.25992913 105.16377926 10.88954735 105.20724869 C5.60965991 105.22811311 0.3300314 105.25641012 -4.94970703 105.30175781 C-10.04607052 105.345256 -15.14218513 105.36914573 -20.23871994 105.37950897 C-22.18197929 105.38689318 -24.1252252 105.40131288 -26.06837845 105.42292023 C-28.79279135 105.45200697 -31.51617917 105.4559538 -34.24072266 105.45410156 C-35.04201599 105.46848267 -35.84330933 105.48286377 -36.66888428 105.49768066 C-41.91283483 105.45916733 -44.81476383 104.42394932 -49 101 C-52.55704794 97.25573901 -53.34654621 94.14982517 -53.625 89.125 C-53.3083163 81.3038722 -49.85755939 77.64554775 -44.26879883 72.47143555 C-37.93708095 66.29350845 -35.04021884 61.25126749 -34.8125 52.296875 C-34.78440858 48.77595224 -34.87856047 45.26853382 -35 41.75 C-35.04891486 39.07663325 -35.08183024 36.40403305 -35.1003418 33.73028564 C-35.11623317 32.08147731 -35.15138541 30.43268653 -35.21020508 28.78485107 C-35.36951443 21.0965409 -33.62193858 14.00663558 -28.375 8.1875 C-19.95250099 -0.52437963 -11.5726291 -0.5488994 0 0 Z " fill="#00D4D7" transform="translate(53,296)"/>
<path d="M0 0 C0.02578125 0.68964844 0.0515625 1.37929688 0.078125 2.08984375 C0.86150668 15.06905393 6.9133182 25.65919276 16.5 34.5 C21.66484233 38.58246079 27.53512506 40.19189063 34 41 C31.66737047 50.84888022 23.72524811 59.78182794 16 66 C7.83556803 70.83968819 0.582567 74.06306603 -9 73 C-15.34139234 69.88912829 -19.47527297 65.14823784 -21.8125 58.5625 C-25.85145133 43.1030656 -21.73923251 28.80225089 -14.14453125 15.234375 C-4.04347826 0 -4.04347826 0 0 0 Z " fill="#B0B8C5" transform="translate(132,348)"/>
<path d="M0 0 C0.81726563 -0.03738281 1.63453125 -0.07476562 2.4765625 -0.11328125 C9.55106683 0.92596534 14.06183461 4.43308871 18.34692383 9.9987793 C18.87181396 10.72105713 19.3967041 11.44333496 19.9375 12.1875 C20.49397217 12.93620361 21.05044434 13.68490723 21.6237793 14.45629883 C34.37180561 32.02227175 34.37180561 32.02227175 33.375 41.3125 C31.375 43.3125 31.375 43.3125 28.8125 43.375 C19.72849735 40.56721736 14.22226024 32.99961944 8.734375 25.69140625 C6.60642724 23.08868604 6.60642724 23.08868604 3.703125 22.83984375 C1.19298959 23.12632173 1.19298959 23.12632173 -0.625 25.3125 C-1.24173324 28.83755374 -0.77885161 30.08932019 1.2734375 33.06640625 C2.09070313 33.99324219 2.90796875 34.92007813 3.75 35.875 C8.81665299 41.67350287 8.81665299 41.67350287 10.375 45.3125 C8.44113122 46.79663185 6.50321927 48.27487428 4.5625 49.75 C4.01529297 50.17087891 3.46808594 50.59175781 2.90429688 51.02539062 C-3.37010819 55.7787278 -8.91640365 56.14559049 -16.625 55.3125 C-23.55584195 52.85782681 -27.91231022 45.25280365 -31.625 39.3125 C-33.63157164 34.96709972 -34.43866174 31.07065236 -33.625 26.3125 C-29.65925486 15.63873916 -11.42470608 0.33602077 0 0 Z " fill="#AFB8C5" transform="translate(176.625,322.6875)"/>
<path d="M0 0 C3.90131673 2.29744208 6.90474791 4.71071299 8.484375 9.0546875 C9.71680136 16.22516813 7.53696827 21.21042141 3.484375 27.0546875 C2.76894531 27.77269531 2.05351562 28.49070313 1.31640625 29.23046875 C-1.33136252 33.31221037 -0.84456765 36.75096825 -0.578125 41.4921875 C-0.03457742 51.98184449 -0.03457742 51.98184449 -3.515625 57.0546875 C-4.505625 57.3846875 -5.495625 57.7146875 -6.515625 58.0546875 C-9.515625 54.3046875 -9.515625 54.3046875 -9.515625 52.0546875 C-10.15628906 52.1475 -10.79695313 52.2403125 -11.45703125 52.3359375 C-18.40936034 52.91616169 -18.40936034 52.91616169 -21.3515625 50.625 C-22.46910144 49.26759904 -23.55283301 47.88196269 -24.609375 46.4765625 C-29.42543703 40.35779516 -35.70149801 35.20232685 -42.140625 30.8671875 C-45.30234136 28.61799903 -45.45426369 28.32204747 -46.390625 24.2421875 C-46.431875 23.1903125 -46.473125 22.1384375 -46.515625 21.0546875 C-47.175625 20.7246875 -47.835625 20.3946875 -48.515625 20.0546875 C-45.32998626 12.30128105 -35.81383786 8.53624213 -28.765625 4.7421875 C-28.14018799 4.40477539 -27.51475098 4.06736328 -26.87036133 3.71972656 C-18.565265 -0.64174444 -9.20362724 -3.45850589 0 0 Z " fill="#FDFDFE" transform="translate(355.515625,106.9453125)"/>
<path d="M0 0 C5.65119075 6.92270866 5.51564266 13.3964067 5 22 C4.34971699 26.12764388 3.25141273 30.01649535 2 34 C1.62101562 35.24007812 1.24203125 36.48015625 0.8515625 37.7578125 C-1.94259659 46.45180074 -5.57450418 54.63216598 -9.625 62.8125 C-10.09228516 63.7617334 -10.55957031 64.7109668 -11.04101562 65.68896484 C-11.49412109 66.58180176 -11.94722656 67.47463867 -12.4140625 68.39453125 C-12.8157666 69.18706299 -13.2174707 69.97959473 -13.63134766 70.79614258 C-15 73 -15 73 -19 77 C-20.98 73.37 -22.96 69.74 -25 66 C-24.01 64.68 -23.02 63.36 -22 62 C-21.04669797 59.1400939 -20.93944919 57.75170026 -21.11328125 54.83203125 C-21.75916941 39.6740798 -21.75916941 39.6740798 -18.1875 35.1875 C-17.14366885 34.10665356 -16.08296627 33.04163168 -15 32 C-11.7944551 26.97797966 -11.38954772 22.80465147 -12 17 C-12.79627367 13.88126147 -13.15388941 12.53587004 -15.875 10.8125 C-16.57625 10.544375 -17.2775 10.27625 -18 10 C-18.58007812 9.66226563 -19.16015625 9.32453125 -19.7578125 8.9765625 C-25.36468432 6.53454516 -32.34112359 7.24894286 -38.09765625 8.875 C-48.30524668 12.96341567 -57.83217871 18.49830545 -65.96484375 25.91015625 C-68 27 -68 27 -70.296875 26.41015625 C-71.18890625 25.94480469 -72.0809375 25.47945312 -73 25 C-74.17175781 24.43023437 -75.34351563 23.86046875 -76.55078125 23.2734375 C-77.80572317 22.64268135 -79.05961397 22.00983 -80.3125 21.375 C-80.95767578 21.05015625 -81.60285156 20.7253125 -82.26757812 20.390625 C-83.84597541 19.59558044 -85.42311694 18.79804366 -87 18 C-84.46973154 15.01086893 -81.79096321 13.89921988 -78.1796875 12.4765625 C-77.01219971 12.01499756 -75.84471191 11.55343262 -74.6418457 11.07788086 C-73.38653973 10.59278618 -72.13091818 10.10850744 -70.875 9.625 C-70.24395355 9.37944366 -69.6129071 9.13388733 -68.96273804 8.88088989 C-59.115215 5.05341171 -49.24568833 1.60604616 -39 -1 C-37.66001953 -1.34611328 -37.66001953 -1.34611328 -36.29296875 -1.69921875 C-24.86300309 -4.44474713 -10.21503844 -7.076944 0 0 Z " fill="#B0B8C5" transform="translate(375,99)"/>
<path d="M0 0 C13.36519565 1.10210151 26.6940584 2.32112952 40 4 C39.34 4.33 38.68 4.66 38 5 C38.05220703 6.96066406 38.05220703 6.96066406 38.10546875 8.9609375 C38.10083182 13.70730258 37.40387921 18.01928755 36.3125 22.625 C36.13243408 23.3991626 35.95236816 24.1733252 35.7668457 24.97094727 C28.87876871 53.70902841 28.87876871 53.70902841 17 62 C13.5625 62.6875 13.5625 62.6875 10 62 C2.59642498 56.13236478 0.24919289 46.95549181 -1 38 C-1.25140911 33.3294315 -1.23495982 28.67604084 -1.1875 24 C-1.18685547 22.7934375 -1.18621094 21.586875 -1.18554688 20.34375 C-1.15209488 13.50467529 -0.84944256 6.78772052 0 0 Z " fill="#91A2B5" transform="translate(204,112)"/>
<path d="M0 0 C36.79408623 15.63895372 36.79408623 15.63895372 41.8046875 25.66015625 C15.4046875 25.66015625 -10.9953125 25.66015625 -38.1953125 25.66015625 C-38.1953125 4.91015625 -38.1953125 4.91015625 -30.1953125 -3.33984375 C-20.99044492 -8.85116152 -9.04210777 -3.58134292 0 0 Z " fill="#B0B8C5" transform="translate(108.1953125,69.33984375)"/>
<path d="M0 0 C9.50854373 1.27125095 18.83363238 2.66103167 28 5.5625 C28.66322266 5.77221436 29.32644531 5.98192871 30.00976562 6.19799805 C33.01980201 7.19595906 35.34056053 8.22704035 38 10 C30.62498187 39.78848107 30.62498187 39.78848107 20.5625 50.625 C17.05958833 52.50461114 14.91822472 52.62971469 11 52 C4.45856441 47.7947914 2.21943918 38.96695793 0.44262695 31.72973633 C-0.08065496 28.50259068 -0.11205965 25.43754115 -0.09765625 22.16796875 C-0.09443359 20.87568359 -0.09121094 19.58339844 -0.08789062 18.25195312 C-0.07953665 16.89713474 -0.07107172 15.54231703 -0.0625 14.1875 C-0.05748 12.81315265 -0.05291797 11.43880355 -0.04882812 10.06445312 C-0.03705668 6.70959076 -0.02061283 3.35481779 0 0 Z " fill="#91A2B4" transform="translate(245,117)"/>
<path d="M0 0 C0.8075473 -0.00845947 1.6150946 -0.01691895 2.44711304 -0.02563477 C3.32928497 -0.01956207 4.21145691 -0.01348938 5.12036133 -0.00723267 C6.51830429 -0.0151181 6.51830429 -0.0151181 7.94448853 -0.02316284 C11.03062613 -0.03638602 14.11624956 -0.02761646 17.20239258 -0.01748657 C19.34326273 -0.01950664 21.48413221 -0.02241751 23.625 -0.02618408 C28.11408025 -0.03061058 32.60298155 -0.02416581 37.09204102 -0.01016235 C42.85263818 0.0069296 48.61281606 -0.00290983 54.37339783 -0.02087975 C58.79483207 -0.03170871 63.21616655 -0.0282753 67.63760376 -0.02049637 C69.76193287 -0.01849191 71.88627098 -0.02096221 74.0105896 -0.02793503 C76.97711256 -0.03553482 79.94295192 -0.02396577 82.90942383 -0.00723267 C84.23268173 -0.01634171 84.23268173 -0.01634171 85.58267212 -0.02563477 C86.79399307 -0.01294556 86.79399307 -0.01294556 88.02978516 0 C88.73106033 0.00113108 89.43233551 0.00226215 90.15486145 0.00342751 C92.61455079 0.50266127 93.5082214 1.40330815 95.01489258 3.38095093 C95.32739258 6.44345093 95.32739258 6.44345093 95.01489258 9.38095093 C92.33518054 12.06066297 90.28701536 11.63142839 86.64363098 11.66311646 C85.74851303 11.66063904 84.85339508 11.65816162 83.93115234 11.65560913 C82.98958282 11.66072006 82.04801331 11.66583099 81.07791138 11.6710968 C77.95397653 11.6850389 74.83026116 11.68403256 71.70629883 11.68173218 C69.54157936 11.6856166 67.37686065 11.68995073 65.21214294 11.69471741 C60.67004936 11.70218958 56.12803348 11.70188114 51.5859375 11.69662476 C45.75695192 11.69082912 39.92828397 11.70775872 34.09935093 11.73096943 C29.62731558 11.74568072 25.15535718 11.74658202 20.68330193 11.7434597 C18.53384713 11.74397424 16.38438817 11.7492366 14.23495674 11.75927162 C11.23243527 11.7715681 8.23053835 11.76488513 5.22802734 11.75326538 C4.33493362 11.76090912 3.4418399 11.76855286 2.52168274 11.77642822 C1.29557281 11.76590675 1.29557281 11.76590675 0.04469299 11.75517273 C-1.02022952 11.75542434 -1.02022952 11.75542434 -2.10666561 11.75568104 C-4.56661688 11.26494568 -5.46087201 10.33825963 -6.98510742 8.38095093 C-7.36010742 5.88095093 -7.36010742 5.88095093 -6.98510742 3.38095093 C-4.8413186 0.63479986 -3.44663795 0.00555903 0 0 Z " fill="#605F60" transform="translate(53.985107421875,119.61904907226563)"/>
<path d="M0 0 C1.38353165 -0.00788544 1.38353165 -0.00788544 2.79501343 -0.01593018 C5.84325094 -0.02913225 8.89096617 -0.02039197 11.93920898 -0.01025391 C14.05622966 -0.01227441 16.17324966 -0.01518564 18.29026794 -0.01895142 C22.72629424 -0.02337491 27.1621393 -0.01694215 31.59814453 -0.00292969 C37.29033339 0.01417253 42.98209824 0.00431445 48.67427158 -0.01364708 C53.04509185 -0.02447525 57.41581118 -0.02104318 61.78663445 -0.0132637 C63.88584378 -0.01125957 65.98506223 -0.01372843 68.08426094 -0.02070236 C71.01475519 -0.02830201 73.94455744 -0.01673385 76.875 0 C77.74625015 -0.00607269 78.61750031 -0.01214539 79.51515198 -0.0184021 C85.42713524 0.04429442 85.42713524 0.04429442 87.59954739 1.72058678 C89.53623571 4.25708921 89.20131364 6.30018104 88.87280273 9.38818359 C86.1789766 12.08200973 84.08803684 11.63888806 80.42697144 11.67034912 C79.5209317 11.6678717 78.61489197 11.66539429 77.68139648 11.6628418 C76.25200241 11.67050819 76.25200241 11.67050819 74.79373169 11.67832947 C71.63252546 11.6922706 68.47153611 11.69126545 65.31030273 11.68896484 C63.1207674 11.69284899 60.93123281 11.69718307 58.74169922 11.70195007 C54.14833129 11.7094218 49.55504021 11.70911389 44.96166992 11.70385742 C39.06308518 11.69805834 33.16481399 11.71499994 27.26628113 11.7382021 C22.74367419 11.75290255 18.22114344 11.75381623 13.69851685 11.75069237 C11.52311583 11.75120733 9.34771074 11.75647769 7.17233276 11.76650429 C4.13608148 11.77878146 1.10044966 11.77212986 -1.93579102 11.76049805 C-3.29485062 11.77196365 -3.29485062 11.77196365 -4.68136597 11.78366089 C-7.1796875 11.7624054 -7.1796875 11.7624054 -11.12719727 11.38818359 C-13.2748191 8.16675083 -13.68826526 7.1286369 -13.12719727 3.38818359 C-9.52250881 -0.66058455 -5.0165802 -0.03504745 0 0 Z " fill="#606062" transform="translate(60.127197265625,141.61181640625)"/>
<path d="M0 0 C3.06352935 -0.30196605 5.9255199 -0.40920655 8.99194336 -0.38818359 C10.38966728 -0.39606903 10.38966728 -0.39606903 11.81562805 -0.40411377 C14.90720197 -0.41735725 17.99826425 -0.40855956 21.08984375 -0.3984375 C23.23214314 -0.40045715 25.37444186 -0.40336768 27.51673889 -0.40713501 C32.01179535 -0.4115644 36.50667324 -0.40510812 41.00170898 -0.39111328 C46.77018183 -0.37403145 52.53823566 -0.38385251 58.30669308 -0.40183067 C62.7324185 -0.41266064 67.15804427 -0.40922558 71.58377266 -0.4014473 C73.71089286 -0.39944258 75.83802204 -0.40191403 77.96513176 -0.40888596 C80.93655299 -0.41648627 83.90729183 -0.40491549 86.87866211 -0.38818359 C88.20427658 -0.39729263 88.20427658 -0.39729263 89.55667114 -0.40658569 C90.3656636 -0.39812622 91.17465607 -0.38966675 92.00816345 -0.38095093 C92.71073745 -0.37981985 93.41331144 -0.37868877 94.13717556 -0.37752342 C96.59998163 0.12159338 97.51168101 1.00279989 99 3 C98.875 6.0625 98.875 6.0625 98 9 C94.03145958 11.64569361 90.5932846 11.2877346 85.98632812 11.2746582 C84.60301552 11.2823246 84.60301552 11.2823246 83.1917572 11.29014587 C80.13818911 11.30406558 77.08484608 11.30308349 74.03125 11.30078125 C71.91280025 11.30466652 69.79435128 11.30900083 67.67590332 11.31376648 C63.23394242 11.32123355 58.79206099 11.32093361 54.35009766 11.31567383 C48.6500535 11.30987479 42.95033381 11.32681844 37.25034332 11.3500185 C32.87524505 11.36472904 28.50022543 11.36563126 24.12510681 11.36250877 C22.02310035 11.36302321 19.92108962 11.36828379 17.81910706 11.37832069 C14.8837455 11.39061753 11.94902273 11.38393437 9.01367188 11.37231445 C8.14085068 11.37995819 7.26802948 11.38760193 6.36875916 11.39547729 C0.44175027 11.34345356 0.44175027 11.34345356 -1.75841522 9.63286114 C-3 8 -3 8 -2.8125 5.5 C-2 3 -2 3 0 0 Z " fill="#645D5F" transform="translate(366,182)"/>
<path d="M0 0 C12.20422915 -0.06943137 24.4084115 -0.12277636 36.61279774 -0.15543652 C42.27945227 -0.1711097 47.94597193 -0.19237822 53.61254883 -0.22631836 C59.07846596 -0.25885272 64.54425316 -0.27684055 70.01025963 -0.28463173 C72.09832493 -0.29018589 74.18638292 -0.30103145 76.27439308 -0.31719017 C79.19325906 -0.33888562 82.11158429 -0.34197022 85.03051758 -0.34057617 C86.33279297 -0.35675491 86.33279297 -0.35675491 87.66137695 -0.3732605 C93.5681429 -0.34262177 93.5681429 -0.34262177 95.72214794 1.36629772 C97 3 97 3 97.375 5.5 C96.92893692 8.47375386 96.31443693 9.15872517 94 11 C91.00111511 11.28075915 88.21233103 11.3786444 85.21411133 11.34057617 C84.31634476 11.34101425 83.41857819 11.34145233 82.49360657 11.34190369 C79.52286109 11.33981179 76.55267828 11.31646176 73.58203125 11.29296875 C71.52365935 11.28737422 69.46528345 11.28310345 67.40690613 11.28010559 C61.98659252 11.26864555 56.56651968 11.23916829 51.14630127 11.20599365 C45.61644752 11.1753178 40.08655491 11.16160556 34.55664062 11.14648438 C23.70432124 11.1142998 12.85218063 11.06308936 2 11 C1.34 7.37 0.68 3.74 0 0 Z " fill="#635C5E" transform="translate(368,204)"/>
<path d="M0 0 C5.45361014 2.62941917 9.95266104 7.19920629 12 13 C12.53135666 18.52610928 11.71509547 23.17766625 9 28 C5.46329277 32.02452892 1.2643099 34.59890332 -4.06640625 35.25390625 C-9.93412551 35.56168848 -13.24896235 34.44683123 -18 31 C-22.08666096 26.69243845 -23.76314793 23.06399663 -24.4375 17.1875 C-24.30631838 12.23070863 -22.07438139 8.76778806 -19 5 C-12.93910642 -0.49708953 -8.02588706 -0.75636632 0 0 Z " fill="#615D5E" transform="translate(297,255)"/>
<path d="M0 0 C6.02186269 2.00728756 8.83923911 5.81030536 12.3125 10.9375 C14.26624746 16.79874238 12.78018672 21.64876834 10.203125 26.984375 C7.61988822 31.31213533 3.78150705 33.69595262 -1 35 C-6.9483556 35.85628919 -11.27303785 35.11959705 -16.203125 31.609375 C-19.93800394 28.26422256 -22.4736947 24.7060476 -23.44140625 19.73046875 C-23.72893404 14.28599099 -22.44406615 10.22108107 -19 6 C-12.9212223 0.01426481 -8.32580751 -0.63681814 0 0 Z " fill="#615D5E" transform="translate(163,240)"/>
<path d="M0 0 C8.25 0 16.5 0 25 0 C25 14.40330365 20.03565933 31.84111298 10.9375 43.375 C7.90504529 46.08485315 5.82831749 46.86371714 2 48 C1.97494385 46.68805664 1.9498877 45.37611328 1.92407227 44.02441406 C1.82989329 39.15647633 1.72969806 34.28867779 1.62768555 29.42089844 C1.58437642 27.31416073 1.54269847 25.20738883 1.50268555 23.10058594 C1.44488573 20.07216081 1.38121904 17.04390715 1.31640625 14.015625 C1.29969376 13.07382385 1.28298126 12.13202271 1.26576233 11.16168213 C1.24581711 10.28107117 1.22587189 9.40046021 1.20532227 8.49316406 C1.18977798 7.72039124 1.1742337 6.94761841 1.15821838 6.15142822 C1.03680101 3.66347121 1.03680101 3.66347121 0 0 Z " fill="#91A2B5" transform="translate(176,112)"/>
<path d="M0 0 C1.21465942 -0.00630432 2.42931885 -0.01260864 3.68078613 -0.019104 C5.65734192 -0.01303131 5.65734192 -0.01303131 7.67382812 -0.00683594 C9.03381418 -0.0081827 10.39379977 -0.01012333 11.75378418 -0.01263428 C14.6052712 -0.01558503 17.45663299 -0.01128958 20.30810547 -0.00195312 C23.96690589 0.00944152 27.62541292 0.00288177 31.28420258 -0.00909805 C34.09285704 -0.01631805 36.90144172 -0.01402811 39.71009827 -0.00884247 C41.71652415 -0.00685555 43.72295272 -0.01293957 45.72937012 -0.019104 C46.94402954 -0.01279968 48.15868896 -0.00649536 49.41015625 0 C50.48334106 0.00159119 51.55652588 0.00318237 52.66223145 0.00482178 C55.20507812 0.25878906 55.20507812 0.25878906 57.20507812 2.25878906 C57.58007812 5.19628906 57.58007812 5.19628906 57.20507812 8.25878906 C54.15285103 11.30034774 51.80216036 11.63984855 47.58203125 11.6628418 C46.45406128 11.67552597 45.32609131 11.68821014 44.16394043 11.70127869 C42.95032837 11.69834305 41.73671631 11.69540741 40.48632812 11.69238281 C39.23630005 11.69762466 37.98627197 11.70286652 36.69836426 11.70826721 C34.05526235 11.71469122 31.41302369 11.71478435 28.77001953 11.70483398 C25.3869486 11.69333698 22.00492035 11.71356866 18.62198639 11.74275112 C15.38926157 11.76552937 12.15661441 11.75864629 8.92382812 11.75488281 C7.71021606 11.76611679 6.496604 11.77735077 5.24621582 11.78892517 C3.55426086 11.77485374 3.55426086 11.77485374 1.828125 11.76049805 C0.83647339 11.76033188 -0.15517822 11.76016571 -1.17687988 11.75999451 C-4.5231373 11.11937742 -5.71767436 9.90840949 -7.79492188 7.25878906 C-8.16992188 4.63378906 -8.16992188 4.63378906 -7.79492188 2.25878906 C-5.1072065 -0.42892632 -3.75705291 0.0055705 0 0 Z " fill="#606163" transform="translate(54.794921875,164.7412109375)"/>
<path d="M0 0 C1.75708534 -0.01441132 1.75708534 -0.01441132 3.54966736 -0.02911377 C4.8204866 -0.03336365 6.09130585 -0.03761353 7.40063477 -0.04199219 C9.35006737 -0.0505423 9.35006737 -0.0505423 11.33888245 -0.05926514 C14.09197379 -0.06977272 16.84503595 -0.07561716 19.59814453 -0.07910156 C23.12687734 -0.08459012 26.65522502 -0.10862625 30.18383694 -0.13707352 C33.5477626 -0.16016771 36.91163388 -0.16214716 40.27563477 -0.16699219 C41.54442978 -0.17933899 42.81322479 -0.19168579 44.12046814 -0.20440674 C45.88228172 -0.19990509 45.88228172 -0.19990509 47.6796875 -0.1953125 C48.71512192 -0.19895813 49.75055634 -0.20260376 50.81736755 -0.20635986 C53.40454102 0.16113281 53.40454102 0.16113281 55.23890686 1.52716064 C56.90674667 3.86511876 56.8251446 5.35710894 56.40454102 8.16113281 C55.23791504 9.79312134 55.23791504 9.79312134 53.40454102 11.16113281 C50.82409668 11.54208374 50.82409668 11.54208374 47.69555664 11.54931641 C45.93858459 11.56350113 45.93858459 11.56350113 44.14611816 11.57797241 C42.88046021 11.57189972 41.61480225 11.56582703 40.31079102 11.55957031 C38.36348083 11.56387558 38.36348083 11.56387558 36.37683105 11.56826782 C33.62961111 11.57268956 30.88268394 11.5662654 28.13549805 11.55224609 C24.61457261 11.53515373 21.09433319 11.54499579 17.57343292 11.56296349 C14.2149973 11.57641239 10.85674613 11.56699545 7.49829102 11.55957031 C6.23263306 11.56564301 4.9669751 11.5717157 3.66296387 11.57797241 C2.49164917 11.56851593 1.32033447 11.55905945 0.11352539 11.54931641 C-1.43510193 11.54573624 -1.43510193 11.54573624 -3.01501465 11.54208374 C-5.59545898 11.16113281 -5.59545898 11.16113281 -7.46398926 9.86343384 C-8.59545898 8.16113281 -8.59545898 8.16113281 -8.40795898 4.53613281 C-8.13983398 3.42238281 -7.87170898 2.30863281 -7.59545898 1.16113281 C-4.95534022 -0.15892657 -2.95658262 0.01951169 0 0 Z " fill="#615C5D" transform="translate(408.595458984375,225.8388671875)"/>
<path d="M0 0 C0.8432785 -0.01710022 1.68655701 -0.03420044 2.5553894 -0.05181885 C4.34914892 -0.08018407 6.14306513 -0.09977705 7.93701172 -0.11132812 C10.62376578 -0.14002765 13.30318925 -0.23281391 15.98828125 -0.328125 C30.44771789 -0.5898494 39.65927195 3.67909797 51.5546875 11.609375 C43.78352442 11.67886309 36.01243402 11.73218002 28.24103832 11.76481152 C24.63250447 11.7804725 21.02418306 11.80171815 17.41577148 11.83569336 C13.93390628 11.86827217 10.45224549 11.88622475 6.97023964 11.89400673 C4.99426653 11.90225356 3.01837575 11.92567538 1.04252625 11.94926453 C-0.15849228 11.94949112 -1.3595108 11.94971771 -2.59692383 11.94995117 C-4.18577141 11.95994392 -4.18577141 11.95994392 -5.80671692 11.97013855 C-8.4453125 11.609375 -8.4453125 11.609375 -10.28739929 10.24433899 C-11.94462755 7.90434623 -11.86534208 6.40957217 -11.4453125 3.609375 C-8.87544315 -0.56745041 -4.39371088 0.06948965 0 0 Z " fill="#605D5E" transform="translate(58.4453125,342.390625)"/>
<path d="M0 0 C0.97262787 0.00444122 1.94525574 0.00888245 2.94735718 0.01345825 C4.59884262 0.01368484 4.59884262 0.01368484 6.28369141 0.01391602 C7.4764267 0.02423859 8.66916199 0.03456116 9.89804077 0.04519653 C11.11599335 0.04802643 12.33394592 0.05085632 13.58880615 0.05377197 C17.4914621 0.06499647 21.3938913 0.09010531 25.29647827 0.11550903 C27.93709997 0.12553589 30.57772524 0.13466225 33.21835327 0.14285278 C39.70280607 0.16494322 46.18712598 0.19844311 52.67147827 0.24050903 C52.06156936 3.79831099 51.09311017 6.92336793 49.67147827 10.24050903 C42.46329483 10.31645716 35.25521422 10.36906581 28.04672241 10.40530396 C25.59355819 10.42040785 23.14042104 10.44089224 20.68734741 10.46682739 C17.16506272 10.50313961 13.64313446 10.5202194 10.12069702 10.53347778 C8.47057869 10.55670357 8.47057869 10.55670357 6.78712463 10.58039856 C5.255877 10.58073845 5.255877 10.58073845 3.69369507 10.58108521 C2.79434738 10.58774704 1.89499969 10.59440887 0.96839905 10.60127258 C-1.79979049 10.16648968 -2.68407161 9.47586479 -4.32852173 7.24050903 C-4.64102173 4.67800903 -4.64102173 4.67800903 -4.32852173 2.24050903 C-2.32852173 0.24050903 -2.32852173 0.24050903 0 0 Z " fill="#605C5D" transform="translate(51.328521728515625,365.7594909667969)"/>
<path d="M0 0 C6.52689785 3.56245603 11.87495624 8.26791686 17 13.625 C17 13.955 17 14.285 17 14.625 C2.48 14.625 -12.04 14.625 -27 14.625 C-27 5.625 -27 5.625 -25.375 2.75 C-17.72936684 -4.09082967 -9.09439239 -4.16924742 0 0 Z " fill="#FDFDFE" transform="translate(112,80.375)"/>
<path d="M0 0 C6.52940326 2.72268553 9.93488093 6.41743584 12.875 12.75 C13 14.9375 13 14.9375 11.875 16.75 C6.53369134 20.8140392 2.59453198 22.309961 -4.125 21.75 C-10.21442971 19.23023598 -13.51290198 15.82667991 -16.125 9.75 C-16.7521665 7.01834145 -16.97417036 4.56548671 -17.125 1.75 C-11.18190636 -1.72888408 -6.48966837 -2.22014971 0 0 Z " fill="#F980A5" transform="translate(221.125,293.25)"/>
<path d="M0 0 C0.65009033 0.05824951 1.30018066 0.11649902 1.9699707 0.17651367 C3.36858632 0.30613498 4.76646714 0.44388739 6.16357422 0.58886719 C8.44195591 0.81927099 10.72156419 1.00858848 13.00390625 1.1953125 C14.52362594 1.33652824 16.04316406 1.47971371 17.5625 1.625 C18.28066895 1.68260498 18.99883789 1.74020996 19.73876953 1.79956055 C23.11739836 2.16135572 25.14838517 2.63908114 27.87109375 4.72265625 C29.375 6.8125 29.375 6.8125 29.25 9.4375 C28.375 11.8125 28.375 11.8125 26.375 13.8125 C19.1404325 14.70533229 11.59989733 13.65124021 4.375 12.9375 C3.55008057 12.85918945 2.72516113 12.78087891 1.87524414 12.70019531 C1.09141357 12.61608398 0.30758301 12.53197266 -0.5 12.4453125 C-1.19867188 12.37199707 -1.89734375 12.29868164 -2.6171875 12.22314453 C-4.94508866 11.7470344 -6.63171481 11.11343206 -8.625 9.8125 C-9.5625 6.375 -9.5625 6.375 -9.625 2.8125 C-7.18210386 -1.10318912 -4.24583965 -0.38639868 0 0 Z " fill="#92A2B5" transform="translate(114.625,272.1875)"/>
<path d="M0 0 C2 3 2 3 1.9375 5.5 C0.64083499 8.95777337 -0.68140567 9.36186734 -4 11 C-7.27526912 12.05800076 -10.59255868 12.88110846 -13.9375 13.6875 C-15.25911133 14.02491211 -15.25911133 14.02491211 -16.60742188 14.36914062 C-21.13431693 15.48475746 -25.30212162 16.4130003 -30 16 C-31.875 14.8125 -31.875 14.8125 -33 13 C-33.375 10.5 -33.375 10.5 -33 8 C-30.64164076 4.87970932 -28.13412456 4.25986383 -24.4140625 3.359375 C-23.31835938 3.09382813 -22.22265625 2.82828125 -21.09375 2.5546875 C-19.9490625 2.28914063 -18.804375 2.02359375 -17.625 1.75 C-15.91957031 1.32847656 -15.91957031 1.32847656 -14.1796875 0.8984375 C-4.30606829 -1.442491 -4.30606829 -1.442491 0 0 Z " fill="#92A2B5" transform="translate(140,294)"/>
<path d="M0 0 C6.70863335 0.0427983 13.38870629 0.48696317 20.07421875 1.015625 C20.99823486 1.07717773 21.92225098 1.13873047 22.87426758 1.20214844 C26.81944663 1.55058203 29.43757176 1.79606417 32.765625 4.03125 C34.39391132 6.68475364 34.24756142 8.21255679 34.13671875 11.265625 C29.38621056 11.36476074 24.63630899 11.43721764 19.88500977 11.48535156 C18.26999417 11.50542392 16.65505086 11.5326883 15.0402832 11.56738281 C12.71417374 11.61609715 10.38902782 11.63863654 8.0625 11.65625 C7.34459793 11.67689514 6.62669586 11.69754028 5.88703918 11.71881104 C1.00720887 11.7209781 -1.39976544 10.67894493 -4.86328125 7.265625 C-3.80164901 0.54195416 -3.80164901 0.54195416 0 0 Z " fill="#91A2B5" transform="translate(303.86328125,294.734375)"/>
<path d="M0 0 C-0.30782496 1.64671412 -0.62139234 3.29235576 -0.9375 4.9375 C-1.19853516 6.31228516 -1.19853516 6.31228516 -1.46484375 7.71484375 C-2 10 -2 10 -3 11 C-7.73983988 11.80487847 -12.44528885 12.14783426 -17.25 12.3125 C-18.24515625 12.34988281 -19.2403125 12.38726562 -20.265625 12.42578125 C-23.73513201 11.88552944 -24.89863845 10.75992223 -27 8 C-26.83849795 4.60845705 -26.41703243 3.41703243 -24 1 C-16.24145603 -0.69918525 -7.88557957 -0.10226256 0 0 Z " fill="#6A8490" transform="translate(271,363)"/>
<path d="M0 0 C2.39856518 0.04711467 4.79099592 0.11807597 7.1875 0.23046875 C8.07050781 0.26011719 8.95351563 0.28976563 9.86328125 0.3203125 C13.85596408 0.56283101 16.48030312 0.76996845 19.875 2.98046875 C21.1875 5.23046875 21.1875 5.23046875 21.0625 7.85546875 C20.1875 10.23046875 20.1875 10.23046875 18.1875 12.23046875 C14.85992161 12.60159753 11.52815959 12.3782012 8.1875 12.23046875 C6.94033203 12.18599609 6.94033203 12.18599609 5.66796875 12.140625 C1.93735244 11.88696784 -0.2814546 11.58449902 -3.4375 9.48046875 C-4.8125 7.23046875 -4.8125 7.23046875 -4.6875 4.60546875 C-3.69827608 1.92043238 -2.98941579 0.38011968 0 0 Z " fill="#FCFCFD" transform="translate(268.8125,224.76953125)"/>
<path d="M0 0 C0.85916016 0.02771484 1.71832031 0.05542969 2.60351562 0.08398438 C6.57501152 0.30274016 8.89589419 0.45278663 12.16796875 2.83203125 C13.5625 4.9375 13.5625 4.9375 13.4375 7.5625 C12.5625 9.9375 12.5625 9.9375 10.5625 11.9375 C2.6615115 12.81034952 -4.11893857 11.91454194 -11.4375 8.9375 C-12.125 6.125 -12.125 6.125 -12.4375 2.9375 C-9.24078687 -1.51186589 -4.94086513 -0.31364715 0 0 Z " fill="#FCFCFD" transform="translate(180.4375,214.0625)"/>
<path d="M0 0 C5.28957769 1.33785549 8.37760706 6.06961203 11.04638672 10.51757812 C11.04638672 10.84757812 11.04638672 11.17757813 11.04638672 11.51757812 C6.77568114 11.60449886 2.50520214 11.65794327 -1.76611328 11.70507812 C-3.58852539 11.7427832 -3.58852539 11.7427832 -5.44775391 11.78125 C-7.19282227 11.79575195 -7.19282227 11.79575195 -8.97314453 11.81054688 C-10.04669189 11.82625732 -11.12023926 11.84196777 -12.22631836 11.8581543 C-14.95361328 11.51757812 -14.95361328 11.51757812 -16.80395508 10.15551758 C-18.44888681 7.8119527 -18.37315507 6.31452339 -17.95361328 3.51757812 C-14.59090034 -1.79809503 -5.55971457 -0.61815167 0 0 Z " fill="#605D5E" transform="translate(64.95361328125,320.482421875)"/>
</svg>
