<svg width="210" height="36" viewBox="0 0 210 36" fill="none" xmlns="http://www.w3.org/2000/svg">
<path d="M33.2347 9.54545H35.7575L41.6893 24.0341H41.8938L47.8256 9.54545H50.3484V27H48.3711V13.7386H48.2006L42.7461 27H40.837L35.3825 13.7386H35.212V27H33.2347V9.54545ZM59.8022 27.2727C58.5408 27.2727 57.4528 26.9943 56.538 26.4375C55.6289 25.875 54.9272 25.0909 54.4329 24.0852C53.9442 23.0739 53.6999 21.8977 53.6999 20.5568C53.6999 19.2159 53.9442 18.0341 54.4329 17.0114C54.9272 15.983 55.6147 15.1818 56.4954 14.608C57.3817 14.0284 58.4158 13.7386 59.5977 13.7386C60.2795 13.7386 60.9528 13.8523 61.6175 14.0795C62.2823 14.3068 62.8874 14.6761 63.4329 15.1875C63.9783 15.6932 64.413 16.3636 64.7369 17.1989C65.0607 18.0341 65.2227 19.0625 65.2227 20.2841V21.1364H55.1317V19.3977H63.1772C63.1772 18.6591 63.0295 18 62.734 17.4205C62.4442 16.8409 62.0295 16.3835 61.4897 16.0483C60.9556 15.7131 60.3249 15.5455 59.5977 15.5455C58.7965 15.5455 58.1033 15.7443 57.5181 16.142C56.9386 16.5341 56.4925 17.0455 56.18 17.6761C55.8675 18.3068 55.7113 18.983 55.7113 19.7045V20.8636C55.7113 21.8523 55.8817 22.6903 56.2227 23.3778C56.5692 24.0597 57.0494 24.5795 57.663 24.9375C58.2766 25.2898 58.9897 25.4659 59.8022 25.4659C60.3306 25.4659 60.8079 25.392 61.234 25.2443C61.6658 25.0909 62.038 24.8636 62.3505 24.5625C62.663 24.2557 62.9045 23.875 63.0749 23.4205L65.0181 23.9659C64.8136 24.625 64.4698 25.2045 63.9869 25.7045C63.5039 26.1989 62.9073 26.5852 62.1971 26.8636C61.4869 27.1364 60.6886 27.2727 59.8022 27.2727ZM76.5323 21.6477V13.9091H78.5437V27H76.5323V24.7841H76.396C76.0891 25.4489 75.6119 26.0142 74.9641 26.4801C74.3164 26.9403 73.4982 27.1705 72.5096 27.1705C71.6914 27.1705 70.9641 26.9915 70.3278 26.6335C69.6914 26.2699 69.1914 25.7244 68.8278 24.9972C68.4641 24.2642 68.2823 23.3409 68.2823 22.2273V13.9091H70.2937V22.0909C70.2937 23.0455 70.5607 23.8068 71.0948 24.375C71.6346 24.9432 72.3221 25.2273 73.1573 25.2273C73.6573 25.2273 74.1658 25.0994 74.6829 24.8438C75.2056 24.5881 75.6431 24.196 75.9954 23.6676C76.3533 23.1392 76.5323 22.4659 76.5323 21.6477ZM91.5004 16.8409L89.6935 17.3523C89.5799 17.0511 89.4123 16.7585 89.1907 16.4744C88.9748 16.1847 88.6793 15.946 88.3043 15.7585C87.9293 15.571 87.4492 15.4773 86.864 15.4773C86.0629 15.4773 85.3952 15.6619 84.8612 16.0312C84.3327 16.3949 84.0685 16.858 84.0685 17.4205C84.0685 17.9205 84.2504 18.3153 84.614 18.6051C84.9776 18.8949 85.5458 19.1364 86.3185 19.3295L88.2617 19.8068C89.4322 20.0909 90.3043 20.5256 90.8782 21.1108C91.4521 21.6903 91.739 22.4375 91.739 23.3523C91.739 24.1023 91.5231 24.7727 91.0913 25.3636C90.6651 25.9545 90.0685 26.4205 89.3015 26.7614C88.5344 27.1023 87.6424 27.2727 86.6254 27.2727C85.2901 27.2727 84.185 26.983 83.31 26.4034C82.435 25.8239 81.881 24.9773 81.6481 23.8636L83.5572 23.3864C83.739 24.0909 84.0827 24.6193 84.5884 24.9716C85.0998 25.3239 85.7674 25.5 86.5913 25.5C87.5288 25.5 88.2731 25.3011 88.8242 24.9034C89.381 24.5 89.6594 24.017 89.6594 23.4545C89.6594 23 89.5004 22.6193 89.1822 22.3125C88.864 22 88.3754 21.767 87.7163 21.6136L85.5344 21.1023C84.3356 20.8182 83.4549 20.3778 82.8924 19.7812C82.3356 19.179 82.0572 18.4261 82.0572 17.5227C82.0572 16.7841 82.2646 16.1307 82.6793 15.5625C83.0998 14.9943 83.6708 14.5483 84.3924 14.2244C85.1197 13.9006 85.9435 13.7386 86.864 13.7386C88.1594 13.7386 89.1765 14.0227 89.9151 14.5909C90.6594 15.1591 91.1879 15.9091 91.5004 16.8409ZM102.505 27H100.289L106.699 9.54545H108.88L115.289 27H113.074L107.858 12.3068H107.721L102.505 27ZM103.324 20.1818H112.255V22.0568H103.324V20.1818ZM119.747 19.125V27H117.735V13.9091H119.679V15.9545H119.849C120.156 15.2898 120.622 14.7557 121.247 14.3523C121.872 13.9432 122.679 13.7386 123.667 13.7386C124.554 13.7386 125.329 13.9205 125.994 14.2841C126.659 14.642 127.176 15.1875 127.545 15.9205C127.914 16.6477 128.099 17.5682 128.099 18.6818V27H126.088V18.8182C126.088 17.7898 125.821 16.9886 125.287 16.4148C124.752 15.8352 124.02 15.5455 123.088 15.5455C122.446 15.5455 121.872 15.6847 121.366 15.9631C120.866 16.2415 120.471 16.6477 120.181 17.1818C119.892 17.7159 119.747 18.3636 119.747 19.125ZM140.025 21.6477V13.9091H142.036V27H140.025V24.7841H139.888C139.581 25.4489 139.104 26.0142 138.456 26.4801C137.809 26.9403 136.99 27.1705 136.002 27.1705C135.184 27.1705 134.456 26.9915 133.82 26.6335C133.184 26.2699 132.684 25.7244 132.32 24.9972C131.956 24.2642 131.775 23.3409 131.775 22.2273V13.9091H133.786V22.0909C133.786 23.0455 134.053 23.8068 134.587 24.375C135.127 24.9432 135.814 25.2273 136.65 25.2273C137.15 25.2273 137.658 25.0994 138.175 24.8438C138.698 24.5881 139.135 24.196 139.488 23.6676C139.846 23.1392 140.025 22.4659 140.025 21.6477ZM136.002 12.1364L138.081 8.18182H140.434L137.775 12.1364H136.002ZM147.731 19.125V27H145.72V13.9091H147.663V15.9545H147.833C148.14 15.2898 148.606 14.7557 149.231 14.3523C149.856 13.9432 150.663 13.7386 151.652 13.7386C152.538 13.7386 153.314 13.9205 153.978 14.2841C154.643 14.642 155.16 15.1875 155.529 15.9205C155.899 16.6477 156.083 17.5682 156.083 18.6818V27H154.072V18.8182C154.072 17.7898 153.805 16.9886 153.271 16.4148C152.737 15.8352 152.004 15.5455 151.072 15.5455C150.43 15.5455 149.856 15.6847 149.35 15.9631C148.85 16.2415 148.456 16.6477 148.166 17.1818C147.876 17.7159 147.731 18.3636 147.731 19.125ZM165.077 27.2727C163.85 27.2727 162.793 26.983 161.907 26.4034C161.02 25.8239 160.338 25.0256 159.861 24.0085C159.384 22.9915 159.145 21.8295 159.145 20.5227C159.145 19.1932 159.39 18.0199 159.878 17.0028C160.373 15.9801 161.06 15.1818 161.941 14.608C162.827 14.0284 163.861 13.7386 165.043 13.7386C165.963 13.7386 166.793 13.9091 167.532 14.25C168.27 14.5909 168.875 15.0682 169.347 15.6818C169.819 16.2955 170.111 17.0114 170.225 17.8295H168.213C168.06 17.233 167.719 16.7045 167.191 16.2443C166.668 15.7784 165.963 15.5455 165.077 15.5455C164.293 15.5455 163.605 15.75 163.015 16.1591C162.429 16.5625 161.972 17.1335 161.642 17.8722C161.319 18.6051 161.157 19.4659 161.157 20.4545C161.157 21.4659 161.316 22.3466 161.634 23.0966C161.958 23.8466 162.412 24.429 162.998 24.8438C163.588 25.2585 164.282 25.4659 165.077 25.4659C165.6 25.4659 166.074 25.375 166.5 25.1932C166.926 25.0114 167.287 24.75 167.583 24.4091C167.878 24.0682 168.088 23.6591 168.213 23.1818H170.225C170.111 23.9545 169.83 24.6506 169.381 25.2699C168.938 25.8835 168.35 26.3722 167.617 26.7358C166.89 27.0938 166.043 27.2727 165.077 27.2727ZM173.165 27V13.9091H175.176V27H173.165ZM174.188 11.7273C173.796 11.7273 173.458 11.5938 173.174 11.3267C172.895 11.0597 172.756 10.7386 172.756 10.3636C172.756 9.98864 172.895 9.66761 173.174 9.40057C173.458 9.13352 173.796 9 174.188 9C174.58 9 174.915 9.13352 175.194 9.40057C175.478 9.66761 175.62 9.98864 175.62 10.3636C175.62 10.7386 175.478 11.0597 175.194 11.3267C174.915 11.5938 174.58 11.7273 174.188 11.7273ZM184.179 27.2727C182.997 27.2727 181.96 26.9915 181.068 26.429C180.181 25.8665 179.488 25.0795 178.988 24.0682C178.494 23.0568 178.247 21.875 178.247 20.5227C178.247 19.1591 178.494 17.9687 178.988 16.9517C179.488 15.9347 180.181 15.1449 181.068 14.5824C181.96 14.0199 182.997 13.7386 184.179 13.7386C185.36 13.7386 186.395 14.0199 187.281 14.5824C188.173 15.1449 188.866 15.9347 189.36 16.9517C189.86 17.9687 190.11 19.1591 190.11 20.5227C190.11 21.875 189.86 23.0568 189.36 24.0682C188.866 25.0795 188.173 25.8665 187.281 26.429C186.395 26.9915 185.36 27.2727 184.179 27.2727ZM184.179 25.4659C185.076 25.4659 185.815 25.2358 186.395 24.7756C186.974 24.3153 187.403 23.7102 187.681 22.9602C187.96 22.2102 188.099 21.3977 188.099 20.5227C188.099 19.6477 187.96 18.8324 187.681 18.0767C187.403 17.321 186.974 16.7102 186.395 16.2443C185.815 15.7784 185.076 15.5455 184.179 15.5455C183.281 15.5455 182.542 15.7784 181.963 16.2443C181.383 16.7102 180.954 17.321 180.676 18.0767C180.397 18.8324 180.258 19.6477 180.258 20.5227C180.258 21.3977 180.397 22.2102 180.676 22.9602C180.954 23.7102 181.383 24.3153 181.963 24.7756C182.542 25.2358 183.281 25.4659 184.179 25.4659ZM202.453 16.8409L200.647 17.3523C200.533 17.0511 200.365 16.7585 200.144 16.4744C199.928 16.1847 199.632 15.946 199.257 15.7585C198.882 15.571 198.402 15.4773 197.817 15.4773C197.016 15.4773 196.348 15.6619 195.814 16.0312C195.286 16.3949 195.022 16.858 195.022 17.4205C195.022 17.9205 195.203 18.3153 195.567 18.6051C195.931 18.8949 196.499 19.1364 197.272 19.3295L199.215 19.8068C200.385 20.0909 201.257 20.5256 201.831 21.1108C202.405 21.6903 202.692 22.4375 202.692 23.3523C202.692 24.1023 202.476 24.7727 202.044 25.3636C201.618 25.9545 201.022 26.4205 200.255 26.7614C199.488 27.1023 198.596 27.2727 197.578 27.2727C196.243 27.2727 195.138 26.983 194.263 26.4034C193.388 25.8239 192.834 24.9773 192.601 23.8636L194.51 23.3864C194.692 24.0909 195.036 24.6193 195.542 24.9716C196.053 25.3239 196.721 25.5 197.544 25.5C198.482 25.5 199.226 25.3011 199.777 24.9034C200.334 24.5 200.613 24.017 200.613 23.4545C200.613 23 200.453 22.6193 200.135 22.3125C199.817 22 199.328 21.767 198.669 21.6136L196.488 21.1023C195.289 20.8182 194.408 20.3778 193.846 19.7812C193.289 19.179 193.01 18.4261 193.01 17.5227C193.01 16.7841 193.218 16.1307 193.632 15.5625C194.053 14.9943 194.624 14.5483 195.346 14.2244C196.073 13.9006 196.897 13.7386 197.817 13.7386C199.113 13.7386 200.13 14.0227 200.868 14.5909C201.613 15.1591 202.141 15.9091 202.453 16.8409Z" fill="#686868"/>
<path d="M10 21C13 21 18 25 18 25V9C18 9 13 13 10 13M10 21V13M10 21H5C2.791 21 1 20.111 1 17C1 13.889 2.791 13 5 13H10M4 21L7 29H11L8 21M18 20C18.394 20 18.7841 19.9224 19.1481 19.7716C19.512 19.6209 19.8427 19.3999 20.1213 19.1213C20.3999 18.8427 20.6209 18.512 20.7716 18.1481C20.9224 17.7841 21 17.394 21 17C21 16.606 20.9224 16.2159 20.7716 15.8519C20.6209 15.488 20.3999 15.1573 20.1213 14.8787C19.8427 14.6001 19.512 14.3791 19.1481 14.2284C18.7841 14.0776 18.394 14 18 14M10 25C11 25 13 24 13 22" stroke="#686868" stroke-width="2"/>
</svg>
