<svg width="24" height="27" viewBox="0 0 24 27" fill="none" xmlns="http://www.w3.org/2000/svg">
<path fill-rule="evenodd" clip-rule="evenodd" d="M10.5003 2.25C9.14485 2.25013 7.80912 2.61491 6.60451 3.31391C5.3999 4.0129 4.36135 5.02584 3.57549 6.26822C2.78963 7.5106 2.27926 8.94639 2.08696 10.4558C1.89466 11.9652 2.026 13.5045 2.47003 14.9452C2.91406 16.3858 3.6579 17.6862 4.63949 18.7377C5.62108 19.7892 6.81196 20.5614 8.11277 20.9898C9.41358 21.4182 10.7866 21.4905 12.1173 21.2005C13.448 20.9106 14.6977 20.2668 15.7623 19.323L19.4143 23.4315C19.6029 23.6364 19.8555 23.7498 20.1177 23.7473C20.3799 23.7447 20.6307 23.6264 20.8161 23.4178C21.0015 23.2092 21.1066 22.927 21.1089 22.6321C21.1112 22.3371 21.0104 22.0529 20.8283 21.8407L17.1763 17.7323C18.1642 16.3222 18.7794 14.6277 18.9514 12.8427C19.1233 11.0577 18.8451 9.25427 18.1485 7.63885C17.4519 6.02344 16.3651 4.66128 15.0126 3.70826C13.66 2.75524 12.0962 2.24988 10.5003 2.25ZM4.00025 11.8125C4.00025 9.8731 4.68507 8.01314 5.90406 6.64178C7.12305 5.27042 8.77635 4.5 10.5003 4.5C12.2242 4.5 13.8775 5.27042 15.0964 6.64178C16.3154 8.01314 17.0003 9.8731 17.0003 11.8125C17.0003 13.7519 16.3154 15.6119 15.0964 16.9832C13.8775 18.3546 12.2242 19.125 10.5003 19.125C8.77635 19.125 7.12305 18.3546 5.90406 16.9832C4.68507 15.6119 4.00025 13.7519 4.00025 11.8125Z" fill="#686868"/>
</svg>
