<?xml version="1.0" encoding="UTF-8"?>
<svg version="1.1" xmlns="http://www.w3.org/2000/svg" width="1342" height="453">
<path d="M0 0 C0.96228516 0.29406738 1.92457031 0.58813477 2.91601562 0.89111328 C17.92367159 5.54857397 33.03432992 10.88850856 46 20 C46.88170742 20.56768585 46.88170742 20.56768585 47.78122711 21.1468401 C51.25139638 23.86666446 52.8055032 25.97391856 53.6374054 30.36267662 C53.87171212 34.7570857 53.8779984 39.10280122 53.81054688 43.50073242 C53.81020893 45.19483644 53.81294772 46.88894342 53.81851196 48.58303833 C53.82480764 53.20278846 53.78756295 57.82129523 53.74268913 62.44079375 C53.70216722 67.37448186 53.70143096 72.30819075 53.69592285 77.24201965 C53.679267 86.69121617 53.62622087 96.13985779 53.56067514 105.58882743 C53.49051675 115.9678604 53.46229767 126.34684686 53.43736267 136.72607017 C53.29569761 193.15333655 52.69036819 249.57714787 52 306 C49.95501294 305.00068176 48.03981007 304.02730075 46.16015625 302.73828125 C21.63960919 286.07161519 -14.48910634 284.34336628 -43.18896484 281.64575195 C-48.79303654 281.10348173 -48.79303654 281.10348173 -51 280 C-51 276.7 -51 273.4 -51 270 C-21.65458453 267.61223194 -21.65458453 267.61223194 -10 268 C-10.2165625 266.515 -10.2165625 266.515 -10.4375 265 C-11.01970604 261.00773001 -11.50370929 257.00368974 -12 253 C-26.29119154 253.56984814 -40.55672231 254.38340947 -54.82641602 255.33935547 C-56.10444092 255.42459473 -57.38246582 255.50983398 -58.69921875 255.59765625 C-59.84221436 255.67508057 -60.98520996 255.75250488 -62.1628418 255.83227539 C-64.10597177 255.94714763 -66.05347753 256 -68 256 C-67.7834375 257.61068359 -67.7834375 257.61068359 -67.5625 259.25390625 C-67.37476571 260.69007356 -67.18727891 262.12627324 -67 263.5625 C-66.90460938 264.26697266 -66.80921875 264.97144531 -66.7109375 265.69726562 C-66.62070313 266.39658203 -66.53046875 267.09589844 -66.4375 267.81640625 C-66.35371094 268.45006104 -66.26992187 269.08371582 -66.18359375 269.73657227 C-65.93390269 272.81487789 -66 275.91158437 -66 279 C-71.28 279 -76.56 279 -82 279 C-82.68235152 274.22353936 -83.20622375 269.71065383 -83.48071289 264.92236328 C-83.5198732 264.25304779 -83.55903351 263.5837323 -83.59938049 262.89413452 C-83.72677307 260.70301996 -83.84985224 258.51168865 -83.97265625 256.3203125 C-84.06072092 254.78244981 -84.14897589 253.244598 -84.2374115 251.70675659 C-84.42166701 248.49097081 -84.60381523 245.27507464 -84.78442383 242.05908203 C-85.01486888 237.95819602 -85.250258 233.85761203 -85.48720646 229.75709724 C-85.67012473 226.58286146 -85.85054054 223.40848717 -86.03021049 220.23406601 C-86.11599612 218.72311135 -86.20250515 217.21219756 -86.28978157 215.70132828 C-86.72574749 208.12897186 -87.11368159 200.58758502 -87 193 C-84.17845513 192.2218812 -81.51686527 191.80849383 -78.59863281 191.61108398 C-77.7380426 191.55109726 -76.87745239 191.49111053 -75.99078369 191.42930603 C-75.07085632 191.36884598 -74.15092896 191.30838593 -73.203125 191.24609375 C-72.25435486 191.18092056 -71.30558472 191.11574738 -70.32806396 191.04859924 C-67.30226123 190.84152719 -64.2761484 190.63945134 -61.25 190.4375 C-59.19659216 190.29785532 -57.14320643 190.15788524 -55.08984375 190.01757812 C-50.06014436 189.67461108 -45.03016113 189.33612404 -40 189 C-40.33 184.38 -40.66 179.76 -41 175 C-43.13597656 175.144375 -45.27195312 175.28875 -47.47265625 175.4375 C-49.59766273 175.57767471 -51.7227734 175.71615778 -53.84790039 175.85449219 C-55.29756116 175.94974054 -56.74711206 176.04667988 -58.1965332 176.14550781 C-68.15066691 176.82270677 -78.02128759 177.13061854 -88 177 C-88 175.68 -88 174.36 -88 173 C-86.20703125 171.61328125 -86.20703125 171.61328125 -83.8125 170.3125 C-78.16672695 166.81834439 -75.29374664 162.30692429 -73.39453125 155.984375 C-71.89212443 148.42771495 -73.097753 141.65030827 -77 135 C-82.17564177 128.77287345 -88.29456537 125.80358234 -96.21875 124.6875 C-103.18638871 124.29495697 -109.6900158 126.24892495 -115.08203125 130.73046875 C-120.31713327 136.25212372 -122.99764936 142.3926112 -123.375 150 C-123.03898487 157.042317 -120.67568936 163.23378429 -115.890625 168.4296875 C-112.90927809 170.90593018 -109.59110995 172.46709237 -106.07421875 174.0546875 C-104 175 -104 175 -103 176 C-102.75498708 178.62510221 -102.57190764 181.23050808 -102.42749023 183.86181641 C-102.37857635 184.68642868 -102.32966248 185.51104095 -102.27926636 186.36064148 C-102.11764958 189.10736255 -101.96294544 191.85442426 -101.80859375 194.6015625 C-101.69820826 196.51477689 -101.58753215 198.42797453 -101.47657776 200.34115601 C-101.2441264 204.36789533 -101.01505032 208.39480904 -100.78833008 212.421875 C-100.49967263 217.54483919 -100.20310497 222.66730679 -99.90394497 227.78966713 C-99.67342061 231.75157919 -99.44709337 235.7137229 -99.22197151 239.67594528 C-99.11437296 241.56155853 -99.00555167 243.44710246 -98.89541435 245.33256912 C-98.74043819 247.99704621 -98.59112243 250.66178794 -98.44311523 253.32666016 C-98.39793259 254.08467422 -98.35274994 254.84268829 -98.30619812 255.62367249 C-97.90135096 263.10968182 -98 270.46146742 -98 278 C-109.55 278 -121.1 278 -133 278 C-134.22452497 205.57065095 -135.07660376 133.12628604 -135.12293625 60.68603134 C-135.12495553 58.24133701 -135.12868721 55.79665076 -135.13284302 53.35195923 C-135.1554815 38.1227251 -135.09098791 22.89727709 -134.67306137 7.67290688 C-134.61877092 5.67164952 -134.57186295 3.67019615 -134.525177 1.66874695 C-134.48705902 0.46877579 -134.44894104 -0.73119537 -134.40966797 -1.9675293 C-134.37904266 -3.01611618 -134.34841736 -4.06470306 -134.31686401 -5.14506531 C-133.98755507 -8.11212845 -133.31913576 -10.32917856 -132 -13 C-130.265625 -14.109375 -130.265625 -14.109375 -128.25 -14.75 C-127.59515625 -14.97171875 -126.9403125 -15.1934375 -126.265625 -15.421875 C-88.28440606 -25.11363431 -36.70372207 -11.21917913 0 0 Z M-14 97 C-20.54671358 104.32016497 -23.39383548 113.17584703 -23.0625 122.9375 C-21.82342924 132.99353743 -17.1386908 140.73430243 -9.63671875 147.37890625 C-7.16546221 148.89827138 -5.0770081 149.71672133 -2.33520508 150.60131836 C-1.52368484 150.86512802 -0.71216461 151.12893768 0.12394714 151.40074158 C0.74304459 151.59849686 1.36214203 151.79625214 2 152 C2.05534912 153.28052246 2.11069824 154.56104492 2.16772461 155.88037109 C2.37550773 160.67021108 2.58699853 165.45988163 2.79956055 170.24951172 C2.89072809 172.31522311 2.98091488 174.38097805 3.07006836 176.44677734 C3.19902481 179.43078647 3.3316082 182.41461673 3.46484375 185.3984375 C3.50343002 186.30927094 3.5420163 187.22010437 3.58177185 188.15853882 C3.85300979 194.13192482 4.34520639 200.05653493 5 206 C3.90534424 206.05534912 2.81068848 206.11069824 1.68286133 206.16772461 C-2.38943841 206.37461228 -6.46147344 206.58636225 -10.53344727 206.79956055 C-12.29379574 206.89105138 -14.05421272 206.98123432 -15.81469727 207.07006836 C-18.34931394 207.19819499 -20.88364475 207.33106725 -23.41796875 207.46484375 C-24.20149216 207.50343002 -24.98501556 207.5420163 -25.7922821 207.58177185 C-29.6627799 207.79069981 -33.17845884 208.23569177 -37 209 C-36.67 213.95 -36.34 218.9 -36 224 C-27.42211041 224.11306533 -18.91462509 223.72924631 -10.35791016 223.20043945 C-8.13593303 223.0631754 -5.91371656 222.93057693 -3.69140625 222.79882812 C4.88012322 222.28339055 13.43915123 221.67089799 22 221 C21.94362366 220.03518959 21.94362366 220.03518959 21.8861084 219.05088806 C21.49162736 212.28511334 21.10326235 205.51900621 20.71826172 198.75268555 C20.57428523 196.23599591 20.42881029 193.71939149 20.28173828 191.20288086 C18.71606555 164.37875319 18.71606555 164.37875319 19 152 C20.670625 151.5359375 20.670625 151.5359375 22.375 151.0625 C29.52136585 148.36671786 35.95864845 142.65378114 39.5 135.875 C40.03343156 134.59677719 40.5362029 133.30510346 41 132 C41.4125 130.88625 41.825 129.7725 42.25 128.625 C44.13471636 119.51553761 43.38411482 110.67687554 38.55859375 102.58203125 C33.11300624 95.03907129 25.55099913 89.24825628 16.2734375 87.48046875 C4.35300359 86.27557314 -5.00213758 88.88613809 -14 97 Z M-57 152 C-57.020625 153.2375 -57.04125 154.475 -57.0625 155.75 C-57.07410156 156.44609375 -57.08570313 157.1421875 -57.09765625 157.859375 C-56.99849799 160.03292403 -56.59693851 161.91306537 -56 164 C-50.87416389 164.10251672 -46.05002222 164.03590199 -41 163 C-40.97311849 161.35425434 -40.95365877 159.70838587 -40.9375 158.0625 C-40.92589844 157.14597656 -40.91429687 156.22945312 -40.90234375 155.28515625 C-40.74050951 153.03406673 -40.74050951 153.03406673 -42 152 C-44.53049402 151.92686433 -47.03304837 151.90752473 -49.5625 151.9375 C-50.27341797 151.94201172 -50.98433594 151.94652344 -51.71679688 151.95117188 C-53.47790013 151.96299136 -55.23896036 151.98092737 -57 152 Z M-31 187 C-30.67 190.96 -30.34 194.92 -30 199 C-27.87506859 199.02693575 -25.75004088 199.04636628 -23.625 199.0625 C-21.84996094 199.07990234 -21.84996094 199.07990234 -20.0390625 199.09765625 C-17.08078479 199.21466593 -17.08078479 199.21466593 -15 198 C-15 194.37 -15 190.74 -15 187 C-20.28 187 -25.56 187 -31 187 Z M-73.48046875 213.39453125 C-77.75641538 218.34760726 -79.47593894 222.16533757 -79.31640625 228.62109375 C-78.63371681 233.75390692 -76.28095046 237.56834949 -72.875 241.375 C-67.27745551 244.53882949 -61.5332727 245.78190908 -55.25 244.0625 C-50.5267479 242.13976021 -47.49733877 239.4434255 -45 235 C-42.80363031 229.61301918 -42.54065605 225.2055915 -44.4375 219.6875 C-46.59882194 215.02783644 -49.35304445 212.19099878 -54 210 C-60.82902168 207.94466338 -68.05036861 208.27963481 -73.48046875 213.39453125 Z M-36 233 C-35.67 236.96 -35.34 240.92 -35 245 C-29.51547704 245.07411518 -24.39097682 245.13494249 -19 244 C-19.33 240.37 -19.66 236.74 -20 233 C-25.28 233 -30.56 233 -36 233 Z " fill="#002E2A" transform="translate(238,89)"/>
<path d="M0 0 C2.84539724 4.35461132 2.28179033 10.24418132 2.28323364 15.25715637 C2.28479363 15.99169672 2.28635362 16.72623707 2.28796089 17.48303622 C2.29193865 19.93768603 2.28879258 22.39227359 2.28564453 24.84692383 C2.28700097 26.61471086 2.28878227 28.3824976 2.29095459 30.15028381 C2.29552763 34.97393933 2.29373262 39.7975735 2.2905755 44.62122941 C2.28801871 49.76324913 2.29040156 54.90526718 2.29196167 60.04728699 C2.2937873 68.7711926 2.29138086 77.49508981 2.28662109 86.21899414 C2.28189408 94.97909101 2.28169387 103.73917081 2.28662109 112.49926758 C2.31927423 171.93011053 1.958594 231.34398696 1.15625 290.76953125 C-10.72375 290.76953125 -22.60375 290.76953125 -34.84375 290.76953125 C-33.96875 274.14453125 -33.96875 274.14453125 -33.54269409 266.08737183 C-33.13088806 258.29178113 -32.72728957 250.49586303 -32.3359375 242.69921875 C-31.60932946 228.29672287 -30.8609557 213.90072405 -29.78125 199.51953125 C-29.70197266 198.44219727 -29.62269531 197.36486328 -29.54101562 196.25488281 C-29.46431641 195.28518555 -29.38761719 194.31548828 -29.30859375 193.31640625 C-29.242771 192.47948242 -29.17694824 191.64255859 -29.10913086 190.78027344 C-28.84375 188.76953125 -28.84375 188.76953125 -27.84375 186.76953125 C-26.1015625 185.953125 -26.1015625 185.953125 -23.96875 185.20703125 C-23.27007812 184.95824219 -22.57140625 184.70945312 -21.8515625 184.453125 C-20.18445587 183.88553033 -18.51445865 183.32643413 -16.84375 182.76953125 C-16.84375 182.10953125 -16.84375 181.44953125 -16.84375 180.76953125 C-16.245625 180.21265625 -15.6475 179.65578125 -15.03125 179.08203125 C-10.54523668 174.33967431 -8.86776128 168.21655901 -8.84375 161.76953125 C-9.42150895 154.72338411 -12.176108 149.05133667 -16.84375 143.76953125 C-23.61415237 138.30112934 -30.25038561 136.87208404 -38.84375 137.76953125 C-45.04380216 139.50123902 -51.56473591 141.9479192 -54.9921875 147.6953125 C-58.86550909 155.20845756 -60.18156661 162.1281359 -58.1953125 170.50390625 C-55.76856722 177.34857241 -52.05489059 181.57499319 -45.625 184.92578125 C-45.0371875 185.20421875 -44.449375 185.48265625 -43.84375 185.76953125 C-43.84375 187.08953125 -43.84375 188.40953125 -43.84375 189.76953125 C-59.57724026 190.1486515 -75.16256229 188.97082607 -90.84375 187.76953125 C-91.17375 192.38953125 -91.50375 197.00953125 -91.84375 201.76953125 C-90.59762939 201.85517334 -89.35150879 201.94081543 -88.06762695 202.02905273 C-83.43621184 202.34821593 -78.80510231 202.67163915 -74.17407227 202.99633789 C-72.17122321 203.13616952 -70.16829357 203.27485195 -68.1652832 203.41235352 C-65.28314515 203.61040666 -62.40132395 203.81261602 -59.51953125 204.015625 C-58.62663895 204.07608505 -57.73374664 204.1365451 -56.813797 204.19883728 C-55.97330307 204.25882401 -55.13280914 204.31881073 -54.2668457 204.38061523 C-53.53182327 204.4316893 -52.79680084 204.48276337 -52.039505 204.53538513 C-49.60032848 204.7954887 -47.24137735 205.25659896 -44.84375 205.76953125 C-45.44980892 221.60567668 -46.22290729 237.4267786 -47.14599609 253.24755859 C-47.34645013 256.69091342 -47.5425159 260.13450075 -47.73828125 263.578125 C-47.86692847 265.80600456 -47.99582531 268.03386971 -48.125 270.26171875 C-48.182323 271.27225311 -48.239646 272.28278748 -48.29870605 273.32394409 C-48.66239133 279.49349439 -49.19040271 285.62372038 -49.84375 291.76953125 C-55.12375 292.09953125 -60.40375 292.42953125 -65.84375 292.76953125 C-67.11840247 290.22022631 -66.79327207 288.80604087 -66.50390625 285.98046875 C-66.3637207 284.56894531 -66.3637207 284.56894531 -66.22070312 283.12890625 C-66.11693359 282.1440625 -66.01316406 281.15921875 -65.90625 280.14453125 C-65.75639648 278.65566406 -65.75639648 278.65566406 -65.60351562 277.13671875 C-65.35552235 274.68040444 -65.10204747 272.22477988 -64.84375 269.76953125 C-67.91142617 268.90040838 -70.79911131 268.56167652 -73.97949219 268.38061523 C-75.00024841 268.32062851 -76.02100464 268.26064178 -77.07269287 268.19883728 C-78.16761047 268.13837723 -79.26252808 268.07791718 -80.390625 268.015625 C-81.5169635 267.95045181 -82.643302 267.88527863 -83.80377197 267.81813049 C-87.40023663 267.61085319 -90.99697691 267.40887872 -94.59375 267.20703125 C-97.0325721 267.0674065 -99.47137448 266.92743675 -101.91015625 266.78710938 C-107.88779934 266.44391341 -113.86569502 266.10547291 -119.84375 265.76953125 C-120.50375 270.71953125 -121.16375 275.66953125 -121.84375 280.76953125 C-119.2140625 280.70765625 -119.2140625 280.70765625 -116.53125 280.64453125 C-104.60859492 280.61987219 -92.71883277 281.80328344 -80.84375 282.76953125 C-80.98417877 284.41583453 -81.13124329 286.06157304 -81.28125 287.70703125 C-81.40306641 289.08181641 -81.40306641 289.08181641 -81.52734375 290.484375 C-81.84375 292.76953125 -81.84375 292.76953125 -82.84375 293.76953125 C-85.17271709 294.0959113 -87.48558915 294.36580337 -89.82421875 294.6015625 C-91.30269397 294.75930063 -92.78112657 294.91743867 -94.25952148 295.07592773 C-95.038508 295.15817596 -95.81749451 295.24042419 -96.62008667 295.32516479 C-111.15369124 296.87346119 -125.54453295 298.67979326 -139.84375 301.76953125 C-140.69952637 301.9509668 -141.55530273 302.13240234 -142.43701172 302.31933594 C-151.4830908 304.27715749 -160.20200449 306.60683263 -168.71875 310.26953125 C-169.35474121 310.54192627 -169.99073242 310.81432129 -170.64599609 311.0949707 C-173.84079255 312.55742595 -176.51368496 314.2142413 -179.1640625 316.48828125 C-181.84375 318.76953125 -181.84375 318.76953125 -183.84375 318.76953125 C-184.63743306 275.02769301 -185.09522743 231.28928416 -185.36115873 187.54128838 C-185.39573877 181.8860712 -185.43286602 176.23087489 -185.47143555 170.57568359 C-185.48786234 168.1572889 -185.50428336 165.73889416 -185.52070355 163.32049942 C-185.53163697 161.71155909 -185.54260023 160.10261897 -185.5535934 158.49367905 C-185.61280369 149.7806464 -185.66575394 141.0676592 -185.70059204 132.35449219 C-185.71010535 130.03188433 -185.71965943 127.70927664 -185.72926402 125.38666916 C-185.73558783 123.85084458 -185.74178613 122.31501948 -185.74785733 120.77919388 C-185.78888773 110.80416943 -185.88994082 100.83190214 -186.04778767 90.85805511 C-186.12867798 85.68513774 -186.18582608 80.51204456 -186.23580092 75.33874369 C-186.27064258 71.88281233 -186.3180563 68.42811285 -186.39697456 64.97288513 C-186.47754472 61.20745308 -186.51501257 57.44387167 -186.54272461 53.67773438 C-186.57746069 52.5809285 -186.61219677 51.48412262 -186.64798546 50.3540802 C-186.64325684 44.76419449 -186.16730662 41.47301363 -182.46022034 37.15441895 C-155.52663885 10.33397933 -36.27246852 -24.20726183 0 0 Z M-166.03125 109.26953125 C-172.21658386 115.86966067 -175.09130379 123.45311649 -175.34375 132.45703125 C-174.92392862 141.72624537 -172.13039325 149.79983219 -165.84375 156.76953125 C-160.70606894 160.86609632 -156.53153575 163.98725357 -149.84375 163.76953125 C-149.8938623 164.54325577 -149.94397461 165.31698029 -149.99560547 166.114151 C-150.46876024 173.42575346 -150.93975416 180.73749045 -151.40835571 188.04938602 C-151.64931075 191.80798513 -151.89108447 195.56652775 -152.13476562 199.32495117 C-152.37014567 202.95581808 -152.60332756 206.58682023 -152.83502197 210.21792412 C-152.92354979 211.59935931 -153.01285342 212.98074502 -153.10296631 214.36207771 C-153.22958737 216.3051336 -153.35312911 218.2483894 -153.4765625 220.19165039 C-153.54762207 221.29529434 -153.61868164 222.39893829 -153.69189453 223.536026 C-153.85230857 226.95177158 -153.8691519 230.350527 -153.84375 233.76953125 C-147.49440096 234.20194766 -141.14467921 234.62854319 -134.79467773 235.05126953 C-132.63866516 235.19546608 -130.48273824 235.34094988 -128.3269043 235.48779297 C-125.21164746 235.69975444 -122.09610246 235.90694231 -118.98046875 236.11328125 C-118.03104904 236.17890259 -117.08162933 236.24452393 -116.10343933 236.31213379 C-109.67495639 236.73176124 -103.28514941 236.84329388 -96.84375 236.76953125 C-96.09776289 233.24609733 -95.73317028 230.06301039 -95.78125 226.45703125 C-95.80208333 224.89453125 -95.82291667 223.33203125 -95.84375 221.76953125 C-104.72832595 220.90060405 -113.62369177 220.28611799 -122.53125 219.70703125 C-129.6159375 219.24296875 -129.6159375 219.24296875 -136.84375 218.76953125 C-135.35875 192.03953125 -135.35875 192.03953125 -133.84375 164.76953125 C-130.87375 163.77953125 -127.90375 162.78953125 -124.84375 161.76953125 C-117.86740555 157.26142563 -112.84127151 150.83992128 -110.2421875 142.94140625 C-108.35827106 132.6722147 -109.39218075 122.75868054 -114.84375 113.76953125 C-121.49544966 105.1322496 -128.98199518 101.7694805 -139.5234375 100.06640625 C-149.33156011 98.81149494 -158.85523973 102.80441545 -166.03125 109.26953125 Z M-90.84375 163.76953125 C-91.17375 167.72953125 -91.50375 171.68953125 -91.84375 175.76953125 C-86.45244279 176.43307675 -81.27285999 176.88504423 -75.84375 176.76953125 C-75.51375 172.80953125 -75.18375 168.84953125 -74.84375 164.76953125 C-80.12375 164.43953125 -85.40375 164.10953125 -90.84375 163.76953125 Z M-116.84375 199.76953125 C-117.17375 203.72953125 -117.50375 207.68953125 -117.84375 211.76953125 C-112.56375 211.76953125 -107.28375 211.76953125 -101.84375 211.76953125 C-101.84375 208.13953125 -101.84375 204.50953125 -101.84375 200.76953125 C-106.92472726 199.7272795 -111.68065648 199.69130256 -116.84375 199.76953125 Z M-85.84375 228.76953125 C-88.67805687 233.60323288 -89.31033365 238.10183633 -88.41015625 243.59765625 C-87.10408101 248.60577925 -84.9701694 252.36600025 -80.46875 255.14453125 C-74.03350112 258.02929799 -69.37798483 258.19541484 -62.84375 255.76953125 C-58.50886165 253.39761121 -55.81768209 251.34074239 -53.84375 246.76953125 C-52.29557235 240.2450683 -52.93897036 234.8622279 -55.84375 228.76953125 C-58.7143818 225.24087497 -62.46380578 222.94463824 -66.84375 221.76953125 C-74.26957595 221.08195477 -80.62047393 223.40116417 -85.84375 228.76953125 Z M-111.84375 245.76953125 C-112.17375 249.39953125 -112.50375 253.02953125 -112.84375 256.76953125 C-110.92726538 256.93827832 -109.01055367 257.10444768 -107.09375 257.26953125 C-106.02640625 257.36234375 -104.9590625 257.45515625 -103.859375 257.55078125 C-101.5258282 257.72005408 -99.18342818 257.76953125 -96.84375 257.76953125 C-96.51375 253.80953125 -96.18375 249.84953125 -95.84375 245.76953125 C-101.12375 245.76953125 -106.40375 245.76953125 -111.84375 245.76953125 Z " fill="#002E2A" transform="translate(519.84375,76.23046875)"/>
<path d="M0 0 C22.44 0 44.88 0 68 0 C68 5.28 68 10.56 68 16 C61.07 16 54.14 16 47 16 C47 27.22 47 38.44 47 50 C71.75 50 96.5 50 122 50 C122 38.78 122 27.56 122 16 C115.4 16 108.8 16 102 16 C102 10.72 102 5.44 102 0 C124.11 0 146.22 0 169 0 C169 5.28 169 10.56 169 16 C162.4 16 155.8 16 149 16 C149 46.03 149 76.06 149 107 C155.6 107 162.2 107 169 107 C169 112.28 169 117.56 169 123 C146.89 123 124.78 123 102 123 C102 117.72 102 112.44 102 107 C108.6 107 115.2 107 122 107 C122 93.47 122 79.94 122 66 C97.25 66 72.5 66 47 66 C47 79.53 47 93.06 47 107 C53.93 107 60.86 107 68 107 C68 112.28 68 117.56 68 123 C45.56 123 23.12 123 0 123 C0 117.72 0 112.44 0 107 C6.6 107 13.2 107 20 107 C20 76.97 20 46.94 20 16 C13.4 16 6.8 16 0 16 C0 10.72 0 5.44 0 0 Z " fill="#002E2A" transform="translate(1162,159)"/>
<path d="M0 0 C4.51285367 0.07091627 7.6117574 0.45187754 11.3125 3.25 C15.4994062 10.0776081 14.67925762 17.53842886 14.57714844 25.3034668 C14.56803571 26.84551829 14.56026042 28.38757817 14.55370998 29.92964268 C14.53200192 34.13581656 14.49140984 38.34162436 14.44757056 42.54761791 C14.4041153 47.03189499 14.37818554 51.51627607 14.35017395 56.00067139 C14.29335664 64.65709888 14.22055305 73.31331824 14.14197105 81.96957266 C14.0522657 91.91160591 13.9780027 101.85373528 13.90465415 111.79590046 C13.78028183 128.59776014 13.6429939 145.39948251 13.49755859 162.20117188 C13.34953028 179.3153739 13.22574502 196.42959418 13.1200515 213.54410523 C13.06875886 221.80616752 13.00994625 230.06817554 12.94937706 238.33017445 C12.90746924 244.05077933 12.86789454 249.77137286 12.83459473 255.49203491 C12.80362605 260.73037415 12.76330953 265.96855473 12.7152462 271.20676422 C12.69964709 273.07279214 12.68732063 274.938851 12.67865944 276.80492401 C12.66659603 279.30428547 12.64260545 281.80325353 12.61547852 284.30249023 C12.61488811 285.01424754 12.61429771 285.72600485 12.61368942 286.45933056 C12.51471927 293.24762966 11.30934037 298.80709073 6.75 303.9375 C6.12996094 304.66324219 5.50992188 305.38898438 4.87109375 306.13671875 C-1.72094982 311.58144482 -8.46592963 312.87720809 -16.82421875 312.65234375 C-17.80710373 312.63872299 -18.78998871 312.62510223 -19.80265808 312.61106873 C-32.73215151 312.33006209 -45.6161463 311.13302758 -58.49212646 309.99047852 C-86.08945627 307.54424288 -113.48354037 306.06725317 -141.19433594 306.11962891 C-144.58272704 306.12503226 -147.97098762 306.11961377 -151.359375 306.11328125 C-169.85901576 306.10565105 -188.1055876 306.59753969 -206.4375 309.1875 C-207.71109375 309.35701172 -208.9846875 309.52652344 -210.296875 309.70117188 C-216.55648003 310.55860736 -222.58584367 311.62337361 -228.6875 313.25 C-231.6875 313.375 -231.6875 313.375 -233.6875 313.25 C-235.45212683 310.16190305 -235.6875 309.01687864 -235.6875 305.25 C-173.12760385 281.26700555 -99.4795305 284.08965818 -33.75390625 289.93359375 C-32.54806885 290.03881348 -31.34223145 290.1440332 -30.09985352 290.25244141 C-27.91755914 290.45073245 -25.73671437 290.66620588 -23.55834961 290.90380859 C-17.66978394 291.46166744 -13.80912389 291.37609756 -8.6875 288.25 C-6.74568847 285.2472556 -6.43574089 282.87789195 -6.42858028 279.34088612 C-6.41830709 277.85116345 -6.41830709 277.85116345 -6.40782636 276.33134538 C-6.41044322 275.2425405 -6.41306007 274.15373562 -6.41575623 273.03193665 C-6.41066939 271.87357919 -6.40558255 270.71522174 -6.40034157 269.52176255 C-6.38820242 266.30604731 -6.38498534 263.09046409 -6.38548481 259.87473047 C-6.38384852 256.40710695 -6.37072412 252.93952507 -6.35894775 249.47192383 C-6.34007553 243.46368377 -6.32836965 237.45546404 -6.32140923 231.44719887 C-6.31124698 222.75914769 -6.28918958 214.07115812 -6.26402331 205.38313892 C-6.22342037 191.28628196 -6.1909595 177.18941913 -6.16430664 163.0925293 C-6.16270934 162.24870963 -6.16111204 161.40488997 -6.15946633 160.53550001 C-6.15786743 159.69059814 -6.15626853 158.84569626 -6.15462118 157.9751913 C-6.1319203 145.98890839 -6.10728928 134.00263153 -6.08032227 122.01635742 C-6.07842612 121.17265397 -6.07652997 120.32895052 -6.07457637 119.4596803 C-6.04284279 105.41235569 -6.00709766 91.36504294 -5.96928078 77.31773347 C-5.94619795 68.64665721 -5.92725925 59.97558909 -5.91361404 51.30449273 C-5.90411367 45.36945231 -5.89128821 39.4344255 -5.87580519 33.49939767 C-5.86700699 30.0704677 -5.85992408 26.64155465 -5.85716438 23.21261406 C-5.85338341 19.50408655 -5.84359722 15.79562334 -5.83226013 12.08711243 C-5.83264626 10.99161538 -5.8330324 9.89611833 -5.83343023 8.7674244 C-5.82918918 7.7820992 -5.82494814 6.796774 -5.82057858 5.78159046 C-5.81900468 4.92445165 -5.81743078 4.06731283 -5.81580919 3.18420011 C-5.56478552 -0.59986256 -3.28008173 0.05883555 0 0 Z " fill="#002E2A" transform="translate(569.6875,124.75)"/>
<path d="M0 0 C1.49080078 0.016073 1.49080078 0.016073 3.01171875 0.0324707 C4.15060547 0.05313599 4.15060547 0.05313599 5.3125 0.07421875 C5.31385653 0.66576846 5.31521306 1.25731817 5.31661069 1.86679363 C5.39726985 36.93086833 5.48822819 71.99490159 5.59255161 107.05891407 C5.6050704 111.26958181 5.61750319 115.48024981 5.62988281 119.69091797 C5.6335818 120.94831437 5.6335818 120.94831437 5.63735552 122.23111272 C5.67707359 135.80216965 5.70982515 149.3732349 5.73999982 162.94431603 C5.77111954 176.87065247 5.80973119 190.79695363 5.85529006 204.72325039 C5.88316384 213.31573314 5.9052017 221.9081901 5.91976251 230.5007059 C5.93030884 236.39380616 5.9481358 242.28685646 5.97166704 248.17991906 C5.98502664 251.57932155 5.99519614 254.97865404 5.99671364 258.37808418 C6.00003684 262.06693216 6.01551653 265.75553742 6.0340271 269.44433594 C6.03209237 270.51438968 6.03015763 271.58444342 6.02816427 272.68692303 C6.07176171 278.49619817 6.64015906 283.50346914 8.3125 289.07421875 C13.20653935 290.68900331 16.85698554 291.26379553 22.0625 290.82421875 C23.06192627 290.746875 23.06192627 290.746875 24.08154297 290.66796875 C25.61238958 290.54877875 27.14281073 290.42404453 28.67285156 290.29492188 C32.78179939 289.95136945 36.89320001 289.64188316 41.00488281 289.33300781 C43.19988338 289.16752413 45.39458519 288.99799598 47.58886719 288.82324219 C66.94377276 287.33170368 86.28042132 286.86745295 105.6875 286.88671875 C107.38845825 286.88762512 107.38845825 286.88762512 109.1237793 286.8885498 C199.20056706 287.01825228 199.20056706 287.01825228 235.3125 305.07421875 C234.9825 307.38421875 234.6525 309.69421875 234.3125 312.07421875 C230.09636621 313.23404738 227.1682456 312.81171544 222.9375 311.82421875 C216.36919255 310.39744518 209.78636482 309.34159663 203.125 308.44921875 C202.25504395 308.32643555 201.38508789 308.20365234 200.48876953 308.07714844 C183.15448108 305.81737228 165.60852232 305.91191433 148.16064453 305.94384766 C144.71251972 305.94918006 141.264527 305.94388086 137.81640625 305.9375 C110.62171278 305.92527048 83.75937771 307.54713433 56.68139648 309.99291992 C43.62922236 311.16357299 30.5901059 312.29506107 17.48046875 312.4765625 C16.12300285 312.51300621 16.12300285 312.51300621 14.7381134 312.55018616 C7.30926093 312.55119625 1.83156461 310.23364476 -4.4375 306.38671875 C-12.08047848 298.53143531 -12.45103282 290.1789743 -12.48022461 279.734375 C-12.5022832 278.19056835 -12.52635365 276.64678934 -12.55226803 275.1030426 C-12.61523 270.94848723 -12.64689349 266.79426355 -12.67069387 262.63932037 C-12.69292154 259.24673393 -12.7306362 255.85439271 -12.76814717 252.46194649 C-12.88807427 241.47350562 -12.9444565 230.48503725 -12.99082303 219.49607849 C-13.01331496 214.36553538 -13.04042322 209.23501611 -13.06687927 204.10449219 C-13.11074104 195.47510923 -13.15154731 186.84571645 -13.19018555 178.21630859 C-13.22923481 169.49786982 -13.27075921 160.77944821 -13.31518555 152.06103516 C-13.32062209 150.99267237 -13.32605863 149.92430958 -13.33165991 148.82357216 C-13.34261174 146.67255146 -13.35356583 144.52153078 -13.36452222 142.3705101 C-13.45914346 123.75421807 -13.54164467 105.13792344 -13.60870481 86.52151108 C-13.64688133 75.94064128 -13.69371933 65.36000785 -13.77142793 54.77934837 C-13.81834427 48.37763053 -13.85259757 41.97592142 -13.88120842 35.57409668 C-13.89511206 33.06616744 -13.91421943 30.55826072 -13.93896675 28.05041504 C-13.97151035 24.70799622 -13.98606658 21.36598799 -13.99584961 18.0234375 C-14.00994055 17.07025131 -14.02403149 16.11706512 -14.03854942 15.13499451 C-14.032032 10.27566274 -13.86473849 7.01469132 -10.6875 3.07421875 C-7.25855542 -0.03326228 -4.4443389 -0.06209003 0 0 Z " fill="#002E2A" transform="translate(55.6875,124.92578125)"/>
<path d="M0 0 C47.85 0 95.7 0 145 0 C145 12.54 145 25.08 145 38 C137.74 38 130.48 38 123 38 C123 30.74 123 23.48 123 16 C98.58 16 74.16 16 49 16 C49 27.88 49 39.76 49 52 C70.45 52 91.9 52 114 52 C114 57.28 114 62.56 114 68 C92.55 68 71.1 68 49 68 C49 80.87 49 93.74 49 107 C73.42 107 97.84 107 123 107 C123 99.74 123 92.48 123 85 C130.26 85 137.52 85 145 85 C145 97.54 145 110.08 145 123 C97.15 123 49.3 123 0 123 C0 117.72 0 112.44 0 107 C7.26 107 14.52 107 22 107 C22 76.97 22 46.94 22 16 C14.74 16 7.48 16 0 16 C0 10.72 0 5.44 0 0 Z " fill="#002E2A" transform="translate(808,159)"/>
<path d="M0 0 C1.20813354 0.14767822 1.20813354 0.14767822 2.44067383 0.29833984 C3.05193115 0.37777832 3.66318848 0.4572168 4.29296875 0.5390625 C4.29443396 1.42695665 4.29443396 1.42695665 4.29592878 2.33278805 C4.35419782 37.41351412 4.42799233 72.49417407 4.52195503 107.57482314 C4.53322323 111.78677959 4.54436167 115.99873636 4.55541992 120.21069336 C4.55762361 121.04921994 4.55982729 121.88774652 4.56209775 122.75168299 C4.5974724 136.3298832 4.62233559 149.90808336 4.64331577 163.48631258 C4.66507648 177.41830616 4.69812948 191.35023993 4.74167031 205.28218263 C4.76818237 213.87928902 4.78588102 222.47632087 4.79231479 231.07346611 C4.79757004 236.96844682 4.8137916 242.86333374 4.83863441 248.75826419 C4.85264477 252.15959967 4.86182199 255.56076727 4.85797691 258.96213341 C4.85632916 262.6514308 4.87298211 266.34020805 4.89424133 270.0294342 C4.88939376 271.10240079 4.88454618 272.17536737 4.87955171 273.28084809 C4.93533146 279.13674655 5.44885993 283.37688563 8.29296875 288.5390625 C11.66232835 291.36064576 16.03412774 290.85362428 20.23828125 290.8828125 C21.42258476 290.90345512 21.42258476 290.90345512 22.6308136 290.92451477 C24.33518553 290.9540827 26.03962757 290.97980728 27.74411011 291.00210571 C32.29610203 291.06502115 36.84718255 291.16735455 41.3984375 291.26953125 C42.32143143 291.28996994 43.24442535 291.31040863 44.19538879 291.33146667 C77.18062628 292.09962973 109.87739986 295.28979238 142.29296875 301.5390625 C143.24365234 301.71518066 144.19433594 301.89129883 145.17382812 302.07275391 C165.09993969 305.78001423 184.30590905 311.46784177 203.29296875 318.5390625 C203.65567192 323.97960998 203.65567192 323.97960998 202.15429688 326.29541016 C200.29296875 327.5390625 200.29296875 327.5390625 197.59179688 327.37646484 C196.51349609 327.12848145 195.43519531 326.88049805 194.32421875 326.625 C192.52283447 326.22728394 192.52283447 326.22728394 190.68505859 325.8215332 C189.40066895 325.52206787 188.1162793 325.22260254 186.79296875 324.9140625 C184.1306427 324.32402489 181.46553887 323.74690996 178.80078125 323.16796875 C178.14397369 323.02350815 177.48716614 322.87904755 176.81045532 322.73020935 C168.68610648 320.94876708 160.53672899 319.62099619 152.29296875 318.5390625 C151.34969727 318.4143457 150.40642578 318.28962891 149.43457031 318.16113281 C129.7747828 315.62942727 110.08071812 314.44740582 90.29296875 313.5390625 C89.04161133 313.47976563 87.79025391 313.42046875 86.50097656 313.359375 C73.25369506 312.75673669 60.03642318 312.50802067 46.77734375 312.55078125 C45.13029953 312.55534332 45.13029953 312.55534332 43.44998169 312.55999756 C37.9434296 312.57777667 32.4374714 312.60984228 26.93115234 312.66357422 C24.88769654 312.67566526 22.84423954 312.68755555 20.80078125 312.69921875 C19.8738446 312.71272873 18.94690796 312.72623871 17.99188232 312.74015808 C8.07662255 312.77759831 -0.08709647 311.22563178 -7.70703125 304.5390625 C-13.29524242 297.51433376 -14.00678101 289.77447869 -14.02587891 281.16870117 C-14.03591037 280.12300933 -14.04594183 279.07731749 -14.05627728 277.99993801 C-14.0873939 274.48564122 -14.1042948 270.9714236 -14.12109375 267.45703125 C-14.14015 264.92287645 -14.1599607 262.38872723 -14.1804657 259.85458374 C-14.2334247 252.9287051 -14.27301733 246.00281683 -14.30893326 239.07683182 C-14.33158645 234.73234678 -14.35777746 230.38788746 -14.38461304 226.04342651 C-14.48951287 208.92521901 -14.5738577 191.80697901 -14.64371967 174.68859386 C-14.67864808 166.14080816 -14.71555581 157.59304137 -14.75775146 149.04528809 C-14.85366055 129.55836401 -14.9360921 110.0715311 -14.98024368 90.58441257 C-14.98418798 88.85710712 -14.98814887 87.12980171 -14.99212646 85.40249634 C-14.99506002 84.12552203 -14.99506002 84.12552203 -14.99805284 82.82275027 C-15.01284206 76.80987663 -15.03762827 70.79709238 -15.06646729 64.78427124 C-15.10155265 57.42679313 -15.12242674 50.06944096 -15.12505871 42.71187687 C-15.12677303 38.93568341 -15.13496811 35.15979339 -15.16034508 31.38367844 C-15.18770609 27.27456894 -15.18392357 23.16607932 -15.17700195 19.05688477 C-15.18981516 17.85129001 -15.20262836 16.64569525 -15.21582985 15.40356731 C-15.16496057 7.32542431 -15.16496057 7.32542431 -12.84562683 3.34263611 C-8.71040044 -0.14478585 -5.22759725 -0.65642258 0 0 Z " fill="#002E2A" transform="translate(87.70703125,90.4609375)"/>
<path d="M0 0 C1.92276023 -0.06264349 3.84610948 -0.10738516 5.76953125 -0.14453125 C6.84050049 -0.17135986 7.91146973 -0.19818848 9.01489258 -0.22583008 C13.5618184 0.11815507 15.07210107 1.59730665 18 5 C19.27355371 8.82066112 19.12659917 12.39918056 19.10411072 16.37876892 C19.10275854 17.66469828 19.10275854 17.66469828 19.10137904 18.97660601 C19.09709446 21.83852175 19.08556015 24.70036105 19.07397461 27.56225586 C19.06931001 29.59553154 19.06505269 31.62880819 19.06117916 33.66208553 C19.0495399 39.03639885 19.03150005 44.41067101 19.01157522 49.78495932 C19.00039816 52.88940923 18.99070498 55.99385935 18.98167801 59.09831619 C18.93911702 73.73357008 18.8801279 88.36873091 18.81640625 103.00390625 C18.8065144 105.30059239 18.79663128 107.59727856 18.78675652 109.89396477 C18.74030068 120.66442997 18.69286091 131.43489028 18.64418942 142.20534569 C18.58874148 154.48422225 18.53690457 166.76310744 18.48800808 179.0420118 C18.44947153 188.65857836 18.40752685 198.27512655 18.36312145 207.89166778 C18.33691825 213.58386026 18.31207734 219.27604994 18.29092598 224.96826363 C18.2392055 238.64609624 18.15425272 252.32291971 18 266 C17.99209741 266.77946535 17.98419482 267.55893069 17.97605276 268.3620162 C17.92689273 273.07042472 17.84139016 277.77668366 17.73022461 282.48413086 C17.71732926 283.57031739 17.70443392 284.65650393 17.6911478 285.7756052 C17.46276937 293.14279492 15.94653644 298.63755086 11.03515625 304.2421875 C2.70281843 311.13905326 -4.56284023 312.16798733 -15.1640625 312.0625 C-17.00870703 312.05373605 -18.85335225 312.04511585 -20.69799805 312.03662109 C-21.6639389 312.03039734 -22.62987976 312.02417358 -23.62509155 312.01776123 C-44.76787042 311.89258349 -65.87469086 312.12367925 -87 313 C-87.70840027 313.02922546 -88.41680054 313.05845093 -89.14666748 313.08856201 C-125.05669105 314.60261286 -162.18531602 317.60272026 -197 327 C-199.29379749 323.55930376 -200 322.27709699 -200 318 C-167.71769892 306.75079034 -135.35744431 299.4997373 -101.41552734 295.29980469 C-99.2090064 295.02594096 -97.00502199 294.73682584 -94.80078125 294.4453125 C-75.72434411 292.02428283 -56.36636137 291.11365295 -37.1484375 290.7578125 C-35.78566177 290.73126335 -35.78566177 290.73126335 -34.39535522 290.70417786 C-29.92610186 290.61998622 -25.45768303 290.55463641 -20.98779297 290.51733398 C-19.35123103 290.49241253 -17.71467466 290.46712147 -16.078125 290.44140625 C-15.33372162 290.44137604 -14.58931824 290.44134583 -13.82235718 290.4413147 C-9.4061433 290.35603194 -6.33324112 290.0027574 -3 287 C-0.65128376 280.88675927 -0.70978298 275.01777811 -0.7215271 268.52833557 C-0.7128385 266.80427212 -0.7128385 266.80427212 -0.70397437 265.0453791 C-0.68698174 261.19762331 -0.68409844 257.34998753 -0.68115234 253.50219727 C-0.67295392 250.74257109 -0.66177205 247.98295889 -0.65071106 245.2233429 C-0.62846448 239.28391082 -0.61343557 233.3444959 -0.60334396 227.4050312 C-0.58874281 218.81762639 -0.56320196 210.23028135 -0.53501268 201.64291167 C-0.48957078 187.70962948 -0.45294522 173.77633868 -0.421875 159.84301758 C-0.3916788 146.31012458 -0.35732361 132.77725266 -0.31738281 119.24438477 C-0.31492126 118.40986507 -0.31245972 117.57534537 -0.30992357 116.7155372 C-0.29754876 112.52889148 -0.28509227 108.34224602 -0.27259517 104.15560067 C-0.16906634 69.43709604 -0.07985023 34.71856686 0 0 Z " fill="#002E2A" transform="translate(534,91)"/>
<path d="M0 0 C0.81914886 0.00054382 1.63829773 0.00108765 2.48226929 0.00164795 C44.7557114 0.1307114 44.7557114 0.1307114 56 11.375 C56.33 8.405 56.66 5.435 57 2.375 C64.92 2.375 72.84 2.375 81 2.375 C81 15.575 81 28.775 81 42.375 C77.16375 42.54 73.3275 42.705 69.375 42.875 C67.57748291 42.98424805 67.57748291 42.98424805 65.74365234 43.09570312 C58.02628325 43.25640065 58.02628325 43.25640065 55.01293945 40.66845703 C53.44921875 38.5390625 53.44921875 38.5390625 52.2253418 36.41259766 C46.72394151 27.26442336 32.83764632 23.08102683 23.3125 20 C4.81534215 15.42853212 -16.79783189 16.70351724 -33.66015625 25.90625 C-44.28915642 32.57821004 -52.60953819 41.20712018 -55.5546875 53.734375 C-57.32236534 64.21639446 -55.89898354 74.65261459 -50.52734375 83.9140625 C-40.77139064 97.33714692 -25.98484498 104.36323909 -10 107.375 C-5.88431207 107.77968747 -1.8210183 107.85376104 2.3125 107.8125 C3.40554443 107.80347656 4.49858887 107.79445313 5.62475586 107.78515625 C22.27130708 107.4301613 39.34580175 102.20850088 51.625 90.5 C55.85560233 85.89779071 59.10651759 80.90319811 62 75.375 C67.517155 76.0088479 72.26747809 77.88064309 77.375 79.9375 C78.20644531 80.26685547 79.03789063 80.59621094 79.89453125 80.93554688 C81.93184618 81.74344762 83.96684442 82.5567011 86 83.375 C81.63526167 97.70728981 71.55982629 107.34774189 58.73168945 114.55615234 C54.0167849 117.04389397 49.16609737 118.96621621 44.125 120.6875 C43.45533203 120.91783936 42.78566406 121.14817871 42.09570312 121.38549805 C28.63985381 125.67305527 15.28607459 126.92839436 1.25 126.8125 C0.07227524 126.80793793 0.07227524 126.80793793 -1.12924194 126.80328369 C-13.41080911 126.73308815 -25.20211377 126.08460098 -37 122.375 C-37.68239746 122.16069336 -38.36479492 121.94638672 -39.06787109 121.72558594 C-58.23323169 115.4152084 -73.48761976 103.07245161 -83 85.375 C-88.82429033 71.32031906 -88.29282037 55.3951846 -82.875 41.3125 C-75.2335158 24.29686947 -61.04266626 13.26094748 -43.9609375 6.57714844 C-29.44284177 1.33986961 -15.31518177 -0.03818622 0 0 Z " fill="#002E2A" transform="translate(1058,156.625)"/>
<path d="M0 0 C9.84957176 -0.04534633 19.69907317 -0.08197085 29.54872608 -0.10362434 C34.12326273 -0.11402161 38.69772369 -0.12810594 43.2722168 -0.15087891 C47.69426394 -0.17275294 52.11623869 -0.18459906 56.5383358 -0.18975449 C58.21786321 -0.19342428 59.89738707 -0.20058979 61.57688332 -0.21146011 C88.8014691 -0.38051602 88.8014691 -0.38051602 98.75 8.4375 C99.4925 9.283125 100.235 10.12875 101 11 C102.0828125 12.2065625 102.0828125 12.2065625 103.1875 13.4375 C107.80742299 19.96911526 107.72127956 27.2971042 107 35 C105.25002814 42.36538787 100.90670467 46.54129817 95 51 C96.64900785 55.50205317 98.82188322 59.59516037 101.1875 63.75 C101.54908203 64.43449219 101.91066406 65.11898437 102.28320312 65.82421875 C102.65767578 66.47519531 103.03214844 67.12617188 103.41796875 67.796875 C103.90946411 68.68391113 103.90946411 68.68391113 104.41088867 69.58886719 C106.53057481 71.73243126 106.53057481 71.73243126 113 72 C113 79.92 113 87.84 113 96 C101.12 96 89.24 96 77 96 C69.8125 82.5625 69.8125 82.5625 67.57739258 78.38110352 C66.64889165 76.6466061 65.71989012 74.91235645 64.78210449 73.18286133 C63.33704059 70.51637223 61.92577095 67.84720442 60.6003418 65.11889648 C58.41257065 60.41193837 58.41257065 60.41193837 54.10546875 57.90234375 C53.14253906 57.91394531 52.17960937 57.92554688 51.1875 57.9375 C49.475625 57.958125 47.76375 57.97875 46 58 C46 62.95 46 67.9 46 73 C48.31 73 50.62 73 53 73 C53 80.59 53 88.18 53 96 C35.51 96 18.02 96 0 96 C0 88.41 0 80.82 0 73 C2.64 73 5.28 73 8 73 C8 56.83 8 40.66 8 24 C5.36 24 2.72 24 0 24 C0 16.08 0 8.16 0 0 Z M46 22 C46 27.61 46 33.22 46 39 C49.8053125 38.87625 49.8053125 38.87625 53.6875 38.75 C54.47729248 38.73420898 55.26708496 38.71841797 56.08081055 38.70214844 C60.85366961 38.47282912 63.63114136 37.67511852 67 34 C67.77597959 32.03474875 67.77597959 32.03474875 67.625 30 C67.64433594 29.01 67.64433594 29.01 67.6640625 28 C66.58539206 24.75129843 64.91135027 23.72467932 62 22 C59.20078309 21.53918822 56.51418137 21.61966643 53.6875 21.75 C51.150625 21.8325 48.61375 21.915 46 22 Z " fill="#002E2A" transform="translate(1229,288)"/>
<path d="M0 0 C9.84957176 -0.04534633 19.69907317 -0.08197085 29.54872608 -0.10362434 C34.12326273 -0.11402161 38.69772369 -0.12810594 43.2722168 -0.15087891 C47.69426394 -0.17275294 52.11623869 -0.18459906 56.5383358 -0.18975449 C58.21786321 -0.19342428 59.89738707 -0.20058979 61.57688332 -0.21146011 C88.8014691 -0.38051602 88.8014691 -0.38051602 98.75 8.4375 C99.4925 9.283125 100.235 10.12875 101 11 C102.0828125 12.2065625 102.0828125 12.2065625 103.1875 13.4375 C107.80742299 19.96911526 107.72127956 27.2971042 107 35 C105.25002814 42.36538787 100.90670467 46.54129817 95 51 C96.64900785 55.50205317 98.82188322 59.59516037 101.1875 63.75 C101.54908203 64.43449219 101.91066406 65.11898437 102.28320312 65.82421875 C102.65767578 66.47519531 103.03214844 67.12617188 103.41796875 67.796875 C103.90946411 68.68391113 103.90946411 68.68391113 104.41088867 69.58886719 C106.53057481 71.73243126 106.53057481 71.73243126 113 72 C113 79.92 113 87.84 113 96 C101.12 96 89.24 96 77 96 C69.8125 82.5625 69.8125 82.5625 67.57739258 78.38110352 C66.64889165 76.6466061 65.71989012 74.91235645 64.78210449 73.18286133 C63.33704059 70.51637223 61.92577095 67.84720442 60.6003418 65.11889648 C58.41257065 60.41193837 58.41257065 60.41193837 54.10546875 57.90234375 C53.14253906 57.91394531 52.17960938 57.92554688 51.1875 57.9375 C49.475625 57.958125 47.76375 57.97875 46 58 C46 62.95 46 67.9 46 73 C48.31 73 50.62 73 53 73 C53 80.59 53 88.18 53 96 C35.51 96 18.02 96 0 96 C0 88.41 0 80.82 0 73 C2.64 73 5.28 73 8 73 C8 56.83 8 40.66 8 24 C5.36 24 2.72 24 0 24 C0 16.08 0 8.16 0 0 Z M46 22 C46 27.61 46 33.22 46 39 C49.8053125 38.87625 49.8053125 38.87625 53.6875 38.75 C54.47729248 38.73420898 55.26708496 38.71841797 56.08081055 38.70214844 C60.85366961 38.47282912 63.63114136 37.67511852 67 34 C67.77597959 32.03474875 67.77597959 32.03474875 67.625 30 C67.64433594 29.01 67.64433594 29.01 67.6640625 28 C66.58539206 24.75129843 64.91135027 23.72467932 62 22 C59.20078309 21.53918822 56.51418137 21.61966643 53.6875 21.75 C51.150625 21.8325 48.61375 21.915 46 22 Z " fill="#002E2A" transform="translate(661,288)"/>
<path d="M0 0 C8.36354702 -0.06822102 16.72687176 -0.12306971 25.09062386 -0.15543652 C28.97572427 -0.17098374 32.86062178 -0.19201728 36.74560547 -0.22631836 C40.5063255 -0.25930829 44.2668524 -0.27693489 48.02770615 -0.28463173 C49.45078439 -0.29010516 50.87385404 -0.30078934 52.2968483 -0.31719017 C69.04331186 -0.50223715 85.62963981 2.08426505 98.2578125 14.03125 C105.43970807 22.14711405 110.19937051 33.19150182 111 44 C111.0515625 44.63808594 111.103125 45.27617187 111.15625 45.93359375 C111.74544948 59.31333198 107.42356802 71.8718966 99.0625 82.1875 C90.47954364 91.27112881 78.72349503 95.57941937 66.40339661 96.17340088 C62.17101916 96.23067684 57.94337427 96.2254458 53.7109375 96.1953125 C52.15581445 96.19157474 50.60068901 96.18873138 49.04556274 96.18673706 C44.98497833 96.17916064 40.92454073 96.15956484 36.86401367 96.1373291 C32.70753972 96.11674039 28.55104167 96.1077077 24.39453125 96.09765625 C16.26294649 96.07631226 8.13150852 96.04118021 0 96 C0 88.41 0 80.82 0 73 C2.31 73 4.62 73 7 73 C7 56.5 7 40 7 23 C4.69 23 2.38 23 0 23 C0 15.41 0 7.82 0 0 Z M46 24 C46 40.17 46 56.34 46 73 C56.21655037 72.54459765 56.21655037 72.54459765 64 68 C69.90132921 59.21117026 70.33011567 48.43607971 68.50390625 38.2265625 C66.76490347 32.46918606 64.00968978 27.891805 58.8125 24.625 C54.85320617 23.63844924 54.85320617 23.63844924 46 24 Z " fill="#002E2A" transform="translate(998,288)"/>
<path d="M0 0 C46.53 0 93.06 0 141 0 C141 15.51 141 31.02 141 47 C133.74 47 126.48 47 119 47 C119 36.77 119 26.54 119 16 C107.45 16 95.9 16 84 16 C84 46.03 84 76.06 84 107 C91.59 107 99.18 107 107 107 C107 112.28 107 117.56 107 123 C83.24 123 59.48 123 35 123 C35 117.72 35 112.44 35 107 C42.26 107 49.52 107 57 107 C57 76.97 57 46.94 57 16 C45.45 16 33.9 16 22 16 C22 26.23 22 36.46 22 47 C14.74 47 7.48 47 0 47 C0 31.49 0 15.98 0 0 Z " fill="#002E2A" transform="translate(658,159)"/>
<path d="M0 0 C30.69 0 61.38 0 93 0 C93 10.23 93 20.46 93 31 C84.42 31 75.84 31 67 31 C67 28.69 67 26.38 67 24 C60.07 24 53.14 24 46 24 C46 28.29 46 32.58 46 37 C52.27 37 58.54 37 65 37 C65 43.93 65 50.86 65 58 C58.73 58 52.46 58 46 58 C46 62.95 46 67.9 46 73 C52.93 73 59.86 73 67 73 C67 70.36 67 67.72 67 65 C75.58 65 84.16 65 93 65 C93 75.23 93 85.46 93 96 C62.31 96 31.62 96 0 96 C0 88.41 0 80.82 0 73 C2.31 73 4.62 73 7 73 C7 56.83 7 40.66 7 24 C4.69 24 2.38 24 0 24 C0 16.08 0 8.16 0 0 Z " fill="#002E2A" transform="translate(1122,288)"/>
<path d="M0 0 C30.69 0 61.38 0 93 0 C93 10.23 93 20.46 93 31 C84.42 31 75.84 31 67 31 C67 28.69 67 26.38 67 24 C60.07 24 53.14 24 46 24 C46 28.29 46 32.58 46 37 C52.27 37 58.54 37 65 37 C65 43.93 65 50.86 65 58 C58.73 58 52.46 58 46 58 C46 62.95 46 67.9 46 73 C52.93 73 59.86 73 67 73 C67 70.36 67 67.72 67 65 C75.58 65 84.16 65 93 65 C93 75.23 93 85.46 93 96 C62.31 96 31.62 96 0 96 C0 88.41 0 80.82 0 73 C2.31 73 4.62 73 7 73 C7 56.83 7 40.66 7 24 C4.69 24 2.38 24 0 24 C0 16.08 0 8.16 0 0 Z " fill="#002E2A" transform="translate(782,288)"/>
<path d="M0 0 C23.1 0 46.2 0 70 0 C70 7.92 70 15.84 70 24 C67.69 24 65.38 24 63 24 C63.37769531 24.95132812 63.75539063 25.90265625 64.14453125 26.8828125 C70.03223901 41.82220875 75.50667712 56.91238948 81 72 C83.31 72.33 85.62 72.66 88 73 C88 80.59 88 88.18 88 96 C71.17 96 54.34 96 37 96 C37 89.07 37 82.14 37 75 C39.31 74.67 41.62 74.34 44 74 C43.01 69.05 43.01 69.05 42 64 C33.75 64 25.5 64 17 64 C16.67 65.98 16.34 67.96 16 70 C15.37774395 71.68375165 14.72455635 73.35767228 14 75 C16.31 75 18.62 75 21 75 C21 81.93 21 88.86 21 96 C8.13 96 -4.74 96 -18 96 C-18 88.41 -18 80.82 -18 73 C-14.535 72.505 -14.535 72.505 -11 72 C-5.39 56.49 0.22 40.98 6 25 C4.02 24.67 2.04 24.34 0 24 C0 16.08 0 8.16 0 0 Z M29 27 C27.82599412 30.43503772 26.66206791 33.87340714 25.5 37.3125 C25.16613281 38.28896484 24.83226562 39.26542969 24.48828125 40.27148438 C24.17246094 41.20927734 23.85664062 42.14707031 23.53125 43.11328125 C23.23798828 43.97735596 22.94472656 44.84143066 22.64257812 45.73168945 C21.86372028 48.08814103 21.86372028 48.08814103 22 51 C26.95 51 31.9 51 37 51 C35.60058475 43.18659816 33.86598798 35.42246105 31 28 C30.34 27.67 29.68 27.34 29 27 Z " fill="#002E2A" transform="translate(902,288)"/>
<path d="M0 0 C2.81005071 2.27841949 3.84898818 3.54696453 5 7 C5.09684899 9.58622425 5.13638668 12.14515534 5.12939453 14.73144531 C5.13198902 15.93402544 5.13198902 15.93402544 5.13463593 17.16090012 C5.13904764 19.88332841 5.13600861 22.60569566 5.1328125 25.328125 C5.13383306 27.31103534 5.1351753 29.29394554 5.1368103 31.27685547 C5.13956486 36.77373781 5.13493581 42.27059279 5.12857056 47.76747131 C5.12500529 51.24484339 5.12337945 54.72221129 5.12231445 58.19958496 C5.0952559 130.13400875 4.51496698 202.06776711 4 274 C2.68 273.67 1.36 273.34 0 273 C-0.33 271.02 -0.66 269.04 -1 267 C-4.41656024 266.83322718 -4.41656024 266.83322718 -8 267 C-10.46278801 269.46278801 -10.99771255 271.70676982 -12 275 C-12.99 275 -13.98 275 -15 275 C-15.2128437 212.53302744 -14.68833157 150.07149436 -14.09721088 87.60794353 C-14.01620371 78.96191793 -13.94601991 70.31584965 -13.88109493 61.66969013 C-13.8285329 54.751186 -13.76620304 47.83283023 -13.69350529 40.91450787 C-13.65413566 37.15197036 -13.61918224 33.38954131 -13.59671021 29.62686157 C-13.57267609 25.63772867 -13.52607178 21.64905927 -13.4765625 17.66015625 C-13.47334488 16.52692932 -13.47012726 15.39370239 -13.46681213 14.22613525 C-13.45021042 13.20026306 -13.4336087 12.17439087 -13.41650391 11.11743164 C-13.40841705 10.24123672 -13.4003302 9.36504181 -13.39199829 8.46229553 C-12.79609261 4.71917743 -11.21229273 1.91967035 -8.1875 -0.375 C-5.08685996 -1.26089715 -3.08383471 -0.89945179 0 0 Z " fill="#002E2A" transform="translate(318,133)"/>
<path d="M0 0 C5.92012586 3.52038077 10.23377129 8.52767156 12.41796875 15.08984375 C13.28898422 22.43270676 13.03433716 29.09372277 8.41796875 35.08984375 C3.02468465 40.88475539 -1.88966385 44.00781845 -9.89453125 44.46484375 C-16.27446766 44.26145652 -21.22023558 42.30377742 -25.890625 37.92578125 C-32.05190622 31.1824182 -32.99547565 26.72963961 -32.9296875 17.61328125 C-32.44206327 12.67129182 -30.82240544 9.75634934 -27.58203125 6.08984375 C-26.75703125 5.14109375 -25.93203125 4.19234375 -25.08203125 3.21484375 C-18.54223298 -2.34398478 -7.96174904 -2.80648642 0 0 Z " fill="#002E2A" transform="translate(322.58203125,0.91015625)"/>
<path d="M0 0 C4.48135001 3.05727656 6.63156792 6.97753933 7.7578125 12.19921875 C7.86073893 17.90591772 6.41764997 21.72608407 2.7578125 26.19921875 C-0.6469529 29.42478597 -3.64811705 31.18852325 -8.2421875 32.19921875 C-11.82008538 31.89600707 -14.84039514 31.33314954 -18.2421875 30.19921875 C-18.5721875 30.85921875 -18.9021875 31.51921875 -19.2421875 32.19921875 C-19.9021875 32.19921875 -20.5621875 32.19921875 -21.2421875 32.19921875 C-21.5103125 31.29171875 -21.7784375 30.38421875 -22.0546875 29.44921875 C-23.15389369 26.44086497 -24.32827023 24.69563258 -26.2421875 22.19921875 C-28.18149143 17.26280875 -27.88891635 11.84837731 -25.9921875 7.01171875 C-21.50655532 -0.19733297 -21.50655532 -0.19733297 -17.4921875 -2.11328125 C-10.72464651 -3.54487646 -6.02125642 -3.36481976 0 0 Z " fill="#002E2A" transform="translate(323.2421875,420.80078125)"/>
<path d="M0 0 C3.80563279 2.83124372 5.83757483 6.12334015 6.6640625 10.80078125 C6.81864066 16.66772504 6.82633023 20.81157123 2.9375 25.4375 C-1.29575854 29.45106848 -4.52015337 30.80140925 -10.3125 31.0625 C-16.16453367 30.89751729 -19.5159364 29.13995141 -23.625 24.9375 C-27.22366717 19.83938817 -28.42475675 15.81405218 -27.41015625 9.703125 C-26.13564567 5.05162653 -23.61920541 2.32365834 -19.875 -0.5625 C-13.39934514 -4.20505586 -6.27112606 -4.23400867 0 0 Z " fill="#002E2A" transform="translate(621.875,241.25)"/>
<path d="M0 0 C4.25005211 3.65702158 6.30033676 6.71222529 7.625 12.1875 C7.96218403 16.71787006 7.05591807 20.43181499 4.6875 24.3125 C1.23214816 28.06938019 -2.11284001 30.9955813 -7.36328125 31.515625 C-14.20932029 31.65751182 -18.62163309 30.19634468 -23.6875 25.4375 C-27.15841608 21.13319774 -27.09462916 16.77267546 -26.8359375 11.4140625 C-25.87304939 5.70859117 -23.31287905 2.77619199 -18.75 -0.5625 C-12.36575445 -3.50907487 -6.25334003 -3.18566379 0 0 Z " fill="#002E2A" transform="translate(26.3125,240.6875)"/>
<path d="M0 0 C3.93997533 3.48183866 6.20679581 6.62105915 7.10546875 11.76953125 C7.4180917 17.27000537 6.46843147 21.19914524 3.23046875 25.6796875 C0.10555344 29.11313876 -2.92858177 31.01304383 -7.55078125 31.71484375 C-13.36839592 31.95928134 -17.48974013 30.82006665 -21.9765625 26.93359375 C-25.70375787 23.12690843 -27.19440979 19.90427066 -27.40234375 14.5703125 C-27.16218928 8.70219031 -25.76382785 5.45811944 -21.5 1.5 C-15.18027569 -3.9518318 -7.23908948 -3.55125144 0 0 Z " fill="#002E2A" transform="translate(241.3125,23.625)"/>
<path d="M0 0 C4.09252306 3.52147333 6.6592011 6.88212032 7.5625 12.25 C7.85334306 16.38468778 7.42852771 19.48223903 5.6875 23.3125 C1.21663924 28.13987336 -2.7616969 31.3774188 -9.5 31.6875 C-14.82546341 31.60943946 -18.3645716 29.82375009 -22.3125 26.3125 C-26.17314989 22.02772238 -27.0077309 17.48469546 -26.765625 11.8125 C-25.79425493 6.45321683 -23.04110925 2.61949724 -18.75 -0.625 C-12.30335666 -3.4350753 -6.2820665 -3.20029803 0 0 Z " fill="#002E2A" transform="translate(403.3125,23.6875)"/>
</svg>
